%TF.GenerationSoftware,KiCad,Pcbnew,10.0.1*%
%TF.CreationDate,2026-06-19T22:58:41+02:00*%
%TF.ProjectId,esc,6573632e-6b69-4636-9164-5f7063625858,rev?*%
%TF.SameCoordinates,Original*%
%TF.FileFunction,Legend,Top*%
%TF.FilePolarity,Positive*%
%FSLAX46Y46*%
G04 Gerber Fmt 4.6, Leading zero omitted, Abs format (unit mm)*
G04 Created by KiCad (PCBNEW 10.0.1) date 2026-06-19 22:58:41*
%MOMM*%
%LPD*%
G01*
G04 APERTURE LIST*
%ADD10C,0.120000*%
G04 APERTURE END LIST*
%TO.C,R47*%
D10*
X137753641Y-61653000D02*
X137446359Y-61653000D01*
X137753641Y-62413000D02*
X137446359Y-62413000D01*
%TO.C,R63*%
X140640000Y-54809359D02*
X140640000Y-55116641D01*
X141400000Y-54809359D02*
X141400000Y-55116641D01*
%TO.C,C33*%
X145652164Y-56643000D02*
X145867836Y-56643000D01*
X145652164Y-57363000D02*
X145867836Y-57363000D01*
%TO.C,R54*%
X144796359Y-52660000D02*
X145103641Y-52660000D01*
X144796359Y-53420000D02*
X145103641Y-53420000D01*
%TO.C,J11*%
X134660000Y-64873000D02*
G75*
G02*
X133260000Y-64873000I-700000J0D01*
G01*
X133260000Y-64873000D02*
G75*
G02*
X134660000Y-64873000I700000J0D01*
G01*
%TO.C,C50*%
X132127836Y-55983000D02*
X131912164Y-55983000D01*
X132127836Y-56703000D02*
X131912164Y-56703000D01*
%TO.C,R64*%
X135650000Y-62316641D02*
X135650000Y-62009359D01*
X136410000Y-62316641D02*
X136410000Y-62009359D01*
%TO.C,R67*%
X128400000Y-63419359D02*
X128400000Y-63726641D01*
X129160000Y-63419359D02*
X129160000Y-63726641D01*
%TO.C,R45*%
X139240000Y-56979359D02*
X139240000Y-57286641D01*
X140000000Y-56979359D02*
X140000000Y-57286641D01*
%TO.C,J26*%
X142044920Y-53319911D02*
X142789920Y-53319911D01*
X142044920Y-54054911D02*
X142044920Y-53319911D01*
X142044920Y-54789911D02*
X142044920Y-55664911D01*
X142044920Y-54789911D02*
X142104355Y-54789911D01*
X142044920Y-55664911D02*
X142379890Y-55664911D01*
X143199950Y-55664911D02*
X143534920Y-55664911D01*
X143475485Y-54789911D02*
X143534920Y-54789911D01*
X143534920Y-54789911D02*
X143534920Y-55664911D01*
%TO.C,R71*%
X136673641Y-58743000D02*
X136366359Y-58743000D01*
X136673641Y-59503000D02*
X136366359Y-59503000D01*
%TO.C,C36*%
X142752164Y-56323000D02*
X142967836Y-56323000D01*
X142752164Y-57043000D02*
X142967836Y-57043000D01*
%TO.C,R74*%
X128340000Y-55816641D02*
X128340000Y-55509359D01*
X129100000Y-55816641D02*
X129100000Y-55509359D01*
%TO.C,U13*%
X129810000Y-57865500D02*
X130285000Y-57865500D01*
X129810000Y-58340500D02*
X129810000Y-57865500D01*
X129810000Y-62610500D02*
X129810000Y-63085500D01*
X129810000Y-63085500D02*
X130285000Y-63085500D01*
X134555000Y-57865500D02*
X134790000Y-57865500D01*
X135030000Y-58340500D02*
X135030000Y-58165500D01*
X135030000Y-62610500D02*
X135030000Y-63085500D01*
X135030000Y-63085500D02*
X134555000Y-63085500D01*
X135360000Y-58105500D02*
X135030000Y-57865500D01*
X135360000Y-57625500D01*
X135360000Y-58105500D01*
G36*
X135360000Y-58105500D02*
G01*
X135030000Y-57865500D01*
X135360000Y-57625500D01*
X135360000Y-58105500D01*
G37*
%TO.C,C45*%
X137188748Y-56378000D02*
X137711252Y-56378000D01*
X137188748Y-57848000D02*
X137711252Y-57848000D01*
%TO.C,R66*%
X128340000Y-53639359D02*
X128340000Y-53946641D01*
X129100000Y-53639359D02*
X129100000Y-53946641D01*
%TO.C,R83*%
X136783641Y-55243000D02*
X136476359Y-55243000D01*
X136783641Y-56003000D02*
X136476359Y-56003000D01*
%TO.C,C44*%
X139287836Y-55243000D02*
X139072164Y-55243000D01*
X139287836Y-55963000D02*
X139072164Y-55963000D01*
%TO.C,J25*%
X134374920Y-54316702D02*
X134374920Y-53441702D01*
X134434355Y-54316702D02*
X134374920Y-54316702D01*
X134709890Y-53441702D02*
X134374920Y-53441702D01*
X135864920Y-53441702D02*
X135529950Y-53441702D01*
X135864920Y-54316702D02*
X135805485Y-54316702D01*
X135864920Y-54316702D02*
X135864920Y-53441702D01*
X135864920Y-55051702D02*
X135864920Y-55786702D01*
X135864920Y-55786702D02*
X135119920Y-55786702D01*
%TO.C,J14*%
X143534919Y-55824737D02*
X143534919Y-55064737D01*
X143659919Y-53304737D02*
X148879919Y-53304737D01*
X143659919Y-53654707D02*
X143659919Y-53304737D01*
X144269919Y-55824737D02*
X143534919Y-55824737D01*
X145004919Y-55824737D02*
X145004919Y-55750302D01*
X145004919Y-55824737D02*
X148879919Y-55824737D01*
X148879919Y-53654707D02*
X148879919Y-53304737D01*
X148879919Y-54654707D02*
X148879919Y-54474767D01*
X148879919Y-55824737D02*
X148879919Y-55474767D01*
%TO.C,R44*%
X147243641Y-60913000D02*
X146936359Y-60913000D01*
X147243641Y-61673000D02*
X146936359Y-61673000D01*
%TO.C,R70*%
X128340000Y-57676641D02*
X128340000Y-57369359D01*
X129100000Y-57676641D02*
X129100000Y-57369359D01*
%TO.C,R72*%
X145460000Y-58439359D02*
X145460000Y-58746641D01*
X146220000Y-58439359D02*
X146220000Y-58746641D01*
%TO.C,C37*%
X143870000Y-56900836D02*
X143870000Y-56685164D01*
X144590000Y-56900836D02*
X144590000Y-56685164D01*
%TO.C,R69*%
X130446359Y-52623000D02*
X130753641Y-52623000D01*
X130446359Y-53383000D02*
X130753641Y-53383000D01*
%TO.C,R46*%
X143213641Y-52570000D02*
X142906359Y-52570000D01*
X143213641Y-53330000D02*
X142906359Y-53330000D01*
%TO.C,R50*%
X137743641Y-60703000D02*
X137436359Y-60703000D01*
X137743641Y-61463000D02*
X137436359Y-61463000D01*
%TO.C,C32*%
X138830000Y-64475164D02*
X138830000Y-64690836D01*
X139550000Y-64475164D02*
X139550000Y-64690836D01*
%TO.C,C47*%
X130412164Y-64193000D02*
X130627836Y-64193000D01*
X130412164Y-64913000D02*
X130627836Y-64913000D01*
%TO.C,R75*%
X128400000Y-59536641D02*
X128400000Y-59229359D01*
X129160000Y-59536641D02*
X129160000Y-59229359D01*
%TO.C,J13*%
X129024920Y-55813001D02*
X129024920Y-55053001D01*
X129149920Y-53293001D02*
X134369920Y-53293001D01*
X129149920Y-53642971D02*
X129149920Y-53293001D01*
X129759920Y-55813001D02*
X129024920Y-55813001D01*
X130494920Y-55813001D02*
X130494920Y-55738566D01*
X130494920Y-55813001D02*
X134369920Y-55813001D01*
X134369920Y-53642971D02*
X134369920Y-53293001D01*
X134369920Y-54642971D02*
X134369920Y-54463031D01*
X134369920Y-55813001D02*
X134369920Y-55463031D01*
%TO.C,C46*%
X137790000Y-64265164D02*
X137790000Y-64480836D01*
X138510000Y-64265164D02*
X138510000Y-64480836D01*
%TO.C,R48*%
X140866359Y-56303000D02*
X141173641Y-56303000D01*
X140866359Y-57063000D02*
X141173641Y-57063000D01*
%TO.C,C49*%
X147830580Y-62053000D02*
X147549420Y-62053000D01*
X147830580Y-63073000D02*
X147549420Y-63073000D01*
%TO.C,J12*%
X137380000Y-64623000D02*
G75*
G02*
X135980000Y-64623000I-700000J0D01*
G01*
X135980000Y-64623000D02*
G75*
G02*
X137380000Y-64623000I700000J0D01*
G01*
%TO.C,J9*%
X144050000Y-64863000D02*
G75*
G02*
X142650000Y-64863000I-700000J0D01*
G01*
X142650000Y-64863000D02*
G75*
G02*
X144050000Y-64863000I700000J0D01*
G01*
%TO.C,J10*%
X147450000Y-64393000D02*
G75*
G02*
X146050000Y-64393000I-700000J0D01*
G01*
X146050000Y-64393000D02*
G75*
G02*
X147450000Y-64393000I700000J0D01*
G01*
%TO.C,R68*%
X129996359Y-56333000D02*
X130303641Y-56333000D01*
X129996359Y-57093000D02*
X130303641Y-57093000D01*
%TO.C,R49*%
X146686359Y-52583000D02*
X146993641Y-52583000D01*
X146686359Y-53343000D02*
X146993641Y-53343000D01*
%TO.C,U6*%
X139780000Y-52663000D02*
X137780000Y-52663000D01*
X139790000Y-54943000D02*
X137790000Y-54943000D01*
X140150000Y-55153000D02*
X140150000Y-54873000D01*
X140430000Y-54873000D01*
X140150000Y-55153000D01*
G36*
X140150000Y-55153000D02*
G01*
X140150000Y-54873000D01*
X140430000Y-54873000D01*
X140150000Y-55153000D01*
G37*
%TO.C,C51*%
X133722164Y-56303000D02*
X133937836Y-56303000D01*
X133722164Y-57023000D02*
X133937836Y-57023000D01*
%TO.C,U10*%
X139610000Y-58223000D02*
X140085000Y-58223000D01*
X139610000Y-58698000D02*
X139610000Y-58223000D01*
X139610000Y-62968000D02*
X139610000Y-63443000D01*
X139610000Y-63443000D02*
X140085000Y-63443000D01*
X144355000Y-58223000D02*
X144590000Y-58223000D01*
X144830000Y-58698000D02*
X144830000Y-58523000D01*
X144830000Y-62968000D02*
X144830000Y-63443000D01*
X144830000Y-63443000D02*
X144355000Y-63443000D01*
X145160000Y-58463000D02*
X144830000Y-58223000D01*
X145160000Y-57983000D01*
X145160000Y-58463000D01*
G36*
X145160000Y-58463000D02*
G01*
X144830000Y-58223000D01*
X145160000Y-57983000D01*
X145160000Y-58463000D01*
G37*
%TD*%
M02*
