%TF.GenerationSoftware,KiCad,Pcbnew,10.0.1*%
%TF.CreationDate,2026-06-19T22:58:41+02:00*%
%TF.ProjectId,esc,6573632e-6b69-4636-9164-5f7063625858,rev?*%
%TF.SameCoordinates,Original*%
%TF.FileFunction,Copper,L1,Top*%
%TF.FilePolarity,Positive*%
%FSLAX46Y46*%
G04 Gerber Fmt 4.6, Leading zero omitted, Abs format (unit mm)*
G04 Created by KiCad (PCBNEW 10.0.1) date 2026-06-19 22:58:41*
%MOMM*%
%LPD*%
G01*
G04 APERTURE LIST*
G04 Aperture macros list*
%AMRoundRect*
0 Rectangle with rounded corners*
0 $1 Rounding radius*
0 $2 $3 $4 $5 $6 $7 $8 $9 X,Y pos of 4 corners*
0 Add a 4 corners polygon primitive as box body*
4,1,4,$2,$3,$4,$5,$6,$7,$8,$9,$2,$3,0*
0 Add four circle primitives for the rounded corners*
1,1,$1+$1,$2,$3*
1,1,$1+$1,$4,$5*
1,1,$1+$1,$6,$7*
1,1,$1+$1,$8,$9*
0 Add four rect primitives between the rounded corners*
20,1,$1+$1,$2,$3,$4,$5,0*
20,1,$1+$1,$4,$5,$6,$7,0*
20,1,$1+$1,$6,$7,$8,$9,0*
20,1,$1+$1,$8,$9,$2,$3,0*%
G04 Aperture macros list end*
%TA.AperFunction,SMDPad,CuDef*%
%ADD10RoundRect,0.135000X0.135000X0.185000X-0.135000X0.185000X-0.135000X-0.185000X0.135000X-0.185000X0*%
%TD*%
%TA.AperFunction,SMDPad,CuDef*%
%ADD11RoundRect,0.135000X-0.185000X0.135000X-0.185000X-0.135000X0.185000X-0.135000X0.185000X0.135000X0*%
%TD*%
%TA.AperFunction,SMDPad,CuDef*%
%ADD12RoundRect,0.140000X-0.140000X-0.170000X0.140000X-0.170000X0.140000X0.170000X-0.140000X0.170000X0*%
%TD*%
%TA.AperFunction,SMDPad,CuDef*%
%ADD13RoundRect,0.135000X-0.135000X-0.185000X0.135000X-0.185000X0.135000X0.185000X-0.135000X0.185000X0*%
%TD*%
%TA.AperFunction,SMDPad,CuDef*%
%ADD14C,1.000000*%
%TD*%
%TA.AperFunction,SMDPad,CuDef*%
%ADD15RoundRect,0.140000X0.140000X0.170000X-0.140000X0.170000X-0.140000X-0.170000X0.140000X-0.170000X0*%
%TD*%
%TA.AperFunction,SMDPad,CuDef*%
%ADD16RoundRect,0.135000X0.185000X-0.135000X0.185000X0.135000X-0.185000X0.135000X-0.185000X-0.135000X0*%
%TD*%
%TA.AperFunction,ComponentPad*%
%ADD17R,0.850000X0.850000*%
%TD*%
%TA.AperFunction,ComponentPad*%
%ADD18C,0.850000*%
%TD*%
%TA.AperFunction,SMDPad,CuDef*%
%ADD19RoundRect,0.062500X-0.062500X0.375000X-0.062500X-0.375000X0.062500X-0.375000X0.062500X0.375000X0*%
%TD*%
%TA.AperFunction,SMDPad,CuDef*%
%ADD20RoundRect,0.062500X-0.375000X0.062500X-0.375000X-0.062500X0.375000X-0.062500X0.375000X0.062500X0*%
%TD*%
%TA.AperFunction,HeatsinkPad*%
%ADD21R,3.450000X3.450000*%
%TD*%
%TA.AperFunction,SMDPad,CuDef*%
%ADD22RoundRect,0.250000X-0.250000X-0.475000X0.250000X-0.475000X0.250000X0.475000X-0.250000X0.475000X0*%
%TD*%
%TA.AperFunction,SMDPad,CuDef*%
%ADD23RoundRect,0.140000X0.170000X-0.140000X0.170000X0.140000X-0.170000X0.140000X-0.170000X-0.140000X0*%
%TD*%
%TA.AperFunction,SMDPad,CuDef*%
%ADD24RoundRect,0.140000X-0.170000X0.140000X-0.170000X-0.140000X0.170000X-0.140000X0.170000X0.140000X0*%
%TD*%
%TA.AperFunction,SMDPad,CuDef*%
%ADD25RoundRect,0.225000X0.225000X0.250000X-0.225000X0.250000X-0.225000X-0.250000X0.225000X-0.250000X0*%
%TD*%
%TA.AperFunction,SMDPad,CuDef*%
%ADD26RoundRect,0.062500X0.187500X0.062500X-0.187500X0.062500X-0.187500X-0.062500X0.187500X-0.062500X0*%
%TD*%
%TA.AperFunction,SMDPad,CuDef*%
%ADD27R,0.900000X1.600000*%
%TD*%
%TA.AperFunction,ViaPad*%
%ADD28C,0.600000*%
%TD*%
%TA.AperFunction,ViaPad*%
%ADD29C,0.450000*%
%TD*%
%TA.AperFunction,Conductor*%
%ADD30C,0.254000*%
%TD*%
%TA.AperFunction,Conductor*%
%ADD31C,0.127000*%
%TD*%
%TA.AperFunction,Conductor*%
%ADD32C,0.100000*%
%TD*%
G04 APERTURE END LIST*
D10*
%TO.P,R47,1*%
%TO.N,/bottom/BEMF_C3*%
X138110000Y-62033000D03*
%TO.P,R47,2*%
%TO.N,/bottom/BEMF_COMMON3*%
X137090000Y-62033000D03*
%TD*%
D11*
%TO.P,R63,1*%
%TO.N,Net-(R63-Pad1)*%
X141020000Y-54453000D03*
%TO.P,R63,2*%
%TO.N,/bottom/CURR3*%
X141020000Y-55473000D03*
%TD*%
D12*
%TO.P,C33,1*%
%TO.N,VCC*%
X145280000Y-57003000D03*
%TO.P,C33,2*%
%TO.N,GND*%
X146240000Y-57003000D03*
%TD*%
D13*
%TO.P,R54,1*%
%TO.N,GND*%
X144440000Y-53040000D03*
%TO.P,R54,2*%
%TO.N,/bottom/BEMF_B3*%
X145460000Y-53040000D03*
%TD*%
D14*
%TO.P,J11,1,Pin_1_1*%
%TO.N,/bottom/SWDIO4*%
X133960000Y-64873000D03*
%TD*%
D15*
%TO.P,C50,1*%
%TO.N,VCC*%
X132500000Y-56343000D03*
%TO.P,C50,2*%
%TO.N,GND*%
X131540000Y-56343000D03*
%TD*%
D16*
%TO.P,R64,1*%
%TO.N,/bottom/SIG_IN4*%
X136030000Y-62673000D03*
%TO.P,R64,2*%
%TO.N,Net-(U13-PB4)*%
X136030000Y-61653000D03*
%TD*%
D11*
%TO.P,R67,1*%
%TO.N,/bottom/BEMF_C4*%
X128780000Y-63063000D03*
%TO.P,R67,2*%
%TO.N,/bottom/BEMF_COMMON4*%
X128780000Y-64083000D03*
%TD*%
%TO.P,R45,1*%
%TO.N,/bottom/BEMF_A3*%
X139620000Y-56623000D03*
%TO.P,R45,2*%
%TO.N,/bottom/BEMF_COMMON3*%
X139620000Y-57643000D03*
%TD*%
D17*
%TO.P,J26,1,Pin_1_1*%
%TO.N,/bottom/curr3+*%
X142789920Y-54054911D03*
D18*
%TO.P,J26,2,Pin_2_2*%
%TO.N,/bottom/curr3-*%
X142789920Y-55054911D03*
%TD*%
D10*
%TO.P,R71,1*%
%TO.N,GND*%
X137030000Y-59123000D03*
%TO.P,R71,2*%
%TO.N,Net-(U13-PH3)*%
X136010000Y-59123000D03*
%TD*%
D12*
%TO.P,C36,1*%
%TO.N,VCC*%
X142380000Y-56683000D03*
%TO.P,C36,2*%
%TO.N,GND*%
X143340000Y-56683000D03*
%TD*%
D16*
%TO.P,R74,1*%
%TO.N,GND*%
X128720000Y-56173000D03*
%TO.P,R74,2*%
%TO.N,/bottom/BEMF_B4*%
X128720000Y-55153000D03*
%TD*%
D19*
%TO.P,U13,1,VDD_1*%
%TO.N,VCC*%
X134170000Y-58038000D03*
%TO.P,U13,2,PC14_2*%
%TO.N,unconnected-(U13-PC14-Pad2)*%
X133670000Y-58038000D03*
%TO.P,U13,3,PC15_3*%
%TO.N,unconnected-(U13-PC15-Pad3)*%
X133170000Y-58038000D03*
%TO.P,U13,4,NRST_4*%
%TO.N,Net-(U13-NRST)*%
X132670000Y-58038000D03*
%TO.P,U13,5,VDDA_5*%
%TO.N,VCC*%
X132170000Y-58038000D03*
%TO.P,U13,6,PA0_6*%
%TO.N,/bottom/BEMF_A4*%
X131670000Y-58038000D03*
%TO.P,U13,7,PA1_7*%
%TO.N,/bottom/BEMF_COMMON4*%
X131170000Y-58038000D03*
%TO.P,U13,8,PA2_8*%
%TO.N,unconnected-(U13-PA2-Pad8)*%
X130670000Y-58038000D03*
D20*
%TO.P,U13,9,PA3_9*%
%TO.N,/bottom/CURR4*%
X129982500Y-58725500D03*
%TO.P,U13,10,PA4_10*%
%TO.N,/bottom/BEMF_B4*%
X129982500Y-59225500D03*
%TO.P,U13,11,PA5_11*%
%TO.N,/bottom/BEMF_C4*%
X129982500Y-59725500D03*
%TO.P,U13,12,PA6_12*%
%TO.N,/bottom/V_SENS*%
X129982500Y-60225500D03*
%TO.P,U13,13,PA7_13*%
%TO.N,/bottom/C_LOW4*%
X129982500Y-60725500D03*
%TO.P,U13,14,PB0_14*%
%TO.N,/bottom/B_LOW4*%
X129982500Y-61225500D03*
%TO.P,U13,15,PB1_15*%
%TO.N,/bottom/A_LOW4*%
X129982500Y-61725500D03*
%TO.P,U13,16,VSS_16*%
%TO.N,GND*%
X129982500Y-62225500D03*
D19*
%TO.P,U13,17,VDD_17*%
%TO.N,VCC*%
X130670000Y-62913000D03*
%TO.P,U13,18,PA8_18*%
%TO.N,/bottom/C_HIGH4*%
X131170000Y-62913000D03*
%TO.P,U13,19,PA9_19*%
%TO.N,/bottom/B_HIGH4*%
X131670000Y-62913000D03*
%TO.P,U13,20,PA10_20*%
%TO.N,/bottom/A_HIGH4*%
X132170000Y-62913000D03*
%TO.P,U13,21,PA11_21*%
%TO.N,unconnected-(U13-PA11-Pad21)*%
X132670000Y-62913000D03*
%TO.P,U13,22,PA12_22*%
%TO.N,unconnected-(U13-PA12-Pad22)*%
X133170000Y-62913000D03*
%TO.P,U13,23,PA13_23*%
%TO.N,/bottom/SWDIO4*%
X133670000Y-62913000D03*
%TO.P,U13,24,PA14_24*%
%TO.N,/bottom/SWDCLK4*%
X134170000Y-62913000D03*
D20*
%TO.P,U13,25,PA15_25*%
%TO.N,unconnected-(U13-PA15-Pad25)*%
X134857500Y-62225500D03*
%TO.P,U13,26,PB3_26*%
%TO.N,unconnected-(U13-PB3-Pad26)*%
X134857500Y-61725500D03*
%TO.P,U13,27,PB4_27*%
%TO.N,Net-(U13-PB4)*%
X134857500Y-61225500D03*
%TO.P,U13,28,PB5_28*%
%TO.N,unconnected-(U13-PB5-Pad28)*%
X134857500Y-60725500D03*
%TO.P,U13,29,PB6_29*%
%TO.N,/bottom/TELEMETRY*%
X134857500Y-60225500D03*
%TO.P,U13,30,PB7_30*%
%TO.N,/bottom/TELEMRX*%
X134857500Y-59725500D03*
%TO.P,U13,31,PH3_31*%
%TO.N,Net-(U13-PH3)*%
X134857500Y-59225500D03*
%TO.P,U13,32,VSS_32*%
%TO.N,GND*%
X134857500Y-58725500D03*
D21*
%TO.P,U13,33,VSS_33*%
X132420000Y-60475500D03*
%TD*%
D22*
%TO.P,C45,1*%
%TO.N,VCC*%
X136500000Y-57113000D03*
%TO.P,C45,2*%
%TO.N,GND*%
X138400000Y-57113000D03*
%TD*%
D11*
%TO.P,R66,1*%
%TO.N,/bottom/BEMF_B4*%
X128720000Y-53283000D03*
%TO.P,R66,2*%
%TO.N,/bottom/BEMF_COMMON4*%
X128720000Y-54303000D03*
%TD*%
D10*
%TO.P,R83,1*%
%TO.N,Net-(R83-Pad1)*%
X137140000Y-55623000D03*
%TO.P,R83,2*%
%TO.N,/bottom/CURR4*%
X136120000Y-55623000D03*
%TD*%
D15*
%TO.P,C44,1*%
%TO.N,/bottom/CURR3*%
X139660000Y-55603000D03*
%TO.P,C44,2*%
%TO.N,GND*%
X138700000Y-55603000D03*
%TD*%
D17*
%TO.P,J25,1,Pin_1_1*%
%TO.N,/bottom/curr4-*%
X135119920Y-55051702D03*
D18*
%TO.P,J25,2,Pin_2_2*%
%TO.N,/bottom/curr4+*%
X135119920Y-54051702D03*
%TD*%
D17*
%TO.P,J14,1,Pin_1_1*%
%TO.N,/bottom/GLA3*%
X144269919Y-55064737D03*
D18*
%TO.P,J14,2,Pin_2_2*%
%TO.N,/bottom/GHA3*%
X144269919Y-54064737D03*
%TO.P,J14,3,Pin_3_3*%
%TO.N,GND*%
X145269919Y-55064737D03*
%TO.P,J14,4,Pin_4_4*%
%TO.N,/bottom/MOT_A3*%
X145269919Y-54064737D03*
%TO.P,J14,5,Pin_5_5*%
%TO.N,/bottom/MOT_C3*%
X146269919Y-55064737D03*
%TO.P,J14,6,Pin_6_6*%
%TO.N,/bottom/GLB3*%
X146269919Y-54064737D03*
%TO.P,J14,7,Pin_7_7*%
%TO.N,/bottom/GHC3*%
X147269919Y-55064737D03*
%TO.P,J14,8,Pin_8_8*%
%TO.N,/bottom/MOT_B3*%
X147269919Y-54064737D03*
%TO.P,J14,9,Pin_9_9*%
%TO.N,/bottom/GLC3*%
X148269919Y-55064737D03*
%TO.P,J14,10,Pin_10_10*%
%TO.N,/bottom/GHB3*%
X148269919Y-54064737D03*
%TD*%
D10*
%TO.P,R44,1*%
%TO.N,/bottom/SIG_IN3*%
X147600000Y-61293000D03*
%TO.P,R44,2*%
%TO.N,Net-(U10-PB4)*%
X146580000Y-61293000D03*
%TD*%
D16*
%TO.P,R70,1*%
%TO.N,/bottom/BEMF_C4*%
X128720000Y-58033000D03*
%TO.P,R70,2*%
%TO.N,/bottom/MOT_C4*%
X128720000Y-57013000D03*
%TD*%
D11*
%TO.P,R72,1*%
%TO.N,GND*%
X145840000Y-58083000D03*
%TO.P,R72,2*%
%TO.N,Net-(U10-PH3)*%
X145840000Y-59103000D03*
%TD*%
D23*
%TO.P,C37,1*%
%TO.N,Net-(U10-NRST)*%
X144230000Y-57273000D03*
%TO.P,C37,2*%
%TO.N,GND*%
X144230000Y-56313000D03*
%TD*%
D13*
%TO.P,R69,1*%
%TO.N,/bottom/BEMF_B4*%
X130090000Y-53003000D03*
%TO.P,R69,2*%
%TO.N,/bottom/MOT_B4*%
X131110000Y-53003000D03*
%TD*%
D10*
%TO.P,R46,1*%
%TO.N,/bottom/BEMF_B3*%
X143570000Y-52950000D03*
%TO.P,R46,2*%
%TO.N,/bottom/BEMF_COMMON3*%
X142550000Y-52950000D03*
%TD*%
%TO.P,R50,1*%
%TO.N,/bottom/BEMF_C3*%
X138100000Y-61083000D03*
%TO.P,R50,2*%
%TO.N,/bottom/MOT_C3*%
X137080000Y-61083000D03*
%TD*%
D24*
%TO.P,C32,1*%
%TO.N,VCC*%
X139190000Y-64103000D03*
%TO.P,C32,2*%
%TO.N,GND*%
X139190000Y-65063000D03*
%TD*%
D12*
%TO.P,C47,1*%
%TO.N,VCC*%
X130040000Y-64553000D03*
%TO.P,C47,2*%
%TO.N,GND*%
X131000000Y-64553000D03*
%TD*%
D16*
%TO.P,R75,1*%
%TO.N,GND*%
X128780000Y-59893000D03*
%TO.P,R75,2*%
%TO.N,/bottom/BEMF_C4*%
X128780000Y-58873000D03*
%TD*%
D17*
%TO.P,J13,1,Pin_1_1*%
%TO.N,/bottom/GLC4*%
X129759920Y-55053001D03*
D18*
%TO.P,J13,2,Pin_2_2*%
%TO.N,/bottom/GLB4*%
X129759920Y-54053001D03*
%TO.P,J13,3,Pin_3_3*%
%TO.N,/bottom/MOT_C4*%
X130759920Y-55053001D03*
%TO.P,J13,4,Pin_4_4*%
%TO.N,/bottom/GHB4*%
X130759920Y-54053001D03*
%TO.P,J13,5,Pin_5_5*%
%TO.N,/bottom/GHC4*%
X131759920Y-55053001D03*
%TO.P,J13,6,Pin_6_6*%
%TO.N,/bottom/MOT_B4*%
X131759920Y-54053001D03*
%TO.P,J13,7,Pin_7_7*%
%TO.N,GND*%
X132759920Y-55053001D03*
%TO.P,J13,8,Pin_8_8*%
%TO.N,/bottom/GHA4*%
X132759920Y-54053001D03*
%TO.P,J13,9,Pin_9_9*%
%TO.N,/bottom/MOT_A4*%
X133759920Y-55053001D03*
%TO.P,J13,10,Pin_10_10*%
%TO.N,/bottom/GLA4*%
X133759920Y-54053001D03*
%TD*%
D24*
%TO.P,C46,1*%
%TO.N,VCC*%
X138150000Y-63893000D03*
%TO.P,C46,2*%
%TO.N,GND*%
X138150000Y-64853000D03*
%TD*%
D13*
%TO.P,R48,1*%
%TO.N,/bottom/BEMF_A3*%
X140510000Y-56683000D03*
%TO.P,R48,2*%
%TO.N,/bottom/MOT_A3*%
X141530000Y-56683000D03*
%TD*%
D25*
%TO.P,C49,1*%
%TO.N,VCC*%
X148465000Y-62563000D03*
%TO.P,C49,2*%
%TO.N,GND*%
X146915000Y-62563000D03*
%TD*%
D14*
%TO.P,J12,1,Pin_1_1*%
%TO.N,/bottom/SWDCLK4*%
X136680000Y-64623000D03*
%TD*%
%TO.P,J9,1,Pin_1_1*%
%TO.N,/bottom/SWDIO3*%
X143350000Y-64863000D03*
%TD*%
%TO.P,J10,1,Pin_1_1*%
%TO.N,/bottom/SWDCLK3*%
X146750000Y-64393000D03*
%TD*%
D13*
%TO.P,R68,1*%
%TO.N,/bottom/BEMF_A4*%
X129640000Y-56713000D03*
%TO.P,R68,2*%
%TO.N,/bottom/MOT_A4*%
X130660000Y-56713000D03*
%TD*%
%TO.P,R49,1*%
%TO.N,/bottom/BEMF_B3*%
X146330000Y-52963000D03*
%TO.P,R49,2*%
%TO.N,/bottom/MOT_B3*%
X147350000Y-52963000D03*
%TD*%
D26*
%TO.P,U6,1*%
%TO.N,Net-(R63-Pad1)*%
X139730000Y-54553000D03*
%TO.P,U6,2,-_2*%
%TO.N,/bottom/curr3-*%
X139730000Y-54053000D03*
%TO.P,U6,3,+_3*%
%TO.N,/bottom/curr3+*%
X139730000Y-53553000D03*
%TO.P,U6,4,GND_4*%
%TO.N,GND*%
X139730000Y-53053000D03*
%TO.P,U6,5,+_5*%
%TO.N,/bottom/curr4+*%
X137830000Y-53053000D03*
%TO.P,U6,6,-_6*%
%TO.N,/bottom/curr4-*%
X137830000Y-53553000D03*
%TO.P,U6,7*%
%TO.N,Net-(R83-Pad1)*%
X137830000Y-54053000D03*
%TO.P,U6,8,VCC_8*%
%TO.N,VCC*%
X137830000Y-54553000D03*
D27*
%TO.P,U6,9,EP_9*%
%TO.N,GND*%
X138780000Y-53803000D03*
%TD*%
D12*
%TO.P,C51,1*%
%TO.N,Net-(U13-NRST)*%
X133350000Y-56663000D03*
%TO.P,C51,2*%
%TO.N,GND*%
X134310000Y-56663000D03*
%TD*%
D18*
%TO.P,,7,Pin_7_7*%
%TO.N,GND*%
X145269920Y-64083001D03*
%TD*%
%TO.P,,3,Pin_3_3*%
%TO.N,GND*%
X132759920Y-64063001D03*
%TD*%
D19*
%TO.P,U10,1,VDD_1*%
%TO.N,VCC*%
X143970000Y-58395500D03*
%TO.P,U10,2,PC14_2*%
%TO.N,unconnected-(U10-PC14-Pad2)*%
X143470000Y-58395500D03*
%TO.P,U10,3,PC15_3*%
%TO.N,unconnected-(U10-PC15-Pad3)*%
X142970000Y-58395500D03*
%TO.P,U10,4,NRST_4*%
%TO.N,Net-(U10-NRST)*%
X142470000Y-58395500D03*
%TO.P,U10,5,VDDA_5*%
%TO.N,VCC*%
X141970000Y-58395500D03*
%TO.P,U10,6,PA0_6*%
%TO.N,/bottom/BEMF_A3*%
X141470000Y-58395500D03*
%TO.P,U10,7,PA1_7*%
%TO.N,/bottom/BEMF_COMMON3*%
X140970000Y-58395500D03*
%TO.P,U10,8,PA2_8*%
%TO.N,unconnected-(U10-PA2-Pad8)*%
X140470000Y-58395500D03*
D20*
%TO.P,U10,9,PA3_9*%
%TO.N,/bottom/CURR3*%
X139782500Y-59083000D03*
%TO.P,U10,10,PA4_10*%
%TO.N,/bottom/BEMF_B3*%
X139782500Y-59583000D03*
%TO.P,U10,11,PA5_11*%
%TO.N,/bottom/BEMF_C3*%
X139782500Y-60083000D03*
%TO.P,U10,12,PA6_12*%
%TO.N,/bottom/V_SENS*%
X139782500Y-60583000D03*
%TO.P,U10,13,PA7_13*%
%TO.N,/bottom/C_LOW3*%
X139782500Y-61083000D03*
%TO.P,U10,14,PB0_14*%
%TO.N,/bottom/B_LOW3*%
X139782500Y-61583000D03*
%TO.P,U10,15,PB1_15*%
%TO.N,/bottom/A_LOW3*%
X139782500Y-62083000D03*
%TO.P,U10,16,VSS_16*%
%TO.N,GND*%
X139782500Y-62583000D03*
D19*
%TO.P,U10,17,VDD_17*%
%TO.N,VCC*%
X140470000Y-63270500D03*
%TO.P,U10,18,PA8_18*%
%TO.N,/bottom/C_HIGH3*%
X140970000Y-63270500D03*
%TO.P,U10,19,PA9_19*%
%TO.N,/bottom/B_HIGH3*%
X141470000Y-63270500D03*
%TO.P,U10,20,PA10_20*%
%TO.N,/bottom/A_HIGH3*%
X141970000Y-63270500D03*
%TO.P,U10,21,PA11_21*%
%TO.N,unconnected-(U10-PA11-Pad21)*%
X142470000Y-63270500D03*
%TO.P,U10,22,PA12_22*%
%TO.N,unconnected-(U10-PA12-Pad22)*%
X142970000Y-63270500D03*
%TO.P,U10,23,PA13_23*%
%TO.N,/bottom/SWDIO3*%
X143470000Y-63270500D03*
%TO.P,U10,24,PA14_24*%
%TO.N,/bottom/SWDCLK3*%
X143970000Y-63270500D03*
D20*
%TO.P,U10,25,PA15_25*%
%TO.N,unconnected-(U10-PA15-Pad25)*%
X144657500Y-62583000D03*
%TO.P,U10,26,PB3_26*%
%TO.N,unconnected-(U10-PB3-Pad26)*%
X144657500Y-62083000D03*
%TO.P,U10,27,PB4_27*%
%TO.N,Net-(U10-PB4)*%
X144657500Y-61583000D03*
%TO.P,U10,28,PB5_28*%
%TO.N,unconnected-(U10-PB5-Pad28)*%
X144657500Y-61083000D03*
%TO.P,U10,29,PB6_29*%
%TO.N,/bottom/TELEMETRY*%
X144657500Y-60583000D03*
%TO.P,U10,30,PB7_30*%
%TO.N,/bottom/TELEMRX*%
X144657500Y-60083000D03*
%TO.P,U10,31,PH3_31*%
%TO.N,Net-(U10-PH3)*%
X144657500Y-59583000D03*
%TO.P,U10,32,VSS_32*%
%TO.N,GND*%
X144657500Y-59083000D03*
D21*
%TO.P,U10,33,VSS_33*%
X142220000Y-60833000D03*
%TD*%
D17*
%TO.P,J29,1,Pin_1_1*%
%TO.N,/bottom/SIG_IN3*%
X148249920Y-56563001D03*
D18*
%TO.P,J29,2,Pin_2_2*%
%TO.N,/bottom/SIG_IN4*%
X147249920Y-56563001D03*
%TO.P,J29,3,Pin_3_3*%
%TO.N,/bottom/TELEMETRY*%
X148249920Y-57563001D03*
%TO.P,J29,4,Pin_4_4*%
%TO.N,/bottom/TELEMRX*%
X147249920Y-57563001D03*
%TO.P,J29,5,Pin_5_5*%
%TO.N,VCC*%
X148249920Y-58563001D03*
%TO.P,J29,6,Pin_6_6*%
%TO.N,+9V*%
X147249920Y-58563001D03*
%TO.P,J29,7,Pin_7_7*%
%TO.N,GND*%
X148249920Y-59563001D03*
%TO.P,J29,8,Pin_8_8*%
%TO.N,/bottom/V_SENS*%
X147249920Y-59563001D03*
%TD*%
D28*
%TO.N,GND*%
X142070000Y-61040000D03*
X141930000Y-59783000D03*
X148374920Y-61640000D03*
X141320000Y-61030000D03*
X137867566Y-56915768D03*
X132520000Y-59990000D03*
X132000000Y-60370000D03*
X132000000Y-61060000D03*
X136270000Y-52823000D03*
X142710000Y-60400000D03*
X141280000Y-60420000D03*
D29*
X128890000Y-56053000D03*
D28*
X132560000Y-60770000D03*
X138780000Y-53803000D03*
X141370000Y-61660000D03*
X131340000Y-60390000D03*
X149050000Y-65040000D03*
X131360000Y-61000000D03*
X137840000Y-57630000D03*
X131730351Y-56326303D03*
X129000000Y-65200000D03*
X131310000Y-59760000D03*
X142680000Y-59770000D03*
D29*
X128940000Y-59613000D03*
D28*
X138100000Y-64890000D03*
X141960000Y-60413000D03*
D29*
X134320000Y-56683000D03*
D28*
X141250000Y-59790000D03*
X131930000Y-59730000D03*
D29*
%TO.N,/bottom/BEMF_C3*%
X138100000Y-61083000D03*
%TO.N,/bottom/BEMF_COMMON3*%
X139880000Y-58463000D03*
X137320000Y-62183000D03*
X141370000Y-52803000D03*
%TO.N,VCC*%
X139190000Y-64103000D03*
X140290000Y-55063000D03*
X147710000Y-55753000D03*
X137250000Y-56713000D03*
X137950000Y-55413000D03*
X131200000Y-65303000D03*
X148460000Y-62563000D03*
%TO.N,/bottom/BEMF_B3*%
X140740000Y-52748000D03*
X138410000Y-58973000D03*
%TO.N,+9V*%
X135320000Y-65498000D03*
X128707014Y-60545247D03*
X129930000Y-63478000D03*
X148280000Y-64083000D03*
X138850000Y-59883000D03*
X144790000Y-55833000D03*
%TO.N,/bottom/SIG_IN4*%
X136210000Y-62633000D03*
%TO.N,/bottom/BEMF_COMMON4*%
X128590000Y-64123000D03*
X128870000Y-54083000D03*
X130190000Y-57803000D03*
%TO.N,/bottom/BEMF_A3*%
X139920000Y-56683000D03*
%TO.N,/bottom/BEMF_B4*%
X129370000Y-57653000D03*
X128720000Y-53283000D03*
X128510000Y-55433000D03*
%TO.N,/bottom/BEMF_A4*%
X129640000Y-56713000D03*
%TO.N,/bottom/CURR4*%
X129982500Y-58523000D03*
X135340000Y-56133000D03*
%TO.N,/bottom/V_SENS*%
X128913665Y-61081832D03*
X137380000Y-63773000D03*
X131780000Y-64803000D03*
X138810000Y-62243000D03*
%TO.N,/bottom/C_LOW4*%
X128732532Y-61627560D03*
%TO.N,/bottom/B_LOW4*%
X128850000Y-62353000D03*
%TO.N,/bottom/A_LOW4*%
X129420000Y-62703000D03*
%TO.N,/bottom/C_HIGH4*%
X130925000Y-63748000D03*
%TO.N,/bottom/B_HIGH4*%
X131591734Y-63618544D03*
%TO.N,/bottom/A_HIGH4*%
X132164377Y-63566502D03*
%TO.N,/bottom/TELEMETRY*%
X137934248Y-59883552D03*
X146240000Y-60223000D03*
%TO.N,/bottom/TELEMRX*%
X137360000Y-59913000D03*
%TO.N,/bottom/GHA3*%
X144490000Y-64743000D03*
%TO.N,/bottom/MOT_A3*%
X141960000Y-56063000D03*
X144440000Y-63913000D03*
%TO.N,/bottom/MOT_C3*%
X137910000Y-58563000D03*
X145135000Y-57908000D03*
%TO.N,/bottom/GHC3*%
X144480000Y-58603000D03*
%TO.N,/bottom/MOT_B3*%
X149060000Y-53073000D03*
X147120000Y-60683000D03*
%TO.N,/bottom/GLC3*%
X141875000Y-57338000D03*
%TO.N,/bottom/MOT_C4*%
X135180000Y-57178000D03*
%TO.N,/bottom/MOT_B4*%
X135950000Y-59883000D03*
%TO.N,/bottom/GLB4*%
X132370000Y-57123000D03*
%TO.N,/bottom/GHB4*%
X136310000Y-60963000D03*
%TO.N,/bottom/GHC4*%
X135720000Y-57993000D03*
%TO.N,/bottom/GHA4*%
X135140000Y-64373000D03*
%TO.N,/bottom/MOT_A4*%
X135260000Y-63430000D03*
%TO.N,/bottom/C_LOW3*%
X139159914Y-61098086D03*
%TO.N,/bottom/B_LOW3*%
X139170000Y-61673000D03*
%TO.N,/bottom/A_LOW3*%
X139790000Y-62090717D03*
%TO.N,/bottom/C_HIGH3*%
X140935092Y-63752547D03*
%TO.N,/bottom/B_HIGH3*%
X141510000Y-63763000D03*
%TO.N,/bottom/A_HIGH3*%
X141710000Y-64373000D03*
%TD*%
%TO.N,GND*%
D30*
X128720000Y-56173000D02*
X128770000Y-56173000D01*
X134310000Y-56663000D02*
X134310000Y-56673000D01*
D31*
X138150000Y-64853000D02*
X138137000Y-64853000D01*
D30*
X128770000Y-56173000D02*
X128890000Y-56053000D01*
X131540000Y-56343000D02*
X131713654Y-56343000D01*
D31*
X146915000Y-62563000D02*
X147344778Y-62563000D01*
D30*
X131713654Y-56343000D02*
X131730351Y-56326303D01*
X134310000Y-56673000D02*
X134320000Y-56683000D01*
D31*
X149050000Y-64268222D02*
X149050000Y-65040000D01*
X138137000Y-64853000D02*
X138100000Y-64890000D01*
X147344778Y-62563000D02*
X149050000Y-64268222D01*
X145657500Y-58083000D02*
X145840000Y-58083000D01*
X144657500Y-59083000D02*
X145657500Y-58083000D01*
%TO.N,/bottom/BEMF_C3*%
X139250000Y-60083000D02*
X139782500Y-60083000D01*
X138990000Y-60343000D02*
X139250000Y-60083000D01*
X138100000Y-62023000D02*
X138110000Y-62033000D01*
X138100000Y-61083000D02*
X138840000Y-60343000D01*
X138100000Y-61083000D02*
X138100000Y-62023000D01*
X138840000Y-60343000D02*
X138990000Y-60343000D01*
%TO.N,/bottom/BEMF_COMMON3*%
D30*
X137320000Y-62183000D02*
X137170000Y-62033000D01*
D31*
X141370000Y-52803000D02*
X141530000Y-52963000D01*
X141530000Y-52963000D02*
X142550000Y-52963000D01*
X139620000Y-57643000D02*
X140654999Y-57643000D01*
D30*
X137170000Y-62033000D02*
X137090000Y-62033000D01*
D31*
X140970000Y-57958001D02*
X140970000Y-58395500D01*
X139620000Y-57643000D02*
X139620000Y-58203000D01*
X142550000Y-52963000D02*
X142560000Y-52973000D01*
X139620000Y-58203000D02*
X139880000Y-58463000D01*
X140654999Y-57643000D02*
X140970000Y-57958001D01*
%TO.N,Net-(R63-Pad1)*%
X140920000Y-54553000D02*
X141020000Y-54453000D01*
X139730000Y-54553000D02*
X140920000Y-54553000D01*
%TO.N,/bottom/CURR3*%
X139136500Y-58437000D02*
X139136500Y-56126500D01*
X140890000Y-55603000D02*
X141020000Y-55473000D01*
X139136500Y-56126500D02*
X139660000Y-55603000D01*
X139660000Y-55603000D02*
X140890000Y-55603000D01*
X139782500Y-59083000D02*
X139136500Y-58437000D01*
%TO.N,VCC*%
D30*
X131920000Y-57350501D02*
X132170000Y-57600501D01*
X131893000Y-57320580D02*
X131920000Y-57347580D01*
X140470000Y-63270500D02*
X140022500Y-63270500D01*
X146530000Y-55753000D02*
X147710000Y-55753000D01*
X141547580Y-54976000D02*
X140377000Y-54976000D01*
X132470000Y-56343000D02*
X131920000Y-56893000D01*
X137250000Y-56623000D02*
X137950000Y-55923000D01*
X134994580Y-58038000D02*
X134170000Y-58038000D01*
X145280000Y-57003000D02*
X145280000Y-57085500D01*
X134658420Y-56126000D02*
X135233420Y-56701000D01*
X130448000Y-64145000D02*
X130040000Y-64553000D01*
X142440000Y-55868420D02*
X141547580Y-54976000D01*
X131920000Y-56893000D02*
X131920000Y-56898420D01*
X137830000Y-55293000D02*
X137950000Y-55413000D01*
X142440000Y-57447580D02*
X141970000Y-57917580D01*
X136500000Y-57113000D02*
X136850000Y-57113000D01*
X141970000Y-57917580D02*
X141970000Y-58395500D01*
X132500000Y-56343000D02*
X132717000Y-56126000D01*
X132717000Y-56126000D02*
X134658420Y-56126000D01*
X142440000Y-56683000D02*
X142440000Y-57447580D01*
X131893000Y-56925420D02*
X131893000Y-57320580D01*
X145280000Y-57003000D02*
X146530000Y-55753000D01*
X139190000Y-64103000D02*
X138360000Y-64103000D01*
X131920000Y-56898420D02*
X131893000Y-56925420D01*
X136500000Y-57113000D02*
X135919580Y-57113000D01*
X138360000Y-64103000D02*
X138150000Y-63893000D01*
X137830000Y-54553000D02*
X137830000Y-55293000D01*
X130448000Y-63135000D02*
X130448000Y-64145000D01*
X140377000Y-54976000D02*
X140290000Y-55063000D01*
X136088000Y-56701000D02*
X136500000Y-57113000D01*
X142440000Y-56683000D02*
X142440000Y-55868420D01*
X135919580Y-57113000D02*
X134994580Y-58038000D01*
X135233420Y-56701000D02*
X136088000Y-56701000D01*
X131920000Y-57347580D02*
X131920000Y-57350501D01*
X132500000Y-56343000D02*
X132470000Y-56343000D01*
X145280000Y-57085500D02*
X143970000Y-58395500D01*
X130790000Y-65303000D02*
X131200000Y-65303000D01*
X137950000Y-55923000D02*
X137950000Y-55413000D01*
X132170000Y-57600501D02*
X132170000Y-58038000D01*
X130040000Y-64553000D02*
X130790000Y-65303000D01*
X148460000Y-62563000D02*
X148465000Y-62563000D01*
X136850000Y-57113000D02*
X137250000Y-56713000D01*
X137250000Y-56713000D02*
X137250000Y-56623000D01*
X130670000Y-62913000D02*
X130448000Y-63135000D01*
X140022500Y-63270500D02*
X139190000Y-64103000D01*
%TO.N,/bottom/BEMF_B3*%
D31*
X138530000Y-58973000D02*
X139140000Y-59583000D01*
X143113000Y-53440000D02*
X141855246Y-53440000D01*
X141855246Y-53440000D02*
X141631746Y-53216500D01*
X144973500Y-52553500D02*
X145460000Y-53040000D01*
X138410000Y-58973000D02*
X138530000Y-58973000D01*
X141198722Y-53216500D02*
X140740000Y-52757778D01*
X143580000Y-52973000D02*
X143113000Y-53440000D01*
X139140000Y-59583000D02*
X139782500Y-59583000D01*
X145460000Y-52963000D02*
X146330000Y-52963000D01*
X140740000Y-52757778D02*
X140740000Y-52748000D01*
X141631746Y-53216500D02*
X141198722Y-53216500D01*
X143580000Y-53000000D02*
X144026500Y-52553500D01*
X144026500Y-52553500D02*
X144973500Y-52553500D01*
%TO.N,/bottom/SWDIO4*%
X133670000Y-64583000D02*
X133960000Y-64873000D01*
X133670000Y-62913000D02*
X133670000Y-64583000D01*
%TO.N,/bottom/SIG_IN4*%
X136030000Y-62673000D02*
X136170000Y-62673000D01*
X136170000Y-62673000D02*
X136210000Y-62633000D01*
%TO.N,Net-(U13-PB4)*%
X135602500Y-61225500D02*
X136030000Y-61653000D01*
X134857500Y-61225500D02*
X135602500Y-61225500D01*
%TO.N,/bottom/BEMF_C4*%
X128930000Y-58983000D02*
X129672500Y-59725500D01*
X128740000Y-58983000D02*
X128930000Y-58983000D01*
X129672500Y-59725500D02*
X129982500Y-59725500D01*
X128293500Y-59479500D02*
X128293500Y-62576500D01*
X128720000Y-58963000D02*
X128740000Y-58983000D01*
X128293500Y-62576500D02*
X128780000Y-63063000D01*
X128720000Y-58113000D02*
X128720000Y-58963000D01*
X128790000Y-58983000D02*
X128293500Y-59479500D01*
%TO.N,/bottom/BEMF_COMMON4*%
X130512154Y-57437000D02*
X130190000Y-57759154D01*
X131170000Y-58038000D02*
X131170000Y-57779154D01*
X130190000Y-57759154D02*
X130190000Y-57803000D01*
X131170000Y-57779154D02*
X130827846Y-57437000D01*
X128790000Y-63723000D02*
X128640000Y-63723000D01*
X128640000Y-63723000D02*
X128600000Y-63763000D01*
X130827846Y-57437000D02*
X130512154Y-57437000D01*
%TO.N,/bottom/BEMF_A3*%
X140510000Y-56683000D02*
X141470000Y-57643000D01*
X140510000Y-56683000D02*
X139920000Y-56683000D01*
X139860000Y-56623000D02*
X139920000Y-56683000D01*
X139620000Y-56623000D02*
X139860000Y-56623000D01*
X141470000Y-57643000D02*
X141470000Y-58395500D01*
%TO.N,/bottom/curr3+*%
X141770220Y-53676000D02*
X142149131Y-54054911D01*
X140105001Y-53553000D02*
X140228001Y-53676000D01*
X142149131Y-54054911D02*
X142789920Y-54054911D01*
X140228001Y-53676000D02*
X141770220Y-53676000D01*
X139730000Y-53553000D02*
X140105001Y-53553000D01*
%TO.N,/bottom/curr3-*%
X141665009Y-53930000D02*
X142201420Y-54466411D01*
X142201420Y-54466411D02*
X142201420Y-54643411D01*
X142201420Y-54643411D02*
X142378420Y-54643411D01*
X142378420Y-54643411D02*
X142789920Y-55054911D01*
X140228001Y-53930000D02*
X141665009Y-53930000D01*
X139730000Y-54053000D02*
X140105001Y-54053000D01*
X140105001Y-54053000D02*
X140228001Y-53930000D01*
%TO.N,Net-(U13-PH3)*%
X134857500Y-59225500D02*
X135907500Y-59225500D01*
X135907500Y-59225500D02*
X136010000Y-59123000D01*
%TO.N,/bottom/BEMF_B4*%
X129381500Y-58883346D02*
X129723654Y-59225500D01*
X129370000Y-57930000D02*
X129381500Y-57941500D01*
X128740000Y-53263000D02*
X129830000Y-53263000D01*
X129370000Y-57653000D02*
X129370000Y-57930000D01*
X129381500Y-57941500D02*
X129381500Y-58883346D01*
X128720000Y-53283000D02*
X128740000Y-53263000D01*
X129830000Y-53263000D02*
X130090000Y-53003000D01*
X129723654Y-59225500D02*
X129982500Y-59225500D01*
%TO.N,Net-(U13-NRST)*%
D32*
X133350000Y-56920501D02*
X133350000Y-56663000D01*
X132670000Y-58038000D02*
X132670000Y-57600501D01*
X132670000Y-57600501D02*
X133350000Y-56920501D01*
%TO.N,/bottom/BEMF_A4*%
D31*
X131265999Y-57196500D02*
X130123500Y-57196500D01*
X131670000Y-58038000D02*
X131670000Y-57600501D01*
X131670000Y-57600501D02*
X131265999Y-57196500D01*
X130123500Y-57196500D02*
X129640000Y-56713000D01*
%TO.N,/bottom/CURR4*%
X136110000Y-55463000D02*
X136110000Y-55613000D01*
X136120000Y-55623000D02*
X135850000Y-55623000D01*
X135850000Y-55623000D02*
X135340000Y-56133000D01*
X129982500Y-58523000D02*
X129982500Y-58725500D01*
X136110000Y-55613000D02*
X136120000Y-55623000D01*
%TO.N,/bottom/V_SENS*%
X137380000Y-63773000D02*
X138810000Y-62343000D01*
X138746414Y-60926808D02*
X138746414Y-62179414D01*
X138746414Y-62179414D02*
X138810000Y-62243000D01*
X129381500Y-60621500D02*
X129381500Y-60567654D01*
X131780000Y-64803000D02*
X132513500Y-65536500D01*
X128913665Y-61081832D02*
X128921168Y-61081832D01*
X129381500Y-60567654D02*
X129723654Y-60225500D01*
X135148722Y-65084500D02*
X136181500Y-65084500D01*
X137380000Y-64861331D02*
X137380000Y-63773000D01*
X139782500Y-60583000D02*
X139090222Y-60583000D01*
X128921168Y-61081832D02*
X129381500Y-60621500D01*
X129723654Y-60225500D02*
X129982500Y-60225500D01*
X136954831Y-65286500D02*
X137380000Y-64861331D01*
X136383500Y-65286500D02*
X136954831Y-65286500D01*
X136181500Y-65084500D02*
X136383500Y-65286500D01*
X132513500Y-65536500D02*
X134696722Y-65536500D01*
X138810000Y-62343000D02*
X138810000Y-62243000D01*
X139090222Y-60583000D02*
X138746414Y-60926808D01*
X134696722Y-65536500D02*
X135148722Y-65084500D01*
%TO.N,/bottom/C_LOW4*%
X128964997Y-61628003D02*
X129381500Y-61211500D01*
X128732532Y-61627560D02*
X128732975Y-61628003D01*
X129381500Y-61067654D02*
X129723654Y-60725500D01*
X129723654Y-60725500D02*
X129982500Y-60725500D01*
X129381500Y-61211500D02*
X129381500Y-61067654D01*
X128732975Y-61628003D02*
X128964997Y-61628003D01*
%TO.N,/bottom/B_LOW4*%
X128850000Y-62353000D02*
X128850000Y-62103000D01*
X128850000Y-62103000D02*
X129103000Y-61850000D01*
X129381500Y-61567654D02*
X129512154Y-61437000D01*
X129381500Y-61567975D02*
X129381500Y-61567654D01*
X129727500Y-61225500D02*
X129982500Y-61225500D01*
X129516000Y-61437000D02*
X129727500Y-61225500D01*
X129103001Y-61846474D02*
X129381500Y-61567975D01*
X129103000Y-61850000D02*
X129103001Y-61846474D01*
X129512154Y-61437000D02*
X129516000Y-61437000D01*
%TO.N,/bottom/A_LOW4*%
X129330000Y-62613000D02*
X129330000Y-61940501D01*
X129330000Y-61940501D02*
X129545001Y-61725500D01*
X129545001Y-61725500D02*
X129982500Y-61725500D01*
X129420000Y-62703000D02*
X129330000Y-62613000D01*
%TO.N,/bottom/C_HIGH4*%
X130925000Y-63748000D02*
X131070000Y-63603000D01*
X131070000Y-63603000D02*
X131070000Y-63013000D01*
X131070000Y-63013000D02*
X131170000Y-62913000D01*
%TO.N,/bottom/B_HIGH4*%
X131670000Y-63540278D02*
X131670000Y-62913000D01*
X131591734Y-63618544D02*
X131670000Y-63540278D01*
%TO.N,/bottom/A_HIGH4*%
X132164377Y-63566502D02*
X132164377Y-62918623D01*
X132164377Y-62918623D02*
X132170000Y-62913000D01*
%TO.N,/bottom/SWDCLK4*%
X134170000Y-62913000D02*
X134170000Y-63987778D01*
X134968722Y-64786500D02*
X136516500Y-64786500D01*
X136516500Y-64786500D02*
X136680000Y-64623000D01*
X134170000Y-63987778D02*
X134968722Y-64786500D01*
%TO.N,/bottom/TELEMETRY*%
X148838420Y-58151501D02*
X148249920Y-57563001D01*
X137934248Y-59923530D02*
X137934248Y-59883552D01*
X145620000Y-60603000D02*
X144677500Y-60603000D01*
X146240000Y-60223000D02*
X146000000Y-60223000D01*
X148493685Y-60151501D02*
X148838420Y-59806766D01*
X146337002Y-60223000D02*
X146408501Y-60151501D01*
X135386696Y-60225500D02*
X135684696Y-60523500D01*
X137334278Y-60523500D02*
X137934248Y-59923530D01*
X146240000Y-60223000D02*
X146337002Y-60223000D01*
X146000000Y-60223000D02*
X145620000Y-60603000D01*
X144677500Y-60603000D02*
X144657500Y-60583000D01*
X135684696Y-60523500D02*
X137334278Y-60523500D01*
X148838420Y-59806766D02*
X148838420Y-58151501D01*
X146408501Y-60151501D02*
X148493685Y-60151501D01*
X134857500Y-60225500D02*
X135386696Y-60225500D01*
%TO.N,/bottom/TELEMRX*%
X134857500Y-59725500D02*
X135207722Y-59725500D01*
X147249920Y-57563001D02*
X146810000Y-58002921D01*
X146590000Y-58360000D02*
X146590000Y-59093000D01*
X145600000Y-60083000D02*
X144657500Y-60083000D01*
X146146500Y-59536500D02*
X145600000Y-60083000D01*
X146323500Y-59359500D02*
X146323500Y-59365384D01*
X146810000Y-58002921D02*
X146810000Y-58140000D01*
X135207722Y-59725500D02*
X135778722Y-60296500D01*
X146152384Y-59536500D02*
X146146500Y-59536500D01*
X146590000Y-59093000D02*
X146323500Y-59359500D01*
X135778722Y-60296500D02*
X136976500Y-60296500D01*
X136976500Y-60296500D02*
X137360000Y-59913000D01*
X146323500Y-59365384D02*
X146152384Y-59536500D01*
X146810000Y-58140000D02*
X146590000Y-58360000D01*
%TO.N,Net-(R83-Pad1)*%
X137830000Y-54053000D02*
X137580001Y-54053000D01*
X137580001Y-54053000D02*
X137140000Y-54493001D01*
X137140000Y-54493001D02*
X137140000Y-55623000D01*
%TO.N,/bottom/curr4-*%
X137331999Y-53430000D02*
X136741622Y-53430000D01*
X137830000Y-53553000D02*
X137454999Y-53553000D01*
X137454999Y-53553000D02*
X137331999Y-53430000D01*
X136741622Y-53430000D02*
X135119920Y-55051702D01*
%TO.N,/bottom/curr4+*%
X137331999Y-53176000D02*
X136636411Y-53176000D01*
X136636411Y-53176000D02*
X135760709Y-54051702D01*
X137830000Y-53053000D02*
X137454999Y-53053000D01*
X135760709Y-54051702D02*
X135119920Y-54051702D01*
X137454999Y-53053000D02*
X137331999Y-53176000D01*
%TO.N,/bottom/MOT_A3*%
X141530000Y-56493000D02*
X141960000Y-56063000D01*
X141530000Y-56683000D02*
X141530000Y-56493000D01*
%TO.N,/bottom/MOT_C3*%
X138347748Y-60054830D02*
X138347748Y-59495526D01*
X137910000Y-59057778D02*
X137910000Y-58563000D01*
X138347748Y-59495526D02*
X137910000Y-59057778D01*
X137080000Y-61083000D02*
X137319578Y-61083000D01*
X137319578Y-61083000D02*
X138347748Y-60054830D01*
%TO.N,/bottom/MOT_B3*%
D30*
X147269919Y-53900081D02*
X147269919Y-54064737D01*
D31*
X147350000Y-53984656D02*
X147269919Y-54064737D01*
D30*
X148097000Y-53073000D02*
X147269919Y-53900081D01*
X149060000Y-53073000D02*
X148097000Y-53073000D01*
D31*
X147350000Y-52963000D02*
X147350000Y-53984656D01*
%TO.N,/bottom/SIG_IN3*%
X148249920Y-56563001D02*
X149065419Y-57378500D01*
X147869999Y-61293000D02*
X147600000Y-61293000D01*
X149065419Y-60097580D02*
X147869999Y-61293000D01*
X149065419Y-57378500D02*
X149065419Y-60097580D01*
%TO.N,Net-(U10-PB4)*%
X146290000Y-61583000D02*
X146580000Y-61293000D01*
X144657500Y-61583000D02*
X146290000Y-61583000D01*
%TO.N,/bottom/MOT_C4*%
X130759920Y-55230001D02*
X130759920Y-55053001D01*
X128720000Y-57093000D02*
X129206500Y-56606500D01*
X130348420Y-55641501D02*
X130759920Y-55230001D01*
X129206500Y-56400616D02*
X129965615Y-55641501D01*
X129206500Y-56606500D02*
X129206500Y-56400616D01*
X129965615Y-55641501D02*
X130348420Y-55641501D01*
%TO.N,Net-(U10-PH3)*%
X144657500Y-59583000D02*
X145360000Y-59583000D01*
X145360000Y-59583000D02*
X145840000Y-59103000D01*
%TO.N,Net-(U10-NRST)*%
X143271501Y-57156500D02*
X142470000Y-57958001D01*
X144360000Y-57033000D02*
X144236500Y-57156500D01*
X142470000Y-57958001D02*
X142470000Y-58395500D01*
X144236500Y-57156500D02*
X143271501Y-57156500D01*
%TO.N,/bottom/MOT_B4*%
X131110000Y-53003000D02*
X131110000Y-53403081D01*
X131110000Y-53403081D02*
X131759920Y-54053001D01*
%TO.N,/bottom/MOT_A4*%
X133171420Y-55641501D02*
X133759920Y-55053001D01*
X132891499Y-55641501D02*
X133171420Y-55641501D01*
X130660000Y-56393001D02*
X131410001Y-55643000D01*
X130660000Y-56713000D02*
X130660000Y-56393001D01*
X131410001Y-55643000D02*
X132890000Y-55643000D01*
X132890000Y-55643000D02*
X132891499Y-55641501D01*
%TO.N,/bottom/SWDIO3*%
X143470000Y-64743000D02*
X143350000Y-64863000D01*
X143470000Y-63270500D02*
X143470000Y-64743000D01*
%TO.N,/bottom/SWDCLK3*%
X143970000Y-63270500D02*
X145627500Y-63270500D01*
X145627500Y-63270500D02*
X146750000Y-64393000D01*
%TO.N,/bottom/C_LOW3*%
X139712500Y-61013000D02*
X139782500Y-61083000D01*
X139353523Y-61013000D02*
X139712500Y-61013000D01*
X139159914Y-61098086D02*
X139268437Y-61098086D01*
X139268437Y-61098086D02*
X139353523Y-61013000D01*
%TO.N,/bottom/B_LOW3*%
X139722500Y-61523000D02*
X139782500Y-61583000D01*
X139170000Y-61673000D02*
X139320000Y-61523000D01*
X139320000Y-61523000D02*
X139722500Y-61523000D01*
%TO.N,/bottom/A_LOW3*%
X139790000Y-62090500D02*
X139782500Y-62083000D01*
X139790000Y-62090717D02*
X139790000Y-62090500D01*
%TO.N,/bottom/C_HIGH3*%
X140935092Y-63305408D02*
X140970000Y-63270500D01*
X140935092Y-63752547D02*
X140935092Y-63305408D01*
%TO.N,/bottom/B_HIGH3*%
X141510000Y-63310500D02*
X141470000Y-63270500D01*
X141510000Y-63763000D02*
X141510000Y-63310500D01*
%TO.N,/bottom/A_HIGH3*%
X141970000Y-64113000D02*
X141970000Y-63270500D01*
X141710000Y-64373000D02*
X141970000Y-64113000D01*
%TD*%
%TA.AperFunction,Conductor*%
%TO.N,GND*%
G36*
X140379232Y-52512174D02*
G01*
X140400906Y-52564500D01*
X140391790Y-52598514D01*
X140391947Y-52598579D01*
X140391455Y-52599765D01*
X140390990Y-52601503D01*
X140390091Y-52603059D01*
X140390088Y-52603065D01*
X140364500Y-52698562D01*
X140364500Y-52797437D01*
X140390088Y-52892934D01*
X140390090Y-52892939D01*
X140412514Y-52931778D01*
X140439525Y-52978562D01*
X140509438Y-53048475D01*
X140595062Y-53097910D01*
X140595063Y-53097910D01*
X140595065Y-53097911D01*
X140622929Y-53105377D01*
X140690562Y-53123499D01*
X140690563Y-53123500D01*
X140772429Y-53123500D01*
X140824755Y-53145174D01*
X141013101Y-53333520D01*
X141015277Y-53335698D01*
X141017043Y-53339967D01*
X141019951Y-53341422D01*
X141019957Y-53341430D01*
X141018194Y-53342751D01*
X141025501Y-53360414D01*
X141036927Y-53388000D01*
X141036919Y-53388016D01*
X141036927Y-53388034D01*
X141026385Y-53413451D01*
X141015253Y-53440326D01*
X141015236Y-53440333D01*
X141015229Y-53440350D01*
X140989083Y-53451165D01*
X140962927Y-53462000D01*
X140347295Y-53462000D01*
X140294975Y-53440332D01*
X140293903Y-53439261D01*
X140290645Y-53436002D01*
X140290640Y-53435995D01*
X140290640Y-53435996D01*
X140226224Y-53371580D01*
X140226220Y-53371577D01*
X140187026Y-53355343D01*
X140187023Y-53355342D01*
X140179294Y-53352141D01*
X140147568Y-53338999D01*
X140090387Y-53338999D01*
X140084261Y-53337963D01*
X140075904Y-53332720D01*
X140055490Y-53326528D01*
X140021119Y-53303562D01*
X140000608Y-53289857D01*
X139950837Y-53279957D01*
X139938480Y-53277500D01*
X139521520Y-53277500D01*
X139511213Y-53279550D01*
X139459391Y-53289857D01*
X139388935Y-53336934D01*
X139388934Y-53336935D01*
X139341857Y-53407391D01*
X139329500Y-53469520D01*
X139329500Y-53636479D01*
X139341857Y-53698608D01*
X139384139Y-53761888D01*
X139395188Y-53817437D01*
X139384139Y-53844112D01*
X139341857Y-53907391D01*
X139329500Y-53969520D01*
X139329500Y-54136479D01*
X139341857Y-54198608D01*
X139384139Y-54261888D01*
X139395188Y-54317437D01*
X139384139Y-54344112D01*
X139341857Y-54407391D01*
X139329500Y-54469520D01*
X139329500Y-54636479D01*
X139341857Y-54698608D01*
X139385974Y-54764633D01*
X139388935Y-54769065D01*
X139459391Y-54816142D01*
X139521520Y-54828500D01*
X139521521Y-54828500D01*
X139867649Y-54828500D01*
X139919975Y-54850174D01*
X139941649Y-54902500D01*
X139939128Y-54921651D01*
X139921091Y-54988969D01*
X139914500Y-55013566D01*
X139914500Y-55068500D01*
X139892826Y-55120826D01*
X139840500Y-55142500D01*
X139476627Y-55142500D01*
X139452340Y-55145317D01*
X139352983Y-55189187D01*
X139276187Y-55265983D01*
X139233101Y-55363565D01*
X139232318Y-55365338D01*
X139229932Y-55385908D01*
X139229500Y-55389630D01*
X139229500Y-55700206D01*
X139207826Y-55752532D01*
X139017867Y-55942490D01*
X138955079Y-56005277D01*
X138941190Y-56038809D01*
X138922499Y-56083932D01*
X138922499Y-56177678D01*
X138922500Y-56177687D01*
X138922500Y-58394430D01*
X138922499Y-58394433D01*
X138922499Y-58479567D01*
X138933269Y-58505567D01*
X138937264Y-58515213D01*
X138937265Y-58515217D01*
X138955077Y-58558219D01*
X138955079Y-58558222D01*
X139015278Y-58618421D01*
X139015279Y-58618421D01*
X139021369Y-58624511D01*
X139021373Y-58624514D01*
X139214941Y-58818082D01*
X139236615Y-58870408D01*
X139224144Y-58911519D01*
X139206858Y-58937389D01*
X139194500Y-58999520D01*
X139194500Y-59156206D01*
X139172826Y-59208532D01*
X139120500Y-59230206D01*
X139068174Y-59208532D01*
X138800360Y-58940718D01*
X138781208Y-58907545D01*
X138759911Y-58828065D01*
X138759909Y-58828060D01*
X138728615Y-58773857D01*
X138710475Y-58742438D01*
X138640562Y-58672525D01*
X138638790Y-58671502D01*
X138554939Y-58623090D01*
X138554934Y-58623088D01*
X138459437Y-58597500D01*
X138459435Y-58597500D01*
X138360565Y-58597500D01*
X138359500Y-58597500D01*
X138307174Y-58575826D01*
X138285500Y-58523500D01*
X138285500Y-58513563D01*
X138285499Y-58513562D01*
X138259911Y-58418065D01*
X138259909Y-58418060D01*
X138219667Y-58348359D01*
X138210475Y-58332438D01*
X138140562Y-58262525D01*
X138124220Y-58253090D01*
X138054939Y-58213090D01*
X138054934Y-58213088D01*
X137959437Y-58187500D01*
X137959435Y-58187500D01*
X137860565Y-58187500D01*
X137860563Y-58187500D01*
X137765065Y-58213088D01*
X137765060Y-58213090D01*
X137679437Y-58262525D01*
X137609525Y-58332437D01*
X137560090Y-58418060D01*
X137560088Y-58418065D01*
X137534500Y-58513562D01*
X137534500Y-58612437D01*
X137560088Y-58707934D01*
X137560090Y-58707939D01*
X137609525Y-58793562D01*
X137674326Y-58858363D01*
X137696000Y-58910689D01*
X137696000Y-59009239D01*
X137695999Y-59009253D01*
X137695999Y-59015211D01*
X137695999Y-59100345D01*
X137702206Y-59115327D01*
X137703287Y-59117937D01*
X137703288Y-59117941D01*
X137728577Y-59178997D01*
X137728579Y-59179000D01*
X137788778Y-59239199D01*
X137788779Y-59239199D01*
X137794869Y-59245289D01*
X137794873Y-59245292D01*
X137931420Y-59381840D01*
X137953094Y-59434166D01*
X137931420Y-59486492D01*
X137888754Y-59507533D01*
X137884808Y-59508052D01*
X137789313Y-59533640D01*
X137789308Y-59533642D01*
X137703685Y-59583077D01*
X137683760Y-59603002D01*
X137631433Y-59624675D01*
X137594435Y-59614761D01*
X137504939Y-59563090D01*
X137504934Y-59563088D01*
X137409437Y-59537500D01*
X137409435Y-59537500D01*
X137310565Y-59537500D01*
X137310563Y-59537500D01*
X137215065Y-59563088D01*
X137215060Y-59563090D01*
X137129437Y-59612525D01*
X137059525Y-59682437D01*
X137010090Y-59768060D01*
X137010088Y-59768065D01*
X136984500Y-59863562D01*
X136984500Y-59955206D01*
X136962826Y-60007531D01*
X136909533Y-60060825D01*
X136857208Y-60082500D01*
X136381729Y-60082500D01*
X136329403Y-60060826D01*
X136307729Y-60008500D01*
X136310251Y-59989347D01*
X136318542Y-59958399D01*
X136325499Y-59932437D01*
X136325500Y-59932437D01*
X136325500Y-59833563D01*
X136325499Y-59833562D01*
X136325348Y-59833000D01*
X136307949Y-59768065D01*
X136299911Y-59738065D01*
X136299909Y-59738060D01*
X136258582Y-59666480D01*
X136255386Y-59660945D01*
X136247994Y-59604794D01*
X136282473Y-59559860D01*
X136289578Y-59556253D01*
X136309141Y-59547616D01*
X136384616Y-59472141D01*
X136427730Y-59374498D01*
X136430500Y-59350623D01*
X136430499Y-58895378D01*
X136427730Y-58871502D01*
X136384616Y-58773859D01*
X136309141Y-58698384D01*
X136211498Y-58655270D01*
X136187623Y-58652500D01*
X136187619Y-58652500D01*
X135832377Y-58652500D01*
X135808504Y-58655269D01*
X135710858Y-58698384D01*
X135635385Y-58773857D01*
X135635384Y-58773858D01*
X135635384Y-58773859D01*
X135626684Y-58793562D01*
X135592270Y-58871501D01*
X135589500Y-58895380D01*
X135589500Y-58937500D01*
X135567826Y-58989826D01*
X135515500Y-59011500D01*
X135411603Y-59011500D01*
X135370491Y-58999029D01*
X135315608Y-58962357D01*
X135265837Y-58952457D01*
X135253480Y-58950000D01*
X134461520Y-58950000D01*
X134451213Y-58952050D01*
X134399391Y-58962357D01*
X134328935Y-59009434D01*
X134328934Y-59009435D01*
X134281857Y-59079891D01*
X134269500Y-59142020D01*
X134269500Y-59308979D01*
X134281857Y-59371108D01*
X134324139Y-59434388D01*
X134335188Y-59489937D01*
X134324139Y-59516612D01*
X134281857Y-59579891D01*
X134269500Y-59642020D01*
X134269500Y-59808979D01*
X134281857Y-59871108D01*
X134324139Y-59934388D01*
X134335188Y-59989937D01*
X134324139Y-60016612D01*
X134281857Y-60079891D01*
X134269500Y-60142020D01*
X134269500Y-60308979D01*
X134281857Y-60371108D01*
X134324139Y-60434388D01*
X134335188Y-60489937D01*
X134324139Y-60516612D01*
X134281857Y-60579891D01*
X134272622Y-60626323D01*
X134269500Y-60642020D01*
X134269500Y-60808980D01*
X134271406Y-60818563D01*
X134281857Y-60871108D01*
X134324139Y-60934388D01*
X134335188Y-60989937D01*
X134324139Y-61016612D01*
X134281857Y-61079891D01*
X134271298Y-61132982D01*
X134269500Y-61142020D01*
X134269500Y-61308980D01*
X134271406Y-61318563D01*
X134281857Y-61371108D01*
X134324139Y-61434388D01*
X134335188Y-61489937D01*
X134324139Y-61516612D01*
X134281857Y-61579891D01*
X134269500Y-61642020D01*
X134269500Y-61808979D01*
X134281857Y-61871108D01*
X134324139Y-61934388D01*
X134335188Y-61989937D01*
X134324139Y-62016612D01*
X134281857Y-62079891D01*
X134269500Y-62142020D01*
X134269500Y-62251000D01*
X134247826Y-62303326D01*
X134195500Y-62325000D01*
X134086520Y-62325000D01*
X134076213Y-62327050D01*
X134024391Y-62337357D01*
X133961112Y-62379639D01*
X133905563Y-62390688D01*
X133878888Y-62379639D01*
X133815608Y-62337357D01*
X133765837Y-62327457D01*
X133753480Y-62325000D01*
X133586520Y-62325000D01*
X133576213Y-62327050D01*
X133524391Y-62337357D01*
X133461112Y-62379639D01*
X133405563Y-62390688D01*
X133378888Y-62379639D01*
X133315608Y-62337357D01*
X133265837Y-62327457D01*
X133253480Y-62325000D01*
X133086520Y-62325000D01*
X133076213Y-62327050D01*
X133024391Y-62337357D01*
X132961112Y-62379639D01*
X132905563Y-62390688D01*
X132878888Y-62379639D01*
X132815608Y-62337357D01*
X132765837Y-62327457D01*
X132753480Y-62325000D01*
X132586520Y-62325000D01*
X132576213Y-62327050D01*
X132524391Y-62337357D01*
X132461112Y-62379639D01*
X132405563Y-62390688D01*
X132378888Y-62379639D01*
X132315608Y-62337357D01*
X132265837Y-62327457D01*
X132253480Y-62325000D01*
X132086520Y-62325000D01*
X132076213Y-62327050D01*
X132024391Y-62337357D01*
X131961112Y-62379639D01*
X131905563Y-62390688D01*
X131878888Y-62379639D01*
X131815608Y-62337357D01*
X131765837Y-62327457D01*
X131753480Y-62325000D01*
X131586520Y-62325000D01*
X131576213Y-62327050D01*
X131524391Y-62337357D01*
X131461112Y-62379639D01*
X131405563Y-62390688D01*
X131378888Y-62379639D01*
X131315608Y-62337357D01*
X131265837Y-62327457D01*
X131253480Y-62325000D01*
X131086520Y-62325000D01*
X131076213Y-62327050D01*
X131024391Y-62337357D01*
X130961112Y-62379639D01*
X130905563Y-62390688D01*
X130878888Y-62379639D01*
X130815608Y-62337357D01*
X130765837Y-62327457D01*
X130753480Y-62325000D01*
X130586520Y-62325000D01*
X130576213Y-62327050D01*
X130524391Y-62337357D01*
X130453935Y-62384434D01*
X130453934Y-62384435D01*
X130406857Y-62454891D01*
X130394500Y-62517020D01*
X130394500Y-62765403D01*
X130372826Y-62817729D01*
X130225943Y-62964611D01*
X130189411Y-63027888D01*
X130175646Y-63079255D01*
X130141166Y-63124187D01*
X130085013Y-63131578D01*
X130075854Y-63128469D01*
X130074937Y-63128089D01*
X129979437Y-63102500D01*
X129979435Y-63102500D01*
X129880565Y-63102500D01*
X129880563Y-63102500D01*
X129785065Y-63128088D01*
X129785060Y-63128090D01*
X129699437Y-63177525D01*
X129629525Y-63247437D01*
X129580090Y-63333060D01*
X129580088Y-63333065D01*
X129554500Y-63428562D01*
X129554500Y-63527437D01*
X129580088Y-63622934D01*
X129580090Y-63622939D01*
X129616118Y-63685340D01*
X129629525Y-63708562D01*
X129699438Y-63778475D01*
X129785062Y-63827910D01*
X129785063Y-63827910D01*
X129785065Y-63827911D01*
X129810238Y-63834656D01*
X129880562Y-63853499D01*
X129880563Y-63853500D01*
X129880565Y-63853500D01*
X129979437Y-63853500D01*
X129979437Y-63853499D01*
X130074938Y-63827910D01*
X130074939Y-63827909D01*
X130077347Y-63827264D01*
X130087260Y-63828569D01*
X130096500Y-63824742D01*
X130114348Y-63832134D01*
X130133499Y-63834656D01*
X130139586Y-63842588D01*
X130148826Y-63846416D01*
X130156219Y-63864265D01*
X130167978Y-63879589D01*
X130170500Y-63898742D01*
X130170500Y-63999403D01*
X130148826Y-64051729D01*
X130148825Y-64051730D01*
X130129727Y-64070827D01*
X130077402Y-64092500D01*
X129856627Y-64092500D01*
X129832340Y-64095317D01*
X129732983Y-64139187D01*
X129656187Y-64215983D01*
X129612318Y-64315337D01*
X129609500Y-64339630D01*
X129609500Y-64766372D01*
X129612317Y-64790659D01*
X129612317Y-64790661D01*
X129612318Y-64790662D01*
X129656187Y-64890016D01*
X129732984Y-64966813D01*
X129832338Y-65010682D01*
X129856627Y-65013500D01*
X130077402Y-65013499D01*
X130129728Y-65035173D01*
X130565355Y-65470799D01*
X130565360Y-65470805D01*
X130567944Y-65473389D01*
X130619611Y-65525056D01*
X130682889Y-65561589D01*
X130682893Y-65561590D01*
X130740484Y-65577022D01*
X130785417Y-65611500D01*
X130792809Y-65667653D01*
X130758331Y-65712586D01*
X130721331Y-65722500D01*
X128304500Y-65722500D01*
X128252174Y-65700826D01*
X128230500Y-65648500D01*
X128230500Y-64473189D01*
X128252174Y-64420863D01*
X128304500Y-64399189D01*
X128356826Y-64420863D01*
X128359438Y-64423475D01*
X128445062Y-64472910D01*
X128491532Y-64485361D01*
X128502258Y-64489142D01*
X128528502Y-64500730D01*
X128552377Y-64503500D01*
X129007622Y-64503499D01*
X129031498Y-64500730D01*
X129129141Y-64457616D01*
X129204616Y-64382141D01*
X129247730Y-64284498D01*
X129250500Y-64260623D01*
X129250499Y-63905378D01*
X129247730Y-63881502D01*
X129204616Y-63783859D01*
X129129141Y-63708384D01*
X129031498Y-63665270D01*
X129031497Y-63665269D01*
X129031493Y-63665268D01*
X129028471Y-63664446D01*
X129026927Y-63663252D01*
X129026406Y-63663022D01*
X129026459Y-63662901D01*
X129023953Y-63663060D01*
X129011193Y-63651082D01*
X128983671Y-63629794D01*
X128981456Y-63625620D01*
X128980427Y-63623522D01*
X128971421Y-63601778D01*
X128968173Y-63598530D01*
X128963029Y-63588038D01*
X128961529Y-63564325D01*
X128956895Y-63541020D01*
X128959781Y-63536699D01*
X128959454Y-63531514D01*
X128975158Y-63513688D01*
X128988362Y-63493929D01*
X128994579Y-63491643D01*
X128996894Y-63489017D01*
X129002732Y-63488647D01*
X129020946Y-63481953D01*
X129031498Y-63480730D01*
X129129141Y-63437616D01*
X129204616Y-63362141D01*
X129247730Y-63264498D01*
X129250500Y-63240623D01*
X129250499Y-63142766D01*
X129272173Y-63090442D01*
X129324498Y-63068767D01*
X129343652Y-63071289D01*
X129360534Y-63075812D01*
X129370562Y-63078499D01*
X129370563Y-63078500D01*
X129370565Y-63078500D01*
X129469437Y-63078500D01*
X129469437Y-63078499D01*
X129564938Y-63052910D01*
X129650562Y-63003475D01*
X129720475Y-62933562D01*
X129769910Y-62847938D01*
X129795499Y-62752437D01*
X129795500Y-62752437D01*
X129795500Y-62653563D01*
X129795499Y-62653562D01*
X129769911Y-62558065D01*
X129769909Y-62558060D01*
X129755388Y-62532909D01*
X129720475Y-62472438D01*
X129650562Y-62402525D01*
X129630060Y-62390688D01*
X129581000Y-62362363D01*
X129546521Y-62317429D01*
X129544000Y-62298277D01*
X129544000Y-62075000D01*
X129565674Y-62022674D01*
X129618000Y-62001000D01*
X130378479Y-62001000D01*
X130378480Y-62001000D01*
X130440609Y-61988642D01*
X130511065Y-61941565D01*
X130558142Y-61871109D01*
X130570500Y-61808980D01*
X130570500Y-61642020D01*
X130558142Y-61579891D01*
X130515859Y-61516610D01*
X130504811Y-61461063D01*
X130515860Y-61434388D01*
X130517361Y-61432142D01*
X130558142Y-61371109D01*
X130570500Y-61308980D01*
X130570500Y-61142020D01*
X130558142Y-61079891D01*
X130515859Y-61016610D01*
X130504811Y-60961063D01*
X130515860Y-60934388D01*
X130558142Y-60871109D01*
X130570500Y-60808980D01*
X130570500Y-60642020D01*
X130558142Y-60579891D01*
X130515859Y-60516610D01*
X130504811Y-60461063D01*
X130515860Y-60434388D01*
X130519864Y-60428396D01*
X130558142Y-60371109D01*
X130570500Y-60308980D01*
X130570500Y-60142020D01*
X130558142Y-60079891D01*
X130515859Y-60016610D01*
X130504811Y-59961063D01*
X130515860Y-59934388D01*
X130517165Y-59932435D01*
X130558142Y-59871109D01*
X130570500Y-59808980D01*
X130570500Y-59642020D01*
X130558142Y-59579891D01*
X130515859Y-59516610D01*
X130504811Y-59461063D01*
X130515860Y-59434388D01*
X130558142Y-59371109D01*
X130570500Y-59308980D01*
X130570500Y-59142020D01*
X130558142Y-59079891D01*
X130515859Y-59016610D01*
X130504811Y-58961063D01*
X130515860Y-58934388D01*
X130518150Y-58930961D01*
X130558142Y-58871109D01*
X130570500Y-58808980D01*
X130570500Y-58700000D01*
X130592174Y-58647674D01*
X130644500Y-58626000D01*
X130753479Y-58626000D01*
X130753480Y-58626000D01*
X130815609Y-58613642D01*
X130878889Y-58571359D01*
X130934437Y-58560311D01*
X130961110Y-58571359D01*
X131024391Y-58613642D01*
X131086520Y-58626000D01*
X131086521Y-58626000D01*
X131253479Y-58626000D01*
X131253480Y-58626000D01*
X131315609Y-58613642D01*
X131378889Y-58571359D01*
X131434437Y-58560311D01*
X131461110Y-58571359D01*
X131524391Y-58613642D01*
X131586520Y-58626000D01*
X131586521Y-58626000D01*
X131753479Y-58626000D01*
X131753480Y-58626000D01*
X131815609Y-58613642D01*
X131878889Y-58571359D01*
X131934437Y-58560311D01*
X131961110Y-58571359D01*
X132024391Y-58613642D01*
X132086520Y-58626000D01*
X132086521Y-58626000D01*
X132253479Y-58626000D01*
X132253480Y-58626000D01*
X132315609Y-58613642D01*
X132378889Y-58571359D01*
X132434437Y-58560311D01*
X132461110Y-58571359D01*
X132524391Y-58613642D01*
X132586520Y-58626000D01*
X132586521Y-58626000D01*
X132753479Y-58626000D01*
X132753480Y-58626000D01*
X132815609Y-58613642D01*
X132878889Y-58571359D01*
X132934437Y-58560311D01*
X132961110Y-58571359D01*
X133024391Y-58613642D01*
X133086520Y-58626000D01*
X133086521Y-58626000D01*
X133253479Y-58626000D01*
X133253480Y-58626000D01*
X133315609Y-58613642D01*
X133378889Y-58571359D01*
X133434437Y-58560311D01*
X133461110Y-58571359D01*
X133524391Y-58613642D01*
X133586520Y-58626000D01*
X133586521Y-58626000D01*
X133753479Y-58626000D01*
X133753480Y-58626000D01*
X133815609Y-58613642D01*
X133878889Y-58571359D01*
X133934437Y-58560311D01*
X133961110Y-58571359D01*
X134024391Y-58613642D01*
X134086520Y-58626000D01*
X134086521Y-58626000D01*
X134253479Y-58626000D01*
X134253480Y-58626000D01*
X134315609Y-58613642D01*
X134386065Y-58566565D01*
X134433142Y-58496109D01*
X134445500Y-58433980D01*
X134445500Y-58389500D01*
X134467174Y-58337174D01*
X134519500Y-58315500D01*
X134953500Y-58315500D01*
X134953516Y-58315501D01*
X134958046Y-58315501D01*
X135031115Y-58315501D01*
X135101691Y-58296589D01*
X135108881Y-58292438D01*
X135164969Y-58260056D01*
X135271516Y-58153507D01*
X135323842Y-58131834D01*
X135376168Y-58153508D01*
X135387927Y-58168832D01*
X135419525Y-58223562D01*
X135489438Y-58293475D01*
X135552117Y-58329663D01*
X135556409Y-58332141D01*
X135575062Y-58342910D01*
X135575063Y-58342910D01*
X135575065Y-58342911D01*
X135622813Y-58355705D01*
X135670562Y-58368499D01*
X135670563Y-58368500D01*
X135670565Y-58368500D01*
X135769437Y-58368500D01*
X135769437Y-58368499D01*
X135864938Y-58342910D01*
X135950562Y-58293475D01*
X136020475Y-58223562D01*
X136069910Y-58137938D01*
X136078070Y-58107486D01*
X136096756Y-58037750D01*
X136099331Y-58038440D01*
X136123345Y-57996805D01*
X136178046Y-57982122D01*
X136179951Y-57982397D01*
X136218481Y-57988500D01*
X136781518Y-57988499D01*
X136781519Y-57988499D01*
X136875304Y-57973646D01*
X136875306Y-57973645D01*
X136897601Y-57962285D01*
X136988342Y-57916050D01*
X137078050Y-57826342D01*
X137135646Y-57713304D01*
X137150500Y-57619519D01*
X137150499Y-57235595D01*
X137150510Y-57235570D01*
X137172172Y-57183271D01*
X137245270Y-57110174D01*
X137294702Y-57089698D01*
X137294628Y-57089133D01*
X137296738Y-57088855D01*
X137297596Y-57088500D01*
X137299437Y-57088500D01*
X137299437Y-57088499D01*
X137394938Y-57062910D01*
X137480562Y-57013475D01*
X137550475Y-56943562D01*
X137599910Y-56857938D01*
X137625499Y-56762437D01*
X137625500Y-56762437D01*
X137625500Y-56670595D01*
X137647173Y-56618270D01*
X138114296Y-56151146D01*
X138114300Y-56151144D01*
X138120387Y-56145056D01*
X138120389Y-56145056D01*
X138172056Y-56093389D01*
X138208589Y-56030111D01*
X138227499Y-55959536D01*
X138227500Y-55959536D01*
X138227500Y-55697189D01*
X138247974Y-55647758D01*
X138247522Y-55647411D01*
X138248818Y-55645721D01*
X138249174Y-55644863D01*
X138250475Y-55643562D01*
X138299910Y-55557938D01*
X138325499Y-55462437D01*
X138325500Y-55462437D01*
X138325500Y-55363563D01*
X138325499Y-55363562D01*
X138299911Y-55268065D01*
X138299909Y-55268060D01*
X138271683Y-55219171D01*
X138250475Y-55182438D01*
X138180562Y-55112525D01*
X138180559Y-55112523D01*
X138180558Y-55112522D01*
X138144500Y-55091704D01*
X138110021Y-55046770D01*
X138107500Y-55027618D01*
X138107500Y-54851091D01*
X138129174Y-54798765D01*
X138140389Y-54789562D01*
X138171062Y-54769067D01*
X138171061Y-54769067D01*
X138171065Y-54769065D01*
X138218142Y-54698609D01*
X138230500Y-54636480D01*
X138230500Y-54469520D01*
X138218142Y-54407391D01*
X138175859Y-54344110D01*
X138164811Y-54288563D01*
X138175860Y-54261888D01*
X138218142Y-54198609D01*
X138230500Y-54136480D01*
X138230500Y-53969520D01*
X138218142Y-53907391D01*
X138175859Y-53844110D01*
X138164811Y-53788563D01*
X138175860Y-53761888D01*
X138218142Y-53698609D01*
X138230500Y-53636480D01*
X138230500Y-53469520D01*
X138218142Y-53407391D01*
X138175859Y-53344110D01*
X138164811Y-53288563D01*
X138175860Y-53261888D01*
X138180800Y-53254495D01*
X138218142Y-53198609D01*
X138230500Y-53136480D01*
X138230500Y-52969520D01*
X138218142Y-52907391D01*
X138171065Y-52836935D01*
X138158298Y-52828404D01*
X138100608Y-52789857D01*
X138050837Y-52779957D01*
X138038480Y-52777500D01*
X137621520Y-52777500D01*
X137611213Y-52779550D01*
X137559391Y-52789857D01*
X137522987Y-52814181D01*
X137504509Y-52826528D01*
X137475274Y-52838040D01*
X137469375Y-52838999D01*
X137412432Y-52838999D01*
X137383593Y-52850945D01*
X137375643Y-52854237D01*
X137375641Y-52854238D01*
X137333777Y-52871578D01*
X137333776Y-52871580D01*
X137265030Y-52940326D01*
X137212704Y-52962000D01*
X136687598Y-52962000D01*
X136687590Y-52961999D01*
X136678978Y-52961999D01*
X136593844Y-52961999D01*
X136544291Y-52982525D01*
X136544290Y-52982525D01*
X136515191Y-52994577D01*
X136454989Y-53054779D01*
X135733178Y-53776591D01*
X135680852Y-53798265D01*
X135628526Y-53776591D01*
X135616768Y-53761268D01*
X135580435Y-53698337D01*
X135473285Y-53591187D01*
X135438648Y-53571189D01*
X135342059Y-53515423D01*
X135342050Y-53515419D01*
X135195688Y-53476202D01*
X135195686Y-53476202D01*
X135044154Y-53476202D01*
X135044152Y-53476202D01*
X134897789Y-53515419D01*
X134897780Y-53515423D01*
X134766557Y-53591185D01*
X134659403Y-53698339D01*
X134583641Y-53829562D01*
X134583637Y-53829571D01*
X134544420Y-53975933D01*
X134544420Y-54127470D01*
X134583637Y-54273832D01*
X134583641Y-54273841D01*
X134651565Y-54391488D01*
X134658958Y-54447640D01*
X134628592Y-54490017D01*
X134586415Y-54518198D01*
X134553153Y-54567979D01*
X134548915Y-54589283D01*
X134544420Y-54611882D01*
X134544420Y-55491522D01*
X134545909Y-55499009D01*
X134553153Y-55535424D01*
X134581559Y-55577938D01*
X134586416Y-55585206D01*
X134636198Y-55618469D01*
X134680100Y-55627202D01*
X135214758Y-55627202D01*
X135267084Y-55648876D01*
X135288758Y-55701202D01*
X135267084Y-55753528D01*
X135233911Y-55772680D01*
X135195065Y-55783088D01*
X135195060Y-55783090D01*
X135109437Y-55832525D01*
X135039524Y-55902438D01*
X135010064Y-55953463D01*
X134965130Y-55987941D01*
X134908978Y-55980547D01*
X134893653Y-55968788D01*
X134828808Y-55903943D01*
X134765531Y-55867410D01*
X134694955Y-55848499D01*
X134694954Y-55848499D01*
X134621886Y-55848499D01*
X134617356Y-55848499D01*
X134617340Y-55848500D01*
X133445713Y-55848500D01*
X133393387Y-55826826D01*
X133371713Y-55774500D01*
X133393387Y-55722174D01*
X133441063Y-55674498D01*
X133498501Y-55617059D01*
X133550826Y-55595386D01*
X133569977Y-55597907D01*
X133684151Y-55628500D01*
X133684152Y-55628501D01*
X133684154Y-55628501D01*
X133835688Y-55628501D01*
X133835688Y-55628500D01*
X133982055Y-55589282D01*
X134113285Y-55513516D01*
X134220435Y-55406366D01*
X134296201Y-55275136D01*
X134335419Y-55128769D01*
X134335420Y-55128769D01*
X134335420Y-54977233D01*
X134335419Y-54977232D01*
X134312076Y-54890115D01*
X134296201Y-54830866D01*
X134220435Y-54699636D01*
X134126124Y-54605325D01*
X134104451Y-54553001D01*
X134126124Y-54500676D01*
X134220435Y-54406366D01*
X134296201Y-54275136D01*
X134335419Y-54128769D01*
X134335420Y-54128769D01*
X134335420Y-53977233D01*
X134335419Y-53977232D01*
X134326090Y-53942417D01*
X134296201Y-53830866D01*
X134220435Y-53699636D01*
X134113285Y-53592486D01*
X134113282Y-53592484D01*
X133982059Y-53516722D01*
X133982050Y-53516718D01*
X133835688Y-53477501D01*
X133835686Y-53477501D01*
X133684154Y-53477501D01*
X133684152Y-53477501D01*
X133537789Y-53516718D01*
X133537780Y-53516722D01*
X133406557Y-53592484D01*
X133406555Y-53592485D01*
X133406555Y-53592486D01*
X133312244Y-53686796D01*
X133259920Y-53708470D01*
X133207595Y-53686796D01*
X133113285Y-53592486D01*
X133113282Y-53592484D01*
X132982059Y-53516722D01*
X132982050Y-53516718D01*
X132835688Y-53477501D01*
X132835686Y-53477501D01*
X132684154Y-53477501D01*
X132684152Y-53477501D01*
X132537789Y-53516718D01*
X132537780Y-53516722D01*
X132406557Y-53592484D01*
X132406555Y-53592485D01*
X132406555Y-53592486D01*
X132312244Y-53686796D01*
X132259920Y-53708470D01*
X132207595Y-53686796D01*
X132113285Y-53592486D01*
X132113282Y-53592484D01*
X131982059Y-53516722D01*
X131982050Y-53516718D01*
X131835688Y-53477501D01*
X131835686Y-53477501D01*
X131684154Y-53477501D01*
X131569978Y-53508093D01*
X131560064Y-53506788D01*
X131550827Y-53510615D01*
X131532980Y-53503222D01*
X131513827Y-53500701D01*
X131498501Y-53488941D01*
X131475484Y-53465924D01*
X131453810Y-53413598D01*
X131475483Y-53361273D01*
X131484616Y-53352141D01*
X131527730Y-53254498D01*
X131530500Y-53230623D01*
X131530499Y-52775378D01*
X131527730Y-52751502D01*
X131484616Y-52653859D01*
X131447583Y-52616826D01*
X131425909Y-52564500D01*
X131447583Y-52512174D01*
X131499909Y-52490500D01*
X140326906Y-52490500D01*
X140379232Y-52512174D01*
G37*
%TD.AperFunction*%
%TA.AperFunction,Conductor*%
G36*
X149482500Y-53240208D02*
G01*
X149516978Y-53285141D01*
X149519500Y-53304294D01*
X149519500Y-65648500D01*
X149497826Y-65700826D01*
X149445500Y-65722500D01*
X135745030Y-65722500D01*
X135692704Y-65700826D01*
X135671030Y-65648500D01*
X135673552Y-65629347D01*
X135695499Y-65547437D01*
X135695500Y-65547437D01*
X135695500Y-65448563D01*
X135695499Y-65448562D01*
X135680251Y-65391653D01*
X135687643Y-65335500D01*
X135732576Y-65301022D01*
X135751729Y-65298500D01*
X136062207Y-65298500D01*
X136114533Y-65320174D01*
X136195985Y-65401626D01*
X136195987Y-65401629D01*
X136202078Y-65407720D01*
X136202079Y-65407722D01*
X136262278Y-65467921D01*
X136301603Y-65484209D01*
X136301604Y-65484210D01*
X136340933Y-65500501D01*
X136434679Y-65500501D01*
X136434687Y-65500500D01*
X136903644Y-65500500D01*
X136903652Y-65500501D01*
X136912264Y-65500501D01*
X136997399Y-65500501D01*
X137007667Y-65496246D01*
X137029973Y-65487006D01*
X137029977Y-65487006D01*
X137029977Y-65487005D01*
X137036730Y-65484208D01*
X137076053Y-65467921D01*
X137136252Y-65407722D01*
X137136252Y-65407720D01*
X137143359Y-65400614D01*
X137143365Y-65400606D01*
X137494106Y-65049865D01*
X137494114Y-65049859D01*
X137501220Y-65042752D01*
X137501222Y-65042752D01*
X137561421Y-64982553D01*
X137584403Y-64927069D01*
X137594001Y-64903898D01*
X137594001Y-64818764D01*
X137594000Y-64818761D01*
X137594000Y-64228791D01*
X137615674Y-64176465D01*
X137668000Y-64154791D01*
X137720326Y-64176465D01*
X137735695Y-64198902D01*
X137736186Y-64200015D01*
X137736187Y-64200016D01*
X137812984Y-64276813D01*
X137912338Y-64320682D01*
X137936627Y-64323500D01*
X138167086Y-64323499D01*
X138204085Y-64333413D01*
X138252888Y-64361589D01*
X138323465Y-64380501D01*
X138323466Y-64380501D01*
X138401064Y-64380501D01*
X138401080Y-64380500D01*
X138716962Y-64380500D01*
X138769288Y-64402174D01*
X138773903Y-64407731D01*
X138776186Y-64410014D01*
X138776187Y-64410016D01*
X138852984Y-64486813D01*
X138952338Y-64530682D01*
X138976627Y-64533500D01*
X139403372Y-64533499D01*
X139427662Y-64530682D01*
X139527016Y-64486813D01*
X139603813Y-64410016D01*
X139647682Y-64310662D01*
X139650500Y-64286373D01*
X139650499Y-64065595D01*
X139672172Y-64013271D01*
X140068175Y-63617269D01*
X140120500Y-63595596D01*
X140172826Y-63617270D01*
X140191804Y-63663089D01*
X140194143Y-63662859D01*
X140194499Y-63666476D01*
X140206857Y-63728608D01*
X140246252Y-63787566D01*
X140253935Y-63799065D01*
X140324391Y-63846142D01*
X140386520Y-63858500D01*
X140386521Y-63858500D01*
X140519950Y-63858500D01*
X140572276Y-63880174D01*
X140584036Y-63895500D01*
X140585181Y-63897484D01*
X140585182Y-63897485D01*
X140634617Y-63983109D01*
X140704530Y-64053022D01*
X140756518Y-64083037D01*
X140782276Y-64097909D01*
X140790154Y-64102457D01*
X140790155Y-64102457D01*
X140790157Y-64102458D01*
X140815050Y-64109128D01*
X140885654Y-64128046D01*
X140885655Y-64128047D01*
X140885657Y-64128047D01*
X140984529Y-64128047D01*
X140984529Y-64128046D01*
X141080030Y-64102457D01*
X141165654Y-64053022D01*
X141165655Y-64053021D01*
X141169500Y-64050071D01*
X141170518Y-64051398D01*
X141217306Y-64032008D01*
X141257793Y-64044058D01*
X141264219Y-64048256D01*
X141279438Y-64063475D01*
X141348866Y-64103559D01*
X141350583Y-64104681D01*
X141365493Y-64126503D01*
X141381588Y-64147479D01*
X141381303Y-64149643D01*
X141382534Y-64151445D01*
X141377646Y-64177413D01*
X141374195Y-64203631D01*
X141360090Y-64228060D01*
X141360088Y-64228065D01*
X141334500Y-64323562D01*
X141334500Y-64422437D01*
X141360088Y-64517934D01*
X141360090Y-64517939D01*
X141406348Y-64598060D01*
X141409525Y-64603562D01*
X141479438Y-64673475D01*
X141565062Y-64722910D01*
X141565063Y-64722910D01*
X141565065Y-64722911D01*
X141612813Y-64735705D01*
X141660562Y-64748499D01*
X141660563Y-64748500D01*
X141660565Y-64748500D01*
X141759437Y-64748500D01*
X141759437Y-64748499D01*
X141854938Y-64722910D01*
X141940562Y-64673475D01*
X142010475Y-64603562D01*
X142059910Y-64517938D01*
X142085499Y-64422437D01*
X142085500Y-64422437D01*
X142085500Y-64330795D01*
X142099927Y-64286897D01*
X142103234Y-64282408D01*
X142151421Y-64234222D01*
X142164247Y-64203256D01*
X142184001Y-64155567D01*
X142184001Y-64070433D01*
X142184001Y-64064475D01*
X142184000Y-64064461D01*
X142184000Y-63890780D01*
X142205674Y-63838454D01*
X142258000Y-63816780D01*
X142299111Y-63829250D01*
X142324391Y-63846142D01*
X142386520Y-63858500D01*
X142386521Y-63858500D01*
X142553479Y-63858500D01*
X142553480Y-63858500D01*
X142615609Y-63846142D01*
X142678889Y-63803859D01*
X142734437Y-63792811D01*
X142761110Y-63803859D01*
X142824391Y-63846142D01*
X142886520Y-63858500D01*
X142886521Y-63858500D01*
X143053479Y-63858500D01*
X143053480Y-63858500D01*
X143115609Y-63846142D01*
X143140888Y-63829250D01*
X143196437Y-63818202D01*
X143243529Y-63849668D01*
X143256000Y-63890780D01*
X143256000Y-64157723D01*
X143234326Y-64210049D01*
X143196438Y-64230301D01*
X143160259Y-64237498D01*
X143160257Y-64237498D01*
X143041876Y-64286533D01*
X142935331Y-64357723D01*
X142935330Y-64357725D01*
X142844725Y-64448330D01*
X142844723Y-64448331D01*
X142773533Y-64554876D01*
X142724498Y-64673257D01*
X142724497Y-64673260D01*
X142703043Y-64781117D01*
X142699500Y-64798931D01*
X142699500Y-64927069D01*
X142703651Y-64947938D01*
X142724497Y-65052739D01*
X142724498Y-65052742D01*
X142751735Y-65118499D01*
X142773535Y-65171127D01*
X142791687Y-65198293D01*
X142825355Y-65248682D01*
X142844724Y-65277669D01*
X142935331Y-65368276D01*
X143041873Y-65439465D01*
X143160256Y-65488501D01*
X143160258Y-65488501D01*
X143160260Y-65488502D01*
X143202903Y-65496984D01*
X143285931Y-65513500D01*
X143285933Y-65513500D01*
X143414067Y-65513500D01*
X143414069Y-65513500D01*
X143539744Y-65488501D01*
X143658127Y-65439465D01*
X143764669Y-65368276D01*
X143855276Y-65277669D01*
X143926465Y-65171127D01*
X143975501Y-65052744D01*
X144000500Y-64927069D01*
X144000500Y-64922333D01*
X144022174Y-64870007D01*
X144074500Y-64848333D01*
X144126826Y-64870007D01*
X144138586Y-64885333D01*
X144151511Y-64907720D01*
X144189525Y-64973562D01*
X144259438Y-65043475D01*
X144345062Y-65092910D01*
X144345063Y-65092910D01*
X144345065Y-65092911D01*
X144384491Y-65103475D01*
X144440562Y-65118499D01*
X144440563Y-65118500D01*
X144440565Y-65118500D01*
X144539437Y-65118500D01*
X144539437Y-65118499D01*
X144634938Y-65092910D01*
X144720562Y-65043475D01*
X144790475Y-64973562D01*
X144839910Y-64887938D01*
X144865499Y-64792437D01*
X144865500Y-64792437D01*
X144865500Y-64693563D01*
X144865499Y-64693562D01*
X144860948Y-64676579D01*
X144839910Y-64598062D01*
X144790475Y-64512438D01*
X144720562Y-64442525D01*
X144634939Y-64393090D01*
X144619344Y-64388911D01*
X144574412Y-64354430D01*
X144567022Y-64298277D01*
X144601500Y-64253347D01*
X144670562Y-64213475D01*
X144740475Y-64143562D01*
X144789910Y-64057938D01*
X144815499Y-63962437D01*
X144815500Y-63962437D01*
X144815500Y-63863563D01*
X144815499Y-63863562D01*
X144812518Y-63852438D01*
X144797392Y-63795984D01*
X144789911Y-63768065D01*
X144789909Y-63768060D01*
X144768209Y-63730475D01*
X144740475Y-63682438D01*
X144670562Y-63612525D01*
X144668863Y-63610826D01*
X144647189Y-63558500D01*
X144668863Y-63506174D01*
X144721189Y-63484500D01*
X145508207Y-63484500D01*
X145560533Y-63506174D01*
X146128524Y-64074165D01*
X146150198Y-64126491D01*
X146144566Y-64154808D01*
X146124499Y-64203256D01*
X146124497Y-64203261D01*
X146107934Y-64286533D01*
X146099500Y-64328931D01*
X146099500Y-64457069D01*
X146105127Y-64485358D01*
X146124497Y-64582739D01*
X146124498Y-64582742D01*
X146170402Y-64693565D01*
X146173535Y-64701127D01*
X146244724Y-64807669D01*
X146335331Y-64898276D01*
X146441873Y-64969465D01*
X146560256Y-65018501D01*
X146560258Y-65018501D01*
X146560260Y-65018502D01*
X146595441Y-65025500D01*
X146685931Y-65043500D01*
X146685933Y-65043500D01*
X146814067Y-65043500D01*
X146814069Y-65043500D01*
X146939744Y-65018501D01*
X147058127Y-64969465D01*
X147164669Y-64898276D01*
X147255276Y-64807669D01*
X147326465Y-64701127D01*
X147375501Y-64582744D01*
X147400500Y-64457069D01*
X147400500Y-64328931D01*
X147375501Y-64203256D01*
X147326465Y-64084873D01*
X147292180Y-64033562D01*
X147904500Y-64033562D01*
X147904500Y-64132437D01*
X147930088Y-64227934D01*
X147930090Y-64227939D01*
X147962745Y-64284498D01*
X147979525Y-64313562D01*
X148049438Y-64383475D01*
X148112117Y-64419663D01*
X148125691Y-64427500D01*
X148135062Y-64432910D01*
X148135063Y-64432910D01*
X148135065Y-64432911D01*
X148182813Y-64445705D01*
X148230562Y-64458499D01*
X148230563Y-64458500D01*
X148230565Y-64458500D01*
X148329437Y-64458500D01*
X148329437Y-64458499D01*
X148424938Y-64432910D01*
X148510562Y-64383475D01*
X148580475Y-64313562D01*
X148629910Y-64227938D01*
X148655499Y-64132437D01*
X148655500Y-64132437D01*
X148655500Y-64033563D01*
X148655499Y-64033562D01*
X148652426Y-64022095D01*
X148630966Y-63942002D01*
X148629911Y-63938065D01*
X148629909Y-63938060D01*
X148607436Y-63899136D01*
X148580475Y-63852438D01*
X148510562Y-63782525D01*
X148503547Y-63778475D01*
X148424939Y-63733090D01*
X148424934Y-63733088D01*
X148329437Y-63707500D01*
X148329435Y-63707500D01*
X148230565Y-63707500D01*
X148230563Y-63707500D01*
X148135065Y-63733088D01*
X148135060Y-63733090D01*
X148049437Y-63782525D01*
X147979525Y-63852437D01*
X147930090Y-63938060D01*
X147930088Y-63938065D01*
X147904500Y-64033562D01*
X147292180Y-64033562D01*
X147255276Y-63978331D01*
X147164669Y-63887724D01*
X147058127Y-63816535D01*
X147058124Y-63816533D01*
X147058123Y-63816533D01*
X146939742Y-63767498D01*
X146939739Y-63767497D01*
X146843111Y-63748277D01*
X146814069Y-63742500D01*
X146685931Y-63742500D01*
X146656889Y-63748277D01*
X146560261Y-63767497D01*
X146560259Y-63767498D01*
X146560257Y-63767498D01*
X146560256Y-63767499D01*
X146536659Y-63777272D01*
X146511808Y-63787566D01*
X146455170Y-63787564D01*
X146431165Y-63771524D01*
X145815014Y-63155373D01*
X145815013Y-63155371D01*
X145808921Y-63149279D01*
X145808921Y-63149278D01*
X145748722Y-63089079D01*
X145748719Y-63089077D01*
X145702646Y-63069994D01*
X145699684Y-63068767D01*
X145670067Y-63056499D01*
X145584933Y-63056499D01*
X145576321Y-63056499D01*
X145576313Y-63056500D01*
X144319500Y-63056500D01*
X144267174Y-63034826D01*
X144245500Y-62982500D01*
X144245500Y-62932500D01*
X144267174Y-62880174D01*
X144319500Y-62858500D01*
X145053479Y-62858500D01*
X145053480Y-62858500D01*
X145115609Y-62846142D01*
X145186065Y-62799065D01*
X145233142Y-62728609D01*
X145245500Y-62666480D01*
X145245500Y-62499520D01*
X145233142Y-62437391D01*
X145190859Y-62374110D01*
X145187988Y-62359675D01*
X145179811Y-62347437D01*
X145182682Y-62333000D01*
X145179811Y-62318563D01*
X145190860Y-62291888D01*
X145196739Y-62283090D01*
X145200568Y-62277359D01*
X147864500Y-62277359D01*
X147864500Y-62848640D01*
X147875134Y-62921625D01*
X147875134Y-62921626D01*
X147930173Y-63034210D01*
X147930174Y-63034211D01*
X148018789Y-63122826D01*
X148131375Y-63177866D01*
X148204364Y-63188500D01*
X148204370Y-63188500D01*
X148725630Y-63188500D01*
X148725636Y-63188500D01*
X148798625Y-63177866D01*
X148911211Y-63122826D01*
X148999826Y-63034211D01*
X149054866Y-62921625D01*
X149065500Y-62848636D01*
X149065500Y-62277364D01*
X149054866Y-62204375D01*
X148999826Y-62091789D01*
X148911211Y-62003174D01*
X148911210Y-62003173D01*
X148798626Y-61948134D01*
X148725640Y-61937500D01*
X148725636Y-61937500D01*
X148204364Y-61937500D01*
X148204359Y-61937500D01*
X148131374Y-61948134D01*
X148131373Y-61948134D01*
X148018789Y-62003173D01*
X147930173Y-62091789D01*
X147875134Y-62204373D01*
X147875134Y-62204374D01*
X147864500Y-62277359D01*
X145200568Y-62277359D01*
X145233142Y-62228609D01*
X145245500Y-62166480D01*
X145245500Y-61999520D01*
X145233142Y-61937391D01*
X145216250Y-61912111D01*
X145205202Y-61856563D01*
X145236668Y-61809471D01*
X145277780Y-61797000D01*
X146238813Y-61797000D01*
X146238821Y-61797001D01*
X146247433Y-61797001D01*
X146332568Y-61797001D01*
X146342836Y-61792746D01*
X146365146Y-61783505D01*
X146399853Y-61769130D01*
X146399855Y-61769130D01*
X146428167Y-61763499D01*
X146757622Y-61763499D01*
X146781498Y-61760730D01*
X146879141Y-61717616D01*
X146954616Y-61642141D01*
X146997730Y-61544498D01*
X147000500Y-61520623D01*
X147000499Y-61132499D01*
X147022173Y-61080174D01*
X147074499Y-61058500D01*
X147105500Y-61058500D01*
X147157826Y-61080174D01*
X147179500Y-61132500D01*
X147179500Y-61520622D01*
X147182269Y-61544495D01*
X147182269Y-61544497D01*
X147182270Y-61544498D01*
X147225384Y-61642141D01*
X147300859Y-61717616D01*
X147398502Y-61760730D01*
X147422377Y-61763500D01*
X147777622Y-61763499D01*
X147801498Y-61760730D01*
X147899141Y-61717616D01*
X147974616Y-61642141D01*
X148017730Y-61544498D01*
X148020500Y-61520623D01*
X148020499Y-61475795D01*
X148042167Y-61423474D01*
X148051420Y-61414222D01*
X148051421Y-61414218D01*
X149176231Y-60289408D01*
X149176235Y-60289406D01*
X149186640Y-60279001D01*
X149186641Y-60279001D01*
X149246840Y-60218802D01*
X149268512Y-60166480D01*
X149279420Y-60140147D01*
X149279420Y-60055013D01*
X149279419Y-60055010D01*
X149279419Y-57429687D01*
X149279420Y-57429678D01*
X149279420Y-57335934D01*
X149279420Y-57335933D01*
X149257655Y-57283389D01*
X149246840Y-57257278D01*
X149186641Y-57197079D01*
X149186637Y-57197077D01*
X148847094Y-56857534D01*
X148825420Y-56805208D01*
X148825420Y-56123181D01*
X148823725Y-56114662D01*
X148816687Y-56079279D01*
X148783424Y-56029497D01*
X148764439Y-56016812D01*
X148733642Y-55996234D01*
X148689740Y-55987501D01*
X148689739Y-55987501D01*
X148132350Y-55987501D01*
X148080024Y-55965827D01*
X148058350Y-55913501D01*
X148060872Y-55894348D01*
X148066191Y-55874498D01*
X148085499Y-55802437D01*
X148085500Y-55802437D01*
X148085500Y-55707562D01*
X148107174Y-55655236D01*
X148159500Y-55633562D01*
X148178654Y-55636084D01*
X148194152Y-55640237D01*
X148194153Y-55640237D01*
X148345687Y-55640237D01*
X148345687Y-55640236D01*
X148492054Y-55601018D01*
X148623284Y-55525252D01*
X148730434Y-55418102D01*
X148806200Y-55286872D01*
X148845418Y-55140505D01*
X148845419Y-55140505D01*
X148845419Y-54988969D01*
X148845418Y-54988968D01*
X148842785Y-54979143D01*
X148806200Y-54842602D01*
X148730434Y-54711372D01*
X148636123Y-54617061D01*
X148614450Y-54564737D01*
X148636123Y-54512412D01*
X148730434Y-54418102D01*
X148806200Y-54286872D01*
X148845418Y-54140505D01*
X148845419Y-54140505D01*
X148845419Y-53988969D01*
X148845418Y-53988968D01*
X148842273Y-53977232D01*
X148806200Y-53842602D01*
X148730434Y-53711372D01*
X148623284Y-53604222D01*
X148623281Y-53604220D01*
X148492058Y-53528458D01*
X148492056Y-53528457D01*
X148492055Y-53528456D01*
X148492054Y-53528456D01*
X148370844Y-53495978D01*
X148325912Y-53461500D01*
X148318519Y-53405347D01*
X148352998Y-53360414D01*
X148389998Y-53350500D01*
X148775811Y-53350500D01*
X148825241Y-53370974D01*
X148825589Y-53370522D01*
X148827278Y-53371818D01*
X148828137Y-53372174D01*
X148829438Y-53373475D01*
X148881445Y-53403501D01*
X148898678Y-53413451D01*
X148915062Y-53422910D01*
X148915063Y-53422910D01*
X148915065Y-53422911D01*
X148954584Y-53433500D01*
X149010562Y-53448499D01*
X149010563Y-53448500D01*
X149010565Y-53448500D01*
X149109437Y-53448500D01*
X149109437Y-53448499D01*
X149204938Y-53422910D01*
X149290562Y-53373475D01*
X149360475Y-53303562D01*
X149381414Y-53267293D01*
X149426347Y-53232816D01*
X149482500Y-53240208D01*
G37*
%TD.AperFunction*%
%TA.AperFunction,Conductor*%
G36*
X132961110Y-63446359D02*
G01*
X133024391Y-63488642D01*
X133086520Y-63501000D01*
X133086521Y-63501000D01*
X133253479Y-63501000D01*
X133253480Y-63501000D01*
X133315609Y-63488642D01*
X133340888Y-63471750D01*
X133396437Y-63460702D01*
X133443529Y-63492168D01*
X133456000Y-63533280D01*
X133456000Y-64433973D01*
X133443529Y-64475085D01*
X133383533Y-64564876D01*
X133334498Y-64683257D01*
X133334497Y-64683260D01*
X133313135Y-64790659D01*
X133309500Y-64808931D01*
X133309500Y-64937069D01*
X133312687Y-64953090D01*
X133334497Y-65062739D01*
X133334498Y-65062742D01*
X133357593Y-65118499D01*
X133383535Y-65181127D01*
X133401083Y-65207390D01*
X133412132Y-65262937D01*
X133380666Y-65310029D01*
X133339554Y-65322500D01*
X132632794Y-65322500D01*
X132580468Y-65300826D01*
X132177174Y-64897532D01*
X132155500Y-64845206D01*
X132155500Y-64753563D01*
X132155499Y-64753562D01*
X132154142Y-64748499D01*
X132139423Y-64693565D01*
X132129911Y-64658065D01*
X132129909Y-64658060D01*
X132098444Y-64603562D01*
X132080475Y-64572438D01*
X132010562Y-64502525D01*
X132007450Y-64500728D01*
X131924939Y-64453090D01*
X131924934Y-64453088D01*
X131829437Y-64427500D01*
X131829435Y-64427500D01*
X131730565Y-64427500D01*
X131730563Y-64427500D01*
X131635065Y-64453088D01*
X131635060Y-64453090D01*
X131549437Y-64502525D01*
X131479525Y-64572437D01*
X131430090Y-64658060D01*
X131430088Y-64658065D01*
X131404500Y-64753562D01*
X131404500Y-64852436D01*
X131404991Y-64854269D01*
X131404866Y-64855217D01*
X131405133Y-64857246D01*
X131404589Y-64857317D01*
X131397595Y-64910421D01*
X131352659Y-64944897D01*
X131314359Y-64944896D01*
X131249435Y-64927500D01*
X131150565Y-64927500D01*
X131150563Y-64927500D01*
X131055065Y-64953088D01*
X131055060Y-64953090D01*
X130965238Y-65004950D01*
X130964091Y-65002964D01*
X130916714Y-65015653D01*
X130874057Y-64994613D01*
X130687114Y-64807670D01*
X130492173Y-64612728D01*
X130470499Y-64560402D01*
X130470499Y-64545596D01*
X130492172Y-64493271D01*
X130612296Y-64373146D01*
X130612300Y-64373144D01*
X130618387Y-64367056D01*
X130618389Y-64367056D01*
X130670056Y-64315389D01*
X130706589Y-64252111D01*
X130725499Y-64181536D01*
X130725500Y-64181536D01*
X130725500Y-64179728D01*
X130725848Y-64178885D01*
X130726133Y-64176727D01*
X130726711Y-64176803D01*
X130747174Y-64127402D01*
X130799500Y-64105728D01*
X130818648Y-64108249D01*
X130860046Y-64119341D01*
X130875564Y-64123500D01*
X130875565Y-64123500D01*
X130974437Y-64123500D01*
X130974437Y-64123499D01*
X131069938Y-64097910D01*
X131155562Y-64048475D01*
X131225475Y-63978562D01*
X131248768Y-63938215D01*
X131293699Y-63903739D01*
X131349852Y-63911130D01*
X131357903Y-63916510D01*
X131361168Y-63919015D01*
X131361172Y-63919019D01*
X131446796Y-63968454D01*
X131446797Y-63968454D01*
X131446799Y-63968455D01*
X131479298Y-63977163D01*
X131542296Y-63994043D01*
X131542297Y-63994044D01*
X131542299Y-63994044D01*
X131641171Y-63994044D01*
X131641171Y-63994043D01*
X131736672Y-63968454D01*
X131822296Y-63919019D01*
X131855957Y-63885357D01*
X131908282Y-63863683D01*
X131945281Y-63873597D01*
X131958977Y-63881504D01*
X132019434Y-63916410D01*
X132019442Y-63916413D01*
X132067190Y-63929207D01*
X132114939Y-63942001D01*
X132114940Y-63942002D01*
X132114942Y-63942002D01*
X132213814Y-63942002D01*
X132213814Y-63942001D01*
X132309315Y-63916412D01*
X132394939Y-63866977D01*
X132464852Y-63797064D01*
X132514287Y-63711440D01*
X132539876Y-63615939D01*
X132539877Y-63615939D01*
X132539877Y-63575000D01*
X132561551Y-63522674D01*
X132613877Y-63501000D01*
X132753479Y-63501000D01*
X132753480Y-63501000D01*
X132815609Y-63488642D01*
X132878889Y-63446359D01*
X132934437Y-63435311D01*
X132961110Y-63446359D01*
G37*
%TD.AperFunction*%
%TA.AperFunction,Conductor*%
G36*
X146842216Y-56052174D02*
G01*
X146863890Y-56104500D01*
X146842216Y-56156824D01*
X146808214Y-56190827D01*
X146789403Y-56209638D01*
X146713641Y-56340861D01*
X146713637Y-56340870D01*
X146674420Y-56487232D01*
X146674420Y-56638769D01*
X146713637Y-56785131D01*
X146713641Y-56785140D01*
X146786089Y-56910623D01*
X146789405Y-56916366D01*
X146883715Y-57010676D01*
X146905389Y-57063001D01*
X146883715Y-57115325D01*
X146826606Y-57172435D01*
X146789403Y-57209638D01*
X146713641Y-57340861D01*
X146713637Y-57340870D01*
X146674420Y-57487232D01*
X146674420Y-57487235D01*
X146674420Y-57638767D01*
X146684782Y-57677438D01*
X146705012Y-57752940D01*
X146704371Y-57757806D01*
X146706848Y-57762044D01*
X146701862Y-57776858D01*
X146697619Y-57809092D01*
X146692479Y-57816828D01*
X146689418Y-57820860D01*
X146688781Y-57821498D01*
X146688778Y-57821500D01*
X146628579Y-57881699D01*
X146614606Y-57915434D01*
X146610956Y-57924245D01*
X146610954Y-57924248D01*
X146595999Y-57960353D01*
X146595999Y-58020707D01*
X146574325Y-58073033D01*
X146471367Y-58175990D01*
X146408577Y-58238780D01*
X146390055Y-58283499D01*
X146390055Y-58283500D01*
X146375999Y-58317432D01*
X146375999Y-58411178D01*
X146376000Y-58411187D01*
X146376000Y-58736591D01*
X146354326Y-58788917D01*
X146302000Y-58810591D01*
X146249674Y-58788917D01*
X146189142Y-58728385D01*
X146189141Y-58728384D01*
X146091498Y-58685270D01*
X146067623Y-58682500D01*
X146067619Y-58682500D01*
X145612377Y-58682500D01*
X145588504Y-58685269D01*
X145490858Y-58728384D01*
X145415385Y-58803857D01*
X145384532Y-58873732D01*
X145372270Y-58901502D01*
X145369653Y-58924065D01*
X145369500Y-58925380D01*
X145369500Y-59240206D01*
X145347827Y-59292530D01*
X145293032Y-59347326D01*
X145240709Y-59369000D01*
X145211603Y-59369000D01*
X145170491Y-59356529D01*
X145115608Y-59319857D01*
X145065837Y-59309957D01*
X145053480Y-59307500D01*
X144261520Y-59307500D01*
X144251213Y-59309550D01*
X144199391Y-59319857D01*
X144128935Y-59366934D01*
X144128934Y-59366935D01*
X144081857Y-59437391D01*
X144069500Y-59499520D01*
X144069500Y-59666479D01*
X144081857Y-59728608D01*
X144124139Y-59791888D01*
X144135188Y-59847437D01*
X144124139Y-59874112D01*
X144081857Y-59937391D01*
X144069500Y-59999520D01*
X144069500Y-60166479D01*
X144081857Y-60228608D01*
X144124139Y-60291888D01*
X144135188Y-60347437D01*
X144124139Y-60374112D01*
X144081857Y-60437391D01*
X144069500Y-60499520D01*
X144069500Y-60666479D01*
X144081857Y-60728608D01*
X144124139Y-60791888D01*
X144135188Y-60847437D01*
X144124139Y-60874112D01*
X144081857Y-60937391D01*
X144069500Y-60999520D01*
X144069500Y-61166479D01*
X144081857Y-61228608D01*
X144124139Y-61291888D01*
X144135188Y-61347437D01*
X144124139Y-61374112D01*
X144081857Y-61437391D01*
X144069500Y-61499520D01*
X144069500Y-61666479D01*
X144081857Y-61728608D01*
X144124139Y-61791888D01*
X144135188Y-61847437D01*
X144124139Y-61874112D01*
X144081857Y-61937391D01*
X144069500Y-61999520D01*
X144069500Y-62166479D01*
X144081857Y-62228608D01*
X144124139Y-62291888D01*
X144135188Y-62347437D01*
X144124139Y-62374112D01*
X144081857Y-62437391D01*
X144069500Y-62499520D01*
X144069500Y-62608500D01*
X144047826Y-62660826D01*
X143995500Y-62682500D01*
X143886520Y-62682500D01*
X143876213Y-62684550D01*
X143824391Y-62694857D01*
X143761112Y-62737139D01*
X143705563Y-62748188D01*
X143678888Y-62737139D01*
X143615608Y-62694857D01*
X143565837Y-62684957D01*
X143553480Y-62682500D01*
X143386520Y-62682500D01*
X143376213Y-62684550D01*
X143324391Y-62694857D01*
X143261112Y-62737139D01*
X143205563Y-62748188D01*
X143178888Y-62737139D01*
X143115608Y-62694857D01*
X143065837Y-62684957D01*
X143053480Y-62682500D01*
X142886520Y-62682500D01*
X142876213Y-62684550D01*
X142824391Y-62694857D01*
X142761112Y-62737139D01*
X142705563Y-62748188D01*
X142678888Y-62737139D01*
X142615608Y-62694857D01*
X142565837Y-62684957D01*
X142553480Y-62682500D01*
X142386520Y-62682500D01*
X142376213Y-62684550D01*
X142324391Y-62694857D01*
X142261112Y-62737139D01*
X142205563Y-62748188D01*
X142178888Y-62737139D01*
X142115608Y-62694857D01*
X142065837Y-62684957D01*
X142053480Y-62682500D01*
X141886520Y-62682500D01*
X141876213Y-62684550D01*
X141824391Y-62694857D01*
X141761112Y-62737139D01*
X141705563Y-62748188D01*
X141678888Y-62737139D01*
X141615608Y-62694857D01*
X141565837Y-62684957D01*
X141553480Y-62682500D01*
X141386520Y-62682500D01*
X141376213Y-62684550D01*
X141324391Y-62694857D01*
X141261112Y-62737139D01*
X141205563Y-62748188D01*
X141178888Y-62737139D01*
X141115608Y-62694857D01*
X141065837Y-62684957D01*
X141053480Y-62682500D01*
X140886520Y-62682500D01*
X140876213Y-62684550D01*
X140824391Y-62694857D01*
X140761112Y-62737139D01*
X140705563Y-62748188D01*
X140678888Y-62737139D01*
X140615608Y-62694857D01*
X140565837Y-62684957D01*
X140553480Y-62682500D01*
X140386520Y-62682500D01*
X140376213Y-62684550D01*
X140324391Y-62694857D01*
X140253935Y-62741934D01*
X140253934Y-62741935D01*
X140206857Y-62812391D01*
X140194500Y-62874520D01*
X140194500Y-62919000D01*
X140172826Y-62971326D01*
X140120500Y-62993000D01*
X140063580Y-62993000D01*
X140063564Y-62992999D01*
X140059034Y-62992999D01*
X139985966Y-62992999D01*
X139985965Y-62992999D01*
X139915388Y-63011910D01*
X139852111Y-63048443D01*
X139249727Y-63650826D01*
X139197401Y-63672500D01*
X138976627Y-63672500D01*
X138952340Y-63675317D01*
X138852983Y-63719187D01*
X138829671Y-63742500D01*
X138776187Y-63795984D01*
X138776186Y-63795985D01*
X138771339Y-63800833D01*
X138770765Y-63800259D01*
X138769288Y-63803826D01*
X138748970Y-63812241D01*
X138730547Y-63824242D01*
X138716962Y-63825500D01*
X138684499Y-63825500D01*
X138632173Y-63803826D01*
X138610499Y-63751500D01*
X138610499Y-63709627D01*
X138607682Y-63685340D01*
X138607682Y-63685338D01*
X138563813Y-63585984D01*
X138487016Y-63509187D01*
X138387662Y-63465318D01*
X138387663Y-63465318D01*
X138382804Y-63464754D01*
X138363373Y-63462500D01*
X138363369Y-63462500D01*
X138171792Y-63462500D01*
X138119466Y-63440826D01*
X138097792Y-63388500D01*
X138119466Y-63336174D01*
X138191142Y-63264498D01*
X138816000Y-62639641D01*
X138854934Y-62620442D01*
X138854750Y-62619756D01*
X138858203Y-62618830D01*
X138858671Y-62618600D01*
X138859428Y-62618500D01*
X138859435Y-62618500D01*
X138859441Y-62618498D01*
X138859443Y-62618498D01*
X138954934Y-62592911D01*
X138954933Y-62592911D01*
X138954938Y-62592910D01*
X139040562Y-62543475D01*
X139110475Y-62473562D01*
X139159910Y-62387938D01*
X139167658Y-62359021D01*
X139202135Y-62314089D01*
X139258288Y-62306696D01*
X139280242Y-62316643D01*
X139324391Y-62346142D01*
X139386520Y-62358500D01*
X139496094Y-62358500D01*
X139548420Y-62380174D01*
X139559438Y-62391192D01*
X139645062Y-62440627D01*
X139645063Y-62440627D01*
X139645065Y-62440628D01*
X139692813Y-62453422D01*
X139740562Y-62466216D01*
X139740563Y-62466217D01*
X139740565Y-62466217D01*
X139839437Y-62466217D01*
X139839437Y-62466216D01*
X139934938Y-62440627D01*
X140020562Y-62391192D01*
X140031580Y-62380174D01*
X140083906Y-62358500D01*
X140178479Y-62358500D01*
X140178480Y-62358500D01*
X140240609Y-62346142D01*
X140311065Y-62299065D01*
X140358142Y-62228609D01*
X140370500Y-62166480D01*
X140370500Y-61999520D01*
X140358142Y-61937391D01*
X140315859Y-61874110D01*
X140304811Y-61818563D01*
X140315860Y-61791888D01*
X140321460Y-61783507D01*
X140358142Y-61728609D01*
X140370500Y-61666480D01*
X140370500Y-61499520D01*
X140358142Y-61437391D01*
X140315859Y-61374110D01*
X140304811Y-61318563D01*
X140315860Y-61291888D01*
X140358142Y-61228609D01*
X140370500Y-61166480D01*
X140370500Y-60999520D01*
X140358142Y-60937391D01*
X140315859Y-60874110D01*
X140304811Y-60818563D01*
X140315860Y-60791888D01*
X140320106Y-60785534D01*
X140358142Y-60728609D01*
X140370500Y-60666480D01*
X140370500Y-60499520D01*
X140358142Y-60437391D01*
X140315859Y-60374110D01*
X140304811Y-60318563D01*
X140315860Y-60291888D01*
X140317516Y-60289410D01*
X140358142Y-60228609D01*
X140370500Y-60166480D01*
X140370500Y-59999520D01*
X140358142Y-59937391D01*
X140315859Y-59874110D01*
X140304811Y-59818563D01*
X140315860Y-59791888D01*
X140320375Y-59785131D01*
X140358142Y-59728609D01*
X140370500Y-59666480D01*
X140370500Y-59499520D01*
X140358142Y-59437391D01*
X140315859Y-59374110D01*
X140304811Y-59318563D01*
X140315860Y-59291888D01*
X140358142Y-59228609D01*
X140370500Y-59166480D01*
X140370500Y-59057500D01*
X140392174Y-59005174D01*
X140444500Y-58983500D01*
X140553479Y-58983500D01*
X140553480Y-58983500D01*
X140615609Y-58971142D01*
X140678889Y-58928859D01*
X140734437Y-58917811D01*
X140761110Y-58928859D01*
X140824391Y-58971142D01*
X140886520Y-58983500D01*
X140886521Y-58983500D01*
X141053479Y-58983500D01*
X141053480Y-58983500D01*
X141115609Y-58971142D01*
X141178889Y-58928859D01*
X141234437Y-58917811D01*
X141261110Y-58928859D01*
X141324391Y-58971142D01*
X141386520Y-58983500D01*
X141386521Y-58983500D01*
X141553479Y-58983500D01*
X141553480Y-58983500D01*
X141615609Y-58971142D01*
X141678889Y-58928859D01*
X141734437Y-58917811D01*
X141761110Y-58928859D01*
X141824391Y-58971142D01*
X141886520Y-58983500D01*
X141886521Y-58983500D01*
X142053479Y-58983500D01*
X142053480Y-58983500D01*
X142115609Y-58971142D01*
X142178889Y-58928859D01*
X142234437Y-58917811D01*
X142261110Y-58928859D01*
X142324391Y-58971142D01*
X142386520Y-58983500D01*
X142386521Y-58983500D01*
X142553479Y-58983500D01*
X142553480Y-58983500D01*
X142615609Y-58971142D01*
X142678889Y-58928859D01*
X142734437Y-58917811D01*
X142761110Y-58928859D01*
X142824391Y-58971142D01*
X142886520Y-58983500D01*
X142886521Y-58983500D01*
X143053479Y-58983500D01*
X143053480Y-58983500D01*
X143115609Y-58971142D01*
X143178889Y-58928859D01*
X143234437Y-58917811D01*
X143261110Y-58928859D01*
X143324391Y-58971142D01*
X143386520Y-58983500D01*
X143386521Y-58983500D01*
X143553479Y-58983500D01*
X143553480Y-58983500D01*
X143615609Y-58971142D01*
X143678889Y-58928859D01*
X143734437Y-58917811D01*
X143761110Y-58928859D01*
X143824391Y-58971142D01*
X143886520Y-58983500D01*
X143886521Y-58983500D01*
X144053479Y-58983500D01*
X144053480Y-58983500D01*
X144115609Y-58971142D01*
X144186065Y-58924065D01*
X144186066Y-58924063D01*
X144192125Y-58920015D01*
X144194129Y-58923015D01*
X144234458Y-58906292D01*
X144271488Y-58916206D01*
X144335060Y-58952909D01*
X144335062Y-58952910D01*
X144335063Y-58952910D01*
X144335065Y-58952911D01*
X144370322Y-58962358D01*
X144430562Y-58978499D01*
X144430563Y-58978500D01*
X144430565Y-58978500D01*
X144529437Y-58978500D01*
X144529437Y-58978499D01*
X144624938Y-58952910D01*
X144710562Y-58903475D01*
X144780475Y-58833562D01*
X144829910Y-58747938D01*
X144855499Y-58652437D01*
X144855500Y-58652437D01*
X144855500Y-58553563D01*
X144855499Y-58553562D01*
X144850992Y-58536743D01*
X144829910Y-58458062D01*
X144825255Y-58450000D01*
X144802847Y-58411187D01*
X144780475Y-58372438D01*
X144710562Y-58302525D01*
X144677608Y-58283499D01*
X144632326Y-58257355D01*
X144626238Y-58249421D01*
X144617000Y-58245595D01*
X144609607Y-58227747D01*
X144597847Y-58212421D01*
X144599152Y-58202506D01*
X144595326Y-58193269D01*
X144602718Y-58175422D01*
X144605240Y-58156269D01*
X144616996Y-58140947D01*
X144687585Y-58070358D01*
X144739910Y-58048685D01*
X144792236Y-58070359D01*
X144803996Y-58085685D01*
X144816583Y-58107486D01*
X144834525Y-58138562D01*
X144904438Y-58208475D01*
X144937818Y-58227747D01*
X144989100Y-58257355D01*
X144990062Y-58257910D01*
X144990063Y-58257910D01*
X144990065Y-58257911D01*
X145007285Y-58262525D01*
X145085562Y-58283499D01*
X145085563Y-58283500D01*
X145085565Y-58283500D01*
X145184437Y-58283500D01*
X145184437Y-58283499D01*
X145279938Y-58257910D01*
X145365562Y-58208475D01*
X145435475Y-58138562D01*
X145484910Y-58052938D01*
X145510499Y-57957437D01*
X145510500Y-57957437D01*
X145510500Y-57858563D01*
X145510499Y-57858562D01*
X145510356Y-57858030D01*
X145496817Y-57807499D01*
X145484911Y-57763065D01*
X145484909Y-57763060D01*
X145456180Y-57713301D01*
X145435475Y-57677438D01*
X145365562Y-57607525D01*
X145365561Y-57607524D01*
X145355274Y-57601585D01*
X145320795Y-57556652D01*
X145328187Y-57500500D01*
X145373120Y-57466021D01*
X145392273Y-57463499D01*
X145463372Y-57463499D01*
X145487662Y-57460682D01*
X145587016Y-57416813D01*
X145663813Y-57340016D01*
X145707682Y-57240662D01*
X145710500Y-57216373D01*
X145710499Y-56995595D01*
X145732172Y-56943271D01*
X146623271Y-56052174D01*
X146675597Y-56030500D01*
X146789890Y-56030500D01*
X146842216Y-56052174D01*
G37*
%TD.AperFunction*%
%TA.AperFunction,Conductor*%
G36*
X128959531Y-59315173D02*
G01*
X129372826Y-59728467D01*
X129394500Y-59780793D01*
X129394500Y-59808979D01*
X129406857Y-59871108D01*
X129449139Y-59934388D01*
X129460188Y-59989937D01*
X129449139Y-60016612D01*
X129406857Y-60079891D01*
X129394500Y-60142020D01*
X129394500Y-60221360D01*
X129372826Y-60273686D01*
X129262867Y-60383644D01*
X129200078Y-60446432D01*
X129197457Y-60450356D01*
X129150365Y-60481822D01*
X129094816Y-60470773D01*
X129064450Y-60428398D01*
X129056924Y-60400309D01*
X129047302Y-60383644D01*
X129038235Y-60367938D01*
X129007489Y-60314685D01*
X128937576Y-60244772D01*
X128909579Y-60228608D01*
X128851953Y-60195337D01*
X128851948Y-60195335D01*
X128756451Y-60169747D01*
X128756449Y-60169747D01*
X128657579Y-60169747D01*
X128600652Y-60185000D01*
X128544499Y-60177607D01*
X128510021Y-60132673D01*
X128507500Y-60113521D01*
X128507500Y-59598792D01*
X128529173Y-59546467D01*
X128760467Y-59315172D01*
X128812793Y-59293499D01*
X128907205Y-59293499D01*
X128959531Y-59315173D01*
G37*
%TD.AperFunction*%
%TA.AperFunction,Conductor*%
G36*
X147802244Y-58929205D02*
G01*
X147896555Y-59023516D01*
X148027785Y-59099282D01*
X148174151Y-59138500D01*
X148174152Y-59138501D01*
X148174154Y-59138501D01*
X148325688Y-59138501D01*
X148325688Y-59138500D01*
X148472055Y-59099282D01*
X148513419Y-59075399D01*
X148569571Y-59068006D01*
X148614505Y-59102484D01*
X148624420Y-59139485D01*
X148624420Y-59687473D01*
X148602746Y-59739799D01*
X148426718Y-59915827D01*
X148374392Y-59937501D01*
X147826405Y-59937501D01*
X147774079Y-59915827D01*
X147752405Y-59863501D01*
X147762319Y-59826501D01*
X147768858Y-59815175D01*
X147786201Y-59785136D01*
X147825419Y-59638769D01*
X147825420Y-59638769D01*
X147825420Y-59487233D01*
X147825419Y-59487232D01*
X147822275Y-59475500D01*
X147786201Y-59340866D01*
X147710435Y-59209636D01*
X147616124Y-59115325D01*
X147594451Y-59063001D01*
X147616124Y-59010676D01*
X147697595Y-58929205D01*
X147749920Y-58907532D01*
X147802244Y-58929205D01*
G37*
%TD.AperFunction*%
%TA.AperFunction,Conductor*%
G36*
X134565149Y-56425174D02*
G01*
X134931143Y-56791168D01*
X134952817Y-56843494D01*
X134931143Y-56895820D01*
X134879525Y-56947437D01*
X134830090Y-57033060D01*
X134830088Y-57033065D01*
X134804500Y-57128562D01*
X134804500Y-57227437D01*
X134830088Y-57322934D01*
X134830090Y-57322939D01*
X134846816Y-57351909D01*
X134879525Y-57408562D01*
X134949438Y-57478475D01*
X134994755Y-57504639D01*
X135000461Y-57507933D01*
X135034940Y-57552866D01*
X135027548Y-57609018D01*
X135015788Y-57624344D01*
X134901309Y-57738825D01*
X134848984Y-57760500D01*
X134519500Y-57760500D01*
X134467174Y-57738826D01*
X134445500Y-57686500D01*
X134445500Y-57642020D01*
X134433142Y-57579891D01*
X134386065Y-57509435D01*
X134386064Y-57509434D01*
X134315608Y-57462357D01*
X134264626Y-57452217D01*
X134253480Y-57450000D01*
X134086520Y-57450000D01*
X134076213Y-57452050D01*
X134024391Y-57462357D01*
X133961112Y-57504639D01*
X133905563Y-57515688D01*
X133878888Y-57504639D01*
X133815608Y-57462357D01*
X133764626Y-57452217D01*
X133753480Y-57450000D01*
X133586520Y-57450000D01*
X133576213Y-57452050D01*
X133524391Y-57462357D01*
X133461112Y-57504639D01*
X133405563Y-57515688D01*
X133378888Y-57504639D01*
X133315609Y-57462358D01*
X133264626Y-57452217D01*
X133217534Y-57420751D01*
X133206485Y-57365202D01*
X133226736Y-57327314D01*
X133408877Y-57145172D01*
X133461203Y-57123499D01*
X133533372Y-57123499D01*
X133557662Y-57120682D01*
X133657016Y-57076813D01*
X133733813Y-57000016D01*
X133777682Y-56900662D01*
X133780500Y-56876373D01*
X133780499Y-56477499D01*
X133802173Y-56425174D01*
X133854499Y-56403500D01*
X134512823Y-56403500D01*
X134565149Y-56425174D01*
G37*
%TD.AperFunction*%
%TA.AperFunction,Conductor*%
G36*
X144906533Y-52789174D02*
G01*
X145017826Y-52900467D01*
X145039500Y-52952793D01*
X145039500Y-53267622D01*
X145042269Y-53291495D01*
X145042269Y-53291497D01*
X145042270Y-53291498D01*
X145065502Y-53344112D01*
X145085384Y-53389141D01*
X145096681Y-53400438D01*
X145118355Y-53452764D01*
X145096681Y-53505090D01*
X145063510Y-53524242D01*
X145047785Y-53528455D01*
X145047779Y-53528458D01*
X144916556Y-53604220D01*
X144916554Y-53604221D01*
X144916554Y-53604222D01*
X144822243Y-53698532D01*
X144769919Y-53720206D01*
X144717594Y-53698532D01*
X144623284Y-53604222D01*
X144623281Y-53604220D01*
X144492058Y-53528458D01*
X144492049Y-53528454D01*
X144345687Y-53489237D01*
X144345685Y-53489237D01*
X144194153Y-53489237D01*
X144194151Y-53489237D01*
X144047788Y-53528454D01*
X144047779Y-53528458D01*
X143916556Y-53604220D01*
X143809402Y-53711374D01*
X143733640Y-53842597D01*
X143733636Y-53842606D01*
X143694419Y-53988968D01*
X143694419Y-54140505D01*
X143733636Y-54286867D01*
X143733640Y-54286876D01*
X143801564Y-54404523D01*
X143808957Y-54460675D01*
X143778591Y-54503052D01*
X143736414Y-54531233D01*
X143703152Y-54581014D01*
X143696074Y-54616595D01*
X143694419Y-54624917D01*
X143694419Y-55504557D01*
X143703152Y-55548459D01*
X143734405Y-55595234D01*
X143736415Y-55598241D01*
X143786197Y-55631504D01*
X143830099Y-55640237D01*
X144356466Y-55640237D01*
X144408792Y-55661911D01*
X144430466Y-55714237D01*
X144427944Y-55733390D01*
X144414500Y-55783562D01*
X144414500Y-55882437D01*
X144440088Y-55977934D01*
X144440090Y-55977939D01*
X144481070Y-56048918D01*
X144489525Y-56063562D01*
X144559438Y-56133475D01*
X144599883Y-56156826D01*
X144644242Y-56182437D01*
X144645062Y-56182910D01*
X144645063Y-56182910D01*
X144645065Y-56182911D01*
X144692813Y-56195705D01*
X144740562Y-56208499D01*
X144740563Y-56208500D01*
X144740565Y-56208500D01*
X144839437Y-56208500D01*
X144839437Y-56208499D01*
X144934938Y-56182910D01*
X145020562Y-56133475D01*
X145090475Y-56063562D01*
X145139910Y-55977938D01*
X145165499Y-55882437D01*
X145165500Y-55882437D01*
X145165500Y-55783563D01*
X145165499Y-55783562D01*
X145161679Y-55769307D01*
X145149050Y-55722174D01*
X145139911Y-55688065D01*
X145139909Y-55688060D01*
X145116640Y-55647758D01*
X145090475Y-55602438D01*
X145020562Y-55532525D01*
X145007965Y-55525252D01*
X144934939Y-55483090D01*
X144934934Y-55483088D01*
X144900266Y-55473799D01*
X144855333Y-55439321D01*
X144845419Y-55402321D01*
X144845419Y-54624913D01*
X144845063Y-54621301D01*
X144846645Y-54621145D01*
X144856698Y-54570566D01*
X144903785Y-54539093D01*
X144955231Y-54547582D01*
X145047784Y-54601018D01*
X145194150Y-54640236D01*
X145194151Y-54640237D01*
X145194153Y-54640237D01*
X145345687Y-54640237D01*
X145345687Y-54640236D01*
X145492054Y-54601018D01*
X145623284Y-54525252D01*
X145717594Y-54430941D01*
X145769919Y-54409268D01*
X145822243Y-54430941D01*
X145867504Y-54476202D01*
X145903713Y-54512411D01*
X145925387Y-54564737D01*
X145903713Y-54617063D01*
X145809402Y-54711374D01*
X145733640Y-54842597D01*
X145733636Y-54842606D01*
X145694419Y-54988968D01*
X145694419Y-55140505D01*
X145733636Y-55286867D01*
X145733640Y-55286876D01*
X145802316Y-55405826D01*
X145809404Y-55418102D01*
X145916554Y-55525252D01*
X146047784Y-55601018D01*
X146114644Y-55618932D01*
X146159577Y-55653411D01*
X146166970Y-55709563D01*
X146147817Y-55742737D01*
X145369727Y-56520826D01*
X145317401Y-56542500D01*
X145096627Y-56542500D01*
X145072340Y-56545317D01*
X144972983Y-56589187D01*
X144896187Y-56665983D01*
X144852318Y-56765337D01*
X144849500Y-56789630D01*
X144849500Y-57092902D01*
X144827826Y-57145228D01*
X144816825Y-57156229D01*
X144764499Y-57177903D01*
X144712173Y-57156229D01*
X144690499Y-57103903D01*
X144690499Y-57089627D01*
X144687682Y-57065340D01*
X144687682Y-57065338D01*
X144643813Y-56965984D01*
X144567016Y-56889187D01*
X144467662Y-56845318D01*
X144467661Y-56845317D01*
X144467659Y-56845317D01*
X144467648Y-56845314D01*
X144458778Y-56842282D01*
X144402568Y-56818999D01*
X144402567Y-56818999D01*
X144317433Y-56818999D01*
X144274295Y-56836867D01*
X144245977Y-56842500D01*
X144016627Y-56842500D01*
X143992340Y-56845317D01*
X143892983Y-56889187D01*
X143861345Y-56920826D01*
X143809019Y-56942500D01*
X143322688Y-56942500D01*
X143322680Y-56942499D01*
X143314068Y-56942499D01*
X143228934Y-56942499D01*
X143173316Y-56965536D01*
X143173314Y-56965537D01*
X143173313Y-56965536D01*
X143150279Y-56975078D01*
X142843826Y-57281532D01*
X142791500Y-57303206D01*
X142739174Y-57281532D01*
X142717500Y-57229206D01*
X142717500Y-57096981D01*
X142739174Y-57044655D01*
X142751048Y-57032781D01*
X142763813Y-57020016D01*
X142807682Y-56920662D01*
X142810500Y-56896373D01*
X142810499Y-56469628D01*
X142807682Y-56445338D01*
X142763813Y-56345984D01*
X142739174Y-56321345D01*
X142717500Y-56269019D01*
X142717500Y-55831884D01*
X142717499Y-55831883D01*
X142711114Y-55808055D01*
X142698589Y-55761309D01*
X142687099Y-55741408D01*
X142679709Y-55685257D01*
X142714188Y-55640324D01*
X142751187Y-55630411D01*
X142865688Y-55630411D01*
X142865688Y-55630410D01*
X143012055Y-55591192D01*
X143143285Y-55515426D01*
X143250435Y-55408276D01*
X143326201Y-55277046D01*
X143365419Y-55130679D01*
X143365420Y-55130679D01*
X143365420Y-54979143D01*
X143365419Y-54979142D01*
X143364907Y-54977233D01*
X143326201Y-54832776D01*
X143258273Y-54715123D01*
X143250881Y-54658972D01*
X143281249Y-54616595D01*
X143286359Y-54613181D01*
X143323424Y-54588415D01*
X143356687Y-54538633D01*
X143365420Y-54494731D01*
X143365420Y-53615091D01*
X143356687Y-53571189D01*
X143354452Y-53565794D01*
X143354451Y-53551073D01*
X143348818Y-53537472D01*
X143354450Y-53523874D01*
X143354450Y-53509157D01*
X143370490Y-53485149D01*
X143413468Y-53442172D01*
X143438531Y-53431791D01*
X143465793Y-53420499D01*
X143747622Y-53420499D01*
X143771498Y-53417730D01*
X143869141Y-53374616D01*
X143944616Y-53299141D01*
X143987730Y-53201498D01*
X143990500Y-53177623D01*
X143990499Y-52922793D01*
X144012173Y-52870468D01*
X144093468Y-52789174D01*
X144145794Y-52767500D01*
X144854207Y-52767500D01*
X144906533Y-52789174D01*
G37*
%TD.AperFunction*%
%TA.AperFunction,Conductor*%
G36*
X132138845Y-55878674D02*
G01*
X132160519Y-55931000D01*
X132138845Y-55983326D01*
X132116187Y-56005983D01*
X132072318Y-56105337D01*
X132069500Y-56129630D01*
X132069500Y-56320403D01*
X132047826Y-56372729D01*
X131697943Y-56722611D01*
X131697941Y-56722613D01*
X131695407Y-56727003D01*
X131683654Y-56742319D01*
X131670944Y-56755029D01*
X131670942Y-56755032D01*
X131634410Y-56818308D01*
X131615499Y-56888884D01*
X131615499Y-56967919D01*
X131615500Y-56967925D01*
X131615500Y-57064708D01*
X131593826Y-57117034D01*
X131541500Y-57138708D01*
X131489174Y-57117034D01*
X131453513Y-57081373D01*
X131453512Y-57081371D01*
X131447420Y-57075279D01*
X131447420Y-57075278D01*
X131387221Y-57015079D01*
X131387218Y-57015077D01*
X131341145Y-56995994D01*
X131340184Y-56995596D01*
X131308566Y-56982499D01*
X131223432Y-56982499D01*
X131214820Y-56982499D01*
X131214812Y-56982500D01*
X131154500Y-56982500D01*
X131102174Y-56960826D01*
X131080500Y-56908500D01*
X131080499Y-56485377D01*
X131077730Y-56461504D01*
X131077730Y-56461502D01*
X131041970Y-56380516D01*
X131040663Y-56323895D01*
X131057340Y-56298301D01*
X131134627Y-56221015D01*
X131368141Y-55987501D01*
X131476969Y-55878674D01*
X131529295Y-55857000D01*
X132086519Y-55857000D01*
X132138845Y-55878674D01*
G37*
%TD.AperFunction*%
%TA.AperFunction,Conductor*%
G36*
X129180723Y-55520681D02*
G01*
X129189928Y-55531897D01*
X129225457Y-55585070D01*
X129226416Y-55586505D01*
X129276198Y-55619768D01*
X129320100Y-55628501D01*
X129497322Y-55628501D01*
X129549648Y-55650175D01*
X129571322Y-55702501D01*
X129549648Y-55754827D01*
X129087867Y-56216606D01*
X129025079Y-56279393D01*
X129025078Y-56279394D01*
X129006661Y-56323860D01*
X129006661Y-56323861D01*
X128995397Y-56351055D01*
X128992499Y-56358050D01*
X128992499Y-56451794D01*
X128992500Y-56451803D01*
X128992500Y-56487206D01*
X128970826Y-56539532D01*
X128939532Y-56570826D01*
X128887206Y-56592500D01*
X128492377Y-56592500D01*
X128468504Y-56595269D01*
X128370858Y-56638384D01*
X128356826Y-56652417D01*
X128304500Y-56674091D01*
X128252174Y-56652417D01*
X128230500Y-56600091D01*
X128230500Y-55833392D01*
X128252174Y-55781066D01*
X128304500Y-55759392D01*
X128341501Y-55769307D01*
X128365058Y-55782908D01*
X128365060Y-55782908D01*
X128365062Y-55782910D01*
X128365063Y-55782910D01*
X128365065Y-55782911D01*
X128367506Y-55783565D01*
X128460562Y-55808499D01*
X128460563Y-55808500D01*
X128460565Y-55808500D01*
X128559437Y-55808500D01*
X128559437Y-55808499D01*
X128654938Y-55782910D01*
X128740562Y-55733475D01*
X128810475Y-55663562D01*
X128841111Y-55610499D01*
X128886045Y-55576020D01*
X128905197Y-55573499D01*
X128947622Y-55573499D01*
X128971498Y-55570730D01*
X129069141Y-55527616D01*
X129076072Y-55520684D01*
X129128396Y-55499009D01*
X129180723Y-55520681D01*
G37*
%TD.AperFunction*%
%TA.AperFunction,Conductor*%
G36*
X133312244Y-54419205D02*
G01*
X133353714Y-54460675D01*
X133393714Y-54500675D01*
X133415388Y-54553001D01*
X133393714Y-54605327D01*
X133299403Y-54699638D01*
X133223641Y-54830861D01*
X133223637Y-54830870D01*
X133184420Y-54977232D01*
X133184420Y-54977235D01*
X133184420Y-55128767D01*
X133191521Y-55155269D01*
X133215012Y-55242941D01*
X133213706Y-55252855D01*
X133217533Y-55262092D01*
X133210140Y-55279938D01*
X133207619Y-55299093D01*
X133195859Y-55314418D01*
X133104453Y-55405826D01*
X133052128Y-55427501D01*
X132942686Y-55427501D01*
X132942678Y-55427500D01*
X132934066Y-55427500D01*
X132848932Y-55427500D01*
X132848931Y-55427500D01*
X132848539Y-55427578D01*
X132834102Y-55429000D01*
X132335539Y-55429000D01*
X132283213Y-55407326D01*
X132261539Y-55355000D01*
X132271452Y-55318002D01*
X132296201Y-55275136D01*
X132335419Y-55128769D01*
X132335420Y-55128769D01*
X132335420Y-54977233D01*
X132335419Y-54977232D01*
X132312076Y-54890115D01*
X132296201Y-54830866D01*
X132220435Y-54699636D01*
X132126124Y-54605325D01*
X132104451Y-54553001D01*
X132126124Y-54500676D01*
X132207595Y-54419205D01*
X132259920Y-54397532D01*
X132312244Y-54419205D01*
X132406555Y-54513516D01*
X132537785Y-54589282D01*
X132684151Y-54628500D01*
X132684152Y-54628501D01*
X132684154Y-54628501D01*
X132835688Y-54628501D01*
X132835688Y-54628500D01*
X132982055Y-54589282D01*
X133113285Y-54513516D01*
X133207595Y-54419205D01*
X133259920Y-54397532D01*
X133312244Y-54419205D01*
G37*
%TD.AperFunction*%
%TD*%
M02*
