%TF.GenerationSoftware,KiCad,Pcbnew,10.0.1*%
%TF.CreationDate,2026-06-19T22:54:47+02:00*%
%TF.ProjectId,drone,64726f6e-652e-46b6-9963-61645f706362,rev?*%
%TF.SameCoordinates,Original*%
%TF.FileFunction,Copper,L3,Inr*%
%TF.FilePolarity,Positive*%
%FSLAX46Y46*%
G04 Gerber Fmt 4.6, Leading zero omitted, Abs format (unit mm)*
G04 Created by KiCad (PCBNEW 10.0.1) date 2026-06-19 22:54:47*
%MOMM*%
%LPD*%
G01*
G04 APERTURE LIST*
%TA.AperFunction,ComponentPad*%
%ADD10C,0.600000*%
%TD*%
%TA.AperFunction,HeatsinkPad*%
%ADD11O,2.100000X1.000000*%
%TD*%
%TA.AperFunction,HeatsinkPad*%
%ADD12O,1.800000X1.000000*%
%TD*%
%TA.AperFunction,ViaPad*%
%ADD13C,0.600000*%
%TD*%
%TA.AperFunction,Conductor*%
%ADD14C,0.127000*%
%TD*%
%TA.AperFunction,Conductor*%
%ADD15C,1.016000*%
%TD*%
%TA.AperFunction,Conductor*%
%ADD16C,0.508000*%
%TD*%
%TA.AperFunction,Conductor*%
%ADD17C,0.381000*%
%TD*%
%TA.AperFunction,Conductor*%
%ADD18C,0.254000*%
%TD*%
%TA.AperFunction,Conductor*%
%ADD19C,0.150000*%
%TD*%
G04 APERTURE END LIST*
D10*
%TO.N,GND*%
%TO.C,U4*%
X48891667Y-52108333D03*
X50025000Y-52108333D03*
X51158333Y-52108333D03*
X48891667Y-50975000D03*
X50025000Y-50975000D03*
X51158333Y-50975000D03*
X48891667Y-49841667D03*
X50025000Y-49841667D03*
X51158333Y-49841667D03*
%TD*%
D11*
%TO.N,GND*%
%TO.C,USB1*%
X36665000Y-39580000D03*
D12*
X32465000Y-39580000D03*
D11*
X36665000Y-48220000D03*
D12*
X32465000Y-48220000D03*
%TD*%
D13*
%TO.N,LED_3*%
X32075000Y-31075000D03*
X61100000Y-31010000D03*
%TO.N,LED_2*%
X68590000Y-60320000D03*
X67690000Y-31240000D03*
%TO.N,IMU_CLKIN*%
X53264000Y-49600000D03*
X59689548Y-45588249D03*
%TO.N,+5V*%
X64900000Y-67750000D03*
X41010000Y-38650000D03*
X34675000Y-30075000D03*
X54279341Y-66095659D03*
X47975000Y-31575000D03*
X30750000Y-63800000D03*
X49325000Y-62625000D03*
X32925000Y-58525000D03*
%TO.N,VDD*%
X58537500Y-39700000D03*
X58537500Y-39700000D03*
X54102000Y-43763905D03*
X61760000Y-63080000D03*
X58537500Y-39700000D03*
X37820000Y-57938500D03*
X47550000Y-38900000D03*
X46120000Y-47200000D03*
X56175000Y-55364799D03*
X33200000Y-55005000D03*
%TO.N,SD_CLK*%
X48650000Y-37645000D03*
X52930891Y-43726162D03*
%TO.N,+9V*%
X40325000Y-66350000D03*
X55292026Y-55966999D03*
%TO.N,+1V1*%
X52160000Y-47200000D03*
X50420000Y-43710000D03*
X40850000Y-48105000D03*
X46790000Y-60240000D03*
X49840000Y-47760000D03*
%TO.N,GND*%
X54511000Y-57324399D03*
X65750000Y-37500000D03*
X48140000Y-61530000D03*
X67050000Y-60560000D03*
X56540000Y-40810000D03*
X44238501Y-47234500D03*
X64690000Y-60760000D03*
X51138500Y-61610000D03*
X53480000Y-39669000D03*
X51420000Y-40910000D03*
X42180000Y-38680000D03*
X37420000Y-53230000D03*
X35770000Y-54280000D03*
X39930000Y-64030000D03*
X38040000Y-38460000D03*
X43310000Y-36730000D03*
X38900000Y-31460000D03*
X48180000Y-63980000D03*
X59240000Y-47167000D03*
X56120000Y-57370000D03*
X35060000Y-52210000D03*
X57310000Y-33530000D03*
X31440000Y-57210000D03*
X63530000Y-38860000D03*
X65270000Y-53780000D03*
X42475000Y-45750000D03*
X35790000Y-52210000D03*
X45220000Y-34860000D03*
X67190000Y-62290000D03*
X34750000Y-68000000D03*
X40110000Y-63270000D03*
X63380000Y-43770000D03*
X44160000Y-59940000D03*
X58210000Y-47070000D03*
X62260000Y-32370000D03*
X35030000Y-53230000D03*
X49840000Y-60670000D03*
X47350000Y-59300000D03*
X52120000Y-33720000D03*
X68586500Y-45007679D03*
X67240000Y-36850000D03*
X49750000Y-38900000D03*
X61040000Y-30190000D03*
X40860000Y-46890000D03*
X38760000Y-30590000D03*
X35760000Y-53230000D03*
X53300000Y-67590000D03*
X33840000Y-61380000D03*
X55650000Y-33630000D03*
X40960000Y-34510000D03*
X31330000Y-52370000D03*
X53666908Y-59950000D03*
X58857114Y-66017886D03*
X57130000Y-63480000D03*
X58930000Y-53470000D03*
X54150000Y-42540000D03*
X34680000Y-57200000D03*
X37180000Y-65750000D03*
X35040000Y-54280000D03*
X60850000Y-45360000D03*
X49520000Y-42810000D03*
X44040000Y-41360000D03*
X67079000Y-49330229D03*
X37400000Y-52250000D03*
X37510000Y-54310000D03*
X33180000Y-68040000D03*
X57120000Y-62670000D03*
X60970000Y-47130000D03*
X41770000Y-48800000D03*
X46240490Y-42740490D03*
X58570000Y-48623000D03*
X31340000Y-51570000D03*
X42140000Y-53960000D03*
X50750000Y-33670000D03*
X46190000Y-34380000D03*
X62160000Y-45310000D03*
X58537500Y-41600000D03*
X51138500Y-61610000D03*
X44110000Y-58870000D03*
X60150000Y-47110000D03*
X47370000Y-47970000D03*
X44850000Y-41500000D03*
X36790000Y-66500000D03*
X33540000Y-67670000D03*
X37620000Y-37550000D03*
X60700000Y-62220000D03*
X41604000Y-50730000D03*
X62460000Y-62230000D03*
X61410000Y-37350000D03*
X37430000Y-63300000D03*
X40675000Y-31575000D03*
X62700000Y-31390000D03*
X41590000Y-34550000D03*
X31200000Y-62150000D03*
X44540000Y-44790000D03*
X40060000Y-62520000D03*
X44580000Y-40770000D03*
X47250000Y-41820000D03*
X41710000Y-57820000D03*
%TO.N,I2C1_SCL*%
X44405205Y-55141705D03*
X56300000Y-31575000D03*
%TO.N,PIO_UART2_RX*%
X45575000Y-31575000D03*
X56610000Y-54390000D03*
%TO.N,LIPO_5V*%
X51400000Y-59670000D03*
X53650000Y-58725000D03*
%TO.N,BAT_CURR*%
X62810000Y-47270000D03*
X49240525Y-44465000D03*
%TO.N,VACC*%
X56625000Y-39670000D03*
X63237695Y-45972153D03*
%TO.N,I2C1_SDA*%
X53800000Y-31575000D03*
X43966500Y-55875000D03*
%TO.N,MOTOR_1*%
X46042886Y-57842886D03*
X64500000Y-49250000D03*
%TO.N,MOTOR_2*%
X46420237Y-58548301D03*
X64500000Y-50250000D03*
%TO.N,MOTOR_3*%
X48350000Y-58950000D03*
X64500000Y-51250000D03*
%TO.N,MOTOR_4*%
X48450000Y-59950000D03*
X64500000Y-52250000D03*
%TO.N,LED_1*%
X52000000Y-58125000D03*
X52000000Y-58125000D03*
X62210000Y-66670000D03*
%TO.N,buzz*%
X41921626Y-59468374D03*
X54037807Y-56679349D03*
%TO.N,PIO_UART2_TX*%
X55772690Y-54236799D03*
X43120000Y-31550000D03*
%TO.N,IMU_INT*%
X52633328Y-48056501D03*
X55383017Y-45433337D03*
%TO.N,Net-(U4-RUN)*%
X66975000Y-43650000D03*
X62770000Y-48600000D03*
%TO.N,IMU_SDO*%
X55229000Y-44555000D03*
X53250000Y-47000000D03*
%TO.N,IMU_CS*%
X58750000Y-43100000D03*
X56390000Y-47133500D03*
%TO.N,IMU_CLK*%
X56019090Y-46392499D03*
X57800000Y-43075000D03*
%TO.N,IMU_SDA*%
X54475000Y-46525000D03*
X56876288Y-43255422D03*
%TO.N,CMD*%
X46450000Y-37645000D03*
X52967501Y-44775500D03*
%TO.N,DAT0*%
X52937000Y-42690000D03*
X50835386Y-37695386D03*
%TO.N,DAT1*%
X52359207Y-42090908D03*
X51820000Y-37645000D03*
%TO.N,DAT2*%
X51501000Y-44535386D03*
X44283455Y-38203455D03*
%TO.N,DAT3*%
X50861500Y-45110000D03*
X45350000Y-37645000D03*
%TO.N,TELEMETRY*%
X63286545Y-47976545D03*
X48944812Y-45254907D03*
%TO.N,Net-(D4-A)*%
X36075000Y-58500000D03*
%TO.N,BAT_POW_PROT*%
X66220000Y-52300000D03*
X64110000Y-59175000D03*
X62620000Y-60130000D03*
%TO.N,Net-(U10-~{CE})*%
X41910000Y-40610000D03*
X52240000Y-61610000D03*
%TO.N,Net-(U7-SW)*%
X62770000Y-56290000D03*
%TO.N,Net-(U1-SW)*%
X58908395Y-59499672D03*
%TO.N,BAT_POWER*%
X64275000Y-41050000D03*
X60870000Y-38240000D03*
%TO.N,Net-(U7-FB)*%
X62430000Y-53700000D03*
%TD*%
%TO.N,LED_1*%
D14*
X62210000Y-66303862D02*
X62210000Y-66670000D01*
X54031138Y-58125000D02*
X62210000Y-66303862D01*
X52000000Y-58125000D02*
X54031138Y-58125000D01*
%TO.N,LED_2*%
X69150000Y-32700000D02*
X67690000Y-31240000D01*
X69150000Y-59760000D02*
X69150000Y-32700000D01*
X68590000Y-60320000D02*
X69150000Y-59760000D01*
%TO.N,+5V*%
D15*
X38970000Y-58870000D02*
X40761000Y-60661000D01*
X41010000Y-38947500D02*
X38970000Y-40987500D01*
D16*
X55933682Y-67750000D02*
X64900000Y-67750000D01*
D15*
X41010000Y-38650000D02*
X41010000Y-38115000D01*
X41010000Y-38650000D02*
X41010000Y-38947500D01*
X45305500Y-32912000D02*
X46300480Y-32912000D01*
X41040000Y-37177500D02*
X45305500Y-32912000D01*
D17*
X41307500Y-36707500D02*
X34675000Y-30075000D01*
D15*
X46300480Y-32912000D02*
X47637480Y-31575000D01*
D17*
X30875000Y-63825000D02*
X30850000Y-63800000D01*
D15*
X41010000Y-38115000D02*
X41040000Y-38085000D01*
X41040000Y-38085000D02*
X41040000Y-37177500D01*
D17*
X41307500Y-38352500D02*
X41307500Y-36707500D01*
D15*
X40761000Y-60661000D02*
X35061000Y-60661000D01*
X38970000Y-40987500D02*
X38970000Y-58870000D01*
X54279341Y-66095659D02*
X46195659Y-66095659D01*
D16*
X54279341Y-66095659D02*
X55933682Y-67750000D01*
D17*
X30850000Y-63800000D02*
X30750000Y-63800000D01*
X32925000Y-58525000D02*
X32925000Y-61775000D01*
D15*
X35061000Y-60661000D02*
X32925000Y-58525000D01*
X47637480Y-31575000D02*
X47975000Y-31575000D01*
X46195659Y-66095659D02*
X40761000Y-60661000D01*
D17*
X32925000Y-61775000D02*
X30875000Y-63825000D01*
%TO.N,VDD*%
D16*
X46120000Y-44500000D02*
X46120000Y-47200000D01*
D18*
X33200000Y-55005000D02*
X34886500Y-55005000D01*
D14*
X55110000Y-39885000D02*
X56080000Y-38915000D01*
X55110000Y-42760000D02*
X55110000Y-39885000D01*
X54102000Y-43763905D02*
X54106095Y-43763905D01*
D17*
X61760000Y-60949799D02*
X61760000Y-63080000D01*
D18*
X34886500Y-55005000D02*
X37820000Y-57938500D01*
D16*
X51705000Y-38915000D02*
X46120000Y-44500000D01*
X58537500Y-39700000D02*
X57752500Y-38915000D01*
X57752500Y-38915000D02*
X56080000Y-38915000D01*
D17*
X56175000Y-55364799D02*
X61760000Y-60949799D01*
D14*
X54106095Y-43763905D02*
X55110000Y-42760000D01*
D16*
X56080000Y-38915000D02*
X51705000Y-38915000D01*
%TO.N,+9V*%
D17*
X55292026Y-55966999D02*
X55200000Y-56059025D01*
X42445000Y-68470000D02*
X40325000Y-66350000D01*
X64143566Y-67058500D02*
X65186429Y-67058500D01*
X55200000Y-57613328D02*
X55200000Y-58114934D01*
X55200000Y-57035470D02*
X55202500Y-57037970D01*
X55200000Y-58114934D02*
X64143566Y-67058500D01*
X65800528Y-67672599D02*
X65800528Y-67873634D01*
X65800528Y-67873634D02*
X65204162Y-68470000D01*
X55200000Y-56059025D02*
X55200000Y-57035470D01*
X65204162Y-68470000D02*
X42445000Y-68470000D01*
X55202500Y-57610828D02*
X55200000Y-57613328D01*
X55202500Y-57037970D02*
X55202500Y-57610828D01*
X65186429Y-67058500D02*
X65800528Y-67672599D01*
%TO.N,+1V1*%
X50170000Y-43960000D02*
X50170000Y-45396429D01*
D16*
X43990000Y-57440000D02*
X46790000Y-60240000D01*
D17*
X51973571Y-47200000D02*
X52160000Y-47200000D01*
X50170000Y-45396429D02*
X51973571Y-47200000D01*
D16*
X47290000Y-49650000D02*
X49180000Y-47760000D01*
X43990000Y-57440000D02*
X47290000Y-54140000D01*
X47290000Y-54140000D02*
X47290000Y-49650000D01*
X40850000Y-48105000D02*
X40850000Y-54300000D01*
X49180000Y-47760000D02*
X49840000Y-47760000D01*
X40850000Y-54300000D02*
X43990000Y-57440000D01*
D17*
X50420000Y-43710000D02*
X50170000Y-43960000D01*
%TO.N,I2C1_SCL*%
D14*
X43578000Y-54314500D02*
X43578000Y-44155862D01*
X44405205Y-55141705D02*
X43578000Y-54314500D01*
X43578000Y-44155862D02*
X56158862Y-31575000D01*
X56158862Y-31575000D02*
X56300000Y-31575000D01*
%TO.N,PIO_UART2_RX*%
X67980000Y-41150000D02*
X56860000Y-30030000D01*
X63525862Y-54610000D02*
X65431069Y-52704793D01*
X65431069Y-52704793D02*
X65431069Y-52238931D01*
X67980000Y-49690000D02*
X67980000Y-41150000D01*
X47120000Y-30030000D02*
X45575000Y-31575000D01*
X56860000Y-30030000D02*
X47120000Y-30030000D01*
X65431069Y-52238931D02*
X67980000Y-49690000D01*
X56610000Y-54390000D02*
X56830000Y-54610000D01*
X56830000Y-54610000D02*
X63525862Y-54610000D01*
%TO.N,BAT_CURR*%
X49275000Y-44465000D02*
X49240525Y-44465000D01*
X55755314Y-47730500D02*
X55460814Y-48025000D01*
X53434434Y-48620000D02*
X52045000Y-48620000D01*
X54024339Y-48025000D02*
X54024339Y-48030095D01*
X62805000Y-47275000D02*
X62537176Y-47275000D01*
X62537176Y-47275000D02*
X62081676Y-47730500D01*
X54024339Y-48030095D02*
X53434434Y-48620000D01*
X55460814Y-48025000D02*
X54024339Y-48025000D01*
X62081676Y-47730500D02*
X55755314Y-47730500D01*
X62810000Y-47270000D02*
X62805000Y-47275000D01*
X49690000Y-44880000D02*
X49275000Y-44465000D01*
X52045000Y-48620000D02*
X49690000Y-46265000D01*
X49690000Y-46265000D02*
X49690000Y-44880000D01*
%TO.N,VACC*%
D18*
X56995000Y-40040000D02*
X56625000Y-39670000D01*
X58154572Y-40430000D02*
X57764572Y-40040000D01*
X63240000Y-45969848D02*
X63240000Y-44670000D01*
X63237695Y-45972153D02*
X63240000Y-45969848D01*
X59000000Y-40430000D02*
X58154572Y-40430000D01*
X57764572Y-40040000D02*
X56995000Y-40040000D01*
X63240000Y-44670000D02*
X59000000Y-40430000D01*
%TO.N,I2C1_SDA*%
D14*
X53800000Y-33470000D02*
X53800000Y-31575000D01*
X43250000Y-44020000D02*
X53800000Y-33470000D01*
X43966500Y-55875000D02*
X43250000Y-55158500D01*
X43250000Y-55158500D02*
X43250000Y-44020000D01*
%TO.N,MOTOR_1*%
D18*
X55300000Y-49250000D02*
X64500000Y-49250000D01*
X46707114Y-57842886D02*
X55300000Y-49250000D01*
X46042886Y-57842886D02*
X46707114Y-57842886D01*
%TO.N,MOTOR_2*%
X46420237Y-58548301D02*
X46458067Y-58510471D01*
X47900890Y-57911562D02*
X47913438Y-57911562D01*
X47913438Y-57911562D02*
X55575000Y-50250000D01*
X47314529Y-58510471D02*
X47533017Y-58291983D01*
X55575000Y-50250000D02*
X64500000Y-50250000D01*
X46458067Y-58510471D02*
X47314529Y-58510471D01*
X47533017Y-58291983D02*
X47533017Y-58279435D01*
X47533017Y-58279435D02*
X47900890Y-57911562D01*
%TO.N,MOTOR_3*%
X48350000Y-58950000D02*
X56050000Y-51250000D01*
X56050000Y-51250000D02*
X64500000Y-51250000D01*
%TO.N,MOTOR_4*%
X56336873Y-52250000D02*
X64500000Y-52250000D01*
X48450000Y-59950000D02*
X48636873Y-59950000D01*
X48636873Y-59950000D02*
X56336873Y-52250000D01*
%TO.N,buzz*%
D19*
X49026000Y-60163096D02*
X49026000Y-60188588D01*
X52509747Y-56679349D02*
X49026000Y-60163096D01*
X54037807Y-56679349D02*
X52509747Y-56679349D01*
X48398588Y-60816000D02*
X43269252Y-60816000D01*
X49026000Y-60188588D02*
X48398588Y-60816000D01*
X43269252Y-60816000D02*
X41921626Y-59468374D01*
%TO.N,PIO_UART2_TX*%
D14*
X56843824Y-53825500D02*
X56183989Y-53825500D01*
X43120000Y-31550000D02*
X43709500Y-32139500D01*
X67652000Y-41285862D02*
X67652000Y-49554138D01*
X67652000Y-49554138D02*
X65103069Y-52103069D01*
X47430000Y-30690000D02*
X57056138Y-30690000D01*
X63390000Y-54282000D02*
X57300324Y-54282000D01*
X65103069Y-52103069D02*
X65103069Y-52568931D01*
X45980500Y-32139500D02*
X47430000Y-30690000D01*
X57056138Y-30690000D02*
X67652000Y-41285862D01*
X43709500Y-32139500D02*
X45980500Y-32139500D01*
X57300324Y-54282000D02*
X56843824Y-53825500D01*
X65103069Y-52568931D02*
X63390000Y-54282000D01*
X56183989Y-53825500D02*
X55772690Y-54236799D01*
%TO.N,IMU_INT*%
X52633328Y-48009828D02*
X52560000Y-47936500D01*
X53814500Y-47315500D02*
X53814500Y-46387176D01*
X53500000Y-47630000D02*
X53814500Y-47315500D01*
X53814500Y-46387176D02*
X54768339Y-45433337D01*
X52859499Y-47630000D02*
X53500000Y-47630000D01*
X52560000Y-47936500D02*
X52560000Y-47929499D01*
X54768339Y-45433337D02*
X55383017Y-45433337D01*
X52560000Y-47929499D02*
X52859499Y-47630000D01*
X52633328Y-48056501D02*
X52633328Y-48009828D01*
%TO.N,Net-(U4-RUN)*%
X62845000Y-48675000D02*
X63385000Y-48675000D01*
X66600000Y-45460000D02*
X66600000Y-44025000D01*
X62770000Y-48600000D02*
X62845000Y-48675000D01*
X66600000Y-44025000D02*
X66975000Y-43650000D01*
X63385000Y-48675000D02*
X66600000Y-45460000D01*
%TO.N,IMU_SDO*%
X54625000Y-44725000D02*
X55059000Y-44725000D01*
X53250000Y-47000000D02*
X53275000Y-46975000D01*
X53275000Y-46975000D02*
X53275000Y-46075000D01*
X53275000Y-46075000D02*
X54625000Y-44725000D01*
X55059000Y-44725000D02*
X55229000Y-44555000D01*
%TO.N,IMU_CS*%
X56390000Y-47133500D02*
X56516500Y-47133500D01*
X58750000Y-44900000D02*
X58750000Y-43100000D01*
X56516500Y-47133500D02*
X58750000Y-44900000D01*
%TO.N,IMU_CLK*%
X57800000Y-44675000D02*
X57800000Y-43075000D01*
X56082501Y-46392499D02*
X57800000Y-44675000D01*
X56019090Y-46392499D02*
X56082501Y-46392499D01*
%TO.N,IMU_SDA*%
X56780000Y-44833265D02*
X56780000Y-43351710D01*
X56780000Y-43351710D02*
X56876288Y-43255422D01*
X54475000Y-46525000D02*
X55088265Y-46525000D01*
X55088265Y-46525000D02*
X56780000Y-44833265D01*
%TO.N,TELEMETRY*%
X62217538Y-48058500D02*
X55891176Y-48058500D01*
X51909138Y-48948000D02*
X48944812Y-45983672D01*
X63286545Y-47976545D02*
X63042185Y-47976545D01*
X48944812Y-45983672D02*
X48944812Y-45254907D01*
X53570296Y-48948000D02*
X51909138Y-48948000D01*
X55596676Y-48353000D02*
X54165296Y-48353000D01*
X63042185Y-47976545D02*
X62965640Y-47900000D01*
X62965640Y-47900000D02*
X62376038Y-47900000D01*
X54165296Y-48353000D02*
X53570296Y-48948000D01*
X62376038Y-47900000D02*
X62217538Y-48058500D01*
X55891176Y-48058500D02*
X55596676Y-48353000D01*
%TO.N,BAT_POW_PROT*%
D16*
X66220000Y-54580000D02*
X64110000Y-56690000D01*
X66220000Y-52300000D02*
X66220000Y-54580000D01*
X64110000Y-56690000D02*
X64110000Y-59175000D01*
%TO.N,Net-(U10-~{CE})*%
D14*
X53460000Y-64720000D02*
X52856841Y-65323159D01*
X39742500Y-58550020D02*
X39742500Y-42517500D01*
X39742500Y-42517500D02*
X41650000Y-40610000D01*
X52856841Y-65323159D02*
X46515639Y-65323159D01*
X52240000Y-61610000D02*
X53460000Y-62830000D01*
X41650000Y-40610000D02*
X41910000Y-40610000D01*
X53460000Y-62830000D02*
X53460000Y-64720000D01*
X46515639Y-65323159D02*
X39742500Y-58550020D01*
%TO.N,BAT_POWER*%
X60870000Y-38240000D02*
X61465000Y-38240000D01*
X61465000Y-38240000D02*
X64275000Y-41050000D01*
%TD*%
%TA.AperFunction,Conductor*%
%TO.N,GND*%
G36*
X33521203Y-60123620D02*
G01*
X33527681Y-60129652D01*
X34609353Y-61211325D01*
X34609357Y-61211328D01*
X34725392Y-61288861D01*
X34725405Y-61288868D01*
X34816572Y-61326630D01*
X34854338Y-61342273D01*
X34889854Y-61349337D01*
X34922730Y-61355877D01*
X34922754Y-61355881D01*
X34922778Y-61355886D01*
X34974108Y-61366096D01*
X34991217Y-61369500D01*
X34991218Y-61369500D01*
X34991219Y-61369500D01*
X40416167Y-61369500D01*
X40483206Y-61389185D01*
X40503848Y-61405819D01*
X45645331Y-66547301D01*
X45744017Y-66645987D01*
X45760969Y-66657314D01*
X45860058Y-66723524D01*
X45913410Y-66745623D01*
X45913411Y-66745623D01*
X45988997Y-66776932D01*
X46094231Y-66797864D01*
X46125873Y-66804158D01*
X46125877Y-66804159D01*
X46125878Y-66804159D01*
X54293719Y-66804159D01*
X54360758Y-66823844D01*
X54381400Y-66840478D01*
X55408241Y-67867319D01*
X55441726Y-67928642D01*
X55436742Y-67998334D01*
X55394870Y-68054267D01*
X55329406Y-68078684D01*
X55320560Y-68079000D01*
X42658320Y-68079000D01*
X42591281Y-68059315D01*
X42570639Y-68042681D01*
X40853911Y-66325953D01*
X40821818Y-66270366D01*
X40791392Y-66156814D01*
X40725500Y-66042686D01*
X40632314Y-65949500D01*
X40575250Y-65916554D01*
X40518187Y-65883608D01*
X40400539Y-65852085D01*
X40390892Y-65849500D01*
X40259108Y-65849500D01*
X40131812Y-65883608D01*
X40017686Y-65949500D01*
X40017683Y-65949502D01*
X39924502Y-66042683D01*
X39924500Y-66042686D01*
X39858608Y-66156812D01*
X39824500Y-66284108D01*
X39824500Y-66415891D01*
X39858608Y-66543187D01*
X39868497Y-66560315D01*
X39924500Y-66657314D01*
X40017686Y-66750500D01*
X40131814Y-66816392D01*
X40245366Y-66846818D01*
X40300953Y-66878911D01*
X41909861Y-68487819D01*
X41943346Y-68549142D01*
X41938362Y-68618834D01*
X41896490Y-68674767D01*
X41831026Y-68699184D01*
X41822180Y-68699500D01*
X34523145Y-68699500D01*
X34517736Y-68699382D01*
X34513201Y-68699184D01*
X34390882Y-68693843D01*
X34137174Y-68682766D01*
X34126398Y-68681823D01*
X33751429Y-68632457D01*
X33740775Y-68630579D01*
X33371516Y-68548716D01*
X33361068Y-68545916D01*
X33000365Y-68432187D01*
X32990199Y-68428487D01*
X32640771Y-68283749D01*
X32630967Y-68279177D01*
X32313118Y-68113716D01*
X32295481Y-68104534D01*
X32286125Y-68099133D01*
X32126632Y-67997524D01*
X31967145Y-67895919D01*
X31958284Y-67889715D01*
X31658220Y-67659468D01*
X31649933Y-67652514D01*
X31371088Y-67396999D01*
X31363439Y-67389350D01*
X31107924Y-67110505D01*
X31100970Y-67102218D01*
X30870723Y-66802154D01*
X30864519Y-66793293D01*
X30783941Y-66666811D01*
X30661301Y-66474305D01*
X30655908Y-66464965D01*
X30481258Y-66129465D01*
X30476689Y-66119667D01*
X30444822Y-66042734D01*
X30331950Y-65770237D01*
X30328251Y-65760073D01*
X30291657Y-65644013D01*
X30214521Y-65399366D01*
X30211722Y-65388922D01*
X30165839Y-65181956D01*
X30129857Y-65019655D01*
X30127981Y-65009009D01*
X30115683Y-64915594D01*
X30078613Y-64634020D01*
X30077673Y-64623285D01*
X30061057Y-64242702D01*
X30060939Y-64237293D01*
X30060939Y-64070286D01*
X30080624Y-64003247D01*
X30133428Y-63957492D01*
X30202586Y-63947548D01*
X30266142Y-63976573D01*
X30292326Y-64008286D01*
X30349500Y-64107314D01*
X30442686Y-64200500D01*
X30556814Y-64266392D01*
X30684108Y-64300500D01*
X30684110Y-64300500D01*
X30815890Y-64300500D01*
X30815892Y-64300500D01*
X30943186Y-64266392D01*
X31057314Y-64200500D01*
X31150500Y-64107314D01*
X31150503Y-64107308D01*
X31155450Y-64100863D01*
X31155767Y-64101106D01*
X31168675Y-64084281D01*
X32093091Y-63159865D01*
X32154414Y-63126381D01*
X32224106Y-63131365D01*
X32280039Y-63173237D01*
X32304456Y-63238701D01*
X32292493Y-63301348D01*
X32278733Y-63329921D01*
X32189687Y-63584397D01*
X32189684Y-63584405D01*
X32129688Y-63847268D01*
X32129686Y-63847280D01*
X32099500Y-64115186D01*
X32099500Y-64384813D01*
X32129686Y-64652719D01*
X32129687Y-64652728D01*
X32129688Y-64652732D01*
X32144687Y-64718446D01*
X32189684Y-64915594D01*
X32189687Y-64915602D01*
X32278734Y-65170082D01*
X32395714Y-65412994D01*
X32396589Y-65414386D01*
X32539162Y-65641289D01*
X32633889Y-65760073D01*
X32705204Y-65849500D01*
X32707266Y-65852085D01*
X32897915Y-66042734D01*
X33108711Y-66210838D01*
X33337003Y-66354284D01*
X33579921Y-66471267D01*
X33771049Y-66538145D01*
X33834397Y-66560312D01*
X33834405Y-66560315D01*
X33834408Y-66560315D01*
X33834409Y-66560316D01*
X34097268Y-66620312D01*
X34365187Y-66650499D01*
X34365188Y-66650500D01*
X34365191Y-66650500D01*
X34634812Y-66650500D01*
X34634812Y-66650499D01*
X34902732Y-66620312D01*
X35165591Y-66560316D01*
X35420079Y-66471267D01*
X35662997Y-66354284D01*
X35891289Y-66210838D01*
X36102085Y-66042734D01*
X36292734Y-65852085D01*
X36460838Y-65641289D01*
X36604284Y-65412997D01*
X36721267Y-65170079D01*
X36810316Y-64915591D01*
X36870312Y-64652732D01*
X36900500Y-64384809D01*
X36900500Y-64115191D01*
X36870312Y-63847268D01*
X36810316Y-63584409D01*
X36721267Y-63329921D01*
X36604284Y-63087003D01*
X36460838Y-62858711D01*
X36292734Y-62647915D01*
X36102085Y-62457266D01*
X35891289Y-62289162D01*
X35733613Y-62190087D01*
X35662994Y-62145714D01*
X35420082Y-62028734D01*
X35165602Y-61939687D01*
X35165594Y-61939684D01*
X34968446Y-61894687D01*
X34902732Y-61879688D01*
X34902728Y-61879687D01*
X34902719Y-61879686D01*
X34634813Y-61849500D01*
X34634809Y-61849500D01*
X34365191Y-61849500D01*
X34365186Y-61849500D01*
X34097280Y-61879686D01*
X34097268Y-61879688D01*
X33834405Y-61939684D01*
X33834397Y-61939687D01*
X33579917Y-62028734D01*
X33579909Y-62028737D01*
X33456427Y-62088203D01*
X33387486Y-62099555D01*
X33323351Y-62071832D01*
X33284386Y-62013837D01*
X33282961Y-61943982D01*
X33288067Y-61929026D01*
X33289348Y-61925929D01*
X33289354Y-61925920D01*
X33316000Y-61826476D01*
X33316000Y-61723524D01*
X33316000Y-60217333D01*
X33335685Y-60150294D01*
X33388489Y-60104539D01*
X33457647Y-60094595D01*
X33521203Y-60123620D01*
G37*
%TD.AperFunction*%
%TA.AperFunction,Conductor*%
G36*
X65002702Y-29304783D02*
G01*
X65383285Y-29321400D01*
X65394020Y-29322340D01*
X65769017Y-29371709D01*
X65779655Y-29373584D01*
X66148926Y-29455450D01*
X66159366Y-29458248D01*
X66520076Y-29571979D01*
X66530237Y-29575677D01*
X66879673Y-29720419D01*
X66889465Y-29724985D01*
X67224965Y-29899635D01*
X67234305Y-29905028D01*
X67533058Y-30095354D01*
X67553293Y-30108246D01*
X67562154Y-30114450D01*
X67862218Y-30344697D01*
X67870505Y-30351651D01*
X68149350Y-30607166D01*
X68156999Y-30614815D01*
X68412514Y-30893660D01*
X68419468Y-30901947D01*
X68649715Y-31202011D01*
X68651257Y-31205999D01*
X68654534Y-31208746D01*
X68655919Y-31210872D01*
X68723732Y-31317316D01*
X68858420Y-31528734D01*
X68859129Y-31529846D01*
X68864530Y-31539200D01*
X68975361Y-31752104D01*
X69037573Y-31871613D01*
X69051067Y-31940167D01*
X69025357Y-32005134D01*
X68968604Y-32045887D01*
X68898827Y-32049489D01*
X68839903Y-32016550D01*
X68226612Y-31403260D01*
X68220644Y-31392330D01*
X68211099Y-31384331D01*
X68204215Y-31362243D01*
X68193128Y-31341938D01*
X68192396Y-31324316D01*
X68190311Y-31317625D01*
X68191306Y-31314019D01*
X68190500Y-31314019D01*
X68190500Y-31174110D01*
X68190500Y-31174108D01*
X68156392Y-31046814D01*
X68090500Y-30932686D01*
X67997314Y-30839500D01*
X67940250Y-30806554D01*
X67883187Y-30773608D01*
X67819539Y-30756554D01*
X67755892Y-30739500D01*
X67624108Y-30739500D01*
X67496812Y-30773608D01*
X67382686Y-30839500D01*
X67382683Y-30839502D01*
X67289502Y-30932683D01*
X67289500Y-30932686D01*
X67223608Y-31046812D01*
X67204014Y-31119941D01*
X67189500Y-31174108D01*
X67189500Y-31305892D01*
X67201185Y-31349500D01*
X67223608Y-31433187D01*
X67248036Y-31475497D01*
X67289500Y-31547314D01*
X67382686Y-31640500D01*
X67496814Y-31706392D01*
X67624108Y-31740500D01*
X67624110Y-31740500D01*
X67764019Y-31740500D01*
X67764019Y-31743641D01*
X67818395Y-31752104D01*
X67853261Y-31776613D01*
X68849681Y-32773033D01*
X68883166Y-32834356D01*
X68886000Y-32860714D01*
X68886000Y-59599284D01*
X68877355Y-59628723D01*
X68870832Y-59658711D01*
X68867077Y-59663726D01*
X68866315Y-59666323D01*
X68849681Y-59686966D01*
X68753259Y-59783387D01*
X68691935Y-59816871D01*
X68664019Y-59818036D01*
X68664019Y-59819500D01*
X68524108Y-59819500D01*
X68396812Y-59853608D01*
X68282686Y-59919500D01*
X68282683Y-59919502D01*
X68189502Y-60012683D01*
X68189500Y-60012686D01*
X68123608Y-60126812D01*
X68106250Y-60191594D01*
X68089500Y-60254108D01*
X68089500Y-60385892D01*
X68102172Y-60433186D01*
X68123608Y-60513187D01*
X68156554Y-60570250D01*
X68189500Y-60627314D01*
X68282686Y-60720500D01*
X68396814Y-60786392D01*
X68524108Y-60820500D01*
X68524110Y-60820500D01*
X68655890Y-60820500D01*
X68655892Y-60820500D01*
X68783186Y-60786392D01*
X68897314Y-60720500D01*
X68990500Y-60627314D01*
X69056392Y-60513186D01*
X69090500Y-60385892D01*
X69090500Y-60254108D01*
X69090500Y-60245981D01*
X69093640Y-60245981D01*
X69102109Y-60191594D01*
X69126607Y-60156744D01*
X69247822Y-60035530D01*
X69309142Y-60002048D01*
X69378834Y-60007032D01*
X69434767Y-60048904D01*
X69459184Y-60114368D01*
X69459500Y-60123214D01*
X69459500Y-64237293D01*
X69459382Y-64242702D01*
X69442766Y-64623264D01*
X69441823Y-64634040D01*
X69392457Y-65009009D01*
X69390579Y-65019663D01*
X69308716Y-65388922D01*
X69305916Y-65399370D01*
X69192187Y-65760073D01*
X69188487Y-65770239D01*
X69043749Y-66119667D01*
X69039177Y-66129471D01*
X68864538Y-66464951D01*
X68859129Y-66474319D01*
X68655919Y-66793293D01*
X68649715Y-66802154D01*
X68419468Y-67102218D01*
X68412514Y-67110505D01*
X68156999Y-67389350D01*
X68149350Y-67396999D01*
X67870505Y-67652514D01*
X67862218Y-67659468D01*
X67562154Y-67889715D01*
X67553293Y-67895919D01*
X67234319Y-68099129D01*
X67224951Y-68104538D01*
X66889471Y-68279177D01*
X66879667Y-68283749D01*
X66530239Y-68428487D01*
X66520073Y-68432187D01*
X66159370Y-68545916D01*
X66148922Y-68548716D01*
X65959719Y-68590662D01*
X65890008Y-68585954D01*
X65833909Y-68544305D01*
X65809232Y-68478938D01*
X65823813Y-68410607D01*
X65845197Y-68381921D01*
X66113406Y-68113714D01*
X66164882Y-68024555D01*
X66191528Y-67925110D01*
X66191528Y-67822158D01*
X66191528Y-67621123D01*
X66175353Y-67560756D01*
X66164882Y-67521678D01*
X66113406Y-67432519D01*
X65478713Y-66797826D01*
X65445228Y-66736503D01*
X65450212Y-66666811D01*
X65492084Y-66610878D01*
X65538798Y-66589255D01*
X65665591Y-66560316D01*
X65920079Y-66471267D01*
X66162997Y-66354284D01*
X66391289Y-66210838D01*
X66602085Y-66042734D01*
X66792734Y-65852085D01*
X66960838Y-65641289D01*
X67104284Y-65412997D01*
X67221267Y-65170079D01*
X67310316Y-64915591D01*
X67370312Y-64652732D01*
X67400500Y-64384809D01*
X67400500Y-64115191D01*
X67370312Y-63847268D01*
X67310316Y-63584409D01*
X67221267Y-63329921D01*
X67104284Y-63087003D01*
X66960838Y-62858711D01*
X66792734Y-62647915D01*
X66602085Y-62457266D01*
X66391289Y-62289162D01*
X66233613Y-62190087D01*
X66162994Y-62145714D01*
X65920082Y-62028734D01*
X65665602Y-61939687D01*
X65665594Y-61939684D01*
X65468446Y-61894687D01*
X65402732Y-61879688D01*
X65402728Y-61879687D01*
X65402719Y-61879686D01*
X65134813Y-61849500D01*
X65134809Y-61849500D01*
X64865191Y-61849500D01*
X64865186Y-61849500D01*
X64597280Y-61879686D01*
X64597268Y-61879688D01*
X64334405Y-61939684D01*
X64334397Y-61939687D01*
X64079917Y-62028734D01*
X63837005Y-62145714D01*
X63608712Y-62289161D01*
X63397915Y-62457265D01*
X63207265Y-62647915D01*
X63039161Y-62858712D01*
X62895714Y-63087005D01*
X62778734Y-63329917D01*
X62689687Y-63584397D01*
X62689684Y-63584405D01*
X62629688Y-63847268D01*
X62629686Y-63847280D01*
X62599500Y-64115186D01*
X62599500Y-64384813D01*
X62629686Y-64652719D01*
X62629688Y-64652732D01*
X62634150Y-64672283D01*
X62629875Y-64742022D01*
X62588574Y-64798378D01*
X62523362Y-64823460D01*
X62454941Y-64809303D01*
X62425577Y-64787553D01*
X61328054Y-63690030D01*
X61294569Y-63628707D01*
X61299553Y-63559015D01*
X61341425Y-63503082D01*
X61406889Y-63478665D01*
X61475162Y-63493517D01*
X61477694Y-63494938D01*
X61566814Y-63546392D01*
X61694108Y-63580500D01*
X61694110Y-63580500D01*
X61825890Y-63580500D01*
X61825892Y-63580500D01*
X61953186Y-63546392D01*
X62067314Y-63480500D01*
X62160500Y-63387314D01*
X62226392Y-63273186D01*
X62260500Y-63145892D01*
X62260500Y-63014108D01*
X62226392Y-62886814D01*
X62226390Y-62886810D01*
X62167613Y-62785005D01*
X62151000Y-62723005D01*
X62151000Y-61011277D01*
X62151001Y-61011264D01*
X62151001Y-60898325D01*
X62151001Y-60898323D01*
X62124354Y-60798879D01*
X62072878Y-60709719D01*
X61427267Y-60064108D01*
X62119500Y-60064108D01*
X62119500Y-60195891D01*
X62153608Y-60323187D01*
X62186554Y-60380250D01*
X62219500Y-60437314D01*
X62312686Y-60530500D01*
X62426814Y-60596392D01*
X62554108Y-60630500D01*
X62554110Y-60630500D01*
X62685890Y-60630500D01*
X62685892Y-60630500D01*
X62813186Y-60596392D01*
X62927314Y-60530500D01*
X63020500Y-60437314D01*
X63086392Y-60323186D01*
X63120500Y-60195892D01*
X63120500Y-60064108D01*
X63086392Y-59936814D01*
X63020500Y-59822686D01*
X62927314Y-59729500D01*
X62853643Y-59686966D01*
X62813187Y-59663608D01*
X62730270Y-59641391D01*
X62685892Y-59629500D01*
X62554108Y-59629500D01*
X62426812Y-59663608D01*
X62312686Y-59729500D01*
X62312683Y-59729502D01*
X62219502Y-59822683D01*
X62219500Y-59822686D01*
X62153608Y-59936812D01*
X62119500Y-60064108D01*
X61427267Y-60064108D01*
X57587267Y-56224108D01*
X62269500Y-56224108D01*
X62269500Y-56355892D01*
X62279747Y-56394134D01*
X62303608Y-56483187D01*
X62324723Y-56519759D01*
X62369500Y-56597314D01*
X62462686Y-56690500D01*
X62576814Y-56756392D01*
X62704108Y-56790500D01*
X62704110Y-56790500D01*
X62835890Y-56790500D01*
X62835892Y-56790500D01*
X62963186Y-56756392D01*
X63077314Y-56690500D01*
X63170500Y-56597314D01*
X63236392Y-56483186D01*
X63270500Y-56355892D01*
X63270500Y-56224108D01*
X63236392Y-56096814D01*
X63170500Y-55982686D01*
X63077314Y-55889500D01*
X62996854Y-55843046D01*
X62963187Y-55823608D01*
X62857814Y-55795374D01*
X62835892Y-55789500D01*
X62704108Y-55789500D01*
X62576812Y-55823608D01*
X62462686Y-55889500D01*
X62462683Y-55889502D01*
X62369502Y-55982683D01*
X62369500Y-55982686D01*
X62303608Y-56096812D01*
X62278058Y-56192168D01*
X62269500Y-56224108D01*
X57587267Y-56224108D01*
X56703911Y-55340752D01*
X56671818Y-55285165D01*
X56641392Y-55171613D01*
X56585781Y-55075292D01*
X56579695Y-55050207D01*
X56569858Y-55026345D01*
X56571593Y-55016813D01*
X56569309Y-55007396D01*
X56577751Y-54983001D01*
X56582377Y-54957606D01*
X56588992Y-54950524D01*
X56592161Y-54941369D01*
X56612449Y-54925413D01*
X56630073Y-54906548D01*
X56641418Y-54902632D01*
X56647082Y-54898178D01*
X56662703Y-54893096D01*
X56672945Y-54890500D01*
X56675892Y-54890500D01*
X56727447Y-54876685D01*
X56728219Y-54876490D01*
X56733510Y-54876687D01*
X56765273Y-54875649D01*
X56765273Y-54874000D01*
X63578374Y-54874000D01*
X63578375Y-54874000D01*
X63675406Y-54833808D01*
X65553821Y-52955393D01*
X65615142Y-52921910D01*
X65684834Y-52926894D01*
X65740767Y-52968766D01*
X65765184Y-53034230D01*
X65765500Y-53043076D01*
X65765500Y-54340377D01*
X65745815Y-54407416D01*
X65729181Y-54428058D01*
X63746311Y-56410927D01*
X63746307Y-56410933D01*
X63686472Y-56514568D01*
X63686473Y-56514568D01*
X63686473Y-56514569D01*
X63686473Y-56514570D01*
X63664302Y-56597314D01*
X63655499Y-56630165D01*
X63655499Y-56759825D01*
X63655500Y-56759838D01*
X63655500Y-58928439D01*
X63646062Y-58975890D01*
X63643608Y-58981813D01*
X63620548Y-59067876D01*
X63609500Y-59109108D01*
X63609500Y-59240892D01*
X63626554Y-59304539D01*
X63643608Y-59368187D01*
X63663409Y-59402482D01*
X63709500Y-59482314D01*
X63802686Y-59575500D01*
X63916814Y-59641392D01*
X64044108Y-59675500D01*
X64044110Y-59675500D01*
X64175890Y-59675500D01*
X64175892Y-59675500D01*
X64303186Y-59641392D01*
X64417314Y-59575500D01*
X64510500Y-59482314D01*
X64576392Y-59368186D01*
X64610500Y-59240892D01*
X64610500Y-59109108D01*
X64576392Y-58981814D01*
X64576389Y-58981810D01*
X64573938Y-58975890D01*
X64564500Y-58928439D01*
X64564500Y-56929621D01*
X64584185Y-56862582D01*
X64600814Y-56841945D01*
X66488860Y-54953898D01*
X66488865Y-54953895D01*
X66499068Y-54943691D01*
X66499070Y-54943691D01*
X66583691Y-54859070D01*
X66639038Y-54763207D01*
X66643528Y-54755430D01*
X66674501Y-54639836D01*
X66674501Y-54520164D01*
X66674501Y-54512569D01*
X66674500Y-54512551D01*
X66674500Y-52546559D01*
X66683941Y-52499102D01*
X66686388Y-52493192D01*
X66686392Y-52493186D01*
X66720500Y-52365892D01*
X66720500Y-52234108D01*
X66686392Y-52106814D01*
X66620500Y-51992686D01*
X66527314Y-51899500D01*
X66424157Y-51839942D01*
X66375942Y-51789374D01*
X66362720Y-51720767D01*
X66388688Y-51655903D01*
X66398468Y-51644883D01*
X68203809Y-49839544D01*
X68232228Y-49770932D01*
X68244000Y-49742513D01*
X68244000Y-41097487D01*
X68229324Y-41062056D01*
X68229324Y-41062054D01*
X68203811Y-41000461D01*
X68203809Y-41000456D01*
X60818538Y-33615186D01*
X62599500Y-33615186D01*
X62599500Y-33884813D01*
X62629686Y-34152719D01*
X62629688Y-34152731D01*
X62689684Y-34415594D01*
X62689687Y-34415602D01*
X62778734Y-34670082D01*
X62895714Y-34912994D01*
X62895716Y-34912997D01*
X63039162Y-35141289D01*
X63207266Y-35352085D01*
X63397915Y-35542734D01*
X63608711Y-35710838D01*
X63837003Y-35854284D01*
X64079921Y-35971267D01*
X64251443Y-36031285D01*
X64334397Y-36060312D01*
X64334405Y-36060315D01*
X64334408Y-36060315D01*
X64334409Y-36060316D01*
X64597268Y-36120312D01*
X64865187Y-36150499D01*
X64865188Y-36150500D01*
X64865191Y-36150500D01*
X65134812Y-36150500D01*
X65134812Y-36150499D01*
X65402732Y-36120312D01*
X65665591Y-36060316D01*
X65920079Y-35971267D01*
X66162997Y-35854284D01*
X66391289Y-35710838D01*
X66602085Y-35542734D01*
X66792734Y-35352085D01*
X66960838Y-35141289D01*
X67104284Y-34912997D01*
X67221267Y-34670079D01*
X67310316Y-34415591D01*
X67370312Y-34152732D01*
X67400500Y-33884809D01*
X67400500Y-33615191D01*
X67370312Y-33347268D01*
X67310316Y-33084409D01*
X67221267Y-32829921D01*
X67104284Y-32587003D01*
X66960838Y-32358711D01*
X66792734Y-32147915D01*
X66602085Y-31957266D01*
X66593599Y-31950499D01*
X66510837Y-31884498D01*
X66391289Y-31789162D01*
X66162997Y-31645716D01*
X66162994Y-31645714D01*
X65920082Y-31528734D01*
X65665602Y-31439687D01*
X65665594Y-31439684D01*
X65423074Y-31384331D01*
X65402732Y-31379688D01*
X65402728Y-31379687D01*
X65402719Y-31379686D01*
X65134813Y-31349500D01*
X65134809Y-31349500D01*
X64865191Y-31349500D01*
X64865186Y-31349500D01*
X64597280Y-31379686D01*
X64597268Y-31379688D01*
X64334405Y-31439684D01*
X64334397Y-31439687D01*
X64079917Y-31528734D01*
X63837005Y-31645714D01*
X63608712Y-31789161D01*
X63397915Y-31957265D01*
X63207265Y-32147915D01*
X63039161Y-32358712D01*
X62895714Y-32587005D01*
X62778734Y-32829917D01*
X62689687Y-33084397D01*
X62689684Y-33084405D01*
X62629688Y-33347268D01*
X62629686Y-33347280D01*
X62599500Y-33615186D01*
X60818538Y-33615186D01*
X58147460Y-30944108D01*
X60599500Y-30944108D01*
X60599500Y-31075892D01*
X60604793Y-31095647D01*
X60633608Y-31203187D01*
X60656413Y-31242686D01*
X60699500Y-31317314D01*
X60792686Y-31410500D01*
X60906814Y-31476392D01*
X61034108Y-31510500D01*
X61034110Y-31510500D01*
X61165890Y-31510500D01*
X61165892Y-31510500D01*
X61293186Y-31476392D01*
X61407314Y-31410500D01*
X61500500Y-31317314D01*
X61566392Y-31203186D01*
X61600500Y-31075892D01*
X61600500Y-30944108D01*
X61566392Y-30816814D01*
X61500500Y-30702686D01*
X61407314Y-30609500D01*
X61342045Y-30571817D01*
X61293187Y-30543608D01*
X61229539Y-30526554D01*
X61165892Y-30509500D01*
X61034108Y-30509500D01*
X60906812Y-30543608D01*
X60792686Y-30609500D01*
X60792683Y-30609502D01*
X60699502Y-30702683D01*
X60699500Y-30702686D01*
X60633608Y-30816812D01*
X60616192Y-30881812D01*
X60599500Y-30944108D01*
X58147460Y-30944108D01*
X57009544Y-29806192D01*
X56912513Y-29766000D01*
X47172513Y-29766000D01*
X47067487Y-29766000D01*
X47067485Y-29766000D01*
X47067483Y-29766001D01*
X46970458Y-29806188D01*
X45738260Y-31038386D01*
X45676937Y-31071871D01*
X45649019Y-31073037D01*
X45649019Y-31074500D01*
X45509108Y-31074500D01*
X45381812Y-31108608D01*
X45267686Y-31174500D01*
X45267683Y-31174502D01*
X45174502Y-31267683D01*
X45174500Y-31267686D01*
X45108608Y-31381812D01*
X45093317Y-31438882D01*
X45074500Y-31509108D01*
X45074500Y-31640892D01*
X45080746Y-31664202D01*
X45095538Y-31719407D01*
X45093875Y-31789257D01*
X45054712Y-31847119D01*
X44990484Y-31874623D01*
X44975763Y-31875500D01*
X43870215Y-31875500D01*
X43840774Y-31866855D01*
X43810788Y-31860332D01*
X43805772Y-31856577D01*
X43803176Y-31855815D01*
X43782534Y-31839181D01*
X43656613Y-31713260D01*
X43623128Y-31651937D01*
X43621971Y-31624020D01*
X43620500Y-31624020D01*
X43620500Y-31484110D01*
X43620500Y-31484108D01*
X43586392Y-31356814D01*
X43520500Y-31242686D01*
X43427314Y-31149500D01*
X43356487Y-31108608D01*
X43313187Y-31083608D01*
X43249539Y-31066554D01*
X43185892Y-31049500D01*
X43054108Y-31049500D01*
X42926812Y-31083608D01*
X42812686Y-31149500D01*
X42812683Y-31149502D01*
X42719502Y-31242683D01*
X42719500Y-31242686D01*
X42653608Y-31356812D01*
X42639224Y-31410497D01*
X42619500Y-31484108D01*
X42619500Y-31615892D01*
X42626199Y-31640892D01*
X42653608Y-31743187D01*
X42675822Y-31781662D01*
X42719500Y-31857314D01*
X42812686Y-31950500D01*
X42926814Y-32016392D01*
X43054108Y-32050500D01*
X43054110Y-32050500D01*
X43194020Y-32050500D01*
X43194020Y-32053645D01*
X43248376Y-32062095D01*
X43283260Y-32086613D01*
X43559958Y-32363311D01*
X43635001Y-32394393D01*
X43656987Y-32403500D01*
X44512667Y-32403500D01*
X44579706Y-32423185D01*
X44625461Y-32475989D01*
X44635405Y-32545147D01*
X44606380Y-32608703D01*
X44600348Y-32615181D01*
X41271924Y-35943604D01*
X41210601Y-35977089D01*
X41140909Y-35972105D01*
X41096562Y-35943604D01*
X35203911Y-30050953D01*
X35171818Y-29995366D01*
X35141392Y-29881814D01*
X35075500Y-29767686D01*
X34982314Y-29674500D01*
X34925250Y-29641554D01*
X34868187Y-29608608D01*
X34804539Y-29591554D01*
X34740892Y-29574500D01*
X34609108Y-29574500D01*
X34481812Y-29608608D01*
X34367686Y-29674500D01*
X34367683Y-29674502D01*
X34274502Y-29767683D01*
X34274500Y-29767686D01*
X34208608Y-29881812D01*
X34174500Y-30009108D01*
X34174500Y-30140891D01*
X34208608Y-30268187D01*
X34241554Y-30325250D01*
X34274500Y-30382314D01*
X34367686Y-30475500D01*
X34481814Y-30541392D01*
X34595366Y-30571818D01*
X34650953Y-30603911D01*
X35277352Y-31230310D01*
X35310837Y-31291633D01*
X35305853Y-31361325D01*
X35263981Y-31417258D01*
X35198517Y-31441675D01*
X35162079Y-31438882D01*
X34902735Y-31379688D01*
X34902719Y-31379686D01*
X34634813Y-31349500D01*
X34634809Y-31349500D01*
X34365191Y-31349500D01*
X34365186Y-31349500D01*
X34097280Y-31379686D01*
X34097268Y-31379688D01*
X33834405Y-31439684D01*
X33834397Y-31439687D01*
X33579917Y-31528734D01*
X33337005Y-31645714D01*
X33108712Y-31789161D01*
X32897915Y-31957265D01*
X32707265Y-32147915D01*
X32539161Y-32358712D01*
X32395714Y-32587005D01*
X32278734Y-32829917D01*
X32189687Y-33084397D01*
X32189684Y-33084405D01*
X32129688Y-33347268D01*
X32129686Y-33347280D01*
X32099500Y-33615186D01*
X32099500Y-33884813D01*
X32129686Y-34152719D01*
X32129688Y-34152731D01*
X32189684Y-34415594D01*
X32189687Y-34415602D01*
X32278734Y-34670082D01*
X32395714Y-34912994D01*
X32395716Y-34912997D01*
X32539162Y-35141289D01*
X32707266Y-35352085D01*
X32897915Y-35542734D01*
X33108711Y-35710838D01*
X33337003Y-35854284D01*
X33579921Y-35971267D01*
X33751443Y-36031285D01*
X33834397Y-36060312D01*
X33834405Y-36060315D01*
X33834408Y-36060315D01*
X33834409Y-36060316D01*
X34097268Y-36120312D01*
X34365187Y-36150499D01*
X34365188Y-36150500D01*
X34365191Y-36150500D01*
X34634812Y-36150500D01*
X34634812Y-36150499D01*
X34902732Y-36120312D01*
X35165591Y-36060316D01*
X35420079Y-35971267D01*
X35662997Y-35854284D01*
X35891289Y-35710838D01*
X36102085Y-35542734D01*
X36292734Y-35352085D01*
X36460838Y-35141289D01*
X36604284Y-34912997D01*
X36721267Y-34670079D01*
X36810316Y-34415591D01*
X36870312Y-34152732D01*
X36900500Y-33884809D01*
X36900500Y-33615191D01*
X36870312Y-33347268D01*
X36811117Y-33087918D01*
X36815390Y-33018182D01*
X36856689Y-32961824D01*
X36921901Y-32936741D01*
X36990322Y-32950895D01*
X37019689Y-32972647D01*
X40543603Y-36496561D01*
X40577088Y-36557884D01*
X40572104Y-36627576D01*
X40543605Y-36671922D01*
X40489670Y-36725857D01*
X40489668Y-36725861D01*
X40412137Y-36841894D01*
X40412135Y-36841899D01*
X40374369Y-36933072D01*
X40374368Y-36933073D01*
X40358727Y-36970836D01*
X40358725Y-36970842D01*
X40331500Y-37107714D01*
X40331500Y-37882185D01*
X40329118Y-37906375D01*
X40328727Y-37908337D01*
X40328727Y-37908339D01*
X40307339Y-38015866D01*
X40301500Y-38045219D01*
X40301500Y-38602666D01*
X40281815Y-38669705D01*
X40265181Y-38690347D01*
X38419674Y-40535853D01*
X38419671Y-40535856D01*
X38342138Y-40651893D01*
X38342133Y-40651902D01*
X38331823Y-40676795D01*
X38299362Y-40755161D01*
X38299360Y-40755168D01*
X38295459Y-40764587D01*
X38288727Y-40780839D01*
X38261581Y-40917314D01*
X38261500Y-40917719D01*
X38261500Y-40917927D01*
X38261500Y-57400697D01*
X38241815Y-57467736D01*
X38189011Y-57513491D01*
X38119853Y-57523435D01*
X38075500Y-57508084D01*
X38013189Y-57472109D01*
X38013186Y-57472108D01*
X37885892Y-57438000D01*
X37885891Y-57438000D01*
X37834017Y-57438000D01*
X37766978Y-57418315D01*
X37746336Y-57401681D01*
X35087591Y-54742936D01*
X35087590Y-54742935D01*
X35012910Y-54699819D01*
X35012911Y-54699819D01*
X34985145Y-54692379D01*
X34929616Y-54677500D01*
X34929614Y-54677500D01*
X33631676Y-54677500D01*
X33564637Y-54657815D01*
X33543995Y-54641181D01*
X33507316Y-54604502D01*
X33507314Y-54604500D01*
X33450250Y-54571554D01*
X33393187Y-54538608D01*
X33324336Y-54520160D01*
X33265892Y-54504500D01*
X33134108Y-54504500D01*
X33006812Y-54538608D01*
X32892686Y-54604500D01*
X32892683Y-54604502D01*
X32799502Y-54697683D01*
X32799500Y-54697686D01*
X32733608Y-54811812D01*
X32699500Y-54939108D01*
X32699500Y-55070891D01*
X32733608Y-55198187D01*
X32766554Y-55255250D01*
X32799500Y-55312314D01*
X32892686Y-55405500D01*
X33006814Y-55471392D01*
X33134108Y-55505500D01*
X33134110Y-55505500D01*
X33265890Y-55505500D01*
X33265892Y-55505500D01*
X33393186Y-55471392D01*
X33507314Y-55405500D01*
X33543995Y-55368819D01*
X33605318Y-55335334D01*
X33631676Y-55332500D01*
X34699483Y-55332500D01*
X34766522Y-55352185D01*
X34787164Y-55368819D01*
X37283181Y-57864836D01*
X37316666Y-57926159D01*
X37319500Y-57952517D01*
X37319500Y-58004392D01*
X37327328Y-58033608D01*
X37353608Y-58131687D01*
X37377822Y-58173626D01*
X37419500Y-58245814D01*
X37512686Y-58339000D01*
X37626814Y-58404892D01*
X37754108Y-58439000D01*
X37754110Y-58439000D01*
X37885890Y-58439000D01*
X37885892Y-58439000D01*
X38013186Y-58404892D01*
X38075500Y-58368914D01*
X38143399Y-58352442D01*
X38209426Y-58375294D01*
X38252617Y-58430215D01*
X38261500Y-58476302D01*
X38261500Y-58939785D01*
X38288725Y-59076654D01*
X38288728Y-59076666D01*
X38298051Y-59099173D01*
X38342131Y-59205594D01*
X38342138Y-59205607D01*
X38419671Y-59321642D01*
X38419674Y-59321646D01*
X38838848Y-59740819D01*
X38872333Y-59802142D01*
X38867349Y-59871833D01*
X38825478Y-59927767D01*
X38760013Y-59952184D01*
X38751167Y-59952500D01*
X35405833Y-59952500D01*
X35338794Y-59932815D01*
X35318152Y-59916181D01*
X33915634Y-58513662D01*
X33836080Y-58434108D01*
X35574500Y-58434108D01*
X35574500Y-58565892D01*
X35590472Y-58625500D01*
X35608608Y-58693187D01*
X35630822Y-58731662D01*
X35674500Y-58807314D01*
X35767686Y-58900500D01*
X35881814Y-58966392D01*
X36009108Y-59000500D01*
X36009110Y-59000500D01*
X36140890Y-59000500D01*
X36140892Y-59000500D01*
X36268186Y-58966392D01*
X36382314Y-58900500D01*
X36475500Y-58807314D01*
X36541392Y-58693186D01*
X36575500Y-58565892D01*
X36575500Y-58434108D01*
X36541392Y-58306814D01*
X36475500Y-58192686D01*
X36382314Y-58099500D01*
X36319888Y-58063458D01*
X36268187Y-58033608D01*
X36159149Y-58004392D01*
X36140892Y-57999500D01*
X36009108Y-57999500D01*
X35881812Y-58033608D01*
X35767686Y-58099500D01*
X35767683Y-58099502D01*
X35674502Y-58192683D01*
X35674500Y-58192686D01*
X35608608Y-58306812D01*
X35578900Y-58417686D01*
X35574500Y-58434108D01*
X33836080Y-58434108D01*
X33376646Y-57974674D01*
X33376642Y-57974671D01*
X33260604Y-57897136D01*
X33260601Y-57897135D01*
X33131662Y-57843727D01*
X33131653Y-57843724D01*
X32994785Y-57816500D01*
X32994782Y-57816500D01*
X32855218Y-57816500D01*
X32855215Y-57816500D01*
X32718346Y-57843724D01*
X32718337Y-57843727D01*
X32589398Y-57897135D01*
X32589395Y-57897136D01*
X32473357Y-57974671D01*
X32473353Y-57974674D01*
X32374674Y-58073353D01*
X32374671Y-58073357D01*
X32297136Y-58189395D01*
X32297135Y-58189398D01*
X32243727Y-58318337D01*
X32243724Y-58318346D01*
X32216500Y-58455213D01*
X32216500Y-58594786D01*
X32243724Y-58731653D01*
X32243727Y-58731662D01*
X32297135Y-58860601D01*
X32297136Y-58860604D01*
X32374670Y-58976641D01*
X32374671Y-58976642D01*
X32374672Y-58976643D01*
X32497682Y-59099653D01*
X32531166Y-59160974D01*
X32534000Y-59187333D01*
X32534000Y-61561679D01*
X32514315Y-61628718D01*
X32497681Y-61649360D01*
X30883860Y-63263181D01*
X30822537Y-63296666D01*
X30796179Y-63299500D01*
X30684108Y-63299500D01*
X30556812Y-63333608D01*
X30442686Y-63399500D01*
X30442683Y-63399502D01*
X30349502Y-63492683D01*
X30349500Y-63492686D01*
X30292326Y-63591714D01*
X30241758Y-63639929D01*
X30173151Y-63653151D01*
X30108287Y-63627183D01*
X30067759Y-63570269D01*
X30060939Y-63529713D01*
X30060939Y-46714234D01*
X35569500Y-46714234D01*
X35569500Y-46865766D01*
X35587589Y-46933277D01*
X35608719Y-47012136D01*
X35616435Y-47025500D01*
X35684485Y-47143365D01*
X35791635Y-47250515D01*
X35895371Y-47310407D01*
X35920391Y-47324853D01*
X35922865Y-47326281D01*
X36069234Y-47365500D01*
X36069236Y-47365500D01*
X36220764Y-47365500D01*
X36220766Y-47365500D01*
X36367135Y-47326281D01*
X36498365Y-47250515D01*
X36605515Y-47143365D01*
X36681281Y-47012135D01*
X36720500Y-46865766D01*
X36720500Y-46714234D01*
X36681281Y-46567865D01*
X36674145Y-46555506D01*
X36648599Y-46511259D01*
X36605515Y-46436635D01*
X36498365Y-46329485D01*
X36411730Y-46279466D01*
X36367136Y-46253719D01*
X36232656Y-46217686D01*
X36220766Y-46214500D01*
X36069234Y-46214500D01*
X35922863Y-46253719D01*
X35791635Y-46329485D01*
X35791632Y-46329487D01*
X35684487Y-46436632D01*
X35684485Y-46436635D01*
X35608719Y-46567863D01*
X35569593Y-46713886D01*
X35569500Y-46714234D01*
X30060939Y-46714234D01*
X30060939Y-40934234D01*
X35569500Y-40934234D01*
X35569500Y-41085766D01*
X35577572Y-41115890D01*
X35608719Y-41232136D01*
X35615945Y-41244651D01*
X35684485Y-41363365D01*
X35791635Y-41470515D01*
X35922865Y-41546281D01*
X36069234Y-41585500D01*
X36069236Y-41585500D01*
X36220764Y-41585500D01*
X36220766Y-41585500D01*
X36367135Y-41546281D01*
X36498365Y-41470515D01*
X36605515Y-41363365D01*
X36681281Y-41232135D01*
X36720500Y-41085766D01*
X36720500Y-40934234D01*
X36681281Y-40787865D01*
X36605515Y-40656635D01*
X36498365Y-40549485D01*
X36432750Y-40511602D01*
X36367136Y-40473719D01*
X36288462Y-40452639D01*
X36220766Y-40434500D01*
X36069234Y-40434500D01*
X35922863Y-40473719D01*
X35791635Y-40549485D01*
X35791632Y-40549487D01*
X35684487Y-40656632D01*
X35684485Y-40656635D01*
X35608719Y-40787863D01*
X35590245Y-40856812D01*
X35569500Y-40934234D01*
X30060939Y-40934234D01*
X30060939Y-33766872D01*
X30061057Y-33761463D01*
X30067088Y-33623334D01*
X30077673Y-33380878D01*
X30078613Y-33370147D01*
X30127982Y-32995144D01*
X30129856Y-32984514D01*
X30211724Y-32615233D01*
X30214522Y-32604795D01*
X30328254Y-32244082D01*
X30331951Y-32233926D01*
X30344817Y-32202865D01*
X30476695Y-31884483D01*
X30481253Y-31874709D01*
X30655913Y-31539190D01*
X30661295Y-31529869D01*
X30864525Y-31210862D01*
X30870716Y-31202019D01*
X31018742Y-31009108D01*
X31574500Y-31009108D01*
X31574500Y-31140892D01*
X31581559Y-31167236D01*
X31608608Y-31268187D01*
X31636972Y-31317314D01*
X31674500Y-31382314D01*
X31767686Y-31475500D01*
X31839857Y-31517168D01*
X31878041Y-31539214D01*
X31881814Y-31541392D01*
X32009108Y-31575500D01*
X32009110Y-31575500D01*
X32140890Y-31575500D01*
X32140892Y-31575500D01*
X32268186Y-31541392D01*
X32382314Y-31475500D01*
X32475500Y-31382314D01*
X32541392Y-31268186D01*
X32575500Y-31140892D01*
X32575500Y-31009108D01*
X32541392Y-30881814D01*
X32475500Y-30767686D01*
X32382314Y-30674500D01*
X32325250Y-30641554D01*
X32268187Y-30608608D01*
X32204539Y-30591554D01*
X32140892Y-30574500D01*
X32009108Y-30574500D01*
X31881812Y-30608608D01*
X31767686Y-30674500D01*
X31767683Y-30674502D01*
X31674502Y-30767683D01*
X31674500Y-30767686D01*
X31608608Y-30881812D01*
X31591916Y-30944110D01*
X31574500Y-31009108D01*
X31018742Y-31009108D01*
X31100977Y-30901938D01*
X31107915Y-30893669D01*
X31363449Y-30614804D01*
X31371077Y-30607176D01*
X31649942Y-30351642D01*
X31658211Y-30344704D01*
X31958292Y-30114443D01*
X31967135Y-30108252D01*
X32286142Y-29905022D01*
X32295463Y-29899640D01*
X32630982Y-29724980D01*
X32640756Y-29720422D01*
X32990208Y-29575674D01*
X33000355Y-29571981D01*
X33361077Y-29458246D01*
X33371506Y-29455451D01*
X33740787Y-29373583D01*
X33751417Y-29371709D01*
X34126420Y-29322340D01*
X34137151Y-29321400D01*
X34517736Y-29304783D01*
X34523145Y-29304666D01*
X34568034Y-29304666D01*
X64952405Y-29304666D01*
X64997294Y-29304666D01*
X65002702Y-29304783D01*
G37*
%TD.AperFunction*%
%TA.AperFunction,Conductor*%
G36*
X51455045Y-58226179D02*
G01*
X51510978Y-58268051D01*
X51531484Y-58310262D01*
X51533606Y-58318183D01*
X51533607Y-58318185D01*
X51533608Y-58318186D01*
X51599500Y-58432314D01*
X51692686Y-58525500D01*
X51806814Y-58591392D01*
X51934108Y-58625500D01*
X51934110Y-58625500D01*
X52065890Y-58625500D01*
X52065892Y-58625500D01*
X52193186Y-58591392D01*
X52307314Y-58525500D01*
X52400500Y-58432314D01*
X52400500Y-58432313D01*
X52406247Y-58426567D01*
X52408461Y-58428781D01*
X52452960Y-58396303D01*
X52494886Y-58389000D01*
X53060275Y-58389000D01*
X53127314Y-58408685D01*
X53173069Y-58461489D01*
X53183013Y-58530647D01*
X53180050Y-58545091D01*
X53149500Y-58659108D01*
X53149500Y-58790892D01*
X53162115Y-58837971D01*
X53183608Y-58918187D01*
X53211439Y-58966391D01*
X53249500Y-59032314D01*
X53342686Y-59125500D01*
X53404278Y-59161060D01*
X53449783Y-59187333D01*
X53456814Y-59191392D01*
X53584108Y-59225500D01*
X53584110Y-59225500D01*
X53715890Y-59225500D01*
X53715892Y-59225500D01*
X53843186Y-59191392D01*
X53957314Y-59125500D01*
X54050500Y-59032314D01*
X54116392Y-58918186D01*
X54131509Y-58861765D01*
X54167871Y-58802107D01*
X54230718Y-58771576D01*
X54300093Y-58779870D01*
X54338964Y-58806178D01*
X61773687Y-66240902D01*
X61807172Y-66302225D01*
X61802188Y-66371917D01*
X61793393Y-66390583D01*
X61743609Y-66476810D01*
X61743609Y-66476811D01*
X61743608Y-66476813D01*
X61743608Y-66476814D01*
X61709500Y-66604108D01*
X61709500Y-66735892D01*
X61713414Y-66750499D01*
X61743608Y-66863187D01*
X61776554Y-66920250D01*
X61809500Y-66977314D01*
X61902686Y-67070500D01*
X61902692Y-67070503D01*
X61906107Y-67073124D01*
X61908263Y-67076077D01*
X61908433Y-67076247D01*
X61908406Y-67076273D01*
X61947309Y-67129552D01*
X61951464Y-67199298D01*
X61917252Y-67260219D01*
X61855534Y-67292971D01*
X61830620Y-67295500D01*
X56173304Y-67295500D01*
X56106265Y-67275815D01*
X56085623Y-67259181D01*
X55024160Y-66197718D01*
X54990675Y-66136395D01*
X54987841Y-66110037D01*
X54987841Y-66025877D01*
X54987840Y-66025873D01*
X54972649Y-65949502D01*
X54960614Y-65888997D01*
X54907205Y-65760058D01*
X54907203Y-65760055D01*
X54907201Y-65760051D01*
X54829669Y-65644017D01*
X54829666Y-65644013D01*
X54730986Y-65545333D01*
X54730982Y-65545330D01*
X54614948Y-65467798D01*
X54614938Y-65467793D01*
X54486003Y-65414386D01*
X54485995Y-65414384D01*
X54349126Y-65387159D01*
X54349122Y-65387159D01*
X53465555Y-65387159D01*
X53398516Y-65367474D01*
X53352761Y-65314670D01*
X53342817Y-65245512D01*
X53371842Y-65181956D01*
X53377874Y-65175478D01*
X53383273Y-65170079D01*
X53683809Y-64869544D01*
X53724000Y-64772512D01*
X53724000Y-64667487D01*
X53724000Y-62777487D01*
X53712228Y-62749067D01*
X53683809Y-62680456D01*
X52776613Y-61773260D01*
X52743128Y-61711937D01*
X52741971Y-61684020D01*
X52740500Y-61684020D01*
X52740500Y-61544110D01*
X52740500Y-61544108D01*
X52706392Y-61416814D01*
X52640500Y-61302686D01*
X52547314Y-61209500D01*
X52466980Y-61163119D01*
X52433187Y-61143608D01*
X52369539Y-61126554D01*
X52305892Y-61109500D01*
X52174108Y-61109500D01*
X52046812Y-61143608D01*
X51932686Y-61209500D01*
X51932683Y-61209502D01*
X51839502Y-61302683D01*
X51839500Y-61302686D01*
X51773608Y-61416812D01*
X51739500Y-61544108D01*
X51739500Y-61675891D01*
X51773608Y-61803187D01*
X51800347Y-61849500D01*
X51839500Y-61917314D01*
X51932686Y-62010500D01*
X52046814Y-62076392D01*
X52174108Y-62110500D01*
X52174110Y-62110500D01*
X52314020Y-62110500D01*
X52314020Y-62113645D01*
X52368376Y-62122095D01*
X52403260Y-62146613D01*
X53159681Y-62903033D01*
X53193166Y-62964356D01*
X53196000Y-62990714D01*
X53196000Y-64559285D01*
X53176315Y-64626324D01*
X53159681Y-64646966D01*
X52783808Y-65022840D01*
X52722485Y-65056325D01*
X52696127Y-65059159D01*
X46676353Y-65059159D01*
X46609314Y-65039474D01*
X46588672Y-65022840D01*
X44124940Y-62559108D01*
X48824500Y-62559108D01*
X48824500Y-62690891D01*
X48858608Y-62818187D01*
X48882005Y-62858711D01*
X48924500Y-62932314D01*
X49017686Y-63025500D01*
X49116521Y-63082563D01*
X49124215Y-63087005D01*
X49131814Y-63091392D01*
X49259108Y-63125500D01*
X49259110Y-63125500D01*
X49390890Y-63125500D01*
X49390892Y-63125500D01*
X49518186Y-63091392D01*
X49632314Y-63025500D01*
X49725500Y-62932314D01*
X49791392Y-62818186D01*
X49825500Y-62690892D01*
X49825500Y-62559108D01*
X49791392Y-62431814D01*
X49725500Y-62317686D01*
X49632314Y-62224500D01*
X49575250Y-62191554D01*
X49518187Y-62158608D01*
X49454539Y-62141554D01*
X49390892Y-62124500D01*
X49259108Y-62124500D01*
X49131812Y-62158608D01*
X49017686Y-62224500D01*
X49017683Y-62224502D01*
X48924502Y-62317683D01*
X48924500Y-62317686D01*
X48858608Y-62431812D01*
X48824500Y-62559108D01*
X44124940Y-62559108D01*
X41744333Y-60178501D01*
X41733324Y-60158340D01*
X41718521Y-60140773D01*
X41716896Y-60128255D01*
X41710848Y-60117178D01*
X41712486Y-60094264D01*
X41709531Y-60071484D01*
X41714931Y-60060076D01*
X41715832Y-60047486D01*
X41729598Y-60029096D01*
X41739428Y-60008334D01*
X41750140Y-60001656D01*
X41757704Y-59991553D01*
X41779225Y-59983525D01*
X41798721Y-59971373D01*
X41814860Y-59970234D01*
X41823168Y-59967136D01*
X41833722Y-59966832D01*
X41848892Y-59967040D01*
X41855734Y-59968874D01*
X41981986Y-59968874D01*
X41982857Y-59968886D01*
X42015462Y-59978949D01*
X42048188Y-59988559D01*
X42049176Y-59989355D01*
X42049619Y-59989492D01*
X42050197Y-59990177D01*
X42068830Y-60005193D01*
X43035695Y-60972058D01*
X43113194Y-61049557D01*
X43214452Y-61091500D01*
X43214453Y-61091500D01*
X48453387Y-61091500D01*
X48453388Y-61091500D01*
X48554646Y-61049557D01*
X48632145Y-60972058D01*
X48632144Y-60972058D01*
X48690704Y-60913498D01*
X49259558Y-60344646D01*
X49268145Y-60323913D01*
X49295021Y-60283688D01*
X49974601Y-59604108D01*
X50899500Y-59604108D01*
X50899500Y-59735892D01*
X50908948Y-59771154D01*
X50933608Y-59863187D01*
X50938600Y-59871833D01*
X50999500Y-59977314D01*
X51092686Y-60070500D01*
X51206814Y-60136392D01*
X51334108Y-60170500D01*
X51334110Y-60170500D01*
X51465890Y-60170500D01*
X51465892Y-60170500D01*
X51593186Y-60136392D01*
X51707314Y-60070500D01*
X51800500Y-59977314D01*
X51866392Y-59863186D01*
X51900500Y-59735892D01*
X51900500Y-59604108D01*
X51866392Y-59476814D01*
X51800500Y-59362686D01*
X51707314Y-59269500D01*
X51631104Y-59225500D01*
X51593187Y-59203608D01*
X51529539Y-59186554D01*
X51465892Y-59169500D01*
X51334108Y-59169500D01*
X51206812Y-59203608D01*
X51092686Y-59269500D01*
X51092683Y-59269502D01*
X50999502Y-59362683D01*
X50999500Y-59362686D01*
X50933608Y-59476812D01*
X50914132Y-59549500D01*
X50899500Y-59604108D01*
X49974601Y-59604108D01*
X51324032Y-58254678D01*
X51385353Y-58221195D01*
X51455045Y-58226179D01*
G37*
%TD.AperFunction*%
%TA.AperFunction,Conductor*%
G36*
X55941248Y-55816390D02*
G01*
X55945763Y-55816176D01*
X55978528Y-55829294D01*
X55981811Y-55831190D01*
X55981813Y-55831190D01*
X55981814Y-55831191D01*
X56095366Y-55861617D01*
X56150953Y-55893710D01*
X59044734Y-58787491D01*
X59078219Y-58848814D01*
X59073235Y-58918506D01*
X59031363Y-58974439D01*
X58965899Y-58998856D01*
X58957053Y-58999172D01*
X58842503Y-58999172D01*
X58715207Y-59033280D01*
X58601081Y-59099172D01*
X58601078Y-59099174D01*
X58507897Y-59192355D01*
X58507895Y-59192358D01*
X58442003Y-59306484D01*
X58425470Y-59368187D01*
X58407895Y-59433780D01*
X58407895Y-59565564D01*
X58416930Y-59599284D01*
X58442003Y-59692859D01*
X58466848Y-59735891D01*
X58507895Y-59806986D01*
X58601081Y-59900172D01*
X58715209Y-59966064D01*
X58842503Y-60000172D01*
X58842505Y-60000172D01*
X58974285Y-60000172D01*
X58974287Y-60000172D01*
X59101581Y-59966064D01*
X59215709Y-59900172D01*
X59308895Y-59806986D01*
X59374787Y-59692858D01*
X59408895Y-59565564D01*
X59408895Y-59451014D01*
X59428580Y-59383975D01*
X59481384Y-59338220D01*
X59550542Y-59328276D01*
X59614098Y-59357301D01*
X59620576Y-59363333D01*
X61332681Y-61075438D01*
X61366166Y-61136761D01*
X61369000Y-61163119D01*
X61369000Y-62723005D01*
X61352387Y-62785005D01*
X61293609Y-62886810D01*
X61293609Y-62886811D01*
X61293608Y-62886813D01*
X61293608Y-62886814D01*
X61259500Y-63014108D01*
X61259500Y-63145892D01*
X61290927Y-63263181D01*
X61293609Y-63273188D01*
X61293609Y-63273189D01*
X61345037Y-63362264D01*
X61361510Y-63430164D01*
X61338658Y-63496191D01*
X61283737Y-63539381D01*
X61214183Y-63546023D01*
X61152080Y-63514007D01*
X61149969Y-63511945D01*
X55627319Y-57989295D01*
X55612615Y-57962367D01*
X55596023Y-57936549D01*
X55595131Y-57930348D01*
X55593834Y-57927972D01*
X55591000Y-57901614D01*
X55591000Y-57687963D01*
X55593302Y-57670476D01*
X55592440Y-57670363D01*
X55593501Y-57662304D01*
X55593501Y-57551757D01*
X55593500Y-57551739D01*
X55593500Y-57100575D01*
X55593500Y-57089449D01*
X55593501Y-57089446D01*
X55593501Y-56986494D01*
X55591293Y-56978256D01*
X55591020Y-56963072D01*
X55591205Y-56962396D01*
X55591000Y-56960836D01*
X55591000Y-56427201D01*
X55610685Y-56360162D01*
X55627319Y-56339520D01*
X55640532Y-56326307D01*
X55692526Y-56274313D01*
X55758418Y-56160185D01*
X55792526Y-56032891D01*
X55792526Y-55936680D01*
X55794236Y-55930853D01*
X55793088Y-55924891D01*
X55803965Y-55897720D01*
X55812211Y-55869641D01*
X55816799Y-55865665D01*
X55819057Y-55860026D01*
X55842903Y-55843046D01*
X55865015Y-55823886D01*
X55871024Y-55823021D01*
X55875972Y-55819499D01*
X55905206Y-55818107D01*
X55934173Y-55813942D01*
X55941248Y-55816390D01*
G37*
%TD.AperFunction*%
%TA.AperFunction,Conductor*%
G36*
X53481794Y-30973685D02*
G01*
X53527549Y-31026489D01*
X53537493Y-31095647D01*
X53508468Y-31159203D01*
X53498384Y-31168704D01*
X53498433Y-31168753D01*
X53399502Y-31267683D01*
X53399500Y-31267686D01*
X53333608Y-31381812D01*
X53318317Y-31438882D01*
X53299500Y-31509108D01*
X53299500Y-31640892D01*
X53305746Y-31664202D01*
X53333608Y-31768187D01*
X53345773Y-31789257D01*
X53399500Y-31882314D01*
X53399502Y-31882316D01*
X53498433Y-31981247D01*
X53496211Y-31983468D01*
X53528676Y-32027900D01*
X53536000Y-32069885D01*
X53536000Y-33309285D01*
X53516315Y-33376324D01*
X53499681Y-33396966D01*
X49337667Y-37558979D01*
X49276344Y-37592464D01*
X49206652Y-37587480D01*
X49150719Y-37545608D01*
X49130212Y-37503392D01*
X49116392Y-37451814D01*
X49050500Y-37337686D01*
X48957314Y-37244500D01*
X48871571Y-37194996D01*
X48843187Y-37178608D01*
X48778356Y-37161237D01*
X48715892Y-37144500D01*
X48584108Y-37144500D01*
X48456812Y-37178608D01*
X48342686Y-37244500D01*
X48342683Y-37244502D01*
X48249502Y-37337683D01*
X48249500Y-37337686D01*
X48183608Y-37451812D01*
X48158476Y-37545608D01*
X48149500Y-37579108D01*
X48149500Y-37710892D01*
X48158125Y-37743082D01*
X48183608Y-37838187D01*
X48207387Y-37879372D01*
X48249500Y-37952314D01*
X48342686Y-38045500D01*
X48456814Y-38111392D01*
X48508391Y-38125212D01*
X48568051Y-38161575D01*
X48598581Y-38224422D01*
X48590287Y-38293797D01*
X48563979Y-38332667D01*
X48194144Y-38702503D01*
X48132821Y-38735988D01*
X48063130Y-38731004D01*
X48007196Y-38689133D01*
X47999076Y-38676822D01*
X47979549Y-38643001D01*
X47950500Y-38592686D01*
X47857314Y-38499500D01*
X47789764Y-38460500D01*
X47743187Y-38433608D01*
X47679539Y-38416554D01*
X47615892Y-38399500D01*
X47484108Y-38399500D01*
X47356812Y-38433608D01*
X47242686Y-38499500D01*
X47242683Y-38499502D01*
X47149502Y-38592683D01*
X47149500Y-38592686D01*
X47083608Y-38706812D01*
X47049500Y-38834108D01*
X47049500Y-38965891D01*
X47083608Y-39093187D01*
X47116554Y-39150250D01*
X47149500Y-39207314D01*
X47242686Y-39300500D01*
X47326822Y-39349076D01*
X47375038Y-39399643D01*
X47388261Y-39468250D01*
X47362293Y-39533115D01*
X47352503Y-39544144D01*
X43100456Y-43796192D01*
X43026193Y-43870454D01*
X43026192Y-43870455D01*
X43026192Y-43870456D01*
X43014421Y-43898872D01*
X42990214Y-43957314D01*
X42986000Y-43967487D01*
X42986000Y-55105987D01*
X42986000Y-55211013D01*
X43026192Y-55308044D01*
X43026193Y-55308045D01*
X43429886Y-55711738D01*
X43463371Y-55773061D01*
X43466139Y-55795374D01*
X43466523Y-55807154D01*
X43466000Y-55809108D01*
X43466000Y-55940892D01*
X43471566Y-55961666D01*
X43472032Y-55975931D01*
X43466715Y-55996498D01*
X43466209Y-56017737D01*
X43458145Y-56029650D01*
X43454545Y-56043577D01*
X43438952Y-56058004D01*
X43427044Y-56075598D01*
X43413819Y-56081260D01*
X43403261Y-56091030D01*
X43382344Y-56094737D01*
X43362814Y-56103100D01*
X43348627Y-56100713D01*
X43334464Y-56103224D01*
X43314861Y-56095033D01*
X43293912Y-56091510D01*
X43276145Y-56078857D01*
X43269995Y-56076288D01*
X43267541Y-56072730D01*
X43260417Y-56067657D01*
X41340819Y-54148059D01*
X41307334Y-54086736D01*
X41304500Y-54060378D01*
X41304500Y-48351559D01*
X41313941Y-48304102D01*
X41316388Y-48298192D01*
X41316392Y-48298186D01*
X41350500Y-48170892D01*
X41350500Y-48039108D01*
X41316392Y-47911814D01*
X41310689Y-47901937D01*
X41299351Y-47882298D01*
X41250500Y-47797686D01*
X41157314Y-47704500D01*
X41100250Y-47671554D01*
X41043187Y-47638608D01*
X40971325Y-47619353D01*
X40915892Y-47604500D01*
X40784108Y-47604500D01*
X40656812Y-47638608D01*
X40542686Y-47704500D01*
X40542683Y-47704502D01*
X40449502Y-47797683D01*
X40449500Y-47797686D01*
X40383608Y-47911812D01*
X40368958Y-47966489D01*
X40349500Y-48039108D01*
X40349500Y-48170892D01*
X40361145Y-48214353D01*
X40383608Y-48298186D01*
X40386059Y-48304102D01*
X40395500Y-48351559D01*
X40395500Y-54240160D01*
X40395499Y-54240164D01*
X40395499Y-54359836D01*
X40411371Y-54419069D01*
X40414105Y-54429275D01*
X40414106Y-54429278D01*
X40426473Y-54475432D01*
X40426474Y-54475433D01*
X40486309Y-54579070D01*
X40486311Y-54579072D01*
X40577995Y-54670756D01*
X40578001Y-54670761D01*
X46236059Y-60328819D01*
X46269544Y-60390142D01*
X46264560Y-60459834D01*
X46222688Y-60515767D01*
X46157224Y-60540184D01*
X46148378Y-60540500D01*
X43434729Y-60540500D01*
X43367690Y-60520815D01*
X43347048Y-60504181D01*
X42458445Y-59615578D01*
X42424960Y-59554255D01*
X42422126Y-59527897D01*
X42422126Y-59402484D01*
X42422126Y-59402482D01*
X42388018Y-59275188D01*
X42322126Y-59161060D01*
X42228940Y-59067874D01*
X42167352Y-59032316D01*
X42114813Y-59001982D01*
X42039543Y-58981814D01*
X41987518Y-58967874D01*
X41855734Y-58967874D01*
X41728438Y-59001982D01*
X41614312Y-59067874D01*
X41614309Y-59067876D01*
X41521128Y-59161057D01*
X41521126Y-59161060D01*
X41455234Y-59275186D01*
X41421126Y-59402482D01*
X41421126Y-59534264D01*
X41422118Y-59541798D01*
X41411353Y-59610833D01*
X41364974Y-59663090D01*
X41297706Y-59681976D01*
X41230905Y-59661496D01*
X41211498Y-59645666D01*
X40042819Y-58476987D01*
X40009334Y-58415664D01*
X40006500Y-58389306D01*
X40006500Y-42678213D01*
X40026185Y-42611174D01*
X40042814Y-42590537D01*
X41548191Y-41085159D01*
X41609512Y-41051676D01*
X41679204Y-41056660D01*
X41697868Y-41065453D01*
X41716814Y-41076392D01*
X41844108Y-41110500D01*
X41844110Y-41110500D01*
X41975890Y-41110500D01*
X41975892Y-41110500D01*
X42103186Y-41076392D01*
X42217314Y-41010500D01*
X42310500Y-40917314D01*
X42376392Y-40803186D01*
X42410500Y-40675892D01*
X42410500Y-40544108D01*
X42376392Y-40416814D01*
X42310500Y-40302686D01*
X42217314Y-40209500D01*
X42149764Y-40170500D01*
X42103187Y-40143608D01*
X42033060Y-40124818D01*
X41975892Y-40109500D01*
X41844108Y-40109500D01*
X41716812Y-40143608D01*
X41602686Y-40209500D01*
X41602683Y-40209502D01*
X41509502Y-40302683D01*
X41509500Y-40302686D01*
X41443607Y-40416814D01*
X41443605Y-40416820D01*
X41442604Y-40420556D01*
X41440671Y-40423901D01*
X41440498Y-40424322D01*
X41440442Y-40424299D01*
X41410513Y-40476133D01*
X39890181Y-41996466D01*
X39828858Y-42029951D01*
X39759166Y-42024967D01*
X39703233Y-41983095D01*
X39678816Y-41917631D01*
X39678500Y-41908785D01*
X39678500Y-41332332D01*
X39698185Y-41265293D01*
X39714819Y-41244651D01*
X41560325Y-39399145D01*
X41560328Y-39399142D01*
X41637865Y-39283100D01*
X41669256Y-39207314D01*
X41691273Y-39154162D01*
X41718500Y-39017281D01*
X41718500Y-38580219D01*
X41718500Y-38317817D01*
X41720043Y-38298316D01*
X41720996Y-38292329D01*
X41721273Y-38291662D01*
X41748500Y-38154781D01*
X41748500Y-38137563D01*
X43782955Y-38137563D01*
X43782955Y-38269346D01*
X43817063Y-38396642D01*
X43838162Y-38433186D01*
X43882955Y-38510769D01*
X43976141Y-38603955D01*
X44090269Y-38669847D01*
X44217563Y-38703955D01*
X44217565Y-38703955D01*
X44349345Y-38703955D01*
X44349347Y-38703955D01*
X44476641Y-38669847D01*
X44590769Y-38603955D01*
X44683955Y-38510769D01*
X44749847Y-38396641D01*
X44783955Y-38269347D01*
X44783955Y-38137563D01*
X44775329Y-38105370D01*
X44776992Y-38035525D01*
X44816154Y-37977662D01*
X44880382Y-37950157D01*
X44949284Y-37961743D01*
X44982785Y-37985599D01*
X45042686Y-38045500D01*
X45129952Y-38095883D01*
X45156810Y-38111390D01*
X45156814Y-38111392D01*
X45284108Y-38145500D01*
X45284110Y-38145500D01*
X45415890Y-38145500D01*
X45415892Y-38145500D01*
X45543186Y-38111392D01*
X45657314Y-38045500D01*
X45750500Y-37952314D01*
X45792613Y-37879371D01*
X45843180Y-37831156D01*
X45911787Y-37817933D01*
X45976652Y-37843901D01*
X46007386Y-37879371D01*
X46049500Y-37952314D01*
X46142686Y-38045500D01*
X46229952Y-38095883D01*
X46256810Y-38111390D01*
X46256814Y-38111392D01*
X46384108Y-38145500D01*
X46384110Y-38145500D01*
X46515890Y-38145500D01*
X46515892Y-38145500D01*
X46643186Y-38111392D01*
X46757314Y-38045500D01*
X46850500Y-37952314D01*
X46916392Y-37838186D01*
X46950500Y-37710892D01*
X46950500Y-37579108D01*
X46916392Y-37451814D01*
X46850500Y-37337686D01*
X46757314Y-37244500D01*
X46671571Y-37194996D01*
X46643187Y-37178608D01*
X46578356Y-37161237D01*
X46515892Y-37144500D01*
X46384108Y-37144500D01*
X46256812Y-37178608D01*
X46142686Y-37244500D01*
X46142683Y-37244502D01*
X46049502Y-37337683D01*
X46049500Y-37337686D01*
X46007387Y-37410628D01*
X45956820Y-37458843D01*
X45888212Y-37472065D01*
X45823348Y-37446097D01*
X45792613Y-37410628D01*
X45790821Y-37407524D01*
X45750500Y-37337686D01*
X45657314Y-37244500D01*
X45571571Y-37194996D01*
X45543187Y-37178608D01*
X45478356Y-37161237D01*
X45415892Y-37144500D01*
X45284108Y-37144500D01*
X45156812Y-37178608D01*
X45042686Y-37244500D01*
X45042683Y-37244502D01*
X44949502Y-37337683D01*
X44949500Y-37337686D01*
X44883608Y-37451812D01*
X44849500Y-37579108D01*
X44849500Y-37710893D01*
X44858125Y-37743082D01*
X44856462Y-37812931D01*
X44817299Y-37870794D01*
X44753070Y-37898297D01*
X44684168Y-37886710D01*
X44650669Y-37862855D01*
X44590771Y-37802957D01*
X44590769Y-37802955D01*
X44514727Y-37759052D01*
X44476642Y-37737063D01*
X44378972Y-37710893D01*
X44349347Y-37702955D01*
X44217563Y-37702955D01*
X44090267Y-37737063D01*
X43976141Y-37802955D01*
X43976138Y-37802957D01*
X43882957Y-37896138D01*
X43882955Y-37896141D01*
X43817063Y-38010267D01*
X43782955Y-38137563D01*
X41748500Y-38137563D01*
X41748500Y-37522333D01*
X41768185Y-37455294D01*
X41784819Y-37434652D01*
X45562652Y-33656819D01*
X45623975Y-33623334D01*
X45650333Y-33620500D01*
X46370262Y-33620500D01*
X46438701Y-33606886D01*
X46507142Y-33593273D01*
X46544907Y-33577630D01*
X46636081Y-33539865D01*
X46752123Y-33462328D01*
X47894631Y-32319818D01*
X47955954Y-32286334D01*
X47982312Y-32283500D01*
X48044782Y-32283500D01*
X48044783Y-32283499D01*
X48181662Y-32256273D01*
X48310601Y-32202864D01*
X48426642Y-32125328D01*
X48525328Y-32026642D01*
X48602864Y-31910601D01*
X48656273Y-31781662D01*
X48683500Y-31644781D01*
X48683500Y-31505219D01*
X48656273Y-31368338D01*
X48602864Y-31239399D01*
X48602862Y-31239396D01*
X48602860Y-31239392D01*
X48541053Y-31146891D01*
X48520175Y-31080213D01*
X48538660Y-31012833D01*
X48590639Y-30966143D01*
X48644155Y-30954000D01*
X53414755Y-30954000D01*
X53481794Y-30973685D01*
G37*
%TD.AperFunction*%
%TA.AperFunction,Conductor*%
G36*
X47829821Y-58560846D02*
G01*
X47885755Y-58602717D01*
X47910172Y-58668182D01*
X47895320Y-58736455D01*
X47893877Y-58739024D01*
X47883610Y-58756806D01*
X47883609Y-58756811D01*
X47883608Y-58756813D01*
X47883608Y-58756814D01*
X47849500Y-58884108D01*
X47849500Y-59015892D01*
X47858318Y-59048801D01*
X47883608Y-59143187D01*
X47916554Y-59200250D01*
X47949500Y-59257314D01*
X48042686Y-59350500D01*
X48054466Y-59357301D01*
X48092295Y-59379143D01*
X48140510Y-59429710D01*
X48153732Y-59498317D01*
X48127764Y-59563182D01*
X48117976Y-59574210D01*
X48049500Y-59642686D01*
X47983608Y-59756812D01*
X47961452Y-59839502D01*
X47949500Y-59884108D01*
X47949500Y-60015892D01*
X47961339Y-60060076D01*
X47983608Y-60143187D01*
X48001461Y-60174108D01*
X48049500Y-60257314D01*
X48049502Y-60257316D01*
X48121005Y-60328819D01*
X48154490Y-60390142D01*
X48149506Y-60459834D01*
X48107634Y-60515767D01*
X48042170Y-60540184D01*
X48033324Y-60540500D01*
X47389237Y-60540500D01*
X47322198Y-60520815D01*
X47276443Y-60468011D01*
X47266499Y-60398853D01*
X47269462Y-60384407D01*
X47278547Y-60350500D01*
X47290500Y-60305892D01*
X47290500Y-60174108D01*
X47256392Y-60046814D01*
X47190500Y-59932686D01*
X47097314Y-59839500D01*
X46983186Y-59773608D01*
X46983181Y-59773605D01*
X46977263Y-59771154D01*
X46937034Y-59744274D01*
X46445112Y-59252352D01*
X46411627Y-59191029D01*
X46416611Y-59121337D01*
X46458483Y-59065404D01*
X46500696Y-59044897D01*
X46613423Y-59014693D01*
X46727551Y-58948801D01*
X46802063Y-58874289D01*
X46863387Y-58840805D01*
X46889744Y-58837971D01*
X47357643Y-58837971D01*
X47357645Y-58837971D01*
X47440939Y-58815652D01*
X47515619Y-58772536D01*
X47698809Y-58589345D01*
X47760130Y-58555862D01*
X47829821Y-58560846D01*
G37*
%TD.AperFunction*%
%TA.AperFunction,Conductor*%
G36*
X55219847Y-53932694D02*
G01*
X55275780Y-53974566D01*
X55300197Y-54040030D01*
X55296288Y-54080968D01*
X55272190Y-54170905D01*
X55272190Y-54302690D01*
X55306298Y-54429986D01*
X55332536Y-54475431D01*
X55372190Y-54544113D01*
X55465376Y-54637299D01*
X55564211Y-54694362D01*
X55573663Y-54699819D01*
X55579504Y-54703191D01*
X55706798Y-54737299D01*
X55706800Y-54737299D01*
X55798226Y-54737299D01*
X55865265Y-54756984D01*
X55911020Y-54809788D01*
X55920964Y-54878946D01*
X55891939Y-54942502D01*
X55873714Y-54959673D01*
X55867687Y-54964297D01*
X55774502Y-55057482D01*
X55774500Y-55057485D01*
X55708608Y-55171611D01*
X55674500Y-55298907D01*
X55674500Y-55395117D01*
X55654815Y-55462156D01*
X55602011Y-55507911D01*
X55532853Y-55517855D01*
X55488506Y-55502507D01*
X55485221Y-55500610D01*
X55485214Y-55500608D01*
X55485213Y-55500607D01*
X55485212Y-55500607D01*
X55357918Y-55466499D01*
X55226134Y-55466499D01*
X55098838Y-55500607D01*
X54984712Y-55566499D01*
X54984709Y-55566501D01*
X54891528Y-55659682D01*
X54891526Y-55659685D01*
X54825634Y-55773811D01*
X54793508Y-55893710D01*
X54791526Y-55901107D01*
X54791526Y-56032891D01*
X54804486Y-56081260D01*
X54804775Y-56082336D01*
X54809000Y-56114429D01*
X54809000Y-57086944D01*
X54810061Y-57095002D01*
X54809197Y-57095115D01*
X54811500Y-57112599D01*
X54811500Y-57536196D01*
X54809199Y-57553679D01*
X54810061Y-57553793D01*
X54809000Y-57561853D01*
X54809000Y-58166411D01*
X54822129Y-58215410D01*
X54820466Y-58285260D01*
X54781303Y-58343122D01*
X54717074Y-58370625D01*
X54648172Y-58359038D01*
X54614673Y-58335183D01*
X54180683Y-57901193D01*
X54180682Y-57901192D01*
X54083651Y-57861000D01*
X52494886Y-57861000D01*
X52427847Y-57841315D01*
X52407281Y-57822398D01*
X52406247Y-57823433D01*
X52307316Y-57724502D01*
X52307314Y-57724500D01*
X52193186Y-57658608D01*
X52185268Y-57656486D01*
X52125608Y-57620123D01*
X52095078Y-57557277D01*
X52103372Y-57487901D01*
X52129677Y-57449034D01*
X52587544Y-56991168D01*
X52648867Y-56957683D01*
X52675225Y-56954849D01*
X53554131Y-56954849D01*
X53621170Y-56974534D01*
X53641812Y-56991168D01*
X53730493Y-57079849D01*
X53844621Y-57145741D01*
X53971915Y-57179849D01*
X53971917Y-57179849D01*
X54103697Y-57179849D01*
X54103699Y-57179849D01*
X54230993Y-57145741D01*
X54345121Y-57079849D01*
X54438307Y-56986663D01*
X54504199Y-56872535D01*
X54538307Y-56745241D01*
X54538307Y-56613457D01*
X54504199Y-56486163D01*
X54438307Y-56372035D01*
X54345121Y-56278849D01*
X54250311Y-56224110D01*
X54230994Y-56212957D01*
X54167346Y-56195903D01*
X54103699Y-56178849D01*
X53971915Y-56178849D01*
X53844619Y-56212957D01*
X53730493Y-56278849D01*
X53730490Y-56278851D01*
X53641812Y-56367530D01*
X53580489Y-56401015D01*
X53554131Y-56403849D01*
X52945541Y-56403849D01*
X52878502Y-56384164D01*
X52832747Y-56331360D01*
X52822803Y-56262202D01*
X52851828Y-56198646D01*
X52857860Y-56192168D01*
X53944041Y-55105987D01*
X55088834Y-53961193D01*
X55150155Y-53927710D01*
X55219847Y-53932694D01*
G37*
%TD.AperFunction*%
%TA.AperFunction,Conductor*%
G36*
X50481876Y-47899552D02*
G01*
X50506322Y-47918535D01*
X51685329Y-49097543D01*
X51685330Y-49097544D01*
X51759594Y-49171808D01*
X51856625Y-49212000D01*
X52695309Y-49212000D01*
X52762348Y-49231685D01*
X52808103Y-49284489D01*
X52818047Y-49353647D01*
X52802697Y-49397999D01*
X52797608Y-49406812D01*
X52779453Y-49474569D01*
X52763500Y-49534108D01*
X52763500Y-49665892D01*
X52777031Y-49716392D01*
X52797608Y-49793187D01*
X52823900Y-49838725D01*
X52863500Y-49907314D01*
X52956686Y-50000500D01*
X53070814Y-50066392D01*
X53198108Y-50100500D01*
X53198110Y-50100500D01*
X53329890Y-50100500D01*
X53329892Y-50100500D01*
X53457186Y-50066392D01*
X53571314Y-50000500D01*
X53664500Y-49907314D01*
X53730392Y-49793186D01*
X53764500Y-49665892D01*
X53764500Y-49534108D01*
X53730392Y-49406814D01*
X53709674Y-49370930D01*
X53687614Y-49332720D01*
X53671141Y-49264820D01*
X53693993Y-49198793D01*
X53712037Y-49181277D01*
X53711204Y-49180444D01*
X54238329Y-48653319D01*
X54299652Y-48619834D01*
X54326010Y-48617000D01*
X55649188Y-48617000D01*
X55649189Y-48617000D01*
X55746220Y-48576808D01*
X55964210Y-48358819D01*
X56025533Y-48325334D01*
X56051891Y-48322500D01*
X62164600Y-48322500D01*
X62231639Y-48342185D01*
X62277394Y-48394989D01*
X62287338Y-48464147D01*
X62284374Y-48478593D01*
X62269500Y-48534108D01*
X62269500Y-48665892D01*
X62291902Y-48749500D01*
X62296433Y-48766407D01*
X62294770Y-48836257D01*
X62255607Y-48894119D01*
X62191379Y-48921623D01*
X62176658Y-48922500D01*
X55343116Y-48922500D01*
X55256884Y-48922500D01*
X55201354Y-48937379D01*
X55173589Y-48944819D01*
X55098911Y-48987934D01*
X55098908Y-48987936D01*
X46607778Y-57479067D01*
X46580850Y-57493770D01*
X46555032Y-57510363D01*
X46548831Y-57511254D01*
X46546455Y-57512552D01*
X46520097Y-57515386D01*
X46474562Y-57515386D01*
X46407523Y-57495701D01*
X46386881Y-57479067D01*
X46350202Y-57442388D01*
X46350200Y-57442386D01*
X46271009Y-57396665D01*
X46236073Y-57376494D01*
X46145845Y-57352318D01*
X46108778Y-57342386D01*
X45976994Y-57342386D01*
X45849698Y-57376494D01*
X45735572Y-57442386D01*
X45735569Y-57442388D01*
X45642388Y-57535569D01*
X45642386Y-57535572D01*
X45576494Y-57649698D01*
X45556451Y-57724502D01*
X45542386Y-57776994D01*
X45542386Y-57908778D01*
X45568005Y-58004392D01*
X45576495Y-58036074D01*
X45576496Y-58036077D01*
X45580472Y-58042964D01*
X45596943Y-58110864D01*
X45574090Y-58176891D01*
X45519168Y-58220080D01*
X45449615Y-58226721D01*
X45387513Y-58194703D01*
X45385403Y-58192643D01*
X44720440Y-57527680D01*
X44686955Y-57466357D01*
X44691939Y-57396665D01*
X44720436Y-57352323D01*
X47558860Y-54513898D01*
X47558865Y-54513895D01*
X47569068Y-54503691D01*
X47569070Y-54503691D01*
X47653691Y-54419070D01*
X47713527Y-54315431D01*
X47727847Y-54261987D01*
X47744501Y-54199836D01*
X47744501Y-54080164D01*
X47744500Y-54080160D01*
X47744500Y-49889622D01*
X47764185Y-49822583D01*
X47780819Y-49801941D01*
X49331941Y-48250819D01*
X49393264Y-48217334D01*
X49419622Y-48214500D01*
X49593440Y-48214500D01*
X49640894Y-48223939D01*
X49646806Y-48226387D01*
X49646814Y-48226392D01*
X49774108Y-48260500D01*
X49774110Y-48260500D01*
X49905890Y-48260500D01*
X49905892Y-48260500D01*
X50033186Y-48226392D01*
X50147314Y-48160500D01*
X50240500Y-48067314D01*
X50306392Y-47953186D01*
X50306392Y-47953185D01*
X50310456Y-47946147D01*
X50313050Y-47947645D01*
X50347884Y-47904387D01*
X50414170Y-47882298D01*
X50481876Y-47899552D01*
G37*
%TD.AperFunction*%
%TA.AperFunction,Conductor*%
G36*
X56962463Y-30973685D02*
G01*
X56983105Y-30990319D01*
X67351681Y-41358895D01*
X67385166Y-41420218D01*
X67388000Y-41446576D01*
X67388000Y-43095743D01*
X67368315Y-43162782D01*
X67315511Y-43208537D01*
X67246353Y-43218481D01*
X67202000Y-43203130D01*
X67168189Y-43183609D01*
X67168186Y-43183608D01*
X67040892Y-43149500D01*
X66909108Y-43149500D01*
X66781812Y-43183608D01*
X66667686Y-43249500D01*
X66667683Y-43249502D01*
X66574502Y-43342683D01*
X66574500Y-43342686D01*
X66508608Y-43456812D01*
X66474500Y-43584108D01*
X66474500Y-43724019D01*
X66471370Y-43724019D01*
X66462861Y-43778466D01*
X66438387Y-43813261D01*
X66376192Y-43875456D01*
X66336000Y-43972486D01*
X66336000Y-45299284D01*
X66316315Y-45366323D01*
X66299681Y-45386965D01*
X63922237Y-47764408D01*
X63860914Y-47797893D01*
X63791222Y-47792909D01*
X63735289Y-47751037D01*
X63727169Y-47738728D01*
X63719059Y-47724681D01*
X63687045Y-47669231D01*
X63593859Y-47576045D01*
X63484453Y-47512879D01*
X63479732Y-47510153D01*
X63450835Y-47502410D01*
X63398043Y-47488265D01*
X63338384Y-47451901D01*
X63307855Y-47389054D01*
X63310002Y-47344022D01*
X63309439Y-47343948D01*
X63310328Y-47337193D01*
X63310366Y-47336389D01*
X63310500Y-47335892D01*
X63310500Y-47204108D01*
X63276392Y-47076814D01*
X63210500Y-46962686D01*
X63117314Y-46869500D01*
X63042952Y-46826567D01*
X63003187Y-46803608D01*
X62939539Y-46786554D01*
X62875892Y-46769500D01*
X62744108Y-46769500D01*
X62616812Y-46803608D01*
X62502686Y-46869500D01*
X62502683Y-46869502D01*
X62409502Y-46962683D01*
X62409498Y-46962689D01*
X62343606Y-47076816D01*
X62340495Y-47084328D01*
X62337790Y-47083207D01*
X62313377Y-47125445D01*
X62008641Y-47430182D01*
X61947320Y-47463666D01*
X61920962Y-47466500D01*
X56980529Y-47466500D01*
X56959443Y-47460308D01*
X56937520Y-47458802D01*
X56926576Y-47450657D01*
X56913490Y-47446815D01*
X56899101Y-47430209D01*
X56881469Y-47417087D01*
X56876665Y-47404317D01*
X56867735Y-47394011D01*
X56864607Y-47372261D01*
X56856870Y-47351691D01*
X56858760Y-47331595D01*
X56857791Y-47324853D01*
X56859290Y-47316480D01*
X56859947Y-47313417D01*
X56890500Y-47199392D01*
X56890500Y-47171058D01*
X56893261Y-47158194D01*
X56903899Y-47138582D01*
X56910185Y-47117175D01*
X56926479Y-47096954D01*
X56926575Y-47096778D01*
X56926658Y-47096732D01*
X56926819Y-47096533D01*
X58500995Y-45522357D01*
X59189048Y-45522357D01*
X59189048Y-45654141D01*
X59196088Y-45680414D01*
X59223156Y-45781436D01*
X59253409Y-45833834D01*
X59289048Y-45895563D01*
X59382234Y-45988749D01*
X59496362Y-46054641D01*
X59623656Y-46088749D01*
X59623658Y-46088749D01*
X59755438Y-46088749D01*
X59755440Y-46088749D01*
X59882734Y-46054641D01*
X59996862Y-45988749D01*
X60090048Y-45895563D01*
X60155940Y-45781435D01*
X60190048Y-45654141D01*
X60190048Y-45522357D01*
X60155940Y-45395063D01*
X60090048Y-45280935D01*
X59996862Y-45187749D01*
X59939798Y-45154803D01*
X59882735Y-45121857D01*
X59819087Y-45104803D01*
X59755440Y-45087749D01*
X59623656Y-45087749D01*
X59496360Y-45121857D01*
X59382234Y-45187749D01*
X59382231Y-45187751D01*
X59289050Y-45280932D01*
X59289048Y-45280935D01*
X59223156Y-45395061D01*
X59192226Y-45510497D01*
X59189048Y-45522357D01*
X58500995Y-45522357D01*
X58596803Y-45426549D01*
X58783201Y-45240151D01*
X58973808Y-45049544D01*
X59014000Y-44952513D01*
X59014000Y-44847487D01*
X59014000Y-43594885D01*
X59033685Y-43527846D01*
X59052605Y-43507285D01*
X59051567Y-43506247D01*
X59101002Y-43456812D01*
X59150500Y-43407314D01*
X59216392Y-43293186D01*
X59250500Y-43165892D01*
X59250500Y-43034108D01*
X59216392Y-42906814D01*
X59150500Y-42792686D01*
X59057314Y-42699500D01*
X58995648Y-42663897D01*
X58943187Y-42633608D01*
X58859158Y-42611093D01*
X58815892Y-42599500D01*
X58684108Y-42599500D01*
X58556812Y-42633608D01*
X58442686Y-42699500D01*
X58442683Y-42699502D01*
X58375181Y-42767005D01*
X58313858Y-42800490D01*
X58244166Y-42795506D01*
X58199819Y-42767005D01*
X58107316Y-42674502D01*
X58107314Y-42674500D01*
X58036487Y-42633608D01*
X57993187Y-42608608D01*
X57925725Y-42590532D01*
X57865892Y-42574500D01*
X57734108Y-42574500D01*
X57606812Y-42608608D01*
X57492686Y-42674500D01*
X57492683Y-42674502D01*
X57399502Y-42767683D01*
X57399498Y-42767689D01*
X57369010Y-42820494D01*
X57318442Y-42868709D01*
X57249835Y-42881930D01*
X57190803Y-42858703D01*
X57190640Y-42858986D01*
X57188751Y-42857895D01*
X57186137Y-42856867D01*
X57183606Y-42854924D01*
X57069475Y-42789030D01*
X57005827Y-42771976D01*
X56942180Y-42754922D01*
X56810396Y-42754922D01*
X56683100Y-42789030D01*
X56568974Y-42854922D01*
X56568971Y-42854924D01*
X56475790Y-42948105D01*
X56475788Y-42948108D01*
X56409896Y-43062234D01*
X56375788Y-43189530D01*
X56375788Y-43321314D01*
X56376953Y-43325662D01*
X56409896Y-43448609D01*
X56425422Y-43475500D01*
X56475788Y-43562736D01*
X56475790Y-43562738D01*
X56479681Y-43566629D01*
X56513166Y-43627952D01*
X56516000Y-43654310D01*
X56516000Y-44672549D01*
X56496315Y-44739588D01*
X56479681Y-44760230D01*
X56018709Y-45221201D01*
X55957386Y-45254686D01*
X55887694Y-45249702D01*
X55831761Y-45207830D01*
X55823641Y-45195520D01*
X55783517Y-45126023D01*
X55690331Y-45032837D01*
X55690329Y-45032836D01*
X55690327Y-45032834D01*
X55678254Y-45025864D01*
X55630039Y-44975296D01*
X55616818Y-44906688D01*
X55632867Y-44856480D01*
X55695392Y-44748186D01*
X55729500Y-44620892D01*
X55729500Y-44489108D01*
X55695392Y-44361814D01*
X55629500Y-44247686D01*
X55536314Y-44154500D01*
X55479250Y-44121554D01*
X55422187Y-44088608D01*
X55332220Y-44064502D01*
X55294892Y-44054500D01*
X55163108Y-44054500D01*
X55035812Y-44088608D01*
X54921686Y-44154500D01*
X54921683Y-44154502D01*
X54828502Y-44247683D01*
X54828500Y-44247686D01*
X54762608Y-44361812D01*
X54760658Y-44369093D01*
X54724293Y-44428754D01*
X54661446Y-44459283D01*
X54640883Y-44461000D01*
X54572486Y-44461000D01*
X54475454Y-44501193D01*
X53051193Y-45925454D01*
X53051192Y-45925455D01*
X53051192Y-45925456D01*
X53043069Y-45945067D01*
X53011000Y-46022486D01*
X53011000Y-46488467D01*
X52991315Y-46555506D01*
X52949004Y-46595852D01*
X52942686Y-46599499D01*
X52849500Y-46692686D01*
X52787830Y-46799502D01*
X52783608Y-46806814D01*
X52776776Y-46832314D01*
X52773889Y-46843088D01*
X52737524Y-46902748D01*
X52674677Y-46933277D01*
X52605301Y-46924982D01*
X52568366Y-46896313D01*
X52566247Y-46898433D01*
X52467316Y-46799502D01*
X52467314Y-46799500D01*
X52410250Y-46766554D01*
X52353187Y-46733608D01*
X52280888Y-46714236D01*
X52225892Y-46699500D01*
X52094108Y-46699500D01*
X52085981Y-46699500D01*
X52085981Y-46698099D01*
X52025532Y-46688669D01*
X51990708Y-46664180D01*
X51489896Y-46163368D01*
X51072736Y-45746208D01*
X51039253Y-45684887D01*
X51044237Y-45615195D01*
X51086109Y-45559262D01*
X51098420Y-45551142D01*
X51112900Y-45542782D01*
X51168814Y-45510500D01*
X51262000Y-45417314D01*
X51327892Y-45303186D01*
X51362000Y-45175892D01*
X51362000Y-45159886D01*
X51381685Y-45092847D01*
X51434489Y-45047092D01*
X51486000Y-45035886D01*
X51566890Y-45035886D01*
X51566892Y-45035886D01*
X51694186Y-45001778D01*
X51808314Y-44935886D01*
X51901500Y-44842700D01*
X51967392Y-44728572D01*
X52001500Y-44601278D01*
X52001500Y-44469494D01*
X51967392Y-44342200D01*
X51901500Y-44228072D01*
X51808314Y-44134886D01*
X51742469Y-44096870D01*
X51694187Y-44068994D01*
X51625165Y-44050500D01*
X51566892Y-44034886D01*
X51435108Y-44034886D01*
X51307812Y-44068994D01*
X51193686Y-44134886D01*
X51193683Y-44134888D01*
X51100502Y-44228069D01*
X51100500Y-44228072D01*
X51034608Y-44342198D01*
X51000500Y-44469494D01*
X51000500Y-44485500D01*
X51000288Y-44486219D01*
X51000492Y-44486943D01*
X50990453Y-44519715D01*
X50980815Y-44552539D01*
X50980248Y-44553030D01*
X50980028Y-44553749D01*
X50953842Y-44575910D01*
X50928011Y-44598294D01*
X50927079Y-44598561D01*
X50926696Y-44598886D01*
X50923873Y-44599482D01*
X50892718Y-44608435D01*
X50884645Y-44609500D01*
X50795608Y-44609500D01*
X50709256Y-44632637D01*
X50701218Y-44633698D01*
X50674389Y-44629521D01*
X50647243Y-44628875D01*
X50640373Y-44624225D01*
X50632180Y-44622950D01*
X50611869Y-44604933D01*
X50589381Y-44589712D01*
X50586115Y-44582087D01*
X50579912Y-44576584D01*
X50572565Y-44550444D01*
X50561877Y-44525484D01*
X50561000Y-44510763D01*
X50561000Y-44278112D01*
X50580685Y-44211073D01*
X50622997Y-44170727D01*
X50727314Y-44110500D01*
X50820500Y-44017314D01*
X50886392Y-43903186D01*
X50920500Y-43775892D01*
X50920500Y-43644108D01*
X50886392Y-43516814D01*
X50820500Y-43402686D01*
X50727314Y-43309500D01*
X50653117Y-43266662D01*
X50613187Y-43243608D01*
X50546210Y-43225662D01*
X50485892Y-43209500D01*
X50354108Y-43209500D01*
X50226812Y-43243608D01*
X50112686Y-43309500D01*
X50112683Y-43309502D01*
X50019502Y-43402683D01*
X50019500Y-43402686D01*
X49957401Y-43510245D01*
X49953608Y-43516814D01*
X49937570Y-43576669D01*
X49923182Y-43630366D01*
X49891089Y-43685952D01*
X49857125Y-43719916D01*
X49857122Y-43719920D01*
X49810200Y-43801192D01*
X49805646Y-43809079D01*
X49800095Y-43829795D01*
X49786442Y-43880746D01*
X49786442Y-43880749D01*
X49779000Y-43908524D01*
X49779000Y-43908527D01*
X49779000Y-43996299D01*
X49759315Y-44063338D01*
X49706511Y-44109093D01*
X49637353Y-44119037D01*
X49573797Y-44090012D01*
X49567319Y-44083980D01*
X49547841Y-44064502D01*
X49547839Y-44064500D01*
X49490775Y-44031554D01*
X49433712Y-43998608D01*
X49336221Y-43972486D01*
X49306417Y-43964500D01*
X49174633Y-43964500D01*
X49047337Y-43998608D01*
X48933211Y-44064500D01*
X48933208Y-44064502D01*
X48840027Y-44157683D01*
X48840025Y-44157686D01*
X48774133Y-44271812D01*
X48753452Y-44348997D01*
X48740025Y-44399108D01*
X48740025Y-44530892D01*
X48766452Y-44629521D01*
X48776237Y-44666037D01*
X48773295Y-44666825D01*
X48779201Y-44721912D01*
X48747908Y-44784382D01*
X48719180Y-44807246D01*
X48637501Y-44854405D01*
X48637495Y-44854409D01*
X48544314Y-44947590D01*
X48544312Y-44947593D01*
X48478420Y-45061719D01*
X48447828Y-45175892D01*
X48444312Y-45189015D01*
X48444312Y-45320799D01*
X48456510Y-45366323D01*
X48478420Y-45448094D01*
X48511366Y-45505157D01*
X48544312Y-45562221D01*
X48544314Y-45562223D01*
X48643245Y-45661154D01*
X48641023Y-45663375D01*
X48673488Y-45707807D01*
X48680812Y-45749792D01*
X48680812Y-46036185D01*
X48682886Y-46041192D01*
X48709020Y-46104285D01*
X48721003Y-46133216D01*
X49681464Y-47093677D01*
X49697187Y-47122472D01*
X49713937Y-47150714D01*
X49713855Y-47152996D01*
X49714949Y-47155000D01*
X49712607Y-47187739D01*
X49711430Y-47220539D01*
X49710127Y-47222413D01*
X49709965Y-47224692D01*
X49690292Y-47250971D01*
X49671571Y-47277924D01*
X49668952Y-47279477D01*
X49668093Y-47280625D01*
X49641214Y-47295928D01*
X49640871Y-47296070D01*
X49593440Y-47305500D01*
X49247448Y-47305500D01*
X49247432Y-47305499D01*
X49239836Y-47305499D01*
X49120164Y-47305499D01*
X49004570Y-47336472D01*
X48968482Y-47357308D01*
X48968481Y-47357308D01*
X48900936Y-47396304D01*
X48900928Y-47396310D01*
X46926311Y-49370927D01*
X46926307Y-49370933D01*
X46866472Y-49474568D01*
X46866473Y-49474568D01*
X46866473Y-49474569D01*
X46866473Y-49474570D01*
X46838893Y-49577500D01*
X46835499Y-49590165D01*
X46835499Y-49719825D01*
X46835500Y-49719838D01*
X46835500Y-53900378D01*
X46815815Y-53967417D01*
X46799181Y-53988059D01*
X44655379Y-56131860D01*
X44594056Y-56165345D01*
X44524364Y-56160361D01*
X44468431Y-56118489D01*
X44444014Y-56053025D01*
X44447922Y-56012091D01*
X44467000Y-55940892D01*
X44467000Y-55809108D01*
X44457642Y-55774183D01*
X44459304Y-55704335D01*
X44498465Y-55646472D01*
X44545321Y-55622316D01*
X44598391Y-55608097D01*
X44712519Y-55542205D01*
X44805705Y-55449019D01*
X44871597Y-55334891D01*
X44905705Y-55207597D01*
X44905705Y-55075813D01*
X44871597Y-54948519D01*
X44805705Y-54834391D01*
X44712519Y-54741205D01*
X44636498Y-54697314D01*
X44598392Y-54675313D01*
X44519405Y-54654149D01*
X44471097Y-54641205D01*
X44339313Y-54641205D01*
X44331186Y-54641205D01*
X44331186Y-54638074D01*
X44276739Y-54629566D01*
X44241944Y-54605091D01*
X43878319Y-54241466D01*
X43844834Y-54180143D01*
X43842000Y-54153785D01*
X43842000Y-47134108D01*
X45619500Y-47134108D01*
X45619500Y-47265892D01*
X45627548Y-47295928D01*
X45653608Y-47393187D01*
X45680682Y-47440080D01*
X45719500Y-47507314D01*
X45812686Y-47600500D01*
X45926814Y-47666392D01*
X46054108Y-47700500D01*
X46054110Y-47700500D01*
X46185890Y-47700500D01*
X46185892Y-47700500D01*
X46313186Y-47666392D01*
X46427314Y-47600500D01*
X46520500Y-47507314D01*
X46586392Y-47393186D01*
X46620500Y-47265892D01*
X46620500Y-47134108D01*
X46586392Y-47006814D01*
X46586389Y-47006810D01*
X46583938Y-47000890D01*
X46574500Y-46953439D01*
X46574500Y-44739622D01*
X46594185Y-44672583D01*
X46610819Y-44651941D01*
X51856941Y-39405819D01*
X51918264Y-39372334D01*
X51944622Y-39369500D01*
X54952786Y-39369500D01*
X55019825Y-39389185D01*
X55065580Y-39441989D01*
X55075524Y-39511147D01*
X55046499Y-39574703D01*
X55040467Y-39581181D01*
X54886193Y-39735454D01*
X54886192Y-39735455D01*
X54886192Y-39735456D01*
X54874421Y-39763872D01*
X54846000Y-39832486D01*
X54846000Y-42599285D01*
X54826315Y-42666324D01*
X54809681Y-42686966D01*
X54268879Y-43227767D01*
X54207556Y-43261252D01*
X54176019Y-43262569D01*
X54176019Y-43263405D01*
X54036108Y-43263405D01*
X53908812Y-43297513D01*
X53794686Y-43363405D01*
X53794683Y-43363407D01*
X53701502Y-43456588D01*
X53701500Y-43456591D01*
X53631544Y-43577758D01*
X53629659Y-43576669D01*
X53592984Y-43622180D01*
X53526689Y-43644243D01*
X53458990Y-43626962D01*
X53411381Y-43575824D01*
X53402491Y-43552414D01*
X53397283Y-43532976D01*
X53331391Y-43418848D01*
X53238205Y-43325662D01*
X53230672Y-43321313D01*
X53223601Y-43317230D01*
X53175386Y-43266662D01*
X53162165Y-43198055D01*
X53188134Y-43133190D01*
X53223600Y-43102458D01*
X53244314Y-43090500D01*
X53337500Y-42997314D01*
X53403392Y-42883186D01*
X53437500Y-42755892D01*
X53437500Y-42624108D01*
X53403392Y-42496814D01*
X53337500Y-42382686D01*
X53244314Y-42289500D01*
X53187250Y-42256554D01*
X53130187Y-42223608D01*
X53066539Y-42206554D01*
X53002892Y-42189500D01*
X52983707Y-42189500D01*
X52916668Y-42169815D01*
X52870913Y-42117011D01*
X52859707Y-42065500D01*
X52859707Y-42025018D01*
X52859707Y-42025016D01*
X52825599Y-41897722D01*
X52759707Y-41783594D01*
X52666521Y-41690408D01*
X52609457Y-41657462D01*
X52552394Y-41624516D01*
X52488746Y-41607462D01*
X52425099Y-41590408D01*
X52293315Y-41590408D01*
X52166019Y-41624516D01*
X52051893Y-41690408D01*
X52051890Y-41690410D01*
X51958709Y-41783591D01*
X51958707Y-41783594D01*
X51892815Y-41897720D01*
X51866357Y-41996466D01*
X51858707Y-42025016D01*
X51858707Y-42156800D01*
X51867469Y-42189500D01*
X51892815Y-42284095D01*
X51895936Y-42289500D01*
X51958707Y-42398222D01*
X52051893Y-42491408D01*
X52166021Y-42557300D01*
X52293315Y-42591408D01*
X52293317Y-42591408D01*
X52312500Y-42591408D01*
X52379539Y-42611093D01*
X52425294Y-42663897D01*
X52436500Y-42715408D01*
X52436500Y-42755892D01*
X52448450Y-42800490D01*
X52470608Y-42883187D01*
X52485826Y-42909544D01*
X52536500Y-42997314D01*
X52629686Y-43090500D01*
X52644289Y-43098931D01*
X52692503Y-43149497D01*
X52705725Y-43218105D01*
X52679757Y-43282969D01*
X52644290Y-43313702D01*
X52623583Y-43325657D01*
X52623574Y-43325664D01*
X52530393Y-43418845D01*
X52530391Y-43418848D01*
X52464499Y-43532974D01*
X52434721Y-43644110D01*
X52430391Y-43660270D01*
X52430391Y-43792054D01*
X52447445Y-43855701D01*
X52464499Y-43919349D01*
X52492292Y-43967487D01*
X52530391Y-44033476D01*
X52623577Y-44126662D01*
X52670949Y-44154012D01*
X52719164Y-44204579D01*
X52732386Y-44273187D01*
X52706418Y-44338051D01*
X52670953Y-44368783D01*
X52660193Y-44374995D01*
X52660184Y-44375002D01*
X52567003Y-44468183D01*
X52567001Y-44468186D01*
X52501109Y-44582312D01*
X52476931Y-44672549D01*
X52467001Y-44709608D01*
X52467001Y-44841392D01*
X52470489Y-44854409D01*
X52501109Y-44968687D01*
X52527355Y-45014145D01*
X52567001Y-45082814D01*
X52660187Y-45176000D01*
X52759022Y-45233063D01*
X52771299Y-45240151D01*
X52774315Y-45241892D01*
X52901609Y-45276000D01*
X52901611Y-45276000D01*
X53033391Y-45276000D01*
X53033393Y-45276000D01*
X53160687Y-45241892D01*
X53274815Y-45176000D01*
X53368001Y-45082814D01*
X53433893Y-44968686D01*
X53468001Y-44841392D01*
X53468001Y-44709608D01*
X53433893Y-44582314D01*
X53433321Y-44581324D01*
X53415493Y-44550444D01*
X53368001Y-44468186D01*
X53274815Y-44375000D01*
X53264047Y-44368783D01*
X53227442Y-44347648D01*
X53179227Y-44297081D01*
X53166005Y-44228474D01*
X53191973Y-44163609D01*
X53227443Y-44132874D01*
X53238205Y-44126662D01*
X53331391Y-44033476D01*
X53397283Y-43919348D01*
X53397283Y-43919347D01*
X53401347Y-43912309D01*
X53403235Y-43913399D01*
X53439879Y-43867905D01*
X53506168Y-43845824D01*
X53573872Y-43863087D01*
X53621494Y-43914213D01*
X53630398Y-43937649D01*
X53635607Y-43957089D01*
X53635607Y-43957090D01*
X53641610Y-43967487D01*
X53701500Y-44071219D01*
X53794686Y-44164405D01*
X53869261Y-44207461D01*
X53906385Y-44228895D01*
X53908814Y-44230297D01*
X54036108Y-44264405D01*
X54036110Y-44264405D01*
X54167890Y-44264405D01*
X54167892Y-44264405D01*
X54295186Y-44230297D01*
X54409314Y-44164405D01*
X54502500Y-44071219D01*
X54568392Y-43957091D01*
X54602500Y-43829797D01*
X54602500Y-43698013D01*
X54602500Y-43692213D01*
X54622185Y-43625174D01*
X54638819Y-43604532D01*
X54966137Y-43277215D01*
X55333808Y-42909544D01*
X55374000Y-42812513D01*
X55374000Y-42707487D01*
X55374000Y-40045714D01*
X55393685Y-39978675D01*
X55410319Y-39958033D01*
X55668951Y-39699401D01*
X55929134Y-39439217D01*
X55990455Y-39405734D01*
X56060146Y-39410718D01*
X56116080Y-39452589D01*
X56140497Y-39518054D01*
X56136588Y-39558992D01*
X56124500Y-39604106D01*
X56124500Y-39604108D01*
X56124500Y-39735892D01*
X56135765Y-39777935D01*
X56158608Y-39863187D01*
X56191554Y-39920250D01*
X56224500Y-39977314D01*
X56317686Y-40070500D01*
X56431814Y-40136392D01*
X56559108Y-40170500D01*
X56610983Y-40170500D01*
X56678022Y-40190185D01*
X56698664Y-40206819D01*
X56732935Y-40241090D01*
X56793910Y-40302065D01*
X56868590Y-40345181D01*
X56951884Y-40367500D01*
X57577555Y-40367500D01*
X57644594Y-40387185D01*
X57665236Y-40403819D01*
X57892507Y-40631090D01*
X57953482Y-40692065D01*
X58028162Y-40735181D01*
X58111456Y-40757500D01*
X58812983Y-40757500D01*
X58880022Y-40777185D01*
X58900664Y-40793819D01*
X62876181Y-44769336D01*
X62909666Y-44830659D01*
X62912500Y-44857017D01*
X62912500Y-45538172D01*
X62892815Y-45605211D01*
X62876181Y-45625853D01*
X62837197Y-45664836D01*
X62837195Y-45664839D01*
X62771303Y-45778965D01*
X62741001Y-45892056D01*
X62737195Y-45906261D01*
X62737195Y-46038045D01*
X62740608Y-46050781D01*
X62771303Y-46165340D01*
X62782280Y-46184352D01*
X62837195Y-46279467D01*
X62930381Y-46372653D01*
X63029216Y-46429716D01*
X63041195Y-46436632D01*
X63044509Y-46438545D01*
X63171803Y-46472653D01*
X63171805Y-46472653D01*
X63303585Y-46472653D01*
X63303587Y-46472653D01*
X63430881Y-46438545D01*
X63545009Y-46372653D01*
X63638195Y-46279467D01*
X63704087Y-46165339D01*
X63738195Y-46038045D01*
X63738195Y-45906261D01*
X63704087Y-45778967D01*
X63638195Y-45664839D01*
X63603819Y-45630463D01*
X63570334Y-45569140D01*
X63567500Y-45542782D01*
X63567500Y-44626885D01*
X63567500Y-44626884D01*
X63545181Y-44543590D01*
X63502065Y-44468910D01*
X63441090Y-44407935D01*
X59201090Y-40167935D01*
X59126410Y-40124819D01*
X59126407Y-40124818D01*
X59060581Y-40107179D01*
X59000922Y-40070813D01*
X58970394Y-40007966D01*
X58978690Y-39938590D01*
X58985291Y-39925403D01*
X59003891Y-39893188D01*
X59003892Y-39893186D01*
X59038000Y-39765892D01*
X59038000Y-39634108D01*
X59003892Y-39506814D01*
X58938000Y-39392686D01*
X58844814Y-39299500D01*
X58730686Y-39233608D01*
X58730681Y-39233605D01*
X58724763Y-39231154D01*
X58684534Y-39204274D01*
X58123261Y-38643001D01*
X58123259Y-38642998D01*
X58031572Y-38551311D01*
X58031566Y-38551306D01*
X57927934Y-38491474D01*
X57927929Y-38491472D01*
X57903503Y-38484926D01*
X57903503Y-38484927D01*
X57857919Y-38472713D01*
X57812336Y-38460499D01*
X57692664Y-38460499D01*
X57685068Y-38460499D01*
X57685052Y-38460500D01*
X51772448Y-38460500D01*
X51772432Y-38460499D01*
X51764836Y-38460499D01*
X51645164Y-38460499D01*
X51553997Y-38484927D01*
X51544518Y-38487466D01*
X51529570Y-38491472D01*
X51529565Y-38491474D01*
X51425933Y-38551306D01*
X51425927Y-38551311D01*
X45756311Y-44220927D01*
X45756306Y-44220933D01*
X45696474Y-44324565D01*
X45696472Y-44324570D01*
X45692860Y-44338051D01*
X45689927Y-44348997D01*
X45682961Y-44374995D01*
X45665499Y-44440164D01*
X45665499Y-44569825D01*
X45665500Y-44569838D01*
X45665500Y-46953439D01*
X45664496Y-46958481D01*
X45661315Y-46985382D01*
X45657311Y-47000399D01*
X45653608Y-47006814D01*
X45619500Y-47134108D01*
X43842000Y-47134108D01*
X43842000Y-44316576D01*
X43861685Y-44249537D01*
X43878319Y-44228895D01*
X47030823Y-41076391D01*
X50199694Y-37907519D01*
X50261015Y-37874036D01*
X50330707Y-37879020D01*
X50386640Y-37920892D01*
X50394759Y-37933201D01*
X50434881Y-38002693D01*
X50434884Y-38002697D01*
X50434886Y-38002700D01*
X50528072Y-38095886D01*
X50642200Y-38161778D01*
X50769494Y-38195886D01*
X50769496Y-38195886D01*
X50901276Y-38195886D01*
X50901278Y-38195886D01*
X50982555Y-38174108D01*
X60369500Y-38174108D01*
X60369500Y-38305891D01*
X60403608Y-38433187D01*
X60433480Y-38484926D01*
X60469500Y-38547314D01*
X60562686Y-38640500D01*
X60676814Y-38706392D01*
X60804108Y-38740500D01*
X60804110Y-38740500D01*
X60935890Y-38740500D01*
X60935892Y-38740500D01*
X61063186Y-38706392D01*
X61177314Y-38640500D01*
X61247050Y-38570764D01*
X61308373Y-38537279D01*
X61378065Y-38542263D01*
X61422412Y-38570764D01*
X63738386Y-40886738D01*
X63771871Y-40948061D01*
X63773041Y-40975981D01*
X63774500Y-40975981D01*
X63774500Y-41115891D01*
X63808608Y-41243187D01*
X63841554Y-41300250D01*
X63874500Y-41357314D01*
X63967686Y-41450500D01*
X64081814Y-41516392D01*
X64209108Y-41550500D01*
X64209110Y-41550500D01*
X64340890Y-41550500D01*
X64340892Y-41550500D01*
X64468186Y-41516392D01*
X64582314Y-41450500D01*
X64675500Y-41357314D01*
X64741392Y-41243186D01*
X64775500Y-41115892D01*
X64775500Y-40984108D01*
X64741392Y-40856814D01*
X64675500Y-40742686D01*
X64582314Y-40649500D01*
X64525250Y-40616554D01*
X64468187Y-40583608D01*
X64389200Y-40562444D01*
X64340892Y-40549500D01*
X64209108Y-40549500D01*
X64200981Y-40549500D01*
X64200981Y-40546372D01*
X64146524Y-40537857D01*
X64111738Y-40513386D01*
X61614545Y-38016193D01*
X61614544Y-38016192D01*
X61517513Y-37976000D01*
X61364886Y-37976000D01*
X61297847Y-37956315D01*
X61277281Y-37937398D01*
X61276247Y-37938433D01*
X61177316Y-37839502D01*
X61177314Y-37839500D01*
X61114016Y-37802955D01*
X61063187Y-37773608D01*
X60949260Y-37743082D01*
X60935892Y-37739500D01*
X60804108Y-37739500D01*
X60676812Y-37773608D01*
X60562686Y-37839500D01*
X60562683Y-37839502D01*
X60469502Y-37932683D01*
X60469500Y-37932686D01*
X60403608Y-38046812D01*
X60369500Y-38174108D01*
X50982555Y-38174108D01*
X51028572Y-38161778D01*
X51142700Y-38095886D01*
X51235886Y-38002700D01*
X51240735Y-37994300D01*
X51291301Y-37946084D01*
X51359908Y-37932860D01*
X51424773Y-37958827D01*
X51435804Y-37968618D01*
X51512686Y-38045500D01*
X51599952Y-38095883D01*
X51626810Y-38111390D01*
X51626814Y-38111392D01*
X51754108Y-38145500D01*
X51754110Y-38145500D01*
X51885890Y-38145500D01*
X51885892Y-38145500D01*
X52013186Y-38111392D01*
X52127314Y-38045500D01*
X52220500Y-37952314D01*
X52286392Y-37838186D01*
X52320500Y-37710892D01*
X52320500Y-37579108D01*
X52286392Y-37451814D01*
X52220500Y-37337686D01*
X52127314Y-37244500D01*
X52041571Y-37194996D01*
X52013187Y-37178608D01*
X51948356Y-37161237D01*
X51885892Y-37144500D01*
X51754108Y-37144500D01*
X51626812Y-37178608D01*
X51512686Y-37244500D01*
X51512683Y-37244502D01*
X51419502Y-37337683D01*
X51419495Y-37337692D01*
X51414645Y-37346093D01*
X51401522Y-37358603D01*
X51392380Y-37374257D01*
X51376761Y-37382209D01*
X51364075Y-37394305D01*
X51346272Y-37397735D01*
X51330118Y-37405961D01*
X51312679Y-37404207D01*
X51295467Y-37407524D01*
X51278635Y-37400784D01*
X51260599Y-37398971D01*
X51240018Y-37385321D01*
X51230604Y-37381552D01*
X51230122Y-37381171D01*
X51224587Y-37376773D01*
X51142700Y-37294886D01*
X51065253Y-37250172D01*
X51058062Y-37244458D01*
X51043013Y-37223098D01*
X51024986Y-37204192D01*
X51023213Y-37194996D01*
X51017820Y-37187341D01*
X51016707Y-37161237D01*
X51011764Y-37135584D01*
X51015244Y-37126890D01*
X51014846Y-37117534D01*
X51028020Y-37094977D01*
X51037732Y-37070720D01*
X51047513Y-37059700D01*
X56023864Y-32083349D01*
X56085185Y-32049866D01*
X56143630Y-32051256D01*
X56234108Y-32075500D01*
X56234111Y-32075500D01*
X56365890Y-32075500D01*
X56365892Y-32075500D01*
X56493186Y-32041392D01*
X56607314Y-31975500D01*
X56700500Y-31882314D01*
X56766392Y-31768186D01*
X56800500Y-31640892D01*
X56800500Y-31509108D01*
X56766392Y-31381814D01*
X56765163Y-31379686D01*
X56747735Y-31349500D01*
X56700500Y-31267686D01*
X56607314Y-31174500D01*
X56601567Y-31168753D01*
X56603083Y-31167236D01*
X56568553Y-31119941D01*
X56564403Y-31050195D01*
X56598619Y-30989276D01*
X56660338Y-30956527D01*
X56685245Y-30954000D01*
X56895424Y-30954000D01*
X56962463Y-30973685D01*
G37*
%TD.AperFunction*%
%TA.AperFunction,Conductor*%
G36*
X64135363Y-52597185D02*
G01*
X64156005Y-52613819D01*
X64192686Y-52650500D01*
X64306814Y-52716392D01*
X64316590Y-52719011D01*
X64376250Y-52755373D01*
X64406781Y-52818219D01*
X64398489Y-52887595D01*
X64372180Y-52926467D01*
X63316967Y-53981681D01*
X63290039Y-53996384D01*
X63264221Y-54012977D01*
X63258020Y-54013868D01*
X63255644Y-54015166D01*
X63229286Y-54018000D01*
X63024548Y-54018000D01*
X62957509Y-53998315D01*
X62911754Y-53945511D01*
X62901810Y-53876353D01*
X62904773Y-53861907D01*
X62930500Y-53765892D01*
X62930500Y-53634108D01*
X62896392Y-53506814D01*
X62830500Y-53392686D01*
X62737314Y-53299500D01*
X62680250Y-53266554D01*
X62623187Y-53233608D01*
X62559539Y-53216554D01*
X62495892Y-53199500D01*
X62364108Y-53199500D01*
X62236812Y-53233608D01*
X62122686Y-53299500D01*
X62122683Y-53299502D01*
X62029502Y-53392683D01*
X62029500Y-53392686D01*
X61963608Y-53506812D01*
X61929500Y-53634108D01*
X61929500Y-53765891D01*
X61955227Y-53861907D01*
X61953564Y-53931757D01*
X61914401Y-53989619D01*
X61850173Y-54017123D01*
X61835452Y-54018000D01*
X57461038Y-54018000D01*
X57393999Y-53998315D01*
X57373357Y-53981681D01*
X56993369Y-53601693D01*
X56993368Y-53601692D01*
X56896337Y-53561500D01*
X56131476Y-53561500D01*
X56103058Y-53573269D01*
X56103056Y-53573271D01*
X56071264Y-53586440D01*
X56034443Y-53601692D01*
X55935948Y-53700186D01*
X55874625Y-53733670D01*
X55846709Y-53734835D01*
X55846709Y-53736299D01*
X55706796Y-53736299D01*
X55616859Y-53760397D01*
X55547009Y-53758734D01*
X55489147Y-53719570D01*
X55461644Y-53655342D01*
X55473231Y-53586440D01*
X55497083Y-53552944D01*
X56436209Y-52613819D01*
X56497532Y-52580334D01*
X56523890Y-52577500D01*
X64068324Y-52577500D01*
X64135363Y-52597185D01*
G37*
%TD.AperFunction*%
%TA.AperFunction,Conductor*%
G36*
X67335925Y-44103247D02*
G01*
X67379117Y-44158168D01*
X67388000Y-44204256D01*
X67388000Y-49393423D01*
X67368315Y-49460462D01*
X67351681Y-49481104D01*
X64982980Y-51849804D01*
X64978919Y-51852021D01*
X64976413Y-51855913D01*
X64948536Y-51868611D01*
X64921657Y-51883289D01*
X64917040Y-51882958D01*
X64912830Y-51884877D01*
X64882518Y-51880490D01*
X64851965Y-51878305D01*
X64846985Y-51875347D01*
X64843681Y-51874869D01*
X64828988Y-51864657D01*
X64814008Y-51855759D01*
X64810708Y-51852894D01*
X64807314Y-51849500D01*
X64805775Y-51848611D01*
X64800044Y-51843636D01*
X64783132Y-51817266D01*
X64764645Y-51791947D01*
X64764414Y-51788080D01*
X64762325Y-51784822D01*
X64762354Y-51753490D01*
X64760491Y-51722201D01*
X64762387Y-51718824D01*
X64762391Y-51714953D01*
X64779357Y-51688607D01*
X64794704Y-51661281D01*
X64799798Y-51656866D01*
X64800221Y-51656210D01*
X64800927Y-51655888D01*
X64805847Y-51651625D01*
X64807306Y-51650504D01*
X64807314Y-51650500D01*
X64900500Y-51557314D01*
X64966392Y-51443186D01*
X65000500Y-51315892D01*
X65000500Y-51184108D01*
X64966392Y-51056814D01*
X64900500Y-50942686D01*
X64807314Y-50849500D01*
X64807311Y-50849498D01*
X64805847Y-50848375D01*
X64804921Y-50847107D01*
X64801567Y-50843753D01*
X64802090Y-50843229D01*
X64764645Y-50791947D01*
X64760491Y-50722201D01*
X64794704Y-50661281D01*
X64805847Y-50651625D01*
X64807306Y-50650504D01*
X64807314Y-50650500D01*
X64900500Y-50557314D01*
X64966392Y-50443186D01*
X65000500Y-50315892D01*
X65000500Y-50184108D01*
X64966392Y-50056814D01*
X64900500Y-49942686D01*
X64807314Y-49849500D01*
X64807311Y-49849498D01*
X64805847Y-49848375D01*
X64804921Y-49847107D01*
X64801567Y-49843753D01*
X64802090Y-49843229D01*
X64764645Y-49791947D01*
X64760491Y-49722201D01*
X64794704Y-49661281D01*
X64805847Y-49651625D01*
X64807306Y-49650504D01*
X64807314Y-49650500D01*
X64900500Y-49557314D01*
X64966392Y-49443186D01*
X65000500Y-49315892D01*
X65000500Y-49184108D01*
X64966392Y-49056814D01*
X64900500Y-48942686D01*
X64807314Y-48849500D01*
X64709776Y-48793186D01*
X64693187Y-48783608D01*
X64628990Y-48766407D01*
X64565892Y-48749500D01*
X64434108Y-48749500D01*
X64306812Y-48783608D01*
X64192686Y-48849500D01*
X64192683Y-48849502D01*
X64156005Y-48886181D01*
X64094682Y-48919666D01*
X64068324Y-48922500D01*
X63810214Y-48922500D01*
X63743175Y-48902815D01*
X63697420Y-48850011D01*
X63687476Y-48780853D01*
X63716501Y-48717297D01*
X63722533Y-48710819D01*
X65173852Y-47259500D01*
X66823809Y-45609544D01*
X66864000Y-45512512D01*
X66864000Y-45407487D01*
X66864000Y-44274500D01*
X66883685Y-44207461D01*
X66936489Y-44161706D01*
X66988000Y-44150500D01*
X67040890Y-44150500D01*
X67040892Y-44150500D01*
X67168186Y-44116392D01*
X67201999Y-44096869D01*
X67269898Y-44080396D01*
X67335925Y-44103247D01*
G37*
%TD.AperFunction*%
%TD*%
M02*
