%TF.GenerationSoftware,KiCad,Pcbnew,10.0.1*%
%TF.CreationDate,2026-06-19T22:54:47+02:00*%
%TF.ProjectId,drone,64726f6e-652e-46b6-9963-61645f706362,rev?*%
%TF.SameCoordinates,Original*%
%TF.FileFunction,Legend,Bot*%
%TF.FilePolarity,Positive*%
%FSLAX46Y46*%
G04 Gerber Fmt 4.6, Leading zero omitted, Abs format (unit mm)*
G04 Created by KiCad (PCBNEW 10.0.1) date 2026-06-19 22:54:47*
%MOMM*%
%LPD*%
G01*
G04 APERTURE LIST*
%ADD10C,0.100000*%
%ADD11C,0.150000*%
%ADD12C,0.120000*%
G04 APERTURE END LIST*
D10*
X32175000Y-56650000D02*
X37325000Y-56650000D01*
X37325000Y-60000000D01*
X32175000Y-60000000D01*
X32175000Y-56650000D01*
G36*
X33710925Y-57306100D02*
G01*
X33474522Y-57306100D01*
X33474522Y-57070357D01*
X33402520Y-57070357D01*
X33402520Y-57306100D01*
X33166079Y-57306100D01*
X33166079Y-57375582D01*
X33402520Y-57375582D01*
X33402520Y-57611326D01*
X33474522Y-57611326D01*
X33474522Y-57375582D01*
X33710925Y-57375582D01*
X33710925Y-57306100D01*
G37*
G36*
X36162058Y-57078619D02*
G01*
X35891380Y-57078619D01*
X35891380Y-57155545D01*
X36162058Y-57155545D01*
X36162058Y-57078619D01*
G37*
G36*
X32662143Y-60373165D02*
G01*
X32711429Y-60389316D01*
X32756205Y-60416150D01*
X32797315Y-60454729D01*
X32829937Y-60500188D01*
X32853630Y-60552051D01*
X32868398Y-60611503D01*
X32873575Y-60680066D01*
X32869262Y-60751286D01*
X32857236Y-60810622D01*
X32838532Y-60859987D01*
X32813693Y-60900982D01*
X32780828Y-60935814D01*
X32742276Y-60960480D01*
X32696915Y-60975702D01*
X32642981Y-60981057D01*
X32604212Y-60978542D01*
X32569791Y-60971318D01*
X32539083Y-60959700D01*
X32495097Y-60935489D01*
X32450866Y-60904053D01*
X32450866Y-61189503D01*
X32263496Y-61189503D01*
X32263496Y-60511214D01*
X32450866Y-60511214D01*
X32450866Y-60806669D01*
X32477063Y-60820125D01*
X32504466Y-60829980D01*
X32532543Y-60836136D01*
X32559137Y-60838122D01*
X32592935Y-60835028D01*
X32618927Y-60826589D01*
X32638852Y-60813511D01*
X32653868Y-60795688D01*
X32667711Y-60766127D01*
X32676977Y-60726674D01*
X32680436Y-60674668D01*
X32675707Y-60616979D01*
X32663068Y-60574131D01*
X32644004Y-60542668D01*
X32624326Y-60524074D01*
X32600015Y-60510447D01*
X32570076Y-60501772D01*
X32533128Y-60498652D01*
X32489391Y-60501257D01*
X32450866Y-60511214D01*
X32263496Y-60511214D01*
X32263496Y-60379540D01*
X32443049Y-60379540D01*
X32450866Y-60408713D01*
X32485123Y-60391179D01*
X32521123Y-60378283D01*
X32559763Y-60370461D01*
X32607061Y-60367628D01*
X32662143Y-60373165D01*
G37*
G36*
X33591925Y-60379540D02*
G01*
X33404509Y-60379540D01*
X33404509Y-60442446D01*
X33352691Y-60406362D01*
X33309219Y-60382238D01*
X33279748Y-60371144D01*
X33245681Y-60364143D01*
X33206205Y-60361673D01*
X33158141Y-60365565D01*
X33118195Y-60376487D01*
X33084865Y-60393773D01*
X33057036Y-60417414D01*
X33035351Y-60446558D01*
X33019064Y-60482673D01*
X33008543Y-60527253D01*
X33004738Y-60582170D01*
X33004738Y-60963190D01*
X33193177Y-60963190D01*
X33193177Y-60672993D01*
X33196016Y-60599246D01*
X33201048Y-60571393D01*
X33209323Y-60550531D01*
X33221709Y-60533886D01*
X33239240Y-60522381D01*
X33261440Y-60516051D01*
X33295214Y-60513541D01*
X33319604Y-60515615D01*
X33348256Y-60522381D01*
X33376736Y-60533260D01*
X33404509Y-60548437D01*
X33404509Y-60963190D01*
X33591925Y-60963190D01*
X33591925Y-60379540D01*
G37*
G36*
X34273191Y-60379540D02*
G01*
X33724018Y-60379540D01*
X33724018Y-60497256D01*
X34032175Y-60826211D01*
X33736488Y-60826211D01*
X33736488Y-60963190D01*
X34267469Y-60963190D01*
X34267469Y-60844962D01*
X33963965Y-60516519D01*
X34273191Y-60516519D01*
X34273191Y-60379540D01*
G37*
G36*
X34909698Y-60379540D02*
G01*
X34360525Y-60379540D01*
X34360525Y-60497256D01*
X34668682Y-60826211D01*
X34372995Y-60826211D01*
X34372995Y-60963190D01*
X34903975Y-60963190D01*
X34903975Y-60844962D01*
X34600471Y-60516519D01*
X34909698Y-60516519D01*
X34909698Y-60379540D01*
G37*
G36*
X35429022Y-60364676D02*
G01*
X35486835Y-60373165D01*
X35543484Y-60387755D01*
X35606552Y-60410248D01*
X35606552Y-60561186D01*
X35585754Y-60561186D01*
X35549827Y-60538223D01*
X35497769Y-60514471D01*
X35441112Y-60498130D01*
X35382751Y-60492696D01*
X35321135Y-60497469D01*
X35275016Y-60510239D01*
X35240886Y-60529454D01*
X35214052Y-60557071D01*
X35196632Y-60591798D01*
X35188589Y-60635631D01*
X35617486Y-60635631D01*
X35617486Y-60701282D01*
X35612386Y-60768967D01*
X35598154Y-60824778D01*
X35575829Y-60870866D01*
X35545646Y-60908892D01*
X35507807Y-60938928D01*
X35460859Y-60961371D01*
X35402832Y-60975830D01*
X35331198Y-60981057D01*
X35268646Y-60977252D01*
X35214085Y-60966422D01*
X35166372Y-60949196D01*
X35124543Y-60925858D01*
X35087855Y-60896329D01*
X35056514Y-60860847D01*
X35032044Y-60820887D01*
X35014170Y-60775816D01*
X35007617Y-60745810D01*
X35188077Y-60745810D01*
X35194888Y-60785849D01*
X35208109Y-60815273D01*
X35227067Y-60836587D01*
X35251720Y-60851982D01*
X35281011Y-60861543D01*
X35316122Y-60864922D01*
X35353813Y-60861113D01*
X35381617Y-60850854D01*
X35401967Y-60835005D01*
X35416692Y-60813399D01*
X35426696Y-60784394D01*
X35431140Y-60745810D01*
X35188077Y-60745810D01*
X35007617Y-60745810D01*
X35003021Y-60724763D01*
X34999125Y-60666665D01*
X35003276Y-60607959D01*
X35015086Y-60557163D01*
X35033943Y-60513012D01*
X35059719Y-60474495D01*
X35092787Y-60440910D01*
X35130721Y-60414039D01*
X35175462Y-60392295D01*
X35228090Y-60375900D01*
X35289910Y-60365407D01*
X35362418Y-60361673D01*
X35429022Y-60364676D01*
G37*
G36*
X36173499Y-60781544D02*
G01*
X36156842Y-60781544D01*
X36118316Y-60788244D01*
X36074068Y-60790477D01*
X36035127Y-60789098D01*
X36003252Y-60785312D01*
X35972177Y-60778558D01*
X35937135Y-60767771D01*
X35937135Y-60379540D01*
X35749766Y-60379540D01*
X35749766Y-60963190D01*
X35937135Y-60963190D01*
X35937135Y-60877299D01*
X35980140Y-60911106D01*
X36015636Y-60933455D01*
X36044895Y-60946766D01*
X36090164Y-60959327D01*
X36129250Y-60963190D01*
X36151631Y-60962632D01*
X36173499Y-60961096D01*
X36173499Y-60781544D01*
G37*
D11*
X66875594Y-39004819D02*
X66875594Y-38004819D01*
X66875594Y-38004819D02*
X66637499Y-38004819D01*
X66637499Y-38004819D02*
X66494642Y-38052438D01*
X66494642Y-38052438D02*
X66399404Y-38147676D01*
X66399404Y-38147676D02*
X66351785Y-38242914D01*
X66351785Y-38242914D02*
X66304166Y-38433390D01*
X66304166Y-38433390D02*
X66304166Y-38576247D01*
X66304166Y-38576247D02*
X66351785Y-38766723D01*
X66351785Y-38766723D02*
X66399404Y-38861961D01*
X66399404Y-38861961D02*
X66494642Y-38957200D01*
X66494642Y-38957200D02*
X66637499Y-39004819D01*
X66637499Y-39004819D02*
X66875594Y-39004819D01*
X65447023Y-38004819D02*
X65637499Y-38004819D01*
X65637499Y-38004819D02*
X65732737Y-38052438D01*
X65732737Y-38052438D02*
X65780356Y-38100057D01*
X65780356Y-38100057D02*
X65875594Y-38242914D01*
X65875594Y-38242914D02*
X65923213Y-38433390D01*
X65923213Y-38433390D02*
X65923213Y-38814342D01*
X65923213Y-38814342D02*
X65875594Y-38909580D01*
X65875594Y-38909580D02*
X65827975Y-38957200D01*
X65827975Y-38957200D02*
X65732737Y-39004819D01*
X65732737Y-39004819D02*
X65542261Y-39004819D01*
X65542261Y-39004819D02*
X65447023Y-38957200D01*
X65447023Y-38957200D02*
X65399404Y-38909580D01*
X65399404Y-38909580D02*
X65351785Y-38814342D01*
X65351785Y-38814342D02*
X65351785Y-38576247D01*
X65351785Y-38576247D02*
X65399404Y-38481009D01*
X65399404Y-38481009D02*
X65447023Y-38433390D01*
X65447023Y-38433390D02*
X65542261Y-38385771D01*
X65542261Y-38385771D02*
X65732737Y-38385771D01*
X65732737Y-38385771D02*
X65827975Y-38433390D01*
X65827975Y-38433390D02*
X65875594Y-38481009D01*
X65875594Y-38481009D02*
X65923213Y-38576247D01*
%TO.C,R9*%
D12*
X61178641Y-53320000D02*
X60871359Y-53320000D01*
X61178641Y-54080000D02*
X60871359Y-54080000D01*
%TO.C,C30*%
X58113748Y-52440000D02*
X58636252Y-52440000D01*
X58113748Y-53910000D02*
X58636252Y-53910000D01*
%TO.C,C19*%
X66640000Y-58111252D02*
X66640000Y-56688748D01*
X69360000Y-58111252D02*
X69360000Y-56688748D01*
%TO.C,R14*%
X63093641Y-53320000D02*
X62786359Y-53320000D01*
X63093641Y-54080000D02*
X62786359Y-54080000D01*
%TO.C,C34*%
X63390000Y-58111252D02*
X63390000Y-56688748D01*
X66110000Y-58111252D02*
X66110000Y-56688748D01*
%TO.C,C18*%
X54338748Y-57990000D02*
X54861252Y-57990000D01*
X54338748Y-59460000D02*
X54861252Y-59460000D01*
%TO.C,L2*%
X56815000Y-54340000D02*
X56815000Y-54590000D01*
X56815000Y-59310000D02*
X56815000Y-59560000D01*
X56815000Y-59560000D02*
X62035000Y-59560000D01*
X62035000Y-54340000D02*
X56815000Y-54340000D01*
X62035000Y-54590000D02*
X62035000Y-54340000D01*
X62035000Y-59560000D02*
X62035000Y-59310000D01*
%TO.C,J12*%
X40545000Y-29440000D02*
X54365000Y-29440000D01*
X40545000Y-31940000D02*
X40545000Y-29440000D01*
X40545000Y-34460000D02*
X40545000Y-40240000D01*
X40545000Y-44160000D02*
X40545000Y-42760000D01*
X40545000Y-44160000D02*
X54365000Y-44160000D01*
X54365000Y-31940000D02*
X54365000Y-29440000D01*
X54365000Y-40240000D02*
X54365000Y-34460000D01*
X54365000Y-44160000D02*
X54365000Y-42760000D01*
%TO.C,C20*%
X56688748Y-65540000D02*
X57211252Y-65540000D01*
X56688748Y-67010000D02*
X57211252Y-67010000D01*
%TO.C,J2*%
X64715000Y-43640000D02*
X64715000Y-44690000D01*
X64715000Y-44690000D02*
X63725000Y-44690000D01*
X64715000Y-53860000D02*
X64715000Y-52810000D01*
X67215000Y-43640000D02*
X64715000Y-43640000D01*
X67215000Y-53860000D02*
X64715000Y-53860000D01*
X69185000Y-44810000D02*
X69185000Y-52690000D01*
%TO.C,L1*%
X54515000Y-59915000D02*
X54515000Y-60165000D01*
X54515000Y-64885000D02*
X54515000Y-65135000D01*
X54515000Y-65135000D02*
X59735000Y-65135000D01*
X59735000Y-59915000D02*
X54515000Y-59915000D01*
X59735000Y-60165000D02*
X59735000Y-59915000D01*
X59735000Y-65135000D02*
X59735000Y-64885000D01*
%TO.C,C36*%
X54401252Y-54895000D02*
X53878748Y-54895000D01*
X54401252Y-56365000D02*
X53878748Y-56365000D01*
%TO.C,D6*%
X69647500Y-39400000D02*
X64137500Y-39400000D01*
X69647500Y-39400000D02*
X69647500Y-42700000D01*
X69647500Y-42700000D02*
X64137500Y-42700000D01*
%TO.C,D8*%
X59190000Y-41642500D02*
X59190000Y-47152500D01*
X59190000Y-41642500D02*
X62490000Y-41642499D01*
X62490000Y-41642499D02*
X62490000Y-47152500D01*
%TD*%
M02*
