M48
; DRILL file KiCad 10.0.1 date 2026-06-19T22:54:45
; FORMAT={-:-/ absolute / metric / decimal}
; #@! TF.CreationDate,2026-06-19T22:54:45+02:00
; #@! TF.GenerationSoftware,Kicad,Pcbnew,10.0.1
; #@! TF.FileFunction,Plated,1,4,PTH
FMAT,2
METRIC
; #@! TA.AperFunction,Plated,PTH,ViaDrill
T1C0.300
; #@! TA.AperFunction,Plated,PTH,ComponentDrill
T2C0.300
; #@! TA.AperFunction,Plated,PTH,ComponentDrill
T3C0.600
%
G90
G05
T1
X30.75Y-63.8
X31.2Y-62.15
X31.33Y-52.37
X31.34Y-51.57
X31.44Y-57.21
X32.075Y-31.075
X32.925Y-58.525
X33.18Y-68.04
X33.2Y-55.005
X33.54Y-67.67
X33.84Y-61.38
X34.675Y-30.075
X34.68Y-57.2
X34.75Y-68.0
X35.03Y-53.23
X35.04Y-54.28
X35.06Y-52.21
X35.76Y-53.23
X35.77Y-54.28
X35.79Y-52.21
X36.075Y-58.5
X36.79Y-66.5
X37.18Y-65.75
X37.4Y-52.25
X37.42Y-53.23
X37.43Y-63.3
X37.51Y-54.31
X37.62Y-37.55
X37.82Y-57.938
X38.04Y-38.46
X38.76Y-30.59
X38.9Y-31.46
X39.93Y-64.03
X40.06Y-62.52
X40.11Y-63.27
X40.325Y-66.35
X40.675Y-31.575
X40.85Y-48.105
X40.86Y-46.89
X40.96Y-34.51
X41.01Y-38.65
X41.59Y-34.55
X41.604Y-50.73
X41.71Y-57.82
X41.77Y-48.8
X41.91Y-40.61
X41.922Y-59.468
X42.14Y-53.96
X42.18Y-38.68
X42.475Y-45.75
X43.12Y-31.55
X43.31Y-36.73
X43.966Y-55.875
X44.04Y-41.36
X44.11Y-58.87
X44.16Y-59.94
X44.239Y-47.234
X44.283Y-38.203
X44.405Y-55.142
X44.54Y-44.79
X44.58Y-40.77
X44.85Y-41.5
X45.22Y-34.86
X45.35Y-37.645
X45.575Y-31.575
X46.043Y-57.843
X46.12Y-47.2
X46.19Y-34.38
X46.24Y-42.74
X46.42Y-58.548
X46.45Y-37.645
X46.79Y-60.24
X47.25Y-41.82
X47.35Y-59.3
X47.37Y-47.97
X47.55Y-38.9
X47.975Y-31.575
X48.14Y-61.53
X48.18Y-63.98
X48.35Y-58.95
X48.45Y-59.95
X48.65Y-37.645
X48.945Y-45.255
X49.241Y-44.465
X49.325Y-62.625
X49.52Y-42.81
X49.75Y-38.9
X49.84Y-47.76
X49.84Y-60.67
X50.42Y-43.71
X50.75Y-33.67
X50.835Y-37.695
X50.861Y-45.11
X51.139Y-61.61
X51.139Y-61.61
X51.4Y-59.67
X51.42Y-40.91
X51.501Y-44.535
X51.82Y-37.645
X52.0Y-58.125
X52.0Y-58.125
X52.12Y-33.72
X52.16Y-47.2
X52.24Y-61.61
X52.359Y-42.091
X52.633Y-48.057
X52.931Y-43.726
X52.937Y-42.69
X52.968Y-44.776
X53.25Y-47.0
X53.264Y-49.6
X53.3Y-67.59
X53.48Y-39.669
X53.65Y-58.725
X53.667Y-59.95
X53.8Y-31.575
X54.038Y-56.679
X54.102Y-43.764
X54.15Y-42.54
X54.279Y-66.096
X54.475Y-46.525
X54.511Y-57.324
X55.229Y-44.555
X55.292Y-55.967
X55.383Y-45.433
X55.65Y-33.63
X55.773Y-54.237
X56.019Y-46.392
X56.12Y-57.37
X56.175Y-55.365
X56.3Y-31.575
X56.39Y-47.133
X56.54Y-40.81
X56.61Y-54.39
X56.625Y-39.67
X56.876Y-43.255
X57.12Y-62.67
X57.13Y-63.48
X57.31Y-33.53
X57.8Y-43.075
X58.21Y-47.07
X58.537Y-39.7
X58.537Y-39.7
X58.537Y-39.7
X58.537Y-41.6
X58.57Y-48.623
X58.75Y-43.1
X58.857Y-66.018
X58.908Y-59.5
X58.93Y-53.47
X59.24Y-47.167
X59.69Y-45.588
X60.15Y-47.11
X60.7Y-62.22
X60.85Y-45.36
X60.87Y-38.24
X60.97Y-47.13
X61.04Y-30.19
X61.1Y-31.01
X61.41Y-37.35
X61.76Y-63.08
X62.16Y-45.31
X62.21Y-66.67
X62.26Y-32.37
X62.43Y-53.7
X62.46Y-62.23
X62.62Y-60.13
X62.7Y-31.39
X62.77Y-48.6
X62.77Y-56.29
X62.81Y-47.27
X63.238Y-45.972
X63.287Y-47.977
X63.38Y-43.77
X63.53Y-38.86
X64.11Y-59.175
X64.275Y-41.05
X64.5Y-49.25
X64.5Y-50.25
X64.5Y-51.25
X64.5Y-52.25
X64.69Y-60.76
X64.9Y-67.75
X65.27Y-53.78
X65.75Y-37.5
X66.22Y-52.3
X66.975Y-43.65
X67.05Y-60.56
X67.079Y-49.33
X67.19Y-62.29
X67.24Y-36.85
X67.69Y-31.24
X68.587Y-45.008
X68.59Y-60.32
T2
X48.892Y-49.842
X48.892Y-50.975
X48.892Y-52.108
X50.025Y-49.842
X50.025Y-50.975
X50.025Y-52.108
X51.158Y-49.842
X51.158Y-50.975
X51.158Y-52.108
T3
G00X32.865Y-39.58
M15
G01X32.065Y-39.58
M16
G05
G00X32.865Y-48.22
M15
G01X32.065Y-48.22
M16
G05
G00X37.215Y-39.58
M15
G01X36.115Y-39.58
M16
G05
G00X37.215Y-48.22
M15
G01X36.115Y-48.22
M16
G05
M30
