%TF.GenerationSoftware,KiCad,Pcbnew,10.0.1*%
%TF.CreationDate,2026-06-19T22:54:47+02:00*%
%TF.ProjectId,drone,64726f6e-652e-46b6-9963-61645f706362,rev?*%
%TF.SameCoordinates,Original*%
%TF.FileFunction,Copper,L2,Inr*%
%TF.FilePolarity,Positive*%
%FSLAX46Y46*%
G04 Gerber Fmt 4.6, Leading zero omitted, Abs format (unit mm)*
G04 Created by KiCad (PCBNEW 10.0.1) date 2026-06-19 22:54:47*
%MOMM*%
%LPD*%
G01*
G04 APERTURE LIST*
%TA.AperFunction,ComponentPad*%
%ADD10C,0.600000*%
%TD*%
%TA.AperFunction,HeatsinkPad*%
%ADD11O,2.100000X1.000000*%
%TD*%
%TA.AperFunction,HeatsinkPad*%
%ADD12O,1.800000X1.000000*%
%TD*%
%TA.AperFunction,ViaPad*%
%ADD13C,0.600000*%
%TD*%
G04 APERTURE END LIST*
D10*
%TO.N,GND*%
%TO.C,U4*%
X48891667Y-52108333D03*
X50025000Y-52108333D03*
X51158333Y-52108333D03*
X48891667Y-50975000D03*
X50025000Y-50975000D03*
X51158333Y-50975000D03*
X48891667Y-49841667D03*
X50025000Y-49841667D03*
X51158333Y-49841667D03*
%TD*%
D11*
%TO.N,GND*%
%TO.C,USB1*%
X36665000Y-39580000D03*
D12*
X32465000Y-39580000D03*
D11*
X36665000Y-48220000D03*
D12*
X32465000Y-48220000D03*
%TD*%
D13*
%TO.N,LED_3*%
X32075000Y-31075000D03*
X61100000Y-31010000D03*
%TO.N,LED_2*%
X68590000Y-60320000D03*
X67690000Y-31240000D03*
%TO.N,IMU_CLKIN*%
X53264000Y-49600000D03*
X59689548Y-45588249D03*
%TO.N,+5V*%
X64900000Y-67750000D03*
X41010000Y-38650000D03*
X34675000Y-30075000D03*
X54279341Y-66095659D03*
X47975000Y-31575000D03*
X30750000Y-63800000D03*
X49325000Y-62625000D03*
X32925000Y-58525000D03*
%TO.N,VDD*%
X58537500Y-39700000D03*
X58537500Y-39700000D03*
X54102000Y-43763905D03*
X61760000Y-63080000D03*
X58537500Y-39700000D03*
X37820000Y-57938500D03*
X47550000Y-38900000D03*
X46120000Y-47200000D03*
X56175000Y-55364799D03*
X33200000Y-55005000D03*
%TO.N,SD_CLK*%
X48650000Y-37645000D03*
X52930891Y-43726162D03*
%TO.N,+9V*%
X40325000Y-66350000D03*
X55292026Y-55966999D03*
%TO.N,+1V1*%
X52160000Y-47200000D03*
X50420000Y-43710000D03*
X40850000Y-48105000D03*
X46790000Y-60240000D03*
X49840000Y-47760000D03*
%TO.N,GND*%
X54511000Y-57324399D03*
X65750000Y-37500000D03*
X48140000Y-61530000D03*
X67050000Y-60560000D03*
X56540000Y-40810000D03*
X44238501Y-47234500D03*
X64690000Y-60760000D03*
X51138500Y-61610000D03*
X53480000Y-39669000D03*
X51420000Y-40910000D03*
X42180000Y-38680000D03*
X37420000Y-53230000D03*
X35770000Y-54280000D03*
X39930000Y-64030000D03*
X38040000Y-38460000D03*
X43310000Y-36730000D03*
X38900000Y-31460000D03*
X48180000Y-63980000D03*
X59240000Y-47167000D03*
X56120000Y-57370000D03*
X35060000Y-52210000D03*
X57310000Y-33530000D03*
X31440000Y-57210000D03*
X63530000Y-38860000D03*
X65270000Y-53780000D03*
X42475000Y-45750000D03*
X35790000Y-52210000D03*
X45220000Y-34860000D03*
X67190000Y-62290000D03*
X34750000Y-68000000D03*
X40110000Y-63270000D03*
X63380000Y-43770000D03*
X44160000Y-59940000D03*
X58210000Y-47070000D03*
X62260000Y-32370000D03*
X35030000Y-53230000D03*
X49840000Y-60670000D03*
X47350000Y-59300000D03*
X52120000Y-33720000D03*
X68586500Y-45007679D03*
X67240000Y-36850000D03*
X49750000Y-38900000D03*
X61040000Y-30190000D03*
X40860000Y-46890000D03*
X38760000Y-30590000D03*
X35760000Y-53230000D03*
X53300000Y-67590000D03*
X33840000Y-61380000D03*
X55650000Y-33630000D03*
X40960000Y-34510000D03*
X31330000Y-52370000D03*
X53666908Y-59950000D03*
X58857114Y-66017886D03*
X57130000Y-63480000D03*
X58930000Y-53470000D03*
X54150000Y-42540000D03*
X34680000Y-57200000D03*
X37180000Y-65750000D03*
X35040000Y-54280000D03*
X60850000Y-45360000D03*
X49520000Y-42810000D03*
X44040000Y-41360000D03*
X67079000Y-49330229D03*
X37400000Y-52250000D03*
X37510000Y-54310000D03*
X33180000Y-68040000D03*
X57120000Y-62670000D03*
X60970000Y-47130000D03*
X41770000Y-48800000D03*
X46240490Y-42740490D03*
X58570000Y-48623000D03*
X31340000Y-51570000D03*
X42140000Y-53960000D03*
X50750000Y-33670000D03*
X46190000Y-34380000D03*
X62160000Y-45310000D03*
X58537500Y-41600000D03*
X51138500Y-61610000D03*
X44110000Y-58870000D03*
X60150000Y-47110000D03*
X47370000Y-47970000D03*
X44850000Y-41500000D03*
X36790000Y-66500000D03*
X33540000Y-67670000D03*
X37620000Y-37550000D03*
X60700000Y-62220000D03*
X41604000Y-50730000D03*
X62460000Y-62230000D03*
X61410000Y-37350000D03*
X37430000Y-63300000D03*
X40675000Y-31575000D03*
X62700000Y-31390000D03*
X41590000Y-34550000D03*
X31200000Y-62150000D03*
X44540000Y-44790000D03*
X40060000Y-62520000D03*
X44580000Y-40770000D03*
X47250000Y-41820000D03*
X41710000Y-57820000D03*
%TO.N,I2C1_SCL*%
X44405205Y-55141705D03*
X56300000Y-31575000D03*
%TO.N,PIO_UART2_RX*%
X45575000Y-31575000D03*
X56610000Y-54390000D03*
%TO.N,LIPO_5V*%
X51400000Y-59670000D03*
X53650000Y-58725000D03*
%TO.N,BAT_CURR*%
X62810000Y-47270000D03*
X49240525Y-44465000D03*
%TO.N,VACC*%
X56625000Y-39670000D03*
X63237695Y-45972153D03*
%TO.N,I2C1_SDA*%
X53800000Y-31575000D03*
X43966500Y-55875000D03*
%TO.N,MOTOR_1*%
X46042886Y-57842886D03*
X64500000Y-49250000D03*
%TO.N,MOTOR_2*%
X46420237Y-58548301D03*
X64500000Y-50250000D03*
%TO.N,MOTOR_3*%
X48350000Y-58950000D03*
X64500000Y-51250000D03*
%TO.N,MOTOR_4*%
X48450000Y-59950000D03*
X64500000Y-52250000D03*
%TO.N,LED_1*%
X52000000Y-58125000D03*
X52000000Y-58125000D03*
X62210000Y-66670000D03*
%TO.N,buzz*%
X41921626Y-59468374D03*
X54037807Y-56679349D03*
%TO.N,PIO_UART2_TX*%
X55772690Y-54236799D03*
X43120000Y-31550000D03*
%TO.N,IMU_INT*%
X52633328Y-48056501D03*
X55383017Y-45433337D03*
%TO.N,Net-(U4-RUN)*%
X66975000Y-43650000D03*
X62770000Y-48600000D03*
%TO.N,IMU_SDO*%
X55229000Y-44555000D03*
X53250000Y-47000000D03*
%TO.N,IMU_CS*%
X58750000Y-43100000D03*
X56390000Y-47133500D03*
%TO.N,IMU_CLK*%
X56019090Y-46392499D03*
X57800000Y-43075000D03*
%TO.N,IMU_SDA*%
X54475000Y-46525000D03*
X56876288Y-43255422D03*
%TO.N,CMD*%
X46450000Y-37645000D03*
X52967501Y-44775500D03*
%TO.N,DAT0*%
X52937000Y-42690000D03*
X50835386Y-37695386D03*
%TO.N,DAT1*%
X52359207Y-42090908D03*
X51820000Y-37645000D03*
%TO.N,DAT2*%
X51501000Y-44535386D03*
X44283455Y-38203455D03*
%TO.N,DAT3*%
X50861500Y-45110000D03*
X45350000Y-37645000D03*
%TO.N,TELEMETRY*%
X63286545Y-47976545D03*
X48944812Y-45254907D03*
%TO.N,Net-(D4-A)*%
X36075000Y-58500000D03*
%TO.N,BAT_POW_PROT*%
X66220000Y-52300000D03*
X64110000Y-59175000D03*
X62620000Y-60130000D03*
%TO.N,Net-(U10-~{CE})*%
X41910000Y-40610000D03*
X52240000Y-61610000D03*
%TO.N,Net-(U7-SW)*%
X62770000Y-56290000D03*
%TO.N,Net-(U1-SW)*%
X58908395Y-59499672D03*
%TO.N,BAT_POWER*%
X64275000Y-41050000D03*
X60870000Y-38240000D03*
%TO.N,Net-(U7-FB)*%
X62430000Y-53700000D03*
%TD*%
%TA.AperFunction,Conductor*%
%TO.N,GND*%
G36*
X65002702Y-29304783D02*
G01*
X65383285Y-29321400D01*
X65394020Y-29322340D01*
X65769017Y-29371709D01*
X65779655Y-29373584D01*
X66148926Y-29455450D01*
X66159366Y-29458248D01*
X66520076Y-29571979D01*
X66530237Y-29575677D01*
X66879673Y-29720419D01*
X66889465Y-29724985D01*
X67224965Y-29899635D01*
X67234305Y-29905028D01*
X67533058Y-30095354D01*
X67553293Y-30108246D01*
X67562154Y-30114450D01*
X67862218Y-30344697D01*
X67870505Y-30351651D01*
X68149350Y-30607166D01*
X68156999Y-30614815D01*
X68412514Y-30893660D01*
X68419468Y-30901947D01*
X68649715Y-31202011D01*
X68655919Y-31210872D01*
X68723732Y-31317316D01*
X68858420Y-31528734D01*
X68859129Y-31529846D01*
X68864534Y-31539208D01*
X68904453Y-31615890D01*
X69039177Y-31874694D01*
X69043749Y-31884498D01*
X69188487Y-32233926D01*
X69192187Y-32244092D01*
X69305916Y-32604795D01*
X69308716Y-32615243D01*
X69390579Y-32984502D01*
X69392457Y-32995156D01*
X69441823Y-33370125D01*
X69442766Y-33380901D01*
X69459382Y-33761463D01*
X69459500Y-33766872D01*
X69459500Y-64237293D01*
X69459382Y-64242702D01*
X69442766Y-64623264D01*
X69441823Y-64634040D01*
X69392457Y-65009009D01*
X69390579Y-65019663D01*
X69308716Y-65388922D01*
X69305916Y-65399370D01*
X69192187Y-65760073D01*
X69188487Y-65770239D01*
X69043749Y-66119667D01*
X69039177Y-66129471D01*
X68864538Y-66464951D01*
X68859129Y-66474319D01*
X68655919Y-66793293D01*
X68649715Y-66802154D01*
X68419468Y-67102218D01*
X68412514Y-67110505D01*
X68156999Y-67389350D01*
X68149350Y-67396999D01*
X67870505Y-67652514D01*
X67862218Y-67659468D01*
X67562154Y-67889715D01*
X67553293Y-67895919D01*
X67234319Y-68099129D01*
X67224951Y-68104538D01*
X66889471Y-68279177D01*
X66879667Y-68283749D01*
X66530239Y-68428487D01*
X66520073Y-68432187D01*
X66159370Y-68545916D01*
X66148922Y-68548716D01*
X65779663Y-68630579D01*
X65769009Y-68632457D01*
X65394040Y-68681823D01*
X65383264Y-68682766D01*
X65002703Y-68699382D01*
X64997294Y-68699500D01*
X34523145Y-68699500D01*
X34517736Y-68699382D01*
X34137174Y-68682766D01*
X34126398Y-68681823D01*
X33751429Y-68632457D01*
X33740775Y-68630579D01*
X33371516Y-68548716D01*
X33361068Y-68545916D01*
X33000365Y-68432187D01*
X32990199Y-68428487D01*
X32640771Y-68283749D01*
X32630967Y-68279177D01*
X32383774Y-68150497D01*
X32295481Y-68104534D01*
X32286125Y-68099133D01*
X32041339Y-67943186D01*
X31967145Y-67895919D01*
X31958284Y-67889715D01*
X31807946Y-67774357D01*
X31690331Y-67684108D01*
X64399500Y-67684108D01*
X64399500Y-67815891D01*
X64433608Y-67943187D01*
X64466554Y-68000250D01*
X64499500Y-68057314D01*
X64592686Y-68150500D01*
X64706814Y-68216392D01*
X64834108Y-68250500D01*
X64834110Y-68250500D01*
X64965890Y-68250500D01*
X64965892Y-68250500D01*
X65093186Y-68216392D01*
X65207314Y-68150500D01*
X65300500Y-68057314D01*
X65366392Y-67943186D01*
X65400500Y-67815892D01*
X65400500Y-67684108D01*
X65366392Y-67556814D01*
X65300500Y-67442686D01*
X65207314Y-67349500D01*
X65150250Y-67316554D01*
X65093187Y-67283608D01*
X65029539Y-67266554D01*
X64965892Y-67249500D01*
X64834108Y-67249500D01*
X64706812Y-67283608D01*
X64592686Y-67349500D01*
X64592683Y-67349502D01*
X64499502Y-67442683D01*
X64499500Y-67442686D01*
X64433608Y-67556812D01*
X64399500Y-67684108D01*
X31690331Y-67684108D01*
X31658220Y-67659468D01*
X31649933Y-67652514D01*
X31371088Y-67396999D01*
X31363439Y-67389350D01*
X31107924Y-67110505D01*
X31100970Y-67102218D01*
X30870723Y-66802154D01*
X30864519Y-66793293D01*
X30777892Y-66657316D01*
X30661301Y-66474305D01*
X30655908Y-66464965D01*
X30481258Y-66129465D01*
X30476689Y-66119667D01*
X30444822Y-66042734D01*
X30331950Y-65770237D01*
X30328251Y-65760073D01*
X30307784Y-65695161D01*
X30214521Y-65399366D01*
X30211722Y-65388922D01*
X30129859Y-65019663D01*
X30127981Y-65009009D01*
X30115683Y-64915594D01*
X30078613Y-64634020D01*
X30077673Y-64623285D01*
X30061057Y-64242702D01*
X30060939Y-64237293D01*
X30060939Y-64070286D01*
X30080624Y-64003247D01*
X30133428Y-63957492D01*
X30202586Y-63947548D01*
X30266142Y-63976573D01*
X30292326Y-64008286D01*
X30349500Y-64107314D01*
X30442686Y-64200500D01*
X30556814Y-64266392D01*
X30684108Y-64300500D01*
X30684110Y-64300500D01*
X30815890Y-64300500D01*
X30815892Y-64300500D01*
X30943186Y-64266392D01*
X31057314Y-64200500D01*
X31142628Y-64115186D01*
X32099500Y-64115186D01*
X32099500Y-64384813D01*
X32129686Y-64652719D01*
X32129688Y-64652731D01*
X32189684Y-64915594D01*
X32189687Y-64915602D01*
X32278734Y-65170082D01*
X32395714Y-65412994D01*
X32395716Y-65412997D01*
X32539162Y-65641289D01*
X32633889Y-65760073D01*
X32705204Y-65849500D01*
X32707266Y-65852085D01*
X32897915Y-66042734D01*
X33108711Y-66210838D01*
X33337003Y-66354284D01*
X33579921Y-66471267D01*
X33771049Y-66538145D01*
X33834397Y-66560312D01*
X33834405Y-66560315D01*
X33834408Y-66560315D01*
X33834409Y-66560316D01*
X34097268Y-66620312D01*
X34365187Y-66650499D01*
X34365188Y-66650500D01*
X34365191Y-66650500D01*
X34634812Y-66650500D01*
X34634812Y-66650499D01*
X34902732Y-66620312D01*
X35165591Y-66560316D01*
X35420079Y-66471267D01*
X35662997Y-66354284D01*
X35774681Y-66284108D01*
X39824500Y-66284108D01*
X39824500Y-66415891D01*
X39858608Y-66543187D01*
X39889191Y-66596158D01*
X39924500Y-66657314D01*
X40017686Y-66750500D01*
X40131814Y-66816392D01*
X40259108Y-66850500D01*
X40259110Y-66850500D01*
X40390890Y-66850500D01*
X40390892Y-66850500D01*
X40518186Y-66816392D01*
X40632314Y-66750500D01*
X40725500Y-66657314D01*
X40756219Y-66604108D01*
X61709500Y-66604108D01*
X61709500Y-66735892D01*
X61713414Y-66750499D01*
X61743608Y-66863187D01*
X61776554Y-66920250D01*
X61809500Y-66977314D01*
X61902686Y-67070500D01*
X62016814Y-67136392D01*
X62144108Y-67170500D01*
X62144110Y-67170500D01*
X62275890Y-67170500D01*
X62275892Y-67170500D01*
X62403186Y-67136392D01*
X62517314Y-67070500D01*
X62610500Y-66977314D01*
X62676392Y-66863186D01*
X62710500Y-66735892D01*
X62710500Y-66604108D01*
X62676392Y-66476814D01*
X62673189Y-66471267D01*
X62667563Y-66461521D01*
X62610500Y-66362686D01*
X62517314Y-66269500D01*
X62415709Y-66210838D01*
X62403187Y-66203608D01*
X62339539Y-66186554D01*
X62275892Y-66169500D01*
X62144108Y-66169500D01*
X62016812Y-66203608D01*
X61902686Y-66269500D01*
X61902683Y-66269502D01*
X61809502Y-66362683D01*
X61809500Y-66362686D01*
X61743608Y-66476812D01*
X61721235Y-66560312D01*
X61709500Y-66604108D01*
X40756219Y-66604108D01*
X40791392Y-66543186D01*
X40825500Y-66415892D01*
X40825500Y-66284108D01*
X40791392Y-66156814D01*
X40725500Y-66042686D01*
X40712581Y-66029767D01*
X53778841Y-66029767D01*
X53778841Y-66161550D01*
X53812949Y-66288846D01*
X53845895Y-66345909D01*
X53878841Y-66402973D01*
X53972027Y-66496159D01*
X54086155Y-66562051D01*
X54213449Y-66596159D01*
X54213451Y-66596159D01*
X54345231Y-66596159D01*
X54345233Y-66596159D01*
X54472527Y-66562051D01*
X54586655Y-66496159D01*
X54679841Y-66402973D01*
X54745733Y-66288845D01*
X54779841Y-66161551D01*
X54779841Y-66029767D01*
X54745733Y-65902473D01*
X54679841Y-65788345D01*
X54586655Y-65695159D01*
X54493350Y-65641289D01*
X54472528Y-65629267D01*
X54408880Y-65612213D01*
X54345233Y-65595159D01*
X54213449Y-65595159D01*
X54086153Y-65629267D01*
X53972027Y-65695159D01*
X53972024Y-65695161D01*
X53878843Y-65788342D01*
X53878841Y-65788345D01*
X53812949Y-65902471D01*
X53778841Y-66029767D01*
X40712581Y-66029767D01*
X40632314Y-65949500D01*
X40550858Y-65902471D01*
X40518187Y-65883608D01*
X40400539Y-65852085D01*
X40390892Y-65849500D01*
X40259108Y-65849500D01*
X40131812Y-65883608D01*
X40017686Y-65949500D01*
X40017683Y-65949502D01*
X39924502Y-66042683D01*
X39924500Y-66042686D01*
X39858608Y-66156812D01*
X39824500Y-66284108D01*
X35774681Y-66284108D01*
X35891289Y-66210838D01*
X36102085Y-66042734D01*
X36292734Y-65852085D01*
X36460838Y-65641289D01*
X36604284Y-65412997D01*
X36721267Y-65170079D01*
X36810316Y-64915591D01*
X36870312Y-64652732D01*
X36900500Y-64384809D01*
X36900500Y-64115191D01*
X36900499Y-64115186D01*
X62599500Y-64115186D01*
X62599500Y-64384813D01*
X62629686Y-64652719D01*
X62629688Y-64652731D01*
X62689684Y-64915594D01*
X62689687Y-64915602D01*
X62778734Y-65170082D01*
X62895714Y-65412994D01*
X62895716Y-65412997D01*
X63039162Y-65641289D01*
X63133889Y-65760073D01*
X63205204Y-65849500D01*
X63207266Y-65852085D01*
X63397915Y-66042734D01*
X63608711Y-66210838D01*
X63837003Y-66354284D01*
X64079921Y-66471267D01*
X64271049Y-66538145D01*
X64334397Y-66560312D01*
X64334405Y-66560315D01*
X64334408Y-66560315D01*
X64334409Y-66560316D01*
X64597268Y-66620312D01*
X64865187Y-66650499D01*
X64865188Y-66650500D01*
X64865191Y-66650500D01*
X65134812Y-66650500D01*
X65134812Y-66650499D01*
X65402732Y-66620312D01*
X65665591Y-66560316D01*
X65920079Y-66471267D01*
X66162997Y-66354284D01*
X66391289Y-66210838D01*
X66602085Y-66042734D01*
X66792734Y-65852085D01*
X66960838Y-65641289D01*
X67104284Y-65412997D01*
X67221267Y-65170079D01*
X67310316Y-64915591D01*
X67370312Y-64652732D01*
X67400500Y-64384809D01*
X67400500Y-64115191D01*
X67370312Y-63847268D01*
X67310316Y-63584409D01*
X67221267Y-63329921D01*
X67104284Y-63087003D01*
X66960838Y-62858711D01*
X66792734Y-62647915D01*
X66602085Y-62457266D01*
X66391289Y-62289162D01*
X66233613Y-62190087D01*
X66162994Y-62145714D01*
X65920082Y-62028734D01*
X65665602Y-61939687D01*
X65665594Y-61939684D01*
X65468446Y-61894687D01*
X65402732Y-61879688D01*
X65402728Y-61879687D01*
X65402719Y-61879686D01*
X65134813Y-61849500D01*
X65134809Y-61849500D01*
X64865191Y-61849500D01*
X64865186Y-61849500D01*
X64597280Y-61879686D01*
X64597268Y-61879688D01*
X64334405Y-61939684D01*
X64334397Y-61939687D01*
X64079917Y-62028734D01*
X63837005Y-62145714D01*
X63608712Y-62289161D01*
X63397915Y-62457265D01*
X63207265Y-62647915D01*
X63039161Y-62858712D01*
X62895714Y-63087005D01*
X62778734Y-63329917D01*
X62689687Y-63584397D01*
X62689684Y-63584405D01*
X62629688Y-63847268D01*
X62629686Y-63847280D01*
X62599500Y-64115186D01*
X36900499Y-64115186D01*
X36870312Y-63847268D01*
X36810316Y-63584409D01*
X36721267Y-63329921D01*
X36604284Y-63087003D01*
X36460838Y-62858711D01*
X36292734Y-62647915D01*
X36203927Y-62559108D01*
X48824500Y-62559108D01*
X48824500Y-62690891D01*
X48858608Y-62818187D01*
X48882005Y-62858711D01*
X48924500Y-62932314D01*
X49017686Y-63025500D01*
X49116521Y-63082563D01*
X49124215Y-63087005D01*
X49131814Y-63091392D01*
X49259108Y-63125500D01*
X49259110Y-63125500D01*
X49390890Y-63125500D01*
X49390892Y-63125500D01*
X49518186Y-63091392D01*
X49632314Y-63025500D01*
X49643706Y-63014108D01*
X61259500Y-63014108D01*
X61259500Y-63145891D01*
X61293608Y-63273187D01*
X61308800Y-63299500D01*
X61359500Y-63387314D01*
X61452686Y-63480500D01*
X61566814Y-63546392D01*
X61694108Y-63580500D01*
X61694110Y-63580500D01*
X61825890Y-63580500D01*
X61825892Y-63580500D01*
X61953186Y-63546392D01*
X62067314Y-63480500D01*
X62160500Y-63387314D01*
X62226392Y-63273186D01*
X62260500Y-63145892D01*
X62260500Y-63014108D01*
X62226392Y-62886814D01*
X62160500Y-62772686D01*
X62067314Y-62679500D01*
X62010250Y-62646554D01*
X61953187Y-62613608D01*
X61889539Y-62596554D01*
X61825892Y-62579500D01*
X61694108Y-62579500D01*
X61566812Y-62613608D01*
X61452686Y-62679500D01*
X61452683Y-62679502D01*
X61359502Y-62772683D01*
X61359500Y-62772686D01*
X61293608Y-62886812D01*
X61259500Y-63014108D01*
X49643706Y-63014108D01*
X49725500Y-62932314D01*
X49791392Y-62818186D01*
X49825500Y-62690892D01*
X49825500Y-62559108D01*
X49791392Y-62431814D01*
X49725500Y-62317686D01*
X49632314Y-62224500D01*
X49575250Y-62191554D01*
X49518187Y-62158608D01*
X49454539Y-62141554D01*
X49390892Y-62124500D01*
X49259108Y-62124500D01*
X49131812Y-62158608D01*
X49017686Y-62224500D01*
X49017683Y-62224502D01*
X48924502Y-62317683D01*
X48924500Y-62317686D01*
X48858608Y-62431812D01*
X48824500Y-62559108D01*
X36203927Y-62559108D01*
X36102085Y-62457266D01*
X35891289Y-62289162D01*
X35733613Y-62190087D01*
X35662994Y-62145714D01*
X35420082Y-62028734D01*
X35165602Y-61939687D01*
X35165594Y-61939684D01*
X34968446Y-61894687D01*
X34902732Y-61879688D01*
X34902728Y-61879687D01*
X34902719Y-61879686D01*
X34634813Y-61849500D01*
X34634809Y-61849500D01*
X34365191Y-61849500D01*
X34365186Y-61849500D01*
X34097280Y-61879686D01*
X34097268Y-61879688D01*
X33834405Y-61939684D01*
X33834397Y-61939687D01*
X33579917Y-62028734D01*
X33337005Y-62145714D01*
X33108712Y-62289161D01*
X32897915Y-62457265D01*
X32707265Y-62647915D01*
X32539161Y-62858712D01*
X32395714Y-63087005D01*
X32278734Y-63329917D01*
X32189687Y-63584397D01*
X32189684Y-63584405D01*
X32129688Y-63847268D01*
X32129686Y-63847280D01*
X32099500Y-64115186D01*
X31142628Y-64115186D01*
X31150500Y-64107314D01*
X31216392Y-63993186D01*
X31250500Y-63865892D01*
X31250500Y-63734108D01*
X31216392Y-63606814D01*
X31150500Y-63492686D01*
X31057314Y-63399500D01*
X31000250Y-63366554D01*
X30943187Y-63333608D01*
X30879539Y-63316554D01*
X30815892Y-63299500D01*
X30684108Y-63299500D01*
X30556812Y-63333608D01*
X30442686Y-63399500D01*
X30442683Y-63399502D01*
X30349502Y-63492683D01*
X30349500Y-63492686D01*
X30292326Y-63591714D01*
X30241758Y-63639929D01*
X30173151Y-63653151D01*
X30108287Y-63627183D01*
X30067759Y-63570269D01*
X30060939Y-63529713D01*
X30060939Y-61544108D01*
X51739500Y-61544108D01*
X51739500Y-61675891D01*
X51773608Y-61803187D01*
X51800347Y-61849500D01*
X51839500Y-61917314D01*
X51932686Y-62010500D01*
X52046814Y-62076392D01*
X52174108Y-62110500D01*
X52174110Y-62110500D01*
X52305890Y-62110500D01*
X52305892Y-62110500D01*
X52433186Y-62076392D01*
X52547314Y-62010500D01*
X52640500Y-61917314D01*
X52706392Y-61803186D01*
X52740500Y-61675892D01*
X52740500Y-61544108D01*
X52706392Y-61416814D01*
X52640500Y-61302686D01*
X52547314Y-61209500D01*
X52490250Y-61176554D01*
X52433187Y-61143608D01*
X52369539Y-61126554D01*
X52305892Y-61109500D01*
X52174108Y-61109500D01*
X52046812Y-61143608D01*
X51932686Y-61209500D01*
X51932683Y-61209502D01*
X51839502Y-61302683D01*
X51839500Y-61302686D01*
X51773608Y-61416812D01*
X51739500Y-61544108D01*
X30060939Y-61544108D01*
X30060939Y-60174108D01*
X46289500Y-60174108D01*
X46289500Y-60305891D01*
X46323608Y-60433187D01*
X46333604Y-60450500D01*
X46389500Y-60547314D01*
X46482686Y-60640500D01*
X46596814Y-60706392D01*
X46724108Y-60740500D01*
X46724110Y-60740500D01*
X46855890Y-60740500D01*
X46855892Y-60740500D01*
X46983186Y-60706392D01*
X47097314Y-60640500D01*
X47190500Y-60547314D01*
X47256392Y-60433186D01*
X47290500Y-60305892D01*
X47290500Y-60174108D01*
X47256392Y-60046814D01*
X47190500Y-59932686D01*
X47097314Y-59839500D01*
X47040250Y-59806554D01*
X46983187Y-59773608D01*
X46919539Y-59756554D01*
X46855892Y-59739500D01*
X46724108Y-59739500D01*
X46596812Y-59773608D01*
X46482686Y-59839500D01*
X46482683Y-59839502D01*
X46389502Y-59932683D01*
X46389500Y-59932686D01*
X46323608Y-60046812D01*
X46289500Y-60174108D01*
X30060939Y-60174108D01*
X30060939Y-59402482D01*
X41421126Y-59402482D01*
X41421126Y-59534266D01*
X41428874Y-59563182D01*
X41455234Y-59661561D01*
X41488180Y-59718624D01*
X41521126Y-59775688D01*
X41614312Y-59868874D01*
X41728440Y-59934766D01*
X41855734Y-59968874D01*
X41855736Y-59968874D01*
X41987516Y-59968874D01*
X41987518Y-59968874D01*
X42114812Y-59934766D01*
X42228940Y-59868874D01*
X42322126Y-59775688D01*
X42388018Y-59661560D01*
X42422126Y-59534266D01*
X42422126Y-59402482D01*
X42388018Y-59275188D01*
X42322126Y-59161060D01*
X42228940Y-59067874D01*
X42167352Y-59032316D01*
X42114813Y-59001982D01*
X42039536Y-58981812D01*
X41987518Y-58967874D01*
X41855734Y-58967874D01*
X41728438Y-59001982D01*
X41614312Y-59067874D01*
X41614309Y-59067876D01*
X41521128Y-59161057D01*
X41521126Y-59161060D01*
X41455234Y-59275186D01*
X41431790Y-59362683D01*
X41421126Y-59402482D01*
X30060939Y-59402482D01*
X30060939Y-58459108D01*
X32424500Y-58459108D01*
X32424500Y-58590892D01*
X32433773Y-58625499D01*
X32458608Y-58718187D01*
X32480909Y-58756812D01*
X32524500Y-58832314D01*
X32617686Y-58925500D01*
X32731814Y-58991392D01*
X32859108Y-59025500D01*
X32859110Y-59025500D01*
X32990890Y-59025500D01*
X32990892Y-59025500D01*
X33118186Y-58991392D01*
X33232314Y-58925500D01*
X33325500Y-58832314D01*
X33391392Y-58718186D01*
X33425500Y-58590892D01*
X33425500Y-58459108D01*
X33418801Y-58434108D01*
X35574500Y-58434108D01*
X35574500Y-58565892D01*
X35590472Y-58625500D01*
X35608608Y-58693187D01*
X35623042Y-58718187D01*
X35674500Y-58807314D01*
X35767686Y-58900500D01*
X35881814Y-58966392D01*
X36009108Y-59000500D01*
X36009110Y-59000500D01*
X36140890Y-59000500D01*
X36140892Y-59000500D01*
X36268186Y-58966392D01*
X36382314Y-58900500D01*
X36475500Y-58807314D01*
X36541392Y-58693186D01*
X36575500Y-58565892D01*
X36575500Y-58434108D01*
X36541392Y-58306814D01*
X36475500Y-58192686D01*
X36382314Y-58099500D01*
X36299351Y-58051601D01*
X36268187Y-58033608D01*
X36159149Y-58004392D01*
X36140892Y-57999500D01*
X36009108Y-57999500D01*
X35881812Y-58033608D01*
X35767686Y-58099500D01*
X35767683Y-58099502D01*
X35674502Y-58192683D01*
X35674500Y-58192686D01*
X35608608Y-58306812D01*
X35582328Y-58404892D01*
X35574500Y-58434108D01*
X33418801Y-58434108D01*
X33391392Y-58331814D01*
X33325500Y-58217686D01*
X33232314Y-58124500D01*
X33175250Y-58091554D01*
X33118187Y-58058608D01*
X33034083Y-58036073D01*
X32990892Y-58024500D01*
X32859108Y-58024500D01*
X32731812Y-58058608D01*
X32617686Y-58124500D01*
X32617683Y-58124502D01*
X32524502Y-58217683D01*
X32524500Y-58217686D01*
X32458608Y-58331812D01*
X32439027Y-58404891D01*
X32424500Y-58459108D01*
X30060939Y-58459108D01*
X30060939Y-57872608D01*
X37319500Y-57872608D01*
X37319500Y-58004392D01*
X37332622Y-58053363D01*
X37353608Y-58131687D01*
X37364297Y-58150200D01*
X37419500Y-58245814D01*
X37512686Y-58339000D01*
X37626814Y-58404892D01*
X37754108Y-58439000D01*
X37754110Y-58439000D01*
X37885890Y-58439000D01*
X37885892Y-58439000D01*
X38013186Y-58404892D01*
X38127314Y-58339000D01*
X38220500Y-58245814D01*
X38286392Y-58131686D01*
X38320500Y-58004392D01*
X38320500Y-57872608D01*
X38294881Y-57776994D01*
X45542386Y-57776994D01*
X45542386Y-57908778D01*
X45554494Y-57953967D01*
X45576494Y-58036073D01*
X45586477Y-58053363D01*
X45642386Y-58150200D01*
X45735572Y-58243386D01*
X45849700Y-58309278D01*
X45849707Y-58309280D01*
X45854020Y-58311066D01*
X45908427Y-58354903D01*
X45930497Y-58421196D01*
X45926351Y-58457722D01*
X45919737Y-58482404D01*
X45919737Y-58482409D01*
X45919737Y-58614193D01*
X45922767Y-58625500D01*
X45953845Y-58741488D01*
X45962694Y-58756814D01*
X46019737Y-58855615D01*
X46112923Y-58948801D01*
X46227051Y-59014693D01*
X46354345Y-59048801D01*
X46354347Y-59048801D01*
X46486127Y-59048801D01*
X46486129Y-59048801D01*
X46613423Y-59014693D01*
X46727551Y-58948801D01*
X46792244Y-58884108D01*
X47849500Y-58884108D01*
X47849500Y-59015892D01*
X47853900Y-59032313D01*
X47883608Y-59143187D01*
X47916554Y-59200250D01*
X47949500Y-59257314D01*
X48042686Y-59350500D01*
X48056890Y-59358701D01*
X48092295Y-59379143D01*
X48140510Y-59429710D01*
X48153732Y-59498317D01*
X48127764Y-59563182D01*
X48117976Y-59574210D01*
X48049500Y-59642686D01*
X47983608Y-59756812D01*
X47961452Y-59839502D01*
X47949500Y-59884108D01*
X47949500Y-60015892D01*
X47962419Y-60064108D01*
X47983608Y-60143187D01*
X48001461Y-60174108D01*
X48049500Y-60257314D01*
X48142686Y-60350500D01*
X48256814Y-60416392D01*
X48384108Y-60450500D01*
X48384110Y-60450500D01*
X48515890Y-60450500D01*
X48515892Y-60450500D01*
X48643186Y-60416392D01*
X48757314Y-60350500D01*
X48850500Y-60257314D01*
X48916392Y-60143186D01*
X48950500Y-60015892D01*
X48950500Y-59884108D01*
X48916392Y-59756814D01*
X48904312Y-59735891D01*
X48859331Y-59657981D01*
X48856185Y-59652533D01*
X48850500Y-59642686D01*
X48811922Y-59604108D01*
X50899500Y-59604108D01*
X50899500Y-59735892D01*
X50905106Y-59756814D01*
X50933608Y-59863187D01*
X50954960Y-59900169D01*
X50999500Y-59977314D01*
X51092686Y-60070500D01*
X51206814Y-60136392D01*
X51334108Y-60170500D01*
X51334110Y-60170500D01*
X51465890Y-60170500D01*
X51465892Y-60170500D01*
X51593186Y-60136392D01*
X51707314Y-60070500D01*
X51713706Y-60064108D01*
X62119500Y-60064108D01*
X62119500Y-60195892D01*
X62124321Y-60213885D01*
X62153608Y-60323187D01*
X62186554Y-60380250D01*
X62219500Y-60437314D01*
X62312686Y-60530500D01*
X62426814Y-60596392D01*
X62554108Y-60630500D01*
X62554110Y-60630500D01*
X62685890Y-60630500D01*
X62685892Y-60630500D01*
X62813186Y-60596392D01*
X62927314Y-60530500D01*
X63020500Y-60437314D01*
X63086392Y-60323186D01*
X63104901Y-60254108D01*
X68089500Y-60254108D01*
X68089500Y-60385892D01*
X68102172Y-60433186D01*
X68123608Y-60513187D01*
X68133604Y-60530500D01*
X68189500Y-60627314D01*
X68282686Y-60720500D01*
X68396814Y-60786392D01*
X68524108Y-60820500D01*
X68524110Y-60820500D01*
X68655890Y-60820500D01*
X68655892Y-60820500D01*
X68783186Y-60786392D01*
X68897314Y-60720500D01*
X68990500Y-60627314D01*
X69056392Y-60513186D01*
X69090500Y-60385892D01*
X69090500Y-60254108D01*
X69056392Y-60126814D01*
X68990500Y-60012686D01*
X68897314Y-59919500D01*
X68836013Y-59884108D01*
X68783187Y-59853608D01*
X68667782Y-59822686D01*
X68655892Y-59819500D01*
X68524108Y-59819500D01*
X68396812Y-59853608D01*
X68282686Y-59919500D01*
X68282683Y-59919502D01*
X68189502Y-60012683D01*
X68189500Y-60012686D01*
X68123608Y-60126812D01*
X68100277Y-60213887D01*
X68089500Y-60254108D01*
X63104901Y-60254108D01*
X63120500Y-60195892D01*
X63120500Y-60064108D01*
X63086392Y-59936814D01*
X63020500Y-59822686D01*
X62927314Y-59729500D01*
X62863848Y-59692858D01*
X62813187Y-59663608D01*
X62730270Y-59641391D01*
X62685892Y-59629500D01*
X62554108Y-59629500D01*
X62426812Y-59663608D01*
X62312686Y-59729500D01*
X62312683Y-59729502D01*
X62219502Y-59822683D01*
X62219500Y-59822686D01*
X62153608Y-59936812D01*
X62132419Y-60015892D01*
X62119500Y-60064108D01*
X51713706Y-60064108D01*
X51800500Y-59977314D01*
X51866392Y-59863186D01*
X51900500Y-59735892D01*
X51900500Y-59604108D01*
X51866392Y-59476814D01*
X51841546Y-59433780D01*
X58407895Y-59433780D01*
X58407895Y-59565564D01*
X58418223Y-59604108D01*
X58442003Y-59692859D01*
X58466848Y-59735891D01*
X58507895Y-59806986D01*
X58601081Y-59900172D01*
X58664547Y-59936814D01*
X58715205Y-59966062D01*
X58715209Y-59966064D01*
X58842503Y-60000172D01*
X58842505Y-60000172D01*
X58974285Y-60000172D01*
X58974287Y-60000172D01*
X59101581Y-59966064D01*
X59215709Y-59900172D01*
X59308895Y-59806986D01*
X59374787Y-59692858D01*
X59408895Y-59565564D01*
X59408895Y-59433780D01*
X59374787Y-59306486D01*
X59308895Y-59192358D01*
X59225645Y-59109108D01*
X63609500Y-59109108D01*
X63609500Y-59240892D01*
X63626554Y-59304539D01*
X63643608Y-59368187D01*
X63649934Y-59379143D01*
X63709500Y-59482314D01*
X63802686Y-59575500D01*
X63916814Y-59641392D01*
X64044108Y-59675500D01*
X64044110Y-59675500D01*
X64175890Y-59675500D01*
X64175892Y-59675500D01*
X64303186Y-59641392D01*
X64417314Y-59575500D01*
X64510500Y-59482314D01*
X64576392Y-59368186D01*
X64610500Y-59240892D01*
X64610500Y-59109108D01*
X64576392Y-58981814D01*
X64510500Y-58867686D01*
X64417314Y-58774500D01*
X64360134Y-58741487D01*
X64303187Y-58708608D01*
X64239539Y-58691554D01*
X64175892Y-58674500D01*
X64044108Y-58674500D01*
X63916812Y-58708608D01*
X63802686Y-58774500D01*
X63802683Y-58774502D01*
X63709502Y-58867683D01*
X63709500Y-58867686D01*
X63643608Y-58981812D01*
X63620548Y-59067876D01*
X63609500Y-59109108D01*
X59225645Y-59109108D01*
X59215709Y-59099172D01*
X59158645Y-59066226D01*
X59101582Y-59033280D01*
X59032209Y-59014692D01*
X58974287Y-58999172D01*
X58842503Y-58999172D01*
X58715207Y-59033280D01*
X58601081Y-59099172D01*
X58601078Y-59099174D01*
X58507897Y-59192355D01*
X58507895Y-59192358D01*
X58442003Y-59306484D01*
X58425470Y-59368187D01*
X58407895Y-59433780D01*
X51841546Y-59433780D01*
X51800500Y-59362686D01*
X51707314Y-59269500D01*
X51631104Y-59225500D01*
X51593187Y-59203608D01*
X51529539Y-59186554D01*
X51465892Y-59169500D01*
X51334108Y-59169500D01*
X51206812Y-59203608D01*
X51092686Y-59269500D01*
X51092683Y-59269502D01*
X50999502Y-59362683D01*
X50999500Y-59362686D01*
X50933608Y-59476812D01*
X50914132Y-59549500D01*
X50899500Y-59604108D01*
X48811922Y-59604108D01*
X48757314Y-59549500D01*
X48745610Y-59542743D01*
X48707703Y-59520856D01*
X48659488Y-59470288D01*
X48646267Y-59401681D01*
X48672236Y-59336817D01*
X48682008Y-59325805D01*
X48750500Y-59257314D01*
X48816392Y-59143186D01*
X48850500Y-59015892D01*
X48850500Y-58884108D01*
X48816392Y-58756814D01*
X48759981Y-58659108D01*
X53149500Y-58659108D01*
X53149500Y-58790892D01*
X53166554Y-58854539D01*
X53183608Y-58918187D01*
X53211439Y-58966391D01*
X53249500Y-59032314D01*
X53342686Y-59125500D01*
X53456814Y-59191392D01*
X53584108Y-59225500D01*
X53584110Y-59225500D01*
X53715890Y-59225500D01*
X53715892Y-59225500D01*
X53843186Y-59191392D01*
X53957314Y-59125500D01*
X54050500Y-59032314D01*
X54116392Y-58918186D01*
X54150500Y-58790892D01*
X54150500Y-58659108D01*
X54116392Y-58531814D01*
X54050500Y-58417686D01*
X53957314Y-58324500D01*
X53900250Y-58291554D01*
X53843187Y-58258608D01*
X53777412Y-58240984D01*
X53715892Y-58224500D01*
X53584108Y-58224500D01*
X53456812Y-58258608D01*
X53342686Y-58324500D01*
X53342683Y-58324502D01*
X53249502Y-58417683D01*
X53249500Y-58417686D01*
X53183608Y-58531812D01*
X53167644Y-58591392D01*
X53149500Y-58659108D01*
X48759981Y-58659108D01*
X48750500Y-58642686D01*
X48657314Y-58549500D01*
X48600250Y-58516554D01*
X48543187Y-58483608D01*
X48451757Y-58459110D01*
X48415892Y-58449500D01*
X48284108Y-58449500D01*
X48156812Y-58483608D01*
X48042686Y-58549500D01*
X48042683Y-58549502D01*
X47949502Y-58642683D01*
X47949500Y-58642686D01*
X47883608Y-58756812D01*
X47857134Y-58855617D01*
X47849500Y-58884108D01*
X46792244Y-58884108D01*
X46820737Y-58855615D01*
X46886629Y-58741487D01*
X46920737Y-58614193D01*
X46920737Y-58482409D01*
X46886629Y-58355115D01*
X46820737Y-58240987D01*
X46727551Y-58147801D01*
X46613423Y-58081909D01*
X46607272Y-58080260D01*
X46594720Y-58073041D01*
X46581392Y-58059108D01*
X51499500Y-58059108D01*
X51499500Y-58190892D01*
X51508505Y-58224500D01*
X51533608Y-58318187D01*
X51554928Y-58355113D01*
X51599500Y-58432314D01*
X51692686Y-58525500D01*
X51762647Y-58565892D01*
X51806810Y-58591390D01*
X51806814Y-58591392D01*
X51934108Y-58625500D01*
X51934110Y-58625500D01*
X52065890Y-58625500D01*
X52065892Y-58625500D01*
X52193186Y-58591392D01*
X52307314Y-58525500D01*
X52400500Y-58432314D01*
X52466392Y-58318186D01*
X52500500Y-58190892D01*
X52500500Y-58059108D01*
X52466392Y-57931814D01*
X52400500Y-57817686D01*
X52307314Y-57724500D01*
X52250250Y-57691554D01*
X52193187Y-57658608D01*
X52129539Y-57641554D01*
X52065892Y-57624500D01*
X51934108Y-57624500D01*
X51806812Y-57658608D01*
X51692686Y-57724500D01*
X51692683Y-57724502D01*
X51599502Y-57817683D01*
X51599500Y-57817686D01*
X51533608Y-57931812D01*
X51501511Y-58051601D01*
X51499500Y-58059108D01*
X46581392Y-58059108D01*
X46575896Y-58053363D01*
X46554689Y-58036273D01*
X46552096Y-58028484D01*
X46546423Y-58022553D01*
X46541226Y-57995822D01*
X46532625Y-57969979D01*
X46533943Y-57958364D01*
X46533089Y-57953967D01*
X46534982Y-57949213D01*
X46536771Y-57933464D01*
X46543386Y-57908778D01*
X46543386Y-57776994D01*
X46509278Y-57649700D01*
X46443386Y-57535572D01*
X46350200Y-57442386D01*
X46293136Y-57409440D01*
X46236073Y-57376494D01*
X46172425Y-57359440D01*
X46108778Y-57342386D01*
X45976994Y-57342386D01*
X45849698Y-57376494D01*
X45735572Y-57442386D01*
X45735569Y-57442388D01*
X45642388Y-57535569D01*
X45642386Y-57535572D01*
X45576494Y-57649698D01*
X45542386Y-57776994D01*
X38294881Y-57776994D01*
X38286392Y-57745314D01*
X38220500Y-57631186D01*
X38127314Y-57538000D01*
X38070250Y-57505054D01*
X38013187Y-57472108D01*
X37902268Y-57442388D01*
X37885892Y-57438000D01*
X37754108Y-57438000D01*
X37626812Y-57472108D01*
X37512686Y-57538000D01*
X37512683Y-57538002D01*
X37419502Y-57631183D01*
X37419500Y-57631186D01*
X37353608Y-57745312D01*
X37345119Y-57776994D01*
X37319500Y-57872608D01*
X30060939Y-57872608D01*
X30060939Y-56613457D01*
X53537307Y-56613457D01*
X53537307Y-56745240D01*
X53571415Y-56872536D01*
X53604361Y-56929599D01*
X53637307Y-56986663D01*
X53730493Y-57079849D01*
X53844621Y-57145741D01*
X53971915Y-57179849D01*
X53971917Y-57179849D01*
X54103697Y-57179849D01*
X54103699Y-57179849D01*
X54230993Y-57145741D01*
X54345121Y-57079849D01*
X54438307Y-56986663D01*
X54504199Y-56872535D01*
X54538307Y-56745241D01*
X54538307Y-56613457D01*
X54504199Y-56486163D01*
X54438307Y-56372035D01*
X54345121Y-56278849D01*
X54250311Y-56224110D01*
X54230994Y-56212957D01*
X54167346Y-56195903D01*
X54103699Y-56178849D01*
X53971915Y-56178849D01*
X53844619Y-56212957D01*
X53730493Y-56278849D01*
X53730490Y-56278851D01*
X53637309Y-56372032D01*
X53637307Y-56372035D01*
X53571415Y-56486161D01*
X53537307Y-56613457D01*
X30060939Y-56613457D01*
X30060939Y-55809108D01*
X43466000Y-55809108D01*
X43466000Y-55940891D01*
X43500108Y-56068187D01*
X43516635Y-56096812D01*
X43566000Y-56182314D01*
X43659186Y-56275500D01*
X43773314Y-56341392D01*
X43900608Y-56375500D01*
X43900610Y-56375500D01*
X44032390Y-56375500D01*
X44032392Y-56375500D01*
X44159686Y-56341392D01*
X44273814Y-56275500D01*
X44367000Y-56182314D01*
X44432892Y-56068186D01*
X44467000Y-55940892D01*
X44467000Y-55901107D01*
X54791526Y-55901107D01*
X54791526Y-56032891D01*
X54808580Y-56096538D01*
X54825634Y-56160186D01*
X54838410Y-56182314D01*
X54891526Y-56274313D01*
X54984712Y-56367499D01*
X55098840Y-56433391D01*
X55226134Y-56467499D01*
X55226136Y-56467499D01*
X55357916Y-56467499D01*
X55357918Y-56467499D01*
X55485212Y-56433391D01*
X55599340Y-56367499D01*
X55692526Y-56274313D01*
X55721512Y-56224108D01*
X62269500Y-56224108D01*
X62269500Y-56355892D01*
X62274754Y-56375499D01*
X62303608Y-56483187D01*
X62336554Y-56540250D01*
X62369500Y-56597314D01*
X62462686Y-56690500D01*
X62576814Y-56756392D01*
X62704108Y-56790500D01*
X62704110Y-56790500D01*
X62835890Y-56790500D01*
X62835892Y-56790500D01*
X62963186Y-56756392D01*
X63077314Y-56690500D01*
X63170500Y-56597314D01*
X63236392Y-56483186D01*
X63270500Y-56355892D01*
X63270500Y-56224108D01*
X63236392Y-56096814D01*
X63170500Y-55982686D01*
X63077314Y-55889500D01*
X63020250Y-55856554D01*
X62963187Y-55823608D01*
X62899539Y-55806554D01*
X62835892Y-55789500D01*
X62704108Y-55789500D01*
X62576812Y-55823608D01*
X62462686Y-55889500D01*
X62462683Y-55889502D01*
X62369502Y-55982683D01*
X62369500Y-55982686D01*
X62303608Y-56096812D01*
X62280698Y-56182316D01*
X62269500Y-56224108D01*
X55721512Y-56224108D01*
X55758418Y-56160185D01*
X55792526Y-56032891D01*
X55792526Y-55936680D01*
X55812211Y-55869641D01*
X55865015Y-55823886D01*
X55934173Y-55813942D01*
X55978528Y-55829294D01*
X55981814Y-55831191D01*
X56109108Y-55865299D01*
X56109110Y-55865299D01*
X56240890Y-55865299D01*
X56240892Y-55865299D01*
X56368186Y-55831191D01*
X56482314Y-55765299D01*
X56575500Y-55672113D01*
X56641392Y-55557985D01*
X56675500Y-55430691D01*
X56675500Y-55298907D01*
X56641392Y-55171613D01*
X56585781Y-55075292D01*
X56569309Y-55007396D01*
X56592161Y-54941369D01*
X56647082Y-54898178D01*
X56668065Y-54892689D01*
X56668042Y-54892603D01*
X56675891Y-54890500D01*
X56675892Y-54890500D01*
X56803186Y-54856392D01*
X56917314Y-54790500D01*
X57010500Y-54697314D01*
X57076392Y-54583186D01*
X57110500Y-54455892D01*
X57110500Y-54324108D01*
X57076392Y-54196814D01*
X57010500Y-54082686D01*
X56917314Y-53989500D01*
X56860250Y-53956554D01*
X56803187Y-53923608D01*
X56739539Y-53906554D01*
X56675892Y-53889500D01*
X56544108Y-53889500D01*
X56416814Y-53923608D01*
X56416813Y-53923608D01*
X56416811Y-53923609D01*
X56416810Y-53923609D01*
X56338938Y-53968569D01*
X56271038Y-53985042D01*
X56205011Y-53962189D01*
X56179907Y-53934576D01*
X56178138Y-53935934D01*
X56173192Y-53929488D01*
X56173190Y-53929485D01*
X56080004Y-53836299D01*
X56022940Y-53803353D01*
X55965877Y-53770407D01*
X55926564Y-53759873D01*
X55838582Y-53736299D01*
X55706798Y-53736299D01*
X55579502Y-53770407D01*
X55465376Y-53836299D01*
X55465373Y-53836301D01*
X55372192Y-53929482D01*
X55372190Y-53929485D01*
X55306298Y-54043611D01*
X55272190Y-54170907D01*
X55272190Y-54302690D01*
X55306298Y-54429986D01*
X55321254Y-54455890D01*
X55372190Y-54544113D01*
X55465376Y-54637299D01*
X55579504Y-54703191D01*
X55706798Y-54737299D01*
X55706800Y-54737299D01*
X55798226Y-54737299D01*
X55865265Y-54756984D01*
X55911020Y-54809788D01*
X55920964Y-54878946D01*
X55891939Y-54942502D01*
X55873714Y-54959673D01*
X55867687Y-54964297D01*
X55774502Y-55057482D01*
X55774500Y-55057485D01*
X55708608Y-55171611D01*
X55674500Y-55298907D01*
X55674500Y-55395117D01*
X55654815Y-55462156D01*
X55602011Y-55507911D01*
X55532853Y-55517855D01*
X55488506Y-55502507D01*
X55485221Y-55500610D01*
X55485214Y-55500608D01*
X55485213Y-55500607D01*
X55485212Y-55500607D01*
X55357918Y-55466499D01*
X55226134Y-55466499D01*
X55098838Y-55500607D01*
X54984712Y-55566499D01*
X54984709Y-55566501D01*
X54891528Y-55659682D01*
X54891526Y-55659685D01*
X54825634Y-55773811D01*
X54792210Y-55898555D01*
X54791526Y-55901107D01*
X44467000Y-55901107D01*
X44467000Y-55809108D01*
X44454872Y-55763848D01*
X44453915Y-55753208D01*
X44458717Y-55728999D01*
X44459304Y-55704335D01*
X44465395Y-55695334D01*
X44467510Y-55684674D01*
X44484632Y-55666909D01*
X44498465Y-55646472D01*
X44510128Y-55640459D01*
X44515999Y-55634369D01*
X44526995Y-55631764D01*
X44545321Y-55622316D01*
X44598391Y-55608097D01*
X44712519Y-55542205D01*
X44805705Y-55449019D01*
X44871597Y-55334891D01*
X44905705Y-55207597D01*
X44905705Y-55075813D01*
X44871597Y-54948519D01*
X44805705Y-54834391D01*
X44712519Y-54741205D01*
X44637137Y-54697683D01*
X44598392Y-54675313D01*
X44534744Y-54658259D01*
X44471097Y-54641205D01*
X44339313Y-54641205D01*
X44212017Y-54675313D01*
X44097891Y-54741205D01*
X44097888Y-54741207D01*
X44004707Y-54834388D01*
X44004705Y-54834391D01*
X43938813Y-54948517D01*
X43904705Y-55075813D01*
X43904705Y-55207596D01*
X43914063Y-55242521D01*
X43912400Y-55312371D01*
X43873237Y-55370233D01*
X43826383Y-55394388D01*
X43773314Y-55408608D01*
X43773312Y-55408608D01*
X43773312Y-55408609D01*
X43659186Y-55474500D01*
X43659183Y-55474502D01*
X43566002Y-55567683D01*
X43566000Y-55567686D01*
X43500108Y-55681812D01*
X43466000Y-55809108D01*
X30060939Y-55809108D01*
X30060939Y-54939108D01*
X32699500Y-54939108D01*
X32699500Y-55070891D01*
X32733608Y-55198187D01*
X32739041Y-55207597D01*
X32799500Y-55312314D01*
X32892686Y-55405500D01*
X33006814Y-55471392D01*
X33134108Y-55505500D01*
X33134110Y-55505500D01*
X33265890Y-55505500D01*
X33265892Y-55505500D01*
X33393186Y-55471392D01*
X33507314Y-55405500D01*
X33600500Y-55312314D01*
X33666392Y-55198186D01*
X33700500Y-55070892D01*
X33700500Y-54939108D01*
X33666392Y-54811814D01*
X33600500Y-54697686D01*
X33507314Y-54604500D01*
X33450250Y-54571554D01*
X33393187Y-54538608D01*
X33329539Y-54521554D01*
X33265892Y-54504500D01*
X33134108Y-54504500D01*
X33006812Y-54538608D01*
X32892686Y-54604500D01*
X32892683Y-54604502D01*
X32799502Y-54697683D01*
X32799500Y-54697686D01*
X32733608Y-54811812D01*
X32699500Y-54939108D01*
X30060939Y-54939108D01*
X30060939Y-53634108D01*
X61929500Y-53634108D01*
X61929500Y-53765891D01*
X61963608Y-53893187D01*
X61996554Y-53950250D01*
X62029500Y-54007314D01*
X62122686Y-54100500D01*
X62236814Y-54166392D01*
X62364108Y-54200500D01*
X62364110Y-54200500D01*
X62495890Y-54200500D01*
X62495892Y-54200500D01*
X62623186Y-54166392D01*
X62737314Y-54100500D01*
X62830500Y-54007314D01*
X62896392Y-53893186D01*
X62930500Y-53765892D01*
X62930500Y-53634108D01*
X62896392Y-53506814D01*
X62830500Y-53392686D01*
X62737314Y-53299500D01*
X62680250Y-53266554D01*
X62623187Y-53233608D01*
X62559539Y-53216554D01*
X62495892Y-53199500D01*
X62364108Y-53199500D01*
X62236812Y-53233608D01*
X62122686Y-53299500D01*
X62122683Y-53299502D01*
X62029502Y-53392683D01*
X62029500Y-53392686D01*
X61963608Y-53506812D01*
X61929500Y-53634108D01*
X30060939Y-53634108D01*
X30060939Y-49534108D01*
X52763500Y-49534108D01*
X52763500Y-49665891D01*
X52797608Y-49793187D01*
X52823900Y-49838725D01*
X52863500Y-49907314D01*
X52956686Y-50000500D01*
X53070814Y-50066392D01*
X53198108Y-50100500D01*
X53198110Y-50100500D01*
X53329890Y-50100500D01*
X53329892Y-50100500D01*
X53457186Y-50066392D01*
X53571314Y-50000500D01*
X53664500Y-49907314D01*
X53730392Y-49793186D01*
X53764500Y-49665892D01*
X53764500Y-49534108D01*
X53730392Y-49406814D01*
X53664500Y-49292686D01*
X53571314Y-49199500D01*
X53544654Y-49184108D01*
X63999500Y-49184108D01*
X63999500Y-49315891D01*
X64033608Y-49443187D01*
X64066554Y-49500250D01*
X64099500Y-49557314D01*
X64099502Y-49557316D01*
X64192687Y-49650501D01*
X64194158Y-49651630D01*
X64195083Y-49652897D01*
X64198433Y-49656247D01*
X64197910Y-49656769D01*
X64235356Y-49708060D01*
X64239506Y-49777807D01*
X64205289Y-49838725D01*
X64194158Y-49848370D01*
X64192687Y-49849498D01*
X64099502Y-49942683D01*
X64099500Y-49942686D01*
X64033608Y-50056812D01*
X63999500Y-50184108D01*
X63999500Y-50315891D01*
X64033608Y-50443187D01*
X64066554Y-50500250D01*
X64099500Y-50557314D01*
X64099502Y-50557316D01*
X64192687Y-50650501D01*
X64194158Y-50651630D01*
X64195083Y-50652897D01*
X64198433Y-50656247D01*
X64197910Y-50656769D01*
X64235356Y-50708060D01*
X64239506Y-50777807D01*
X64205289Y-50838725D01*
X64194158Y-50848370D01*
X64192687Y-50849498D01*
X64099502Y-50942683D01*
X64099500Y-50942686D01*
X64033608Y-51056812D01*
X63999500Y-51184108D01*
X63999500Y-51315891D01*
X64033608Y-51443187D01*
X64066554Y-51500250D01*
X64099500Y-51557314D01*
X64099502Y-51557316D01*
X64192687Y-51650501D01*
X64194158Y-51651630D01*
X64195083Y-51652897D01*
X64198433Y-51656247D01*
X64197910Y-51656769D01*
X64235356Y-51708060D01*
X64239506Y-51777807D01*
X64205289Y-51838725D01*
X64194158Y-51848370D01*
X64192687Y-51849498D01*
X64099502Y-51942683D01*
X64099500Y-51942686D01*
X64033608Y-52056812D01*
X63999500Y-52184108D01*
X63999500Y-52315891D01*
X64033608Y-52443187D01*
X64062476Y-52493186D01*
X64099500Y-52557314D01*
X64192686Y-52650500D01*
X64306814Y-52716392D01*
X64434108Y-52750500D01*
X64434110Y-52750500D01*
X64565890Y-52750500D01*
X64565892Y-52750500D01*
X64693186Y-52716392D01*
X64807314Y-52650500D01*
X64900500Y-52557314D01*
X64966392Y-52443186D01*
X65000500Y-52315892D01*
X65000500Y-52234108D01*
X65719500Y-52234108D01*
X65719500Y-52365891D01*
X65753608Y-52493187D01*
X65786554Y-52550250D01*
X65819500Y-52607314D01*
X65912686Y-52700500D01*
X66026814Y-52766392D01*
X66154108Y-52800500D01*
X66154110Y-52800500D01*
X66285890Y-52800500D01*
X66285892Y-52800500D01*
X66413186Y-52766392D01*
X66527314Y-52700500D01*
X66620500Y-52607314D01*
X66686392Y-52493186D01*
X66720500Y-52365892D01*
X66720500Y-52234108D01*
X66686392Y-52106814D01*
X66620500Y-51992686D01*
X66527314Y-51899500D01*
X66470250Y-51866554D01*
X66413187Y-51833608D01*
X66349539Y-51816554D01*
X66285892Y-51799500D01*
X66154108Y-51799500D01*
X66026812Y-51833608D01*
X65912686Y-51899500D01*
X65912683Y-51899502D01*
X65819502Y-51992683D01*
X65819500Y-51992686D01*
X65753608Y-52106812D01*
X65719500Y-52234108D01*
X65000500Y-52234108D01*
X65000500Y-52184108D01*
X64966392Y-52056814D01*
X64900500Y-51942686D01*
X64807314Y-51849500D01*
X64807311Y-51849498D01*
X64805847Y-51848375D01*
X64804921Y-51847107D01*
X64801567Y-51843753D01*
X64802090Y-51843229D01*
X64764645Y-51791947D01*
X64760491Y-51722201D01*
X64794704Y-51661281D01*
X64805847Y-51651625D01*
X64807306Y-51650504D01*
X64807314Y-51650500D01*
X64900500Y-51557314D01*
X64966392Y-51443186D01*
X65000500Y-51315892D01*
X65000500Y-51184108D01*
X64966392Y-51056814D01*
X64900500Y-50942686D01*
X64807314Y-50849500D01*
X64807311Y-50849498D01*
X64805847Y-50848375D01*
X64804921Y-50847107D01*
X64801567Y-50843753D01*
X64802090Y-50843229D01*
X64764645Y-50791947D01*
X64760491Y-50722201D01*
X64794704Y-50661281D01*
X64805847Y-50651625D01*
X64807306Y-50650504D01*
X64807314Y-50650500D01*
X64900500Y-50557314D01*
X64966392Y-50443186D01*
X65000500Y-50315892D01*
X65000500Y-50184108D01*
X64966392Y-50056814D01*
X64900500Y-49942686D01*
X64807314Y-49849500D01*
X64807311Y-49849498D01*
X64805847Y-49848375D01*
X64804921Y-49847107D01*
X64801567Y-49843753D01*
X64802090Y-49843229D01*
X64764645Y-49791947D01*
X64760491Y-49722201D01*
X64794704Y-49661281D01*
X64805847Y-49651625D01*
X64807306Y-49650504D01*
X64807314Y-49650500D01*
X64900500Y-49557314D01*
X64966392Y-49443186D01*
X65000500Y-49315892D01*
X65000500Y-49184108D01*
X64966392Y-49056814D01*
X64900500Y-48942686D01*
X64807314Y-48849500D01*
X64750250Y-48816554D01*
X64693187Y-48783608D01*
X64629539Y-48766554D01*
X64565892Y-48749500D01*
X64434108Y-48749500D01*
X64306812Y-48783608D01*
X64192686Y-48849500D01*
X64192683Y-48849502D01*
X64099502Y-48942683D01*
X64099500Y-48942686D01*
X64033608Y-49056812D01*
X63999500Y-49184108D01*
X53544654Y-49184108D01*
X53514250Y-49166554D01*
X53457187Y-49133608D01*
X53393539Y-49116554D01*
X53329892Y-49099500D01*
X53198108Y-49099500D01*
X53070812Y-49133608D01*
X52956686Y-49199500D01*
X52956683Y-49199502D01*
X52863502Y-49292683D01*
X52863500Y-49292686D01*
X52797608Y-49406812D01*
X52763500Y-49534108D01*
X30060939Y-49534108D01*
X30060939Y-48039108D01*
X40349500Y-48039108D01*
X40349500Y-48170892D01*
X40357166Y-48199502D01*
X40383608Y-48298187D01*
X40416554Y-48355250D01*
X40449500Y-48412314D01*
X40542686Y-48505500D01*
X40656814Y-48571392D01*
X40784108Y-48605500D01*
X40784110Y-48605500D01*
X40915890Y-48605500D01*
X40915892Y-48605500D01*
X41043186Y-48571392D01*
X41157314Y-48505500D01*
X41250500Y-48412314D01*
X41316392Y-48298186D01*
X41350500Y-48170892D01*
X41350500Y-48039108D01*
X41316392Y-47911814D01*
X41250500Y-47797686D01*
X41157314Y-47704500D01*
X41098419Y-47670497D01*
X41043187Y-47638608D01*
X40975139Y-47620375D01*
X40915892Y-47604500D01*
X40784108Y-47604500D01*
X40656812Y-47638608D01*
X40542686Y-47704500D01*
X40542683Y-47704502D01*
X40449502Y-47797683D01*
X40449500Y-47797686D01*
X40383608Y-47911812D01*
X40355073Y-48018308D01*
X40349500Y-48039108D01*
X30060939Y-48039108D01*
X30060939Y-46714234D01*
X35569500Y-46714234D01*
X35569500Y-46865766D01*
X35587589Y-46933277D01*
X35608719Y-47012136D01*
X35639755Y-47065891D01*
X35684485Y-47143365D01*
X35791635Y-47250515D01*
X35922865Y-47326281D01*
X36069234Y-47365500D01*
X36069236Y-47365500D01*
X36220764Y-47365500D01*
X36220766Y-47365500D01*
X36367135Y-47326281D01*
X36498365Y-47250515D01*
X36605515Y-47143365D01*
X36610860Y-47134108D01*
X45619500Y-47134108D01*
X45619500Y-47265892D01*
X45635681Y-47326280D01*
X45653608Y-47393187D01*
X45681106Y-47440814D01*
X45719500Y-47507314D01*
X45812686Y-47600500D01*
X45926814Y-47666392D01*
X46054108Y-47700500D01*
X46054110Y-47700500D01*
X46185890Y-47700500D01*
X46185892Y-47700500D01*
X46209747Y-47694108D01*
X49339500Y-47694108D01*
X49339500Y-47825891D01*
X49373608Y-47953187D01*
X49393462Y-47987574D01*
X49439500Y-48067314D01*
X49532686Y-48160500D01*
X49646814Y-48226392D01*
X49774108Y-48260500D01*
X49774110Y-48260500D01*
X49905890Y-48260500D01*
X49905892Y-48260500D01*
X50033186Y-48226392D01*
X50147314Y-48160500D01*
X50240500Y-48067314D01*
X50306392Y-47953186D01*
X50340500Y-47825892D01*
X50340500Y-47694108D01*
X50306392Y-47566814D01*
X50240500Y-47452686D01*
X50147314Y-47359500D01*
X50056929Y-47307316D01*
X50033187Y-47293608D01*
X49929747Y-47265892D01*
X49905892Y-47259500D01*
X49774108Y-47259500D01*
X49646812Y-47293608D01*
X49532686Y-47359500D01*
X49532683Y-47359502D01*
X49439502Y-47452683D01*
X49439500Y-47452686D01*
X49373608Y-47566812D01*
X49339500Y-47694108D01*
X46209747Y-47694108D01*
X46313186Y-47666392D01*
X46427314Y-47600500D01*
X46520500Y-47507314D01*
X46586392Y-47393186D01*
X46620500Y-47265892D01*
X46620500Y-47134108D01*
X51659500Y-47134108D01*
X51659500Y-47265892D01*
X51675681Y-47326280D01*
X51693608Y-47393187D01*
X51721106Y-47440814D01*
X51759500Y-47507314D01*
X51852686Y-47600500D01*
X51966814Y-47666392D01*
X52083787Y-47697734D01*
X52143445Y-47734097D01*
X52173975Y-47796944D01*
X52167388Y-47855021D01*
X52169040Y-47855464D01*
X52166936Y-47863313D01*
X52166936Y-47863315D01*
X52132828Y-47990609D01*
X52132828Y-48122393D01*
X52143038Y-48160497D01*
X52166936Y-48249688D01*
X52199882Y-48306751D01*
X52232828Y-48363815D01*
X52326014Y-48457001D01*
X52440142Y-48522893D01*
X52567436Y-48557001D01*
X52567438Y-48557001D01*
X52699218Y-48557001D01*
X52699220Y-48557001D01*
X52784659Y-48534108D01*
X62269500Y-48534108D01*
X62269500Y-48665891D01*
X62303608Y-48793187D01*
X62336121Y-48849500D01*
X62369500Y-48907314D01*
X62462686Y-49000500D01*
X62560221Y-49056812D01*
X62576810Y-49066390D01*
X62576814Y-49066392D01*
X62704108Y-49100500D01*
X62704110Y-49100500D01*
X62835890Y-49100500D01*
X62835892Y-49100500D01*
X62963186Y-49066392D01*
X63077314Y-49000500D01*
X63170500Y-48907314D01*
X63236392Y-48793186D01*
X63270500Y-48665892D01*
X63270500Y-48594148D01*
X63290185Y-48527109D01*
X63342989Y-48481354D01*
X63362400Y-48474375D01*
X63479731Y-48442937D01*
X63593859Y-48377045D01*
X63687045Y-48283859D01*
X63752937Y-48169731D01*
X63787045Y-48042437D01*
X63787045Y-47910653D01*
X63752937Y-47783359D01*
X63687045Y-47669231D01*
X63593859Y-47576045D01*
X63521035Y-47534000D01*
X63479732Y-47510153D01*
X63443701Y-47500499D01*
X63398043Y-47488265D01*
X63338384Y-47451901D01*
X63307855Y-47389054D01*
X63310002Y-47344022D01*
X63309439Y-47343948D01*
X63310328Y-47337193D01*
X63310366Y-47336389D01*
X63310500Y-47335892D01*
X63310500Y-47204108D01*
X63276392Y-47076814D01*
X63210500Y-46962686D01*
X63117314Y-46869500D01*
X63052906Y-46832314D01*
X63003187Y-46803608D01*
X62939539Y-46786554D01*
X62875892Y-46769500D01*
X62744108Y-46769500D01*
X62616812Y-46803608D01*
X62502686Y-46869500D01*
X62502683Y-46869502D01*
X62409502Y-46962683D01*
X62409500Y-46962686D01*
X62343608Y-47076812D01*
X62312426Y-47193187D01*
X62309500Y-47204108D01*
X62309500Y-47335892D01*
X62323745Y-47389054D01*
X62343608Y-47463187D01*
X62370724Y-47510153D01*
X62409500Y-47577314D01*
X62502686Y-47670500D01*
X62616814Y-47736392D01*
X62698500Y-47758279D01*
X62758159Y-47794642D01*
X62788689Y-47857489D01*
X62790298Y-47883231D01*
X62789726Y-47896914D01*
X62786045Y-47910653D01*
X62786045Y-47984989D01*
X62785937Y-47987574D01*
X62775499Y-48018308D01*
X62766360Y-48049435D01*
X62764333Y-48051191D01*
X62763470Y-48053733D01*
X62738071Y-48073947D01*
X62713556Y-48095190D01*
X62709588Y-48096616D01*
X62708801Y-48097243D01*
X62707470Y-48097377D01*
X62694139Y-48102171D01*
X62664048Y-48110233D01*
X62576814Y-48133608D01*
X62576812Y-48133608D01*
X62576812Y-48133609D01*
X62462686Y-48199500D01*
X62462683Y-48199502D01*
X62369502Y-48292683D01*
X62369500Y-48292686D01*
X62303608Y-48406812D01*
X62269500Y-48534108D01*
X52784659Y-48534108D01*
X52826514Y-48522893D01*
X52940642Y-48457001D01*
X53033828Y-48363815D01*
X53099720Y-48249687D01*
X53133828Y-48122393D01*
X53133828Y-47990609D01*
X53099720Y-47863315D01*
X53094931Y-47855021D01*
X53078113Y-47825891D01*
X53033828Y-47749187D01*
X52966339Y-47681698D01*
X52932854Y-47620375D01*
X52937838Y-47550683D01*
X52979710Y-47494750D01*
X53045174Y-47470333D01*
X53086109Y-47474241D01*
X53184108Y-47500500D01*
X53184110Y-47500500D01*
X53315890Y-47500500D01*
X53315892Y-47500500D01*
X53443186Y-47466392D01*
X53557314Y-47400500D01*
X53650500Y-47307314D01*
X53716392Y-47193186D01*
X53750500Y-47065892D01*
X53750500Y-46934108D01*
X53716392Y-46806814D01*
X53650500Y-46692686D01*
X53557314Y-46599500D01*
X53557312Y-46599499D01*
X53557310Y-46599497D01*
X53486072Y-46558368D01*
X53486071Y-46558368D01*
X53443187Y-46533608D01*
X53379539Y-46516554D01*
X53315892Y-46499500D01*
X53184108Y-46499500D01*
X53056812Y-46533608D01*
X52942686Y-46599500D01*
X52942683Y-46599502D01*
X52849502Y-46692683D01*
X52849500Y-46692686D01*
X52787830Y-46799502D01*
X52783608Y-46806814D01*
X52776776Y-46832314D01*
X52773889Y-46843088D01*
X52737524Y-46902748D01*
X52674677Y-46933277D01*
X52605301Y-46924982D01*
X52568366Y-46896313D01*
X52566247Y-46898433D01*
X52467316Y-46799502D01*
X52467314Y-46799500D01*
X52410250Y-46766554D01*
X52353187Y-46733608D01*
X52280888Y-46714236D01*
X52225892Y-46699500D01*
X52094108Y-46699500D01*
X51966812Y-46733608D01*
X51852686Y-46799500D01*
X51852683Y-46799502D01*
X51759502Y-46892683D01*
X51759500Y-46892686D01*
X51693608Y-47006812D01*
X51659500Y-47134108D01*
X46620500Y-47134108D01*
X46586392Y-47006814D01*
X46520500Y-46892686D01*
X46427314Y-46799500D01*
X46370250Y-46766554D01*
X46313187Y-46733608D01*
X46240888Y-46714236D01*
X46185892Y-46699500D01*
X46054108Y-46699500D01*
X45926812Y-46733608D01*
X45812686Y-46799500D01*
X45812683Y-46799502D01*
X45719502Y-46892683D01*
X45719500Y-46892686D01*
X45653608Y-47006812D01*
X45619500Y-47134108D01*
X36610860Y-47134108D01*
X36681281Y-47012135D01*
X36720500Y-46865766D01*
X36720500Y-46714234D01*
X36681281Y-46567865D01*
X36618490Y-46459108D01*
X53974500Y-46459108D01*
X53974500Y-46590892D01*
X53976807Y-46599502D01*
X54008608Y-46718187D01*
X54038234Y-46769500D01*
X54074500Y-46832314D01*
X54167686Y-46925500D01*
X54281814Y-46991392D01*
X54409108Y-47025500D01*
X54409110Y-47025500D01*
X54540890Y-47025500D01*
X54540892Y-47025500D01*
X54668186Y-46991392D01*
X54782314Y-46925500D01*
X54875500Y-46832314D01*
X54941392Y-46718186D01*
X54975500Y-46590892D01*
X54975500Y-46459108D01*
X54941392Y-46331814D01*
X54875500Y-46217686D01*
X54782314Y-46124500D01*
X54714219Y-46085185D01*
X54668187Y-46058608D01*
X54591439Y-46038044D01*
X54540892Y-46024500D01*
X54409108Y-46024500D01*
X54281812Y-46058608D01*
X54167686Y-46124500D01*
X54167683Y-46124502D01*
X54074502Y-46217683D01*
X54074500Y-46217686D01*
X54008608Y-46331812D01*
X53980010Y-46438544D01*
X53974500Y-46459108D01*
X36618490Y-46459108D01*
X36605515Y-46436635D01*
X36498365Y-46329485D01*
X36411730Y-46279466D01*
X36367136Y-46253719D01*
X36232656Y-46217686D01*
X36220766Y-46214500D01*
X36069234Y-46214500D01*
X35922863Y-46253719D01*
X35791635Y-46329485D01*
X35791632Y-46329487D01*
X35684487Y-46436632D01*
X35684485Y-46436635D01*
X35608719Y-46567863D01*
X35569500Y-46714234D01*
X30060939Y-46714234D01*
X30060939Y-45189015D01*
X48444312Y-45189015D01*
X48444312Y-45320798D01*
X48478420Y-45448094D01*
X48492022Y-45471653D01*
X48544312Y-45562221D01*
X48637498Y-45655407D01*
X48751626Y-45721299D01*
X48878920Y-45755407D01*
X48878922Y-45755407D01*
X49010702Y-45755407D01*
X49010704Y-45755407D01*
X49137998Y-45721299D01*
X49252126Y-45655407D01*
X49345312Y-45562221D01*
X49411204Y-45448093D01*
X49445312Y-45320799D01*
X49445312Y-45189015D01*
X49411204Y-45061721D01*
X49410976Y-45061327D01*
X49408871Y-45053909D01*
X49408959Y-45044108D01*
X50361000Y-45044108D01*
X50361000Y-45175891D01*
X50395108Y-45303187D01*
X50428054Y-45360250D01*
X50461000Y-45417314D01*
X50554186Y-45510500D01*
X50668314Y-45576392D01*
X50795608Y-45610500D01*
X50795610Y-45610500D01*
X50927390Y-45610500D01*
X50927392Y-45610500D01*
X51054686Y-45576392D01*
X51168814Y-45510500D01*
X51262000Y-45417314D01*
X51327892Y-45303186D01*
X51362000Y-45175892D01*
X51362000Y-45159886D01*
X51381685Y-45092847D01*
X51434489Y-45047092D01*
X51486000Y-45035886D01*
X51566890Y-45035886D01*
X51566892Y-45035886D01*
X51694186Y-45001778D01*
X51808314Y-44935886D01*
X51901500Y-44842700D01*
X51967392Y-44728572D01*
X52001500Y-44601278D01*
X52001500Y-44469494D01*
X51967392Y-44342200D01*
X51901500Y-44228072D01*
X51808314Y-44134886D01*
X51751250Y-44101940D01*
X51694187Y-44068994D01*
X51625154Y-44050497D01*
X51566892Y-44034886D01*
X51435108Y-44034886D01*
X51307812Y-44068994D01*
X51193686Y-44134886D01*
X51193683Y-44134888D01*
X51100502Y-44228069D01*
X51100500Y-44228072D01*
X51034608Y-44342198D01*
X51000500Y-44469494D01*
X51000500Y-44485500D01*
X50980815Y-44552539D01*
X50928011Y-44598294D01*
X50876500Y-44609500D01*
X50795608Y-44609500D01*
X50668312Y-44643608D01*
X50554186Y-44709500D01*
X50554183Y-44709502D01*
X50461002Y-44802683D01*
X50461000Y-44802686D01*
X50395108Y-44916812D01*
X50361000Y-45044108D01*
X49408959Y-45044108D01*
X49409122Y-45025906D01*
X49406121Y-44998063D01*
X49409432Y-44991442D01*
X49409499Y-44984042D01*
X49424849Y-44960621D01*
X49437378Y-44935575D01*
X49445510Y-44929098D01*
X49447800Y-44925606D01*
X49452564Y-44923481D01*
X49466150Y-44912663D01*
X49547839Y-44865500D01*
X49641025Y-44772314D01*
X49706917Y-44658186D01*
X49741025Y-44530892D01*
X49741025Y-44399108D01*
X49706917Y-44271814D01*
X49641025Y-44157686D01*
X49547839Y-44064500D01*
X49490775Y-44031554D01*
X49433712Y-43998608D01*
X49370064Y-43981554D01*
X49306417Y-43964500D01*
X49174633Y-43964500D01*
X49047337Y-43998608D01*
X48933211Y-44064500D01*
X48933208Y-44064502D01*
X48840027Y-44157683D01*
X48840025Y-44157686D01*
X48774133Y-44271812D01*
X48750018Y-44361812D01*
X48740025Y-44399108D01*
X48740025Y-44530892D01*
X48764140Y-44620892D01*
X48776237Y-44666037D01*
X48773295Y-44666825D01*
X48779201Y-44721912D01*
X48747908Y-44784382D01*
X48719180Y-44807246D01*
X48637501Y-44854405D01*
X48637495Y-44854409D01*
X48544314Y-44947590D01*
X48544312Y-44947593D01*
X48478420Y-45061719D01*
X48444312Y-45189015D01*
X30060939Y-45189015D01*
X30060939Y-43644108D01*
X49919500Y-43644108D01*
X49919500Y-43775891D01*
X49953608Y-43903187D01*
X49973505Y-43937649D01*
X50019500Y-44017314D01*
X50112686Y-44110500D01*
X50226814Y-44176392D01*
X50354108Y-44210500D01*
X50354110Y-44210500D01*
X50485890Y-44210500D01*
X50485892Y-44210500D01*
X50613186Y-44176392D01*
X50727314Y-44110500D01*
X50820500Y-44017314D01*
X50886392Y-43903186D01*
X50920500Y-43775892D01*
X50920500Y-43644108D01*
X50886392Y-43516814D01*
X50820500Y-43402686D01*
X50727314Y-43309500D01*
X50653117Y-43266662D01*
X50613187Y-43243608D01*
X50546210Y-43225662D01*
X50485892Y-43209500D01*
X50354108Y-43209500D01*
X50226812Y-43243608D01*
X50112686Y-43309500D01*
X50112683Y-43309502D01*
X50019502Y-43402683D01*
X50019500Y-43402686D01*
X49953608Y-43516812D01*
X49919500Y-43644108D01*
X30060939Y-43644108D01*
X30060939Y-42025016D01*
X51858707Y-42025016D01*
X51858707Y-42156800D01*
X51867469Y-42189500D01*
X51892815Y-42284095D01*
X51895936Y-42289500D01*
X51958707Y-42398222D01*
X52051893Y-42491408D01*
X52166021Y-42557300D01*
X52293315Y-42591408D01*
X52293317Y-42591408D01*
X52312500Y-42591408D01*
X52379539Y-42611093D01*
X52425294Y-42663897D01*
X52436500Y-42715408D01*
X52436500Y-42755892D01*
X52448450Y-42800490D01*
X52470608Y-42883187D01*
X52495580Y-42926439D01*
X52536500Y-42997314D01*
X52629686Y-43090500D01*
X52644289Y-43098931D01*
X52692503Y-43149497D01*
X52705725Y-43218105D01*
X52679757Y-43282969D01*
X52644290Y-43313702D01*
X52623583Y-43325657D01*
X52623574Y-43325664D01*
X52530393Y-43418845D01*
X52530391Y-43418848D01*
X52464499Y-43532974D01*
X52434721Y-43644110D01*
X52430391Y-43660270D01*
X52430391Y-43792054D01*
X52447445Y-43855701D01*
X52464499Y-43919349D01*
X52497445Y-43976412D01*
X52530391Y-44033476D01*
X52623577Y-44126662D01*
X52670949Y-44154012D01*
X52719164Y-44204579D01*
X52732386Y-44273187D01*
X52706418Y-44338051D01*
X52670953Y-44368783D01*
X52660193Y-44374995D01*
X52660184Y-44375002D01*
X52567003Y-44468183D01*
X52567001Y-44468186D01*
X52501109Y-44582312D01*
X52467030Y-44709500D01*
X52467001Y-44709608D01*
X52467001Y-44841392D01*
X52473461Y-44865500D01*
X52501109Y-44968687D01*
X52526716Y-45013038D01*
X52567001Y-45082814D01*
X52660187Y-45176000D01*
X52759022Y-45233063D01*
X52771299Y-45240151D01*
X52774315Y-45241892D01*
X52901609Y-45276000D01*
X52901611Y-45276000D01*
X53033391Y-45276000D01*
X53033393Y-45276000D01*
X53160687Y-45241892D01*
X53274815Y-45176000D01*
X53368001Y-45082814D01*
X53433893Y-44968686D01*
X53468001Y-44841392D01*
X53468001Y-44709608D01*
X53433893Y-44582314D01*
X53416702Y-44552539D01*
X53411185Y-44542982D01*
X53411184Y-44542981D01*
X53404203Y-44530890D01*
X53380080Y-44489108D01*
X54728500Y-44489108D01*
X54728500Y-44620892D01*
X54740808Y-44666825D01*
X54762608Y-44748187D01*
X54776538Y-44772314D01*
X54828500Y-44862314D01*
X54921686Y-44955500D01*
X54921687Y-44955501D01*
X54921689Y-44955502D01*
X54933760Y-44962471D01*
X54981976Y-45013038D01*
X54995198Y-45081645D01*
X54979147Y-45131858D01*
X54916626Y-45240147D01*
X54916626Y-45240148D01*
X54916626Y-45240149D01*
X54916625Y-45240151D01*
X54905698Y-45280932D01*
X54882517Y-45367445D01*
X54882517Y-45499228D01*
X54916625Y-45626524D01*
X54933301Y-45655407D01*
X54982517Y-45740651D01*
X55075703Y-45833837D01*
X55174538Y-45890900D01*
X55182613Y-45895562D01*
X55189831Y-45899729D01*
X55317125Y-45933837D01*
X55317127Y-45933837D01*
X55448905Y-45933837D01*
X55448909Y-45933837D01*
X55463855Y-45929832D01*
X55533700Y-45931493D01*
X55591564Y-45970653D01*
X55619071Y-46034881D01*
X55607486Y-46103783D01*
X55603335Y-46111606D01*
X55552699Y-46199309D01*
X55552699Y-46199310D01*
X55552699Y-46199311D01*
X55552698Y-46199313D01*
X55518590Y-46326607D01*
X55518590Y-46458391D01*
X55529605Y-46499500D01*
X55552698Y-46585686D01*
X55555704Y-46590892D01*
X55618590Y-46699813D01*
X55711776Y-46792999D01*
X55825904Y-46858891D01*
X55825910Y-46858892D01*
X55833014Y-46861835D01*
X55887419Y-46905674D01*
X55909486Y-46971968D01*
X55905340Y-47008490D01*
X55889500Y-47067606D01*
X55889500Y-47199391D01*
X55923608Y-47326687D01*
X55928923Y-47335892D01*
X55989500Y-47440814D01*
X56082686Y-47534000D01*
X56179869Y-47590109D01*
X56194056Y-47598300D01*
X56196814Y-47599892D01*
X56324108Y-47634000D01*
X56324110Y-47634000D01*
X56455890Y-47634000D01*
X56455892Y-47634000D01*
X56583186Y-47599892D01*
X56697314Y-47534000D01*
X56790500Y-47440814D01*
X56856392Y-47326686D01*
X56890500Y-47199392D01*
X56890500Y-47067608D01*
X56856392Y-46940314D01*
X56790500Y-46826186D01*
X56697314Y-46733000D01*
X56583186Y-46667108D01*
X56583183Y-46667106D01*
X56576074Y-46664162D01*
X56521670Y-46620323D01*
X56499603Y-46554029D01*
X56503748Y-46517514D01*
X56519590Y-46458391D01*
X56519590Y-46326607D01*
X56485482Y-46199313D01*
X56419590Y-46085185D01*
X56326404Y-45991999D01*
X56225665Y-45933837D01*
X56212277Y-45926107D01*
X56138209Y-45906261D01*
X56084982Y-45891999D01*
X55953198Y-45891999D01*
X55953193Y-45891999D01*
X55938249Y-45896004D01*
X55868400Y-45894340D01*
X55810538Y-45855177D01*
X55783035Y-45790948D01*
X55794622Y-45722046D01*
X55798772Y-45714228D01*
X55832735Y-45655404D01*
X55849409Y-45626523D01*
X55877320Y-45522357D01*
X59189048Y-45522357D01*
X59189048Y-45654141D01*
X59205148Y-45714228D01*
X59223156Y-45781436D01*
X59228648Y-45790948D01*
X59289048Y-45895563D01*
X59382234Y-45988749D01*
X59496362Y-46054641D01*
X59623656Y-46088749D01*
X59623658Y-46088749D01*
X59755438Y-46088749D01*
X59755440Y-46088749D01*
X59882734Y-46054641D01*
X59996862Y-45988749D01*
X60079350Y-45906261D01*
X62737195Y-45906261D01*
X62737195Y-46038044D01*
X62771303Y-46165340D01*
X62790916Y-46199310D01*
X62837195Y-46279467D01*
X62930381Y-46372653D01*
X63029216Y-46429716D01*
X63041195Y-46436632D01*
X63044509Y-46438545D01*
X63171803Y-46472653D01*
X63171805Y-46472653D01*
X63303585Y-46472653D01*
X63303587Y-46472653D01*
X63430881Y-46438545D01*
X63545009Y-46372653D01*
X63638195Y-46279467D01*
X63704087Y-46165339D01*
X63738195Y-46038045D01*
X63738195Y-45906261D01*
X63704087Y-45778967D01*
X63638195Y-45664839D01*
X63545009Y-45571653D01*
X63459630Y-45522359D01*
X63430882Y-45505761D01*
X63367234Y-45488707D01*
X63303587Y-45471653D01*
X63171803Y-45471653D01*
X63044507Y-45505761D01*
X62930381Y-45571653D01*
X62930378Y-45571655D01*
X62837197Y-45664836D01*
X62837195Y-45664839D01*
X62771303Y-45778965D01*
X62737195Y-45906261D01*
X60079350Y-45906261D01*
X60090048Y-45895563D01*
X60155940Y-45781435D01*
X60190048Y-45654141D01*
X60190048Y-45522357D01*
X60155940Y-45395063D01*
X60090048Y-45280935D01*
X59996862Y-45187749D01*
X59939798Y-45154803D01*
X59882735Y-45121857D01*
X59819087Y-45104803D01*
X59755440Y-45087749D01*
X59623656Y-45087749D01*
X59496360Y-45121857D01*
X59382234Y-45187749D01*
X59382231Y-45187751D01*
X59289050Y-45280932D01*
X59289048Y-45280935D01*
X59223156Y-45395061D01*
X59202634Y-45471653D01*
X59189048Y-45522357D01*
X55877320Y-45522357D01*
X55883517Y-45499229D01*
X55883517Y-45367445D01*
X55849409Y-45240151D01*
X55783517Y-45126023D01*
X55690331Y-45032837D01*
X55690329Y-45032836D01*
X55690327Y-45032834D01*
X55678254Y-45025864D01*
X55630039Y-44975296D01*
X55616818Y-44906688D01*
X55632867Y-44856480D01*
X55695392Y-44748186D01*
X55729500Y-44620892D01*
X55729500Y-44489108D01*
X55695392Y-44361814D01*
X55629500Y-44247686D01*
X55536314Y-44154500D01*
X55470309Y-44116392D01*
X55422187Y-44088608D01*
X55332220Y-44064502D01*
X55294892Y-44054500D01*
X55163108Y-44054500D01*
X55035812Y-44088608D01*
X54921686Y-44154500D01*
X54921683Y-44154502D01*
X54828502Y-44247683D01*
X54828500Y-44247686D01*
X54762608Y-44361812D01*
X54733755Y-44469496D01*
X54728500Y-44489108D01*
X53380080Y-44489108D01*
X53368001Y-44468186D01*
X53274815Y-44375000D01*
X53264047Y-44368783D01*
X53227442Y-44347648D01*
X53179227Y-44297081D01*
X53166005Y-44228474D01*
X53191973Y-44163609D01*
X53227443Y-44132874D01*
X53238205Y-44126662D01*
X53331391Y-44033476D01*
X53397283Y-43919348D01*
X53397283Y-43919347D01*
X53401347Y-43912309D01*
X53403235Y-43913399D01*
X53439879Y-43867905D01*
X53506168Y-43845824D01*
X53573872Y-43863087D01*
X53621494Y-43914213D01*
X53630398Y-43937649D01*
X53635607Y-43957089D01*
X53635607Y-43957090D01*
X53659578Y-43998608D01*
X53701500Y-44071219D01*
X53794686Y-44164405D01*
X53908814Y-44230297D01*
X54036108Y-44264405D01*
X54036110Y-44264405D01*
X54167890Y-44264405D01*
X54167892Y-44264405D01*
X54295186Y-44230297D01*
X54409314Y-44164405D01*
X54502500Y-44071219D01*
X54568392Y-43957091D01*
X54602500Y-43829797D01*
X54602500Y-43698013D01*
X54568392Y-43570719D01*
X54502500Y-43456591D01*
X54409314Y-43363405D01*
X54295186Y-43297513D01*
X54167892Y-43263405D01*
X54036108Y-43263405D01*
X53908812Y-43297513D01*
X53794686Y-43363405D01*
X53794683Y-43363407D01*
X53701502Y-43456588D01*
X53701500Y-43456591D01*
X53631544Y-43577758D01*
X53629659Y-43576669D01*
X53592984Y-43622180D01*
X53526689Y-43644243D01*
X53458990Y-43626962D01*
X53411381Y-43575824D01*
X53402491Y-43552414D01*
X53397283Y-43532976D01*
X53331391Y-43418848D01*
X53238205Y-43325662D01*
X53230672Y-43321313D01*
X53223601Y-43317230D01*
X53175386Y-43266662D01*
X53162165Y-43198055D01*
X53165578Y-43189530D01*
X56375788Y-43189530D01*
X56375788Y-43321314D01*
X56376953Y-43325662D01*
X56409896Y-43448609D01*
X56425422Y-43475500D01*
X56475788Y-43562736D01*
X56568974Y-43655922D01*
X56683102Y-43721814D01*
X56810396Y-43755922D01*
X56810398Y-43755922D01*
X56942178Y-43755922D01*
X56942180Y-43755922D01*
X57069474Y-43721814D01*
X57183602Y-43655922D01*
X57276788Y-43562736D01*
X57307276Y-43509928D01*
X57357843Y-43461713D01*
X57426450Y-43448490D01*
X57485484Y-43471718D01*
X57485648Y-43471436D01*
X57487533Y-43472524D01*
X57490152Y-43473555D01*
X57492685Y-43475499D01*
X57492686Y-43475500D01*
X57552319Y-43509929D01*
X57592233Y-43532974D01*
X57606814Y-43541392D01*
X57734108Y-43575500D01*
X57734110Y-43575500D01*
X57865890Y-43575500D01*
X57865892Y-43575500D01*
X57993186Y-43541392D01*
X58107314Y-43475500D01*
X58174819Y-43407995D01*
X58236142Y-43374510D01*
X58305834Y-43379494D01*
X58350181Y-43407995D01*
X58442686Y-43500500D01*
X58541521Y-43557563D01*
X58550481Y-43562736D01*
X58556814Y-43566392D01*
X58684108Y-43600500D01*
X58684110Y-43600500D01*
X58815890Y-43600500D01*
X58815892Y-43600500D01*
X58877068Y-43584108D01*
X66474500Y-43584108D01*
X66474500Y-43715891D01*
X66508608Y-43843187D01*
X66541554Y-43900250D01*
X66574500Y-43957314D01*
X66667686Y-44050500D01*
X66733691Y-44088608D01*
X66771603Y-44110497D01*
X66781814Y-44116392D01*
X66909108Y-44150500D01*
X66909110Y-44150500D01*
X67040890Y-44150500D01*
X67040892Y-44150500D01*
X67168186Y-44116392D01*
X67282314Y-44050500D01*
X67375500Y-43957314D01*
X67441392Y-43843186D01*
X67475500Y-43715892D01*
X67475500Y-43584108D01*
X67441392Y-43456814D01*
X67375500Y-43342686D01*
X67282314Y-43249500D01*
X67193209Y-43198055D01*
X67168187Y-43183608D01*
X67102061Y-43165890D01*
X67040892Y-43149500D01*
X66909108Y-43149500D01*
X66781812Y-43183608D01*
X66667686Y-43249500D01*
X66667683Y-43249502D01*
X66574502Y-43342683D01*
X66574500Y-43342686D01*
X66508608Y-43456812D01*
X66474500Y-43584108D01*
X58877068Y-43584108D01*
X58943186Y-43566392D01*
X59057314Y-43500500D01*
X59150500Y-43407314D01*
X59216392Y-43293186D01*
X59250500Y-43165892D01*
X59250500Y-43034108D01*
X59216392Y-42906814D01*
X59150500Y-42792686D01*
X59057314Y-42699500D01*
X58995648Y-42663897D01*
X58943187Y-42633608D01*
X58859158Y-42611093D01*
X58815892Y-42599500D01*
X58684108Y-42599500D01*
X58556812Y-42633608D01*
X58442686Y-42699500D01*
X58442683Y-42699502D01*
X58375181Y-42767005D01*
X58313858Y-42800490D01*
X58244166Y-42795506D01*
X58199819Y-42767005D01*
X58107316Y-42674502D01*
X58107314Y-42674500D01*
X58036487Y-42633608D01*
X57993187Y-42608608D01*
X57928990Y-42591407D01*
X57865892Y-42574500D01*
X57734108Y-42574500D01*
X57606812Y-42608608D01*
X57492686Y-42674500D01*
X57492683Y-42674502D01*
X57399502Y-42767683D01*
X57399498Y-42767689D01*
X57369010Y-42820494D01*
X57318442Y-42868709D01*
X57249835Y-42881930D01*
X57190803Y-42858703D01*
X57190640Y-42858986D01*
X57188751Y-42857895D01*
X57186137Y-42856867D01*
X57183606Y-42854924D01*
X57069475Y-42789030D01*
X57005827Y-42771976D01*
X56942180Y-42754922D01*
X56810396Y-42754922D01*
X56683100Y-42789030D01*
X56568974Y-42854922D01*
X56568971Y-42854924D01*
X56475790Y-42948105D01*
X56475788Y-42948108D01*
X56409896Y-43062234D01*
X56400064Y-43098930D01*
X56375788Y-43189530D01*
X53165578Y-43189530D01*
X53188134Y-43133190D01*
X53223600Y-43102458D01*
X53244314Y-43090500D01*
X53337500Y-42997314D01*
X53403392Y-42883186D01*
X53437500Y-42755892D01*
X53437500Y-42624108D01*
X53403392Y-42496814D01*
X53337500Y-42382686D01*
X53244314Y-42289500D01*
X53187250Y-42256554D01*
X53130187Y-42223608D01*
X53066539Y-42206554D01*
X53002892Y-42189500D01*
X52983707Y-42189500D01*
X52916668Y-42169815D01*
X52870913Y-42117011D01*
X52859707Y-42065500D01*
X52859707Y-42025018D01*
X52859707Y-42025016D01*
X52825599Y-41897722D01*
X52759707Y-41783594D01*
X52666521Y-41690408D01*
X52609457Y-41657462D01*
X52552394Y-41624516D01*
X52488746Y-41607462D01*
X52425099Y-41590408D01*
X52293315Y-41590408D01*
X52166019Y-41624516D01*
X52051893Y-41690408D01*
X52051890Y-41690410D01*
X51958709Y-41783591D01*
X51958707Y-41783594D01*
X51892815Y-41897720D01*
X51858707Y-42025016D01*
X30060939Y-42025016D01*
X30060939Y-40934234D01*
X35569500Y-40934234D01*
X35569500Y-41085766D01*
X35577572Y-41115890D01*
X35608719Y-41232136D01*
X35646602Y-41297750D01*
X35684485Y-41363365D01*
X35791635Y-41470515D01*
X35922865Y-41546281D01*
X36069234Y-41585500D01*
X36069236Y-41585500D01*
X36220764Y-41585500D01*
X36220766Y-41585500D01*
X36367135Y-41546281D01*
X36498365Y-41470515D01*
X36605515Y-41363365D01*
X36681281Y-41232135D01*
X36720500Y-41085766D01*
X36720500Y-40934234D01*
X36681281Y-40787865D01*
X36605515Y-40656635D01*
X36498365Y-40549485D01*
X36489052Y-40544108D01*
X41409500Y-40544108D01*
X41409500Y-40675891D01*
X41443608Y-40803187D01*
X41474569Y-40856812D01*
X41509500Y-40917314D01*
X41602686Y-41010500D01*
X41716814Y-41076392D01*
X41844108Y-41110500D01*
X41844110Y-41110500D01*
X41975890Y-41110500D01*
X41975892Y-41110500D01*
X42103186Y-41076392D01*
X42217314Y-41010500D01*
X42243706Y-40984108D01*
X63774500Y-40984108D01*
X63774500Y-41115891D01*
X63808608Y-41243187D01*
X63841554Y-41300250D01*
X63874500Y-41357314D01*
X63967686Y-41450500D01*
X64081814Y-41516392D01*
X64209108Y-41550500D01*
X64209110Y-41550500D01*
X64340890Y-41550500D01*
X64340892Y-41550500D01*
X64468186Y-41516392D01*
X64582314Y-41450500D01*
X64675500Y-41357314D01*
X64741392Y-41243186D01*
X64775500Y-41115892D01*
X64775500Y-40984108D01*
X64741392Y-40856814D01*
X64675500Y-40742686D01*
X64582314Y-40649500D01*
X64525250Y-40616554D01*
X64468187Y-40583608D01*
X64404539Y-40566554D01*
X64340892Y-40549500D01*
X64209108Y-40549500D01*
X64081812Y-40583608D01*
X63967686Y-40649500D01*
X63967683Y-40649502D01*
X63874502Y-40742683D01*
X63874500Y-40742686D01*
X63808608Y-40856812D01*
X63774500Y-40984108D01*
X42243706Y-40984108D01*
X42310500Y-40917314D01*
X42376392Y-40803186D01*
X42410500Y-40675892D01*
X42410500Y-40544108D01*
X42376392Y-40416814D01*
X42310500Y-40302686D01*
X42217314Y-40209500D01*
X42149764Y-40170500D01*
X42103187Y-40143608D01*
X42039539Y-40126554D01*
X41975892Y-40109500D01*
X41844108Y-40109500D01*
X41716812Y-40143608D01*
X41602686Y-40209500D01*
X41602683Y-40209502D01*
X41509502Y-40302683D01*
X41509500Y-40302686D01*
X41443608Y-40416812D01*
X41409500Y-40544108D01*
X36489052Y-40544108D01*
X36432750Y-40511602D01*
X36367136Y-40473719D01*
X36293950Y-40454109D01*
X36220766Y-40434500D01*
X36069234Y-40434500D01*
X35922863Y-40473719D01*
X35791635Y-40549485D01*
X35791632Y-40549487D01*
X35684487Y-40656632D01*
X35684485Y-40656635D01*
X35608719Y-40787863D01*
X35590245Y-40856812D01*
X35569500Y-40934234D01*
X30060939Y-40934234D01*
X30060939Y-39604108D01*
X56124500Y-39604108D01*
X56124500Y-39735892D01*
X56141554Y-39799539D01*
X56158608Y-39863187D01*
X56175929Y-39893187D01*
X56224500Y-39977314D01*
X56317686Y-40070500D01*
X56431814Y-40136392D01*
X56559108Y-40170500D01*
X56559110Y-40170500D01*
X56690890Y-40170500D01*
X56690892Y-40170500D01*
X56818186Y-40136392D01*
X56932314Y-40070500D01*
X57025500Y-39977314D01*
X57091392Y-39863186D01*
X57125500Y-39735892D01*
X57125500Y-39634108D01*
X58037000Y-39634108D01*
X58037000Y-39765891D01*
X58071108Y-39893187D01*
X58104054Y-39950250D01*
X58137000Y-40007314D01*
X58230186Y-40100500D01*
X58344314Y-40166392D01*
X58471608Y-40200500D01*
X58471610Y-40200500D01*
X58603390Y-40200500D01*
X58603392Y-40200500D01*
X58730686Y-40166392D01*
X58844814Y-40100500D01*
X58938000Y-40007314D01*
X59003892Y-39893186D01*
X59038000Y-39765892D01*
X59038000Y-39634108D01*
X59003892Y-39506814D01*
X58938000Y-39392686D01*
X58844814Y-39299500D01*
X58787750Y-39266554D01*
X58730687Y-39233608D01*
X58667039Y-39216554D01*
X58603392Y-39199500D01*
X58471608Y-39199500D01*
X58344312Y-39233608D01*
X58230186Y-39299500D01*
X58230183Y-39299502D01*
X58137002Y-39392683D01*
X58137000Y-39392686D01*
X58071108Y-39506812D01*
X58037000Y-39634108D01*
X57125500Y-39634108D01*
X57125500Y-39604108D01*
X57091392Y-39476814D01*
X57025500Y-39362686D01*
X56932314Y-39269500D01*
X56870147Y-39233608D01*
X56818187Y-39203608D01*
X56754539Y-39186554D01*
X56690892Y-39169500D01*
X56559108Y-39169500D01*
X56431812Y-39203608D01*
X56317686Y-39269500D01*
X56317683Y-39269502D01*
X56224502Y-39362683D01*
X56224500Y-39362686D01*
X56158608Y-39476812D01*
X56124500Y-39604108D01*
X30060939Y-39604108D01*
X30060939Y-38584108D01*
X40509500Y-38584108D01*
X40509500Y-38715892D01*
X40516094Y-38740500D01*
X40543608Y-38843187D01*
X40576554Y-38900250D01*
X40609500Y-38957314D01*
X40702686Y-39050500D01*
X40816814Y-39116392D01*
X40944108Y-39150500D01*
X40944110Y-39150500D01*
X41075890Y-39150500D01*
X41075892Y-39150500D01*
X41203186Y-39116392D01*
X41317314Y-39050500D01*
X41410500Y-38957314D01*
X41476392Y-38843186D01*
X41478824Y-38834108D01*
X47049500Y-38834108D01*
X47049500Y-38965891D01*
X47083608Y-39093187D01*
X47097005Y-39116391D01*
X47149500Y-39207314D01*
X47242686Y-39300500D01*
X47356814Y-39366392D01*
X47484108Y-39400500D01*
X47484110Y-39400500D01*
X47615890Y-39400500D01*
X47615892Y-39400500D01*
X47743186Y-39366392D01*
X47857314Y-39300500D01*
X47950500Y-39207314D01*
X48016392Y-39093186D01*
X48050500Y-38965892D01*
X48050500Y-38834108D01*
X48016392Y-38706814D01*
X48016148Y-38706392D01*
X47978105Y-38640500D01*
X47950500Y-38592686D01*
X47857314Y-38499500D01*
X47783380Y-38456814D01*
X47743187Y-38433608D01*
X47679539Y-38416554D01*
X47615892Y-38399500D01*
X47484108Y-38399500D01*
X47356812Y-38433608D01*
X47242686Y-38499500D01*
X47242683Y-38499502D01*
X47149502Y-38592683D01*
X47149500Y-38592686D01*
X47083608Y-38706812D01*
X47049500Y-38834108D01*
X41478824Y-38834108D01*
X41510500Y-38715892D01*
X41510500Y-38584108D01*
X41476392Y-38456814D01*
X41410500Y-38342686D01*
X41317314Y-38249500D01*
X41253060Y-38212403D01*
X41203187Y-38183608D01*
X41139539Y-38166554D01*
X41075892Y-38149500D01*
X40944108Y-38149500D01*
X40816812Y-38183608D01*
X40702686Y-38249500D01*
X40702683Y-38249502D01*
X40609502Y-38342683D01*
X40609500Y-38342686D01*
X40543608Y-38456812D01*
X40532170Y-38499500D01*
X40509500Y-38584108D01*
X30060939Y-38584108D01*
X30060939Y-38137563D01*
X43782955Y-38137563D01*
X43782955Y-38269346D01*
X43817063Y-38396642D01*
X43838162Y-38433186D01*
X43882955Y-38510769D01*
X43976141Y-38603955D01*
X44090269Y-38669847D01*
X44217563Y-38703955D01*
X44217565Y-38703955D01*
X44349345Y-38703955D01*
X44349347Y-38703955D01*
X44476641Y-38669847D01*
X44590769Y-38603955D01*
X44683955Y-38510769D01*
X44749847Y-38396641D01*
X44783955Y-38269347D01*
X44783955Y-38137563D01*
X44775329Y-38105370D01*
X44776992Y-38035525D01*
X44816154Y-37977662D01*
X44880382Y-37950157D01*
X44949284Y-37961743D01*
X44982785Y-37985599D01*
X45042686Y-38045500D01*
X45129952Y-38095883D01*
X45156810Y-38111390D01*
X45156814Y-38111392D01*
X45284108Y-38145500D01*
X45284110Y-38145500D01*
X45415890Y-38145500D01*
X45415892Y-38145500D01*
X45543186Y-38111392D01*
X45657314Y-38045500D01*
X45750500Y-37952314D01*
X45792613Y-37879371D01*
X45843180Y-37831156D01*
X45911787Y-37817933D01*
X45976652Y-37843901D01*
X46007386Y-37879371D01*
X46049500Y-37952314D01*
X46142686Y-38045500D01*
X46229952Y-38095883D01*
X46256810Y-38111390D01*
X46256814Y-38111392D01*
X46384108Y-38145500D01*
X46384110Y-38145500D01*
X46515890Y-38145500D01*
X46515892Y-38145500D01*
X46643186Y-38111392D01*
X46757314Y-38045500D01*
X46850500Y-37952314D01*
X46916392Y-37838186D01*
X46950500Y-37710892D01*
X46950500Y-37579108D01*
X48149500Y-37579108D01*
X48149500Y-37710892D01*
X48163001Y-37761278D01*
X48183608Y-37838187D01*
X48202434Y-37870794D01*
X48249500Y-37952314D01*
X48342686Y-38045500D01*
X48429952Y-38095883D01*
X48456810Y-38111390D01*
X48456814Y-38111392D01*
X48584108Y-38145500D01*
X48584110Y-38145500D01*
X48715890Y-38145500D01*
X48715892Y-38145500D01*
X48843186Y-38111392D01*
X48957314Y-38045500D01*
X49050500Y-37952314D01*
X49116392Y-37838186D01*
X49150500Y-37710892D01*
X49150500Y-37629494D01*
X50334886Y-37629494D01*
X50334886Y-37761278D01*
X50338190Y-37773608D01*
X50368994Y-37888573D01*
X50394463Y-37932686D01*
X50434886Y-38002700D01*
X50528072Y-38095886D01*
X50642200Y-38161778D01*
X50769494Y-38195886D01*
X50769496Y-38195886D01*
X50901276Y-38195886D01*
X50901278Y-38195886D01*
X50982555Y-38174108D01*
X60369500Y-38174108D01*
X60369500Y-38305891D01*
X60403608Y-38433187D01*
X60436554Y-38490250D01*
X60469500Y-38547314D01*
X60562686Y-38640500D01*
X60676814Y-38706392D01*
X60804108Y-38740500D01*
X60804110Y-38740500D01*
X60935890Y-38740500D01*
X60935892Y-38740500D01*
X61063186Y-38706392D01*
X61177314Y-38640500D01*
X61270500Y-38547314D01*
X61336392Y-38433186D01*
X61370500Y-38305892D01*
X61370500Y-38174108D01*
X61336392Y-38046814D01*
X61335633Y-38045500D01*
X61327563Y-38031521D01*
X61270500Y-37932686D01*
X61177314Y-37839500D01*
X61114016Y-37802955D01*
X61063187Y-37773608D01*
X60949260Y-37743082D01*
X60935892Y-37739500D01*
X60804108Y-37739500D01*
X60676812Y-37773608D01*
X60562686Y-37839500D01*
X60562683Y-37839502D01*
X60469502Y-37932683D01*
X60469500Y-37932686D01*
X60403608Y-38046812D01*
X60369500Y-38174108D01*
X50982555Y-38174108D01*
X51028572Y-38161778D01*
X51142700Y-38095886D01*
X51235886Y-38002700D01*
X51240735Y-37994300D01*
X51291301Y-37946084D01*
X51359908Y-37932860D01*
X51424773Y-37958827D01*
X51435804Y-37968618D01*
X51512686Y-38045500D01*
X51599952Y-38095883D01*
X51626810Y-38111390D01*
X51626814Y-38111392D01*
X51754108Y-38145500D01*
X51754110Y-38145500D01*
X51885890Y-38145500D01*
X51885892Y-38145500D01*
X52013186Y-38111392D01*
X52127314Y-38045500D01*
X52220500Y-37952314D01*
X52286392Y-37838186D01*
X52320500Y-37710892D01*
X52320500Y-37579108D01*
X52286392Y-37451814D01*
X52220500Y-37337686D01*
X52127314Y-37244500D01*
X52070250Y-37211554D01*
X52013187Y-37178608D01*
X51949539Y-37161554D01*
X51885892Y-37144500D01*
X51754108Y-37144500D01*
X51626812Y-37178608D01*
X51512686Y-37244500D01*
X51512683Y-37244502D01*
X51419502Y-37337683D01*
X51419495Y-37337692D01*
X51414645Y-37346093D01*
X51364075Y-37394305D01*
X51295467Y-37407524D01*
X51230604Y-37381552D01*
X51219581Y-37371767D01*
X51142702Y-37294888D01*
X51142700Y-37294886D01*
X51055433Y-37244502D01*
X51028573Y-37228994D01*
X50964925Y-37211940D01*
X50901278Y-37194886D01*
X50769494Y-37194886D01*
X50642198Y-37228994D01*
X50528072Y-37294886D01*
X50528069Y-37294888D01*
X50434888Y-37388069D01*
X50434886Y-37388072D01*
X50368994Y-37502198D01*
X50349829Y-37573724D01*
X50334886Y-37629494D01*
X49150500Y-37629494D01*
X49150500Y-37579108D01*
X49116392Y-37451814D01*
X49050500Y-37337686D01*
X48957314Y-37244500D01*
X48900250Y-37211554D01*
X48843187Y-37178608D01*
X48779539Y-37161554D01*
X48715892Y-37144500D01*
X48584108Y-37144500D01*
X48456812Y-37178608D01*
X48342686Y-37244500D01*
X48342683Y-37244502D01*
X48249502Y-37337683D01*
X48249500Y-37337686D01*
X48183608Y-37451812D01*
X48170107Y-37502200D01*
X48149500Y-37579108D01*
X46950500Y-37579108D01*
X46916392Y-37451814D01*
X46850500Y-37337686D01*
X46757314Y-37244500D01*
X46700250Y-37211554D01*
X46643187Y-37178608D01*
X46579539Y-37161554D01*
X46515892Y-37144500D01*
X46384108Y-37144500D01*
X46256812Y-37178608D01*
X46142686Y-37244500D01*
X46142683Y-37244502D01*
X46049502Y-37337683D01*
X46049500Y-37337686D01*
X46007387Y-37410628D01*
X45956820Y-37458843D01*
X45888212Y-37472065D01*
X45823348Y-37446097D01*
X45792613Y-37410628D01*
X45779590Y-37388072D01*
X45750500Y-37337686D01*
X45657314Y-37244500D01*
X45600250Y-37211554D01*
X45543187Y-37178608D01*
X45479539Y-37161554D01*
X45415892Y-37144500D01*
X45284108Y-37144500D01*
X45156812Y-37178608D01*
X45042686Y-37244500D01*
X45042683Y-37244502D01*
X44949502Y-37337683D01*
X44949500Y-37337686D01*
X44883608Y-37451812D01*
X44849500Y-37579108D01*
X44849500Y-37710893D01*
X44858125Y-37743082D01*
X44856462Y-37812931D01*
X44817299Y-37870794D01*
X44753070Y-37898297D01*
X44684168Y-37886710D01*
X44650669Y-37862855D01*
X44590771Y-37802957D01*
X44590769Y-37802955D01*
X44518581Y-37761277D01*
X44476642Y-37737063D01*
X44378972Y-37710893D01*
X44349347Y-37702955D01*
X44217563Y-37702955D01*
X44090267Y-37737063D01*
X43976141Y-37802955D01*
X43976138Y-37802957D01*
X43882957Y-37896138D01*
X43882955Y-37896141D01*
X43817063Y-38010267D01*
X43782955Y-38137563D01*
X30060939Y-38137563D01*
X30060939Y-33766872D01*
X30061057Y-33761464D01*
X30067443Y-33615191D01*
X30067443Y-33615186D01*
X32099500Y-33615186D01*
X32099500Y-33884813D01*
X32129686Y-34152719D01*
X32129688Y-34152731D01*
X32189684Y-34415594D01*
X32189687Y-34415602D01*
X32278734Y-34670082D01*
X32395714Y-34912994D01*
X32395716Y-34912997D01*
X32539162Y-35141289D01*
X32707266Y-35352085D01*
X32897915Y-35542734D01*
X33108711Y-35710838D01*
X33337003Y-35854284D01*
X33579921Y-35971267D01*
X33771049Y-36038145D01*
X33834397Y-36060312D01*
X33834405Y-36060315D01*
X33834408Y-36060315D01*
X33834409Y-36060316D01*
X34097268Y-36120312D01*
X34365187Y-36150499D01*
X34365188Y-36150500D01*
X34365191Y-36150500D01*
X34634812Y-36150500D01*
X34634812Y-36150499D01*
X34902732Y-36120312D01*
X35165591Y-36060316D01*
X35420079Y-35971267D01*
X35662997Y-35854284D01*
X35891289Y-35710838D01*
X36102085Y-35542734D01*
X36292734Y-35352085D01*
X36460838Y-35141289D01*
X36604284Y-34912997D01*
X36721267Y-34670079D01*
X36810316Y-34415591D01*
X36870312Y-34152732D01*
X36900500Y-33884809D01*
X36900500Y-33615191D01*
X36900499Y-33615186D01*
X62599500Y-33615186D01*
X62599500Y-33884813D01*
X62629686Y-34152719D01*
X62629688Y-34152731D01*
X62689684Y-34415594D01*
X62689687Y-34415602D01*
X62778734Y-34670082D01*
X62895714Y-34912994D01*
X62895716Y-34912997D01*
X63039162Y-35141289D01*
X63207266Y-35352085D01*
X63397915Y-35542734D01*
X63608711Y-35710838D01*
X63837003Y-35854284D01*
X64079921Y-35971267D01*
X64271049Y-36038145D01*
X64334397Y-36060312D01*
X64334405Y-36060315D01*
X64334408Y-36060315D01*
X64334409Y-36060316D01*
X64597268Y-36120312D01*
X64865187Y-36150499D01*
X64865188Y-36150500D01*
X64865191Y-36150500D01*
X65134812Y-36150500D01*
X65134812Y-36150499D01*
X65402732Y-36120312D01*
X65665591Y-36060316D01*
X65920079Y-35971267D01*
X66162997Y-35854284D01*
X66391289Y-35710838D01*
X66602085Y-35542734D01*
X66792734Y-35352085D01*
X66960838Y-35141289D01*
X67104284Y-34912997D01*
X67221267Y-34670079D01*
X67310316Y-34415591D01*
X67370312Y-34152732D01*
X67400500Y-33884809D01*
X67400500Y-33615191D01*
X67370312Y-33347268D01*
X67310316Y-33084409D01*
X67221267Y-32829921D01*
X67104284Y-32587003D01*
X66960838Y-32358711D01*
X66792734Y-32147915D01*
X66602085Y-31957266D01*
X66593599Y-31950499D01*
X66510837Y-31884498D01*
X66391289Y-31789162D01*
X66162997Y-31645716D01*
X66162994Y-31645714D01*
X65920082Y-31528734D01*
X65665602Y-31439687D01*
X65665594Y-31439684D01*
X65468446Y-31394687D01*
X65402732Y-31379688D01*
X65402728Y-31379687D01*
X65402719Y-31379686D01*
X65134813Y-31349500D01*
X65134809Y-31349500D01*
X64865191Y-31349500D01*
X64865186Y-31349500D01*
X64597280Y-31379686D01*
X64597268Y-31379688D01*
X64334405Y-31439684D01*
X64334397Y-31439687D01*
X64079917Y-31528734D01*
X63837005Y-31645714D01*
X63608712Y-31789161D01*
X63397915Y-31957265D01*
X63207265Y-32147915D01*
X63039161Y-32358712D01*
X62895714Y-32587005D01*
X62778734Y-32829917D01*
X62689687Y-33084397D01*
X62689684Y-33084405D01*
X62629688Y-33347268D01*
X62629686Y-33347280D01*
X62599500Y-33615186D01*
X36900499Y-33615186D01*
X36870312Y-33347268D01*
X36810316Y-33084409D01*
X36721267Y-32829921D01*
X36604284Y-32587003D01*
X36460838Y-32358711D01*
X36292734Y-32147915D01*
X36102085Y-31957266D01*
X36093599Y-31950499D01*
X36010837Y-31884498D01*
X35891289Y-31789162D01*
X35662997Y-31645716D01*
X35662994Y-31645714D01*
X35542528Y-31587701D01*
X35420082Y-31528734D01*
X35292549Y-31484108D01*
X42619500Y-31484108D01*
X42619500Y-31615892D01*
X42626199Y-31640892D01*
X42653608Y-31743187D01*
X42668042Y-31768187D01*
X42719500Y-31857314D01*
X42812686Y-31950500D01*
X42926814Y-32016392D01*
X43054108Y-32050500D01*
X43054110Y-32050500D01*
X43185890Y-32050500D01*
X43185892Y-32050500D01*
X43313186Y-32016392D01*
X43427314Y-31950500D01*
X43520500Y-31857314D01*
X43586392Y-31743186D01*
X43620500Y-31615892D01*
X43620500Y-31509108D01*
X45074500Y-31509108D01*
X45074500Y-31640891D01*
X45108608Y-31768187D01*
X45141554Y-31825250D01*
X45174500Y-31882314D01*
X45267686Y-31975500D01*
X45381814Y-32041392D01*
X45509108Y-32075500D01*
X45509110Y-32075500D01*
X45640890Y-32075500D01*
X45640892Y-32075500D01*
X45768186Y-32041392D01*
X45882314Y-31975500D01*
X45975500Y-31882314D01*
X46041392Y-31768186D01*
X46075500Y-31640892D01*
X46075500Y-31509108D01*
X47474500Y-31509108D01*
X47474500Y-31640891D01*
X47508608Y-31768187D01*
X47541554Y-31825250D01*
X47574500Y-31882314D01*
X47667686Y-31975500D01*
X47781814Y-32041392D01*
X47909108Y-32075500D01*
X47909110Y-32075500D01*
X48040890Y-32075500D01*
X48040892Y-32075500D01*
X48168186Y-32041392D01*
X48282314Y-31975500D01*
X48375500Y-31882314D01*
X48441392Y-31768186D01*
X48475500Y-31640892D01*
X48475500Y-31509108D01*
X53299500Y-31509108D01*
X53299500Y-31640891D01*
X53333608Y-31768187D01*
X53366554Y-31825250D01*
X53399500Y-31882314D01*
X53492686Y-31975500D01*
X53606814Y-32041392D01*
X53734108Y-32075500D01*
X53734110Y-32075500D01*
X53865890Y-32075500D01*
X53865892Y-32075500D01*
X53993186Y-32041392D01*
X54107314Y-31975500D01*
X54200500Y-31882314D01*
X54266392Y-31768186D01*
X54300500Y-31640892D01*
X54300500Y-31509108D01*
X55799500Y-31509108D01*
X55799500Y-31640891D01*
X55833608Y-31768187D01*
X55866554Y-31825250D01*
X55899500Y-31882314D01*
X55992686Y-31975500D01*
X56106814Y-32041392D01*
X56234108Y-32075500D01*
X56234110Y-32075500D01*
X56365890Y-32075500D01*
X56365892Y-32075500D01*
X56493186Y-32041392D01*
X56607314Y-31975500D01*
X56700500Y-31882314D01*
X56766392Y-31768186D01*
X56800500Y-31640892D01*
X56800500Y-31509108D01*
X56766392Y-31381814D01*
X56765163Y-31379686D01*
X56747735Y-31349500D01*
X56700500Y-31267686D01*
X56607314Y-31174500D01*
X56549100Y-31140890D01*
X56493187Y-31108608D01*
X56429539Y-31091554D01*
X56365892Y-31074500D01*
X56234108Y-31074500D01*
X56106812Y-31108608D01*
X55992686Y-31174500D01*
X55992683Y-31174502D01*
X55899502Y-31267683D01*
X55899500Y-31267686D01*
X55833608Y-31381812D01*
X55799500Y-31509108D01*
X54300500Y-31509108D01*
X54266392Y-31381814D01*
X54265163Y-31379686D01*
X54247735Y-31349500D01*
X54200500Y-31267686D01*
X54107314Y-31174500D01*
X54049100Y-31140890D01*
X53993187Y-31108608D01*
X53929539Y-31091554D01*
X53865892Y-31074500D01*
X53734108Y-31074500D01*
X53606812Y-31108608D01*
X53492686Y-31174500D01*
X53492683Y-31174502D01*
X53399502Y-31267683D01*
X53399500Y-31267686D01*
X53333608Y-31381812D01*
X53299500Y-31509108D01*
X48475500Y-31509108D01*
X48441392Y-31381814D01*
X48440163Y-31379686D01*
X48422735Y-31349500D01*
X48375500Y-31267686D01*
X48282314Y-31174500D01*
X48224100Y-31140890D01*
X48168187Y-31108608D01*
X48104539Y-31091554D01*
X48040892Y-31074500D01*
X47909108Y-31074500D01*
X47781812Y-31108608D01*
X47667686Y-31174500D01*
X47667683Y-31174502D01*
X47574502Y-31267683D01*
X47574500Y-31267686D01*
X47508608Y-31381812D01*
X47474500Y-31509108D01*
X46075500Y-31509108D01*
X46041392Y-31381814D01*
X46040163Y-31379686D01*
X46022735Y-31349500D01*
X45975500Y-31267686D01*
X45882314Y-31174500D01*
X45824100Y-31140890D01*
X45768187Y-31108608D01*
X45704539Y-31091554D01*
X45640892Y-31074500D01*
X45509108Y-31074500D01*
X45381812Y-31108608D01*
X45267686Y-31174500D01*
X45267683Y-31174502D01*
X45174502Y-31267683D01*
X45174500Y-31267686D01*
X45108608Y-31381812D01*
X45074500Y-31509108D01*
X43620500Y-31509108D01*
X43620500Y-31484108D01*
X43586392Y-31356814D01*
X43520500Y-31242686D01*
X43427314Y-31149500D01*
X43356487Y-31108608D01*
X43313187Y-31083608D01*
X43259383Y-31069191D01*
X43185892Y-31049500D01*
X43054108Y-31049500D01*
X42926812Y-31083608D01*
X42812686Y-31149500D01*
X42812683Y-31149502D01*
X42719502Y-31242683D01*
X42719500Y-31242686D01*
X42653608Y-31356812D01*
X42639224Y-31410497D01*
X42619500Y-31484108D01*
X35292549Y-31484108D01*
X35165602Y-31439687D01*
X35165594Y-31439684D01*
X34968446Y-31394687D01*
X34902732Y-31379688D01*
X34902728Y-31379687D01*
X34902719Y-31379686D01*
X34634813Y-31349500D01*
X34634809Y-31349500D01*
X34365191Y-31349500D01*
X34365186Y-31349500D01*
X34097280Y-31379686D01*
X34097268Y-31379688D01*
X33834405Y-31439684D01*
X33834397Y-31439687D01*
X33579917Y-31528734D01*
X33337005Y-31645714D01*
X33108712Y-31789161D01*
X32897915Y-31957265D01*
X32707265Y-32147915D01*
X32539161Y-32358712D01*
X32395714Y-32587005D01*
X32278734Y-32829917D01*
X32189687Y-33084397D01*
X32189684Y-33084405D01*
X32129688Y-33347268D01*
X32129686Y-33347280D01*
X32099500Y-33615186D01*
X30067443Y-33615186D01*
X30077673Y-33380878D01*
X30078613Y-33370147D01*
X30127982Y-32995144D01*
X30129856Y-32984514D01*
X30211724Y-32615233D01*
X30214522Y-32604795D01*
X30328254Y-32244082D01*
X30331951Y-32233926D01*
X30476695Y-31884483D01*
X30481253Y-31874709D01*
X30655913Y-31539190D01*
X30661295Y-31529869D01*
X30864525Y-31210862D01*
X30870716Y-31202019D01*
X31018742Y-31009108D01*
X31574500Y-31009108D01*
X31574500Y-31140892D01*
X31576807Y-31149502D01*
X31608608Y-31268187D01*
X31636972Y-31317314D01*
X31674500Y-31382314D01*
X31767686Y-31475500D01*
X31828308Y-31510500D01*
X31878041Y-31539214D01*
X31881814Y-31541392D01*
X32009108Y-31575500D01*
X32009110Y-31575500D01*
X32140890Y-31575500D01*
X32140892Y-31575500D01*
X32268186Y-31541392D01*
X32382314Y-31475500D01*
X32475500Y-31382314D01*
X32541392Y-31268186D01*
X32575500Y-31140892D01*
X32575500Y-31009108D01*
X32558083Y-30944108D01*
X60599500Y-30944108D01*
X60599500Y-31075892D01*
X60608266Y-31108608D01*
X60633608Y-31203187D01*
X60656413Y-31242686D01*
X60699500Y-31317314D01*
X60792686Y-31410500D01*
X60906814Y-31476392D01*
X61034108Y-31510500D01*
X61034110Y-31510500D01*
X61165890Y-31510500D01*
X61165892Y-31510500D01*
X61293186Y-31476392D01*
X61407314Y-31410500D01*
X61500500Y-31317314D01*
X61566392Y-31203186D01*
X61574183Y-31174108D01*
X67189500Y-31174108D01*
X67189500Y-31305892D01*
X67192561Y-31317316D01*
X67223608Y-31433187D01*
X67227361Y-31439687D01*
X67289500Y-31547314D01*
X67382686Y-31640500D01*
X67496814Y-31706392D01*
X67624108Y-31740500D01*
X67624110Y-31740500D01*
X67755890Y-31740500D01*
X67755892Y-31740500D01*
X67883186Y-31706392D01*
X67997314Y-31640500D01*
X68090500Y-31547314D01*
X68156392Y-31433186D01*
X68190500Y-31305892D01*
X68190500Y-31174108D01*
X68156392Y-31046814D01*
X68090500Y-30932686D01*
X67997314Y-30839500D01*
X67940250Y-30806554D01*
X67883187Y-30773608D01*
X67819539Y-30756554D01*
X67755892Y-30739500D01*
X67624108Y-30739500D01*
X67496812Y-30773608D01*
X67382686Y-30839500D01*
X67382683Y-30839502D01*
X67289502Y-30932683D01*
X67289500Y-30932686D01*
X67223608Y-31046812D01*
X67200277Y-31133886D01*
X67189500Y-31174108D01*
X61574183Y-31174108D01*
X61600500Y-31075892D01*
X61600500Y-30944108D01*
X61566392Y-30816814D01*
X61500500Y-30702686D01*
X61407314Y-30609500D01*
X61346692Y-30574500D01*
X61293187Y-30543608D01*
X61229539Y-30526554D01*
X61165892Y-30509500D01*
X61034108Y-30509500D01*
X60906812Y-30543608D01*
X60792686Y-30609500D01*
X60792683Y-30609502D01*
X60699502Y-30702683D01*
X60699500Y-30702686D01*
X60633608Y-30816812D01*
X60616192Y-30881812D01*
X60599500Y-30944108D01*
X32558083Y-30944108D01*
X32541392Y-30881814D01*
X32475500Y-30767686D01*
X32382314Y-30674500D01*
X32325250Y-30641554D01*
X32268187Y-30608608D01*
X32204539Y-30591554D01*
X32140892Y-30574500D01*
X32009108Y-30574500D01*
X31881812Y-30608608D01*
X31767686Y-30674500D01*
X31767683Y-30674502D01*
X31674502Y-30767683D01*
X31674500Y-30767686D01*
X31608608Y-30881812D01*
X31591916Y-30944110D01*
X31574500Y-31009108D01*
X31018742Y-31009108D01*
X31100977Y-30901938D01*
X31107915Y-30893669D01*
X31363449Y-30614804D01*
X31371077Y-30607176D01*
X31649942Y-30351642D01*
X31658211Y-30344704D01*
X31958292Y-30114443D01*
X31967135Y-30108252D01*
X32122760Y-30009108D01*
X34174500Y-30009108D01*
X34174500Y-30140891D01*
X34208608Y-30268187D01*
X34241554Y-30325250D01*
X34274500Y-30382314D01*
X34367686Y-30475500D01*
X34481814Y-30541392D01*
X34609108Y-30575500D01*
X34609110Y-30575500D01*
X34740890Y-30575500D01*
X34740892Y-30575500D01*
X34868186Y-30541392D01*
X34982314Y-30475500D01*
X35075500Y-30382314D01*
X35141392Y-30268186D01*
X35175500Y-30140892D01*
X35175500Y-30009108D01*
X35141392Y-29881814D01*
X35075500Y-29767686D01*
X34982314Y-29674500D01*
X34925250Y-29641554D01*
X34868187Y-29608608D01*
X34804539Y-29591554D01*
X34740892Y-29574500D01*
X34609108Y-29574500D01*
X34481812Y-29608608D01*
X34367686Y-29674500D01*
X34367683Y-29674502D01*
X34274502Y-29767683D01*
X34274500Y-29767686D01*
X34208608Y-29881812D01*
X34174500Y-30009108D01*
X32122760Y-30009108D01*
X32286142Y-29905022D01*
X32295456Y-29899644D01*
X32630982Y-29724980D01*
X32640756Y-29720422D01*
X32990208Y-29575674D01*
X33000355Y-29571981D01*
X33361077Y-29458246D01*
X33371506Y-29455451D01*
X33740787Y-29373583D01*
X33751417Y-29371709D01*
X34126420Y-29322340D01*
X34137151Y-29321400D01*
X34517736Y-29304783D01*
X34523145Y-29304666D01*
X34568034Y-29304666D01*
X64952405Y-29304666D01*
X64997294Y-29304666D01*
X65002702Y-29304783D01*
G37*
%TD.AperFunction*%
%TD*%
M02*
