%TF.GenerationSoftware,KiCad,Pcbnew,10.0.1*%
%TF.CreationDate,2026-06-19T22:54:48+02:00*%
%TF.ProjectId,drone,64726f6e-652e-46b6-9963-61645f706362,rev?*%
%TF.SameCoordinates,Original*%
%TF.FileFunction,Soldermask,Top*%
%TF.FilePolarity,Negative*%
%FSLAX46Y46*%
G04 Gerber Fmt 4.6, Leading zero omitted, Abs format (unit mm)*
G04 Created by KiCad (PCBNEW 10.0.1) date 2026-06-19 22:54:48*
%MOMM*%
%LPD*%
G01*
G04 APERTURE LIST*
G04 Aperture macros list*
%AMRoundRect*
0 Rectangle with rounded corners*
0 $1 Rounding radius*
0 $2 $3 $4 $5 $6 $7 $8 $9 X,Y pos of 4 corners*
0 Add a 4 corners polygon primitive as box body*
4,1,4,$2,$3,$4,$5,$6,$7,$8,$9,$2,$3,0*
0 Add four circle primitives for the rounded corners*
1,1,$1+$1,$2,$3*
1,1,$1+$1,$4,$5*
1,1,$1+$1,$6,$7*
1,1,$1+$1,$8,$9*
0 Add four rect primitives between the rounded corners*
20,1,$1+$1,$2,$3,$4,$5,0*
20,1,$1+$1,$4,$5,$6,$7,0*
20,1,$1+$1,$6,$7,$8,$9,0*
20,1,$1+$1,$8,$9,$2,$3,0*%
G04 Aperture macros list end*
%ADD10C,4.300000*%
%ADD11R,1.000000X1.000000*%
%ADD12R,0.250000X0.675000*%
%ADD13R,0.675000X0.250000*%
%ADD14RoundRect,0.225000X0.525000X0.775000X-0.525000X0.775000X-0.525000X-0.775000X0.525000X-0.775000X0*%
%ADD15RoundRect,0.135000X-0.185000X0.135000X-0.185000X-0.135000X0.185000X-0.135000X0.185000X0.135000X0*%
%ADD16RoundRect,0.225000X-0.525000X-0.775000X0.525000X-0.775000X0.525000X0.775000X-0.525000X0.775000X0*%
%ADD17RoundRect,0.140000X0.170000X-0.140000X0.170000X0.140000X-0.170000X0.140000X-0.170000X-0.140000X0*%
%ADD18RoundRect,0.135000X0.185000X-0.135000X0.185000X0.135000X-0.185000X0.135000X-0.185000X-0.135000X0*%
%ADD19RoundRect,0.140000X-0.170000X0.140000X-0.170000X-0.140000X0.170000X-0.140000X0.170000X0.140000X0*%
%ADD20RoundRect,0.140000X0.140000X0.170000X-0.140000X0.170000X-0.140000X-0.170000X0.140000X-0.170000X0*%
%ADD21RoundRect,0.135000X0.135000X0.185000X-0.135000X0.185000X-0.135000X-0.185000X0.135000X-0.185000X0*%
%ADD22R,0.700000X1.700000*%
%ADD23RoundRect,0.150000X0.150000X-0.512500X0.150000X0.512500X-0.150000X0.512500X-0.150000X-0.512500X0*%
%ADD24RoundRect,0.140000X-0.140000X-0.170000X0.140000X-0.170000X0.140000X0.170000X-0.140000X0.170000X0*%
%ADD25RoundRect,0.250000X-0.250000X-0.475000X0.250000X-0.475000X0.250000X0.475000X-0.250000X0.475000X0*%
%ADD26RoundRect,0.135000X-0.135000X-0.185000X0.135000X-0.185000X0.135000X0.185000X-0.135000X0.185000X0*%
%ADD27R,1.400000X1.000000*%
%ADD28R,0.350000X0.500000*%
%ADD29RoundRect,0.055000X0.055000X0.335000X-0.055000X0.335000X-0.055000X-0.335000X0.055000X-0.335000X0*%
%ADD30RoundRect,0.055000X0.335000X-0.055000X0.335000X0.055000X-0.335000X0.055000X-0.335000X-0.055000X0*%
%ADD31C,0.600000*%
%ADD32R,1.133333X1.133333*%
%ADD33RoundRect,0.150000X-0.850000X0.350000X-0.850000X-0.350000X0.850000X-0.350000X0.850000X0.350000X0*%
%ADD34RoundRect,0.150000X-0.353553X0.848528X-0.848528X0.353553X0.353553X-0.848528X0.848528X-0.353553X0*%
%ADD35RoundRect,0.150000X0.350000X0.850000X-0.350000X0.850000X-0.350000X-0.850000X0.350000X-0.850000X0*%
%ADD36RoundRect,0.112500X-0.187500X-0.112500X0.187500X-0.112500X0.187500X0.112500X-0.187500X0.112500X0*%
%ADD37RoundRect,0.150000X0.850000X-0.350000X0.850000X0.350000X-0.850000X0.350000X-0.850000X-0.350000X0*%
%ADD38RoundRect,0.150000X0.353553X-0.848528X0.848528X-0.353553X-0.353553X0.848528X-0.848528X0.353553X0*%
%ADD39RoundRect,0.150000X-0.350000X-0.850000X0.350000X-0.850000X0.350000X0.850000X-0.350000X0.850000X0*%
%ADD40RoundRect,0.250000X0.250000X0.475000X-0.250000X0.475000X-0.250000X-0.475000X0.250000X-0.475000X0*%
%ADD41R,1.360000X1.230000*%
%ADD42RoundRect,0.100000X-0.225000X-0.100000X0.225000X-0.100000X0.225000X0.100000X-0.225000X0.100000X0*%
%ADD43RoundRect,0.125000X0.125000X-0.250000X0.125000X0.250000X-0.125000X0.250000X-0.125000X-0.250000X0*%
%ADD44R,4.300000X3.400000*%
%ADD45RoundRect,0.250000X0.475000X-0.250000X0.475000X0.250000X-0.475000X0.250000X-0.475000X-0.250000X0*%
%ADD46O,1.500000X0.330000*%
%ADD47RoundRect,0.150000X-0.848528X-0.353553X-0.353553X-0.848528X0.848528X0.353553X0.353553X0.848528X0*%
%ADD48RoundRect,0.125000X0.125000X-0.175000X0.125000X0.175000X-0.125000X0.175000X-0.125000X-0.175000X0*%
%ADD49O,0.330000X1.500000*%
%ADD50RoundRect,0.150000X0.587500X0.150000X-0.587500X0.150000X-0.587500X-0.150000X0.587500X-0.150000X0*%
%ADD51RoundRect,0.218750X-0.256250X0.218750X-0.256250X-0.218750X0.256250X-0.218750X0.256250X0.218750X0*%
%ADD52C,0.650000*%
%ADD53R,1.240000X0.600000*%
%ADD54R,1.240000X0.300000*%
%ADD55O,2.100000X1.000000*%
%ADD56O,1.800000X1.000000*%
%ADD57RoundRect,0.100000X0.100000X-0.225000X0.100000X0.225000X-0.100000X0.225000X-0.100000X-0.225000X0*%
%ADD58RoundRect,0.150000X0.848528X0.353553X0.353553X0.848528X-0.848528X-0.353553X-0.353553X-0.848528X0*%
%ADD59RoundRect,0.250000X-0.475000X0.250000X-0.475000X-0.250000X0.475000X-0.250000X0.475000X0.250000X0*%
%ADD60RoundRect,0.250000X0.350000X-0.450000X0.350000X0.450000X-0.350000X0.450000X-0.350000X-0.450000X0*%
G04 APERTURE END LIST*
D10*
%TO.C,REF\u002A\u002A*%
X34500000Y-33750000D03*
%TD*%
%TO.C,REF\u002A\u002A*%
X65000000Y-64250000D03*
%TD*%
D11*
%TO.C,J32*%
X31150000Y-36390000D03*
%TD*%
%TO.C,J31*%
X62490000Y-30190000D03*
%TD*%
%TO.C,J30*%
X68480000Y-61650000D03*
%TD*%
D12*
%TO.C,U5*%
X57092500Y-44005000D03*
X57592500Y-44005000D03*
X58092500Y-44005000D03*
D13*
X58855000Y-44267500D03*
X58855000Y-44767500D03*
X58855000Y-45267500D03*
X58855000Y-45767500D03*
D12*
X58092500Y-46030000D03*
X57592500Y-46030000D03*
X57092500Y-46030000D03*
D13*
X56330000Y-45767500D03*
X56330000Y-45267500D03*
X56330000Y-44767500D03*
X56330000Y-44267500D03*
%TD*%
D14*
%TO.C,J13*%
X47975000Y-31575000D03*
%TD*%
D15*
%TO.C,R24*%
X48650000Y-36625000D03*
X48650000Y-37645000D03*
%TD*%
D16*
%TO.C,J16*%
X44825000Y-66350000D03*
%TD*%
%TO.C,J5*%
X40325000Y-66350000D03*
%TD*%
D17*
%TO.C,C31*%
X40775000Y-48030000D03*
X40775000Y-47070000D03*
%TD*%
D10*
%TO.C,REF\u002A\u002A*%
X34500000Y-64250000D03*
%TD*%
D18*
%TO.C,R11*%
X39975000Y-40210000D03*
X39975000Y-39190000D03*
%TD*%
D15*
%TO.C,R15*%
X38925000Y-45690000D03*
X38925000Y-46710000D03*
%TD*%
D16*
%TO.C,J7*%
X44450000Y-62625000D03*
%TD*%
D19*
%TO.C,C37*%
X33200000Y-50665000D03*
X33200000Y-51625000D03*
%TD*%
D15*
%TO.C,R29*%
X55250000Y-42765000D03*
X55250000Y-43785000D03*
%TD*%
D17*
%TO.C,C12*%
X54075000Y-43455000D03*
X54075000Y-42495000D03*
%TD*%
D20*
%TO.C,C3*%
X43425000Y-45750000D03*
X42465000Y-45750000D03*
%TD*%
D21*
%TO.C,R10*%
X66085000Y-59175000D03*
X65065000Y-59175000D03*
%TD*%
D16*
%TO.C,J27*%
X56300000Y-31575000D03*
%TD*%
D22*
%TO.C,L3*%
X41900000Y-47275000D03*
X43300000Y-47275000D03*
%TD*%
D14*
%TO.C,J8*%
X45575000Y-31575000D03*
%TD*%
D23*
%TO.C,U2*%
X60337500Y-41937500D03*
X61287500Y-41937500D03*
X62237500Y-41937500D03*
X62237500Y-39662500D03*
X60337500Y-39662500D03*
%TD*%
D19*
%TO.C,C40*%
X51400000Y-59670000D03*
X51400000Y-60630000D03*
%TD*%
D24*
%TO.C,C22*%
X61820000Y-47275000D03*
X62780000Y-47275000D03*
%TD*%
D17*
%TO.C,C27*%
X61800000Y-46320000D03*
X61800000Y-45360000D03*
%TD*%
D25*
%TO.C,C14*%
X60362500Y-43875000D03*
X62262500Y-43875000D03*
%TD*%
D24*
%TO.C,C2*%
X57345000Y-49475000D03*
X58305000Y-49475000D03*
%TD*%
D16*
%TO.C,J6*%
X46950000Y-62625000D03*
%TD*%
D24*
%TO.C,C42*%
X56840000Y-53280000D03*
X57800000Y-53280000D03*
%TD*%
D16*
%TO.C,J28*%
X51300000Y-31575000D03*
%TD*%
%TO.C,J18*%
X49325000Y-66350000D03*
%TD*%
%TO.C,J25*%
X56725000Y-65900000D03*
%TD*%
D19*
%TO.C,C16*%
X31625000Y-58170000D03*
X31625000Y-59130000D03*
%TD*%
D16*
%TO.C,J17*%
X47075000Y-66350000D03*
%TD*%
%TO.C,J23*%
X52225000Y-65900000D03*
%TD*%
D26*
%TO.C,R26*%
X57290000Y-50525000D03*
X58310000Y-50525000D03*
%TD*%
D15*
%TO.C,R1*%
X32200000Y-55005000D03*
X32200000Y-56025000D03*
%TD*%
D16*
%TO.C,J3*%
X49325000Y-62625000D03*
%TD*%
D27*
%TO.C,D3*%
X58265000Y-35485000D03*
X58265000Y-37585000D03*
%TD*%
D15*
%TO.C,R13*%
X60025000Y-35200000D03*
X60025000Y-36220000D03*
%TD*%
D19*
%TO.C,C49*%
X47375000Y-58220000D03*
X47375000Y-59180000D03*
%TD*%
D28*
%TO.C,U8*%
X55575000Y-41350000D03*
X54925000Y-41350000D03*
X54275000Y-41350000D03*
X53625000Y-41350000D03*
X53625000Y-39750000D03*
X54275000Y-39750000D03*
X54925000Y-39750000D03*
X55575000Y-39750000D03*
%TD*%
D16*
%TO.C,J29*%
X58800000Y-31575000D03*
%TD*%
%TO.C,J1*%
X42025000Y-62625000D03*
%TD*%
%TO.C,J26*%
X53800000Y-31575000D03*
%TD*%
D29*
%TO.C,U4*%
X46225000Y-55871500D03*
X46625000Y-55871500D03*
X47025000Y-55871500D03*
X47425000Y-55871500D03*
X47825000Y-55871500D03*
X48225000Y-55871500D03*
X48625000Y-55871500D03*
X49025000Y-55871500D03*
X49425000Y-55871500D03*
X49825000Y-55871500D03*
X50225000Y-55871500D03*
X50625000Y-55871500D03*
X51025000Y-55871500D03*
X51425000Y-55871500D03*
X51825000Y-55871500D03*
X52225000Y-55871500D03*
X52625000Y-55871500D03*
X53025000Y-55871500D03*
X53425000Y-55871500D03*
X53825000Y-55871500D03*
D30*
X54921500Y-54775000D03*
X54921500Y-54375000D03*
X54921500Y-53975000D03*
X54921500Y-53575000D03*
X54921500Y-53175000D03*
X54921500Y-52775000D03*
X54921500Y-52375000D03*
X54921500Y-51975000D03*
X54921500Y-51575000D03*
X54921500Y-51175000D03*
X54921500Y-50775000D03*
X54921500Y-50375000D03*
X54921500Y-49975000D03*
X54921500Y-49575000D03*
X54921500Y-49175000D03*
X54921500Y-48775000D03*
X54921500Y-48375000D03*
X54921500Y-47975000D03*
X54921500Y-47575000D03*
X54921500Y-47175000D03*
D29*
X53825000Y-46078500D03*
X53425000Y-46078500D03*
X53025000Y-46078500D03*
X52625000Y-46078500D03*
X52225000Y-46078500D03*
X51825000Y-46078500D03*
X51425000Y-46078500D03*
X51025000Y-46078500D03*
X50625000Y-46078500D03*
X50225000Y-46078500D03*
X49825000Y-46078500D03*
X49425000Y-46078500D03*
X49025000Y-46078500D03*
X48625000Y-46078500D03*
X48225000Y-46078500D03*
X47825000Y-46078500D03*
X47425000Y-46078500D03*
X47025000Y-46078500D03*
X46625000Y-46078500D03*
X46225000Y-46078500D03*
D30*
X45128500Y-47175000D03*
X45128500Y-47575000D03*
X45128500Y-47975000D03*
X45128500Y-48375000D03*
X45128500Y-48775000D03*
X45128500Y-49175000D03*
X45128500Y-49575000D03*
X45128500Y-49975000D03*
X45128500Y-50375000D03*
X45128500Y-50775000D03*
X45128500Y-51175000D03*
X45128500Y-51575000D03*
X45128500Y-51975000D03*
X45128500Y-52375000D03*
X45128500Y-52775000D03*
X45128500Y-53175000D03*
X45128500Y-53575000D03*
X45128500Y-53975000D03*
X45128500Y-54375000D03*
X45128500Y-54775000D03*
D31*
X48891667Y-52108333D03*
D32*
X48891667Y-52108333D03*
D31*
X50025000Y-52108333D03*
D32*
X50025000Y-52108333D03*
D31*
X51158333Y-52108333D03*
D32*
X51158333Y-52108333D03*
D31*
X48891667Y-50975000D03*
D32*
X48891667Y-50975000D03*
D31*
X50025000Y-50975000D03*
D32*
X50025000Y-50975000D03*
D31*
X51158333Y-50975000D03*
D32*
X51158333Y-50975000D03*
D31*
X48891667Y-49841667D03*
D32*
X48891667Y-49841667D03*
D31*
X50025000Y-49841667D03*
D32*
X50025000Y-49841667D03*
D31*
X51158333Y-49841667D03*
D32*
X51158333Y-49841667D03*
%TD*%
D15*
%TO.C,R27*%
X50850000Y-36625000D03*
X50850000Y-37645000D03*
%TD*%
D33*
%TO.C,J19*%
X34350000Y-67800000D03*
D34*
X31750000Y-66800000D03*
D35*
X30750000Y-64200000D03*
%TD*%
D10*
%TO.C,REF\u002A\u002A*%
X65000000Y-33750000D03*
%TD*%
D26*
%TO.C,R7*%
X59815000Y-56275000D03*
X60835000Y-56275000D03*
%TD*%
D19*
%TO.C,C47*%
X56625000Y-39670000D03*
X56625000Y-40630000D03*
%TD*%
D36*
%TO.C,D4*%
X32925000Y-58525000D03*
X35025000Y-58525000D03*
%TD*%
D37*
%TO.C,J21*%
X64675000Y-30125000D03*
D38*
X67675000Y-31325000D03*
D39*
X68675000Y-34325000D03*
%TD*%
D24*
%TO.C,C33*%
X63150000Y-59175000D03*
X64110000Y-59175000D03*
%TD*%
D18*
%TO.C,R2*%
X65500000Y-40285000D03*
X65500000Y-39265000D03*
%TD*%
D15*
%TO.C,R22*%
X45350000Y-36625000D03*
X45350000Y-37645000D03*
%TD*%
D20*
%TO.C,C39*%
X42272500Y-43000000D03*
X41312500Y-43000000D03*
%TD*%
D40*
%TO.C,C23*%
X68200000Y-50350000D03*
X66300000Y-50350000D03*
%TD*%
D41*
%TO.C,SW2*%
X67875000Y-39370000D03*
X67875000Y-43730000D03*
%TD*%
D17*
%TO.C,C21*%
X49500000Y-43680000D03*
X49500000Y-42720000D03*
%TD*%
D42*
%TO.C,U10*%
X52575000Y-59000000D03*
X52575000Y-59650000D03*
X52575000Y-60300000D03*
X54475000Y-60300000D03*
X54475000Y-59650000D03*
X54475000Y-59000000D03*
%TD*%
D16*
%TO.C,J15*%
X42575000Y-66350000D03*
%TD*%
D43*
%TO.C,U3*%
X34620000Y-56025000D03*
X35890000Y-56025000D03*
X37160000Y-56025000D03*
X38430000Y-56025000D03*
X38430000Y-50625000D03*
X37160000Y-50625000D03*
X35890000Y-50625000D03*
X34620000Y-50625000D03*
D44*
X36525000Y-53325000D03*
%TD*%
D16*
%TO.C,J4*%
X58975000Y-65900000D03*
%TD*%
D17*
%TO.C,C6*%
X51360000Y-43710000D03*
X51360000Y-42750000D03*
%TD*%
D19*
%TO.C,C35*%
X61750000Y-55270000D03*
X61750000Y-56230000D03*
%TD*%
D45*
%TO.C,C24*%
X64550000Y-48225000D03*
X64550000Y-46325000D03*
%TD*%
D46*
%TO.C,U1*%
X57650000Y-57645000D03*
X57650000Y-58295000D03*
X57650000Y-58955000D03*
X57650000Y-59605000D03*
X60150000Y-59605000D03*
X60150000Y-58955000D03*
X60150000Y-58295000D03*
X60150000Y-57645000D03*
%TD*%
D18*
%TO.C,R3*%
X55625000Y-60820000D03*
X55625000Y-59800000D03*
%TD*%
D39*
%TO.C,J20*%
X68500000Y-64150000D03*
D47*
X67500000Y-66750000D03*
D33*
X64900000Y-67750000D03*
%TD*%
D17*
%TO.C,C5*%
X46325000Y-43705000D03*
X46325000Y-42745000D03*
%TD*%
D19*
%TO.C,C11*%
X50420000Y-42750000D03*
X50420000Y-43710000D03*
%TD*%
D21*
%TO.C,R6*%
X58960000Y-56275000D03*
X57940000Y-56275000D03*
%TD*%
D15*
%TO.C,R12*%
X60025000Y-37075000D03*
X60025000Y-38095000D03*
%TD*%
D14*
%TO.C,J14*%
X40675000Y-31575000D03*
%TD*%
%TO.C,J9*%
X43075000Y-31575000D03*
%TD*%
D15*
%TO.C,R28*%
X51820000Y-36625000D03*
X51820000Y-37645000D03*
%TD*%
D24*
%TO.C,C41*%
X41010000Y-38650000D03*
X41970000Y-38650000D03*
%TD*%
D18*
%TO.C,R4*%
X43212500Y-38685000D03*
X43212500Y-37665000D03*
%TD*%
D48*
%TO.C,Q2*%
X41062500Y-37637500D03*
X42062500Y-37637500D03*
X41562500Y-36337500D03*
%TD*%
D41*
%TO.C,SW1*%
X67900000Y-54370000D03*
X67900000Y-58730000D03*
%TD*%
D15*
%TO.C,R25*%
X33200000Y-55005000D03*
X33200000Y-56025000D03*
%TD*%
%TO.C,R21*%
X48250000Y-42715000D03*
X48250000Y-43735000D03*
%TD*%
D26*
%TO.C,R8*%
X42415000Y-44800000D03*
X43435000Y-44800000D03*
%TD*%
D20*
%TO.C,C7*%
X42730000Y-48800000D03*
X41770000Y-48800000D03*
%TD*%
D49*
%TO.C,U7*%
X65100000Y-55150000D03*
X64450000Y-55150000D03*
X63790000Y-55150000D03*
X63140000Y-55150000D03*
X63140000Y-57650000D03*
X63790000Y-57650000D03*
X64450000Y-57650000D03*
X65100000Y-57650000D03*
%TD*%
D23*
%TO.C,U6*%
X66325000Y-48412500D03*
X67275000Y-48412500D03*
X68225000Y-48412500D03*
X68225000Y-46137500D03*
X66325000Y-46137500D03*
%TD*%
D24*
%TO.C,C32*%
X64415000Y-53650000D03*
X65375000Y-53650000D03*
%TD*%
D27*
%TO.C,D1*%
X56000000Y-35485000D03*
X56000000Y-37585000D03*
%TD*%
D17*
%TO.C,C9*%
X59350000Y-50280000D03*
X59350000Y-49320000D03*
%TD*%
D50*
%TO.C,Q1*%
X40207500Y-60450000D03*
X40207500Y-58550000D03*
X38332500Y-59500000D03*
%TD*%
D24*
%TO.C,C43*%
X53570000Y-57400000D03*
X54530000Y-57400000D03*
%TD*%
D16*
%TO.C,J24*%
X54475000Y-65900000D03*
%TD*%
D20*
%TO.C,C46*%
X54455000Y-38750000D03*
X53495000Y-38750000D03*
%TD*%
D21*
%TO.C,R5*%
X57070000Y-56275000D03*
X56050000Y-56275000D03*
%TD*%
D19*
%TO.C,C10*%
X59350000Y-51745000D03*
X59350000Y-52705000D03*
%TD*%
D51*
%TO.C,D2*%
X39587500Y-36462500D03*
X39587500Y-38037500D03*
%TD*%
D19*
%TO.C,C8*%
X50025000Y-58245000D03*
X50025000Y-59205000D03*
%TD*%
D17*
%TO.C,C28*%
X56025000Y-58305000D03*
X56025000Y-57345000D03*
%TD*%
D24*
%TO.C,C38*%
X56540000Y-60730000D03*
X57500000Y-60730000D03*
%TD*%
%TO.C,C29*%
X58395000Y-60600000D03*
X59355000Y-60600000D03*
%TD*%
D15*
%TO.C,R19*%
X47300000Y-42715000D03*
X47300000Y-43735000D03*
%TD*%
D20*
%TO.C,C4*%
X43055000Y-53850000D03*
X42095000Y-53850000D03*
%TD*%
D15*
%TO.C,R20*%
X44250000Y-36625000D03*
X44250000Y-37645000D03*
%TD*%
D17*
%TO.C,C15*%
X49725000Y-37610000D03*
X49725000Y-36650000D03*
%TD*%
D15*
%TO.C,R23*%
X46450000Y-36625000D03*
X46450000Y-37645000D03*
%TD*%
D52*
%TO.C,USB1*%
X36145000Y-41010000D03*
X36145000Y-46790000D03*
D53*
X37265000Y-40700000D03*
X37265000Y-41500000D03*
D54*
X37265000Y-42650000D03*
X37265000Y-43650000D03*
X37265000Y-44150000D03*
X37265000Y-45150000D03*
D53*
X37265000Y-46300000D03*
X37265000Y-47100000D03*
X37265000Y-47100000D03*
X37265000Y-46300000D03*
D54*
X37265000Y-45650000D03*
X37265000Y-44650000D03*
X37265000Y-43150000D03*
X37265000Y-42150000D03*
D53*
X37265000Y-41500000D03*
X37265000Y-40700000D03*
D55*
X36665000Y-39580000D03*
D56*
X32465000Y-39580000D03*
D55*
X36665000Y-48220000D03*
D56*
X32465000Y-48220000D03*
%TD*%
D16*
%TO.C,J10*%
X52225000Y-63150000D03*
%TD*%
D24*
%TO.C,C26*%
X57170000Y-47150000D03*
X58130000Y-47150000D03*
%TD*%
D57*
%TO.C,U9*%
X41300000Y-41775000D03*
X41950000Y-41775000D03*
X42600000Y-41775000D03*
X42600000Y-39875000D03*
X41950000Y-39875000D03*
X41300000Y-39875000D03*
%TD*%
D16*
%TO.C,J11*%
X54475000Y-63150000D03*
%TD*%
D17*
%TO.C,C17*%
X61720000Y-60050000D03*
X61720000Y-59090000D03*
%TD*%
%TO.C,C45*%
X56625000Y-42480000D03*
X56625000Y-41520000D03*
%TD*%
D20*
%TO.C,C1*%
X42450000Y-50725000D03*
X41490000Y-50725000D03*
%TD*%
D35*
%TO.C,J22*%
X31075000Y-33675000D03*
D58*
X32075000Y-31075000D03*
D37*
X34675000Y-30075000D03*
%TD*%
D59*
%TO.C,C13*%
X58537500Y-39700000D03*
X58537500Y-41600000D03*
%TD*%
D24*
%TO.C,C51*%
X56845000Y-51900000D03*
X57805000Y-51900000D03*
%TD*%
D18*
%TO.C,R30*%
X52530000Y-40870000D03*
X52530000Y-39850000D03*
%TD*%
D60*
%TO.C,Y1*%
X62550000Y-52100000D03*
X62550000Y-49900000D03*
X60850000Y-49900000D03*
X60850000Y-52100000D03*
%TD*%
D25*
%TO.C,C48*%
X57620000Y-54760000D03*
X59520000Y-54760000D03*
%TD*%
D17*
%TO.C,C25*%
X60850000Y-46320000D03*
X60850000Y-45360000D03*
%TD*%
D45*
%TO.C,C44*%
X44850000Y-43400000D03*
X44850000Y-41500000D03*
%TD*%
D15*
%TO.C,R16*%
X38975000Y-41565000D03*
X38975000Y-42585000D03*
%TD*%
M02*
