%TF.GenerationSoftware,KiCad,Pcbnew,10.0.1*%
%TF.CreationDate,2026-06-19T22:59:04+02:00*%
%TF.ProjectId,esc,6573632e-6b69-4636-9164-5f7063625858,rev?*%
%TF.SameCoordinates,Original*%
%TF.FileFunction,Paste,Top*%
%TF.FilePolarity,Positive*%
%FSLAX46Y46*%
G04 Gerber Fmt 4.6, Leading zero omitted, Abs format (unit mm)*
G04 Created by KiCad (PCBNEW 10.0.1) date 2026-06-19 22:59:04*
%MOMM*%
%LPD*%
G01*
G04 APERTURE LIST*
G04 Aperture macros list*
%AMRoundRect*
0 Rectangle with rounded corners*
0 $1 Rounding radius*
0 $2 $3 $4 $5 $6 $7 $8 $9 X,Y pos of 4 corners*
0 Add a 4 corners polygon primitive as box body*
4,1,4,$2,$3,$4,$5,$6,$7,$8,$9,$2,$3,0*
0 Add four circle primitives for the rounded corners*
1,1,$1+$1,$2,$3*
1,1,$1+$1,$4,$5*
1,1,$1+$1,$6,$7*
1,1,$1+$1,$8,$9*
0 Add four rect primitives between the rounded corners*
20,1,$1+$1,$2,$3,$4,$5,0*
20,1,$1+$1,$4,$5,$6,$7,0*
20,1,$1+$1,$6,$7,$8,$9,0*
20,1,$1+$1,$8,$9,$2,$3,0*%
G04 Aperture macros list end*
%ADD10RoundRect,0.250000X0.475000X-0.250000X0.475000X0.250000X-0.475000X0.250000X-0.475000X-0.250000X0*%
%ADD11RoundRect,0.135000X0.185000X-0.135000X0.185000X0.135000X-0.185000X0.135000X-0.185000X-0.135000X0*%
%ADD12R,1.200000X0.580000*%
%ADD13R,3.800000X4.400000*%
%ADD14RoundRect,0.150000X0.625000X-0.150000X0.625000X0.150000X-0.625000X0.150000X-0.625000X-0.150000X0*%
%ADD15RoundRect,0.250000X0.650000X-0.350000X0.650000X0.350000X-0.650000X0.350000X-0.650000X-0.350000X0*%
%ADD16RoundRect,0.135000X-0.135000X-0.185000X0.135000X-0.185000X0.135000X0.185000X-0.135000X0.185000X0*%
%ADD17R,0.580000X1.200000*%
%ADD18R,4.400000X3.800000*%
%ADD19R,2.600000X4.000000*%
%ADD20RoundRect,0.218750X-0.218750X-0.256250X0.218750X-0.256250X0.218750X0.256250X-0.218750X0.256250X0*%
%ADD21RoundRect,0.135000X0.135000X0.185000X-0.135000X0.185000X-0.135000X-0.185000X0.135000X-0.185000X0*%
%ADD22RoundRect,0.135000X-0.185000X0.135000X-0.185000X-0.135000X0.185000X-0.135000X0.185000X0.135000X0*%
%ADD23RoundRect,0.250000X0.250000X0.475000X-0.250000X0.475000X-0.250000X-0.475000X0.250000X-0.475000X0*%
%ADD24RoundRect,0.250000X-0.900000X1.000000X-0.900000X-1.000000X0.900000X-1.000000X0.900000X1.000000X0*%
%ADD25RoundRect,0.250000X-0.475000X0.250000X-0.475000X-0.250000X0.475000X-0.250000X0.475000X0.250000X0*%
%ADD26RoundRect,0.250000X-0.250000X-0.475000X0.250000X-0.475000X0.250000X0.475000X-0.250000X0.475000X0*%
%ADD27RoundRect,0.195000X-2.205000X-0.455000X2.205000X-0.455000X2.205000X0.455000X-2.205000X0.455000X0*%
G04 APERTURE END LIST*
D10*
%TO.C,C65*%
X64827150Y-67967588D03*
X64827150Y-66067588D03*
%TD*%
D11*
%TO.C,R56*%
X63497150Y-45880117D03*
X63497150Y-44860117D03*
%TD*%
D12*
%TO.C,Q15*%
X74426395Y-54850117D03*
X74426395Y-53580117D03*
D13*
X76526395Y-52950117D03*
D12*
X74426395Y-52310117D03*
X74426395Y-51040117D03*
X79926395Y-51050117D03*
X79926395Y-54860117D03*
X79926395Y-53590117D03*
X79926395Y-52320117D03*
%TD*%
%TO.C,Q21*%
X51337150Y-51321402D03*
X51337150Y-52591402D03*
D13*
X49237150Y-53221402D03*
D12*
X51337150Y-53861402D03*
X51337150Y-55131402D03*
X45837150Y-55121402D03*
X45837150Y-51311402D03*
X45837150Y-52581402D03*
X45837150Y-53851402D03*
%TD*%
D14*
%TO.C,J4*%
X83207150Y-64605550D03*
X83207150Y-63605550D03*
X83207150Y-62605550D03*
X83207150Y-61605550D03*
X83207150Y-60605550D03*
X83207150Y-59605550D03*
X83207150Y-58605550D03*
X83207150Y-57605550D03*
D15*
X87082150Y-65905550D03*
X87082150Y-56305550D03*
%TD*%
D16*
%TO.C,R58*%
X80410000Y-50300000D03*
X81430000Y-50300000D03*
%TD*%
D17*
%TO.C,Q7*%
X58211310Y-69622617D03*
X59481310Y-69622617D03*
D18*
X60111310Y-71722617D03*
D17*
X60751310Y-69622617D03*
X62021310Y-69622617D03*
X62011310Y-75122617D03*
X58201310Y-75122617D03*
X59471310Y-75122617D03*
X60741310Y-75122617D03*
%TD*%
D12*
%TO.C,Q9*%
X51342151Y-67134851D03*
X51342151Y-68404851D03*
D13*
X49242151Y-69034851D03*
D12*
X51342151Y-69674851D03*
X51342151Y-70944851D03*
X45842151Y-70934851D03*
X45842151Y-67124851D03*
X45842151Y-68394851D03*
X45842151Y-69664851D03*
%TD*%
D19*
%TO.C,J21*%
X65511310Y-78520117D03*
X68711310Y-78520117D03*
X71911310Y-78520117D03*
%TD*%
D17*
%TO.C,Q1*%
X63526310Y-69622617D03*
X64796310Y-69622617D03*
D18*
X65426310Y-71722617D03*
D17*
X66066310Y-69622617D03*
X67336310Y-69622617D03*
X67326310Y-75122617D03*
X63516310Y-75122617D03*
X64786310Y-75122617D03*
X66056310Y-75122617D03*
%TD*%
D20*
%TO.C,D5*%
X75137150Y-56680117D03*
X76712150Y-56680117D03*
%TD*%
D19*
%TO.C,J1*%
X59986310Y-78520117D03*
X56786310Y-78520117D03*
X53586310Y-78520117D03*
%TD*%
D11*
%TO.C,R37*%
X51717150Y-73130117D03*
X51717150Y-72110117D03*
%TD*%
D21*
%TO.C,R78*%
X44647150Y-55160117D03*
X43627150Y-55160117D03*
%TD*%
D17*
%TO.C,Q20*%
X56661310Y-52582617D03*
X55391310Y-52582617D03*
D18*
X54761310Y-50482617D03*
D17*
X54121310Y-52582617D03*
X52851310Y-52582617D03*
X52861310Y-47082617D03*
X56671310Y-47082617D03*
X55401310Y-47082617D03*
X54131310Y-47082617D03*
%TD*%
D22*
%TO.C,R57*%
X73757150Y-48660117D03*
X73757150Y-49680117D03*
%TD*%
D17*
%TO.C,Q13*%
X67311310Y-52582617D03*
X66041310Y-52582617D03*
D18*
X65411310Y-50482617D03*
D17*
X64771310Y-52582617D03*
X63501310Y-52582617D03*
X63511310Y-47082617D03*
X67321310Y-47082617D03*
X66051310Y-47082617D03*
X64781310Y-47082617D03*
%TD*%
D23*
%TO.C,C68*%
X47897150Y-65630117D03*
X45997150Y-65630117D03*
%TD*%
D24*
%TO.C,D15*%
X46207150Y-58827101D03*
X46207150Y-63127101D03*
%TD*%
D22*
%TO.C,R36*%
X62127150Y-76527617D03*
X62127150Y-77547617D03*
%TD*%
%TO.C,R77*%
X51737150Y-48790117D03*
X51737150Y-49810117D03*
%TD*%
D16*
%TO.C,R8*%
X81077150Y-67090117D03*
X82097150Y-67090117D03*
%TD*%
D25*
%TO.C,C63*%
X63117150Y-54052446D03*
X63117150Y-55952446D03*
%TD*%
D26*
%TO.C,C66*%
X50107150Y-60280117D03*
X52007150Y-60280117D03*
%TD*%
D11*
%TO.C,R6*%
X73927150Y-73007617D03*
X73927150Y-71987617D03*
%TD*%
D17*
%TO.C,Q14*%
X72636310Y-52582617D03*
X71366310Y-52582617D03*
D18*
X70736310Y-50482617D03*
D17*
X70096310Y-52582617D03*
X68826310Y-52582617D03*
X68836310Y-47082617D03*
X72646310Y-47082617D03*
X71376310Y-47082617D03*
X70106310Y-47082617D03*
%TD*%
%TO.C,Q3*%
X68851311Y-69622618D03*
X70121311Y-69622618D03*
D18*
X70751311Y-71722618D03*
D17*
X71391311Y-69622618D03*
X72661311Y-69622618D03*
X72651311Y-75122618D03*
X68841311Y-75122618D03*
X70111311Y-75122618D03*
X71381311Y-75122618D03*
%TD*%
D25*
%TO.C,C64*%
X64827150Y-54056851D03*
X64827150Y-55956851D03*
%TD*%
D10*
%TO.C,C67*%
X63117150Y-67968399D03*
X63117150Y-66068399D03*
%TD*%
D19*
%TO.C,J2*%
X65523878Y-43440117D03*
X68723878Y-43440117D03*
X71923878Y-43440117D03*
%TD*%
D12*
%TO.C,Q5*%
X74417150Y-70937617D03*
X74417150Y-69667617D03*
D13*
X76517150Y-69037617D03*
D12*
X74417150Y-68397617D03*
X74417150Y-67127617D03*
X79917150Y-67137617D03*
X79917150Y-70947617D03*
X79917150Y-69677617D03*
X79917150Y-68407617D03*
%TD*%
D11*
%TO.C,R76*%
X62537150Y-45430117D03*
X62537150Y-44410117D03*
%TD*%
D17*
%TO.C,Q19*%
X61986310Y-52582617D03*
X60716310Y-52582617D03*
D18*
X60086310Y-50482617D03*
D17*
X59446310Y-52582617D03*
X58176310Y-52582617D03*
X58186310Y-47082617D03*
X61996310Y-47082617D03*
X60726310Y-47082617D03*
X59456310Y-47082617D03*
%TD*%
D10*
%TO.C,C60*%
X61417150Y-67970117D03*
X61417150Y-66070117D03*
%TD*%
D25*
%TO.C,C62*%
X61407150Y-54060117D03*
X61407150Y-55960117D03*
%TD*%
D26*
%TO.C,C61*%
X50107150Y-58320117D03*
X52007150Y-58320117D03*
%TD*%
%TO.C,C34*%
X75157150Y-58650117D03*
X77057150Y-58650117D03*
%TD*%
%TO.C,C59*%
X50107149Y-62240117D03*
X52007149Y-62240117D03*
%TD*%
D22*
%TO.C,R4*%
X63097150Y-77360117D03*
X63097150Y-78380117D03*
%TD*%
D19*
%TO.C,J3*%
X59991901Y-43431866D03*
X56791901Y-43431866D03*
X53591901Y-43431866D03*
%TD*%
D27*
%TO.C,L1*%
X77060000Y-61325000D03*
X77060000Y-64675000D03*
%TD*%
D10*
%TO.C,C79*%
X80907150Y-65000117D03*
X80907150Y-63100117D03*
%TD*%
D17*
%TO.C,Q8*%
X52886310Y-69622617D03*
X54156310Y-69622617D03*
D18*
X54786310Y-71722617D03*
D17*
X55426310Y-69622617D03*
X56696310Y-69622617D03*
X56686310Y-75122617D03*
X52876310Y-75122617D03*
X54146310Y-75122617D03*
X55416310Y-75122617D03*
%TD*%
M02*
