%TF.GenerationSoftware,KiCad,Pcbnew,10.0.1*%
%TF.CreationDate,2026-06-19T22:59:04+02:00*%
%TF.ProjectId,esc,6573632e-6b69-4636-9164-5f7063625858,rev?*%
%TF.SameCoordinates,Original*%
%TF.FileFunction,Paste,Bot*%
%TF.FilePolarity,Positive*%
%FSLAX46Y46*%
G04 Gerber Fmt 4.6, Leading zero omitted, Abs format (unit mm)*
G04 Created by KiCad (PCBNEW 10.0.1) date 2026-06-19 22:59:04*
%MOMM*%
%LPD*%
G01*
G04 APERTURE LIST*
G04 Aperture macros list*
%AMRoundRect*
0 Rectangle with rounded corners*
0 $1 Rounding radius*
0 $2 $3 $4 $5 $6 $7 $8 $9 X,Y pos of 4 corners*
0 Add a 4 corners polygon primitive as box body*
4,1,4,$2,$3,$4,$5,$6,$7,$8,$9,$2,$3,0*
0 Add four circle primitives for the rounded corners*
1,1,$1+$1,$2,$3*
1,1,$1+$1,$4,$5*
1,1,$1+$1,$6,$7*
1,1,$1+$1,$8,$9*
0 Add four rect primitives between the rounded corners*
20,1,$1+$1,$2,$3,$4,$5,0*
20,1,$1+$1,$4,$5,$6,$7,0*
20,1,$1+$1,$6,$7,$8,$9,0*
20,1,$1+$1,$8,$9,$2,$3,0*%
G04 Aperture macros list end*
%ADD10R,0.300000X0.600000*%
%ADD11R,1.600000X1.020000*%
%ADD12R,1.200000X0.580000*%
%ADD13R,3.800000X4.400000*%
%ADD14R,0.580000X1.200000*%
%ADD15R,4.400000X3.800000*%
%ADD16RoundRect,0.135000X-0.185000X0.135000X-0.185000X-0.135000X0.185000X-0.135000X0.185000X0.135000X0*%
%ADD17RoundRect,0.135000X0.135000X0.185000X-0.135000X0.185000X-0.135000X-0.185000X0.135000X-0.185000X0*%
%ADD18RoundRect,0.135000X-0.135000X-0.185000X0.135000X-0.185000X0.135000X0.185000X-0.135000X0.185000X0*%
%ADD19RoundRect,0.250000X0.250000X0.475000X-0.250000X0.475000X-0.250000X-0.475000X0.250000X-0.475000X0*%
%ADD20RoundRect,0.250000X-0.312500X-1.075000X0.312500X-1.075000X0.312500X1.075000X-0.312500X1.075000X0*%
%ADD21RoundRect,0.135000X0.185000X-0.135000X0.185000X0.135000X-0.185000X0.135000X-0.185000X-0.135000X0*%
%ADD22RoundRect,0.250000X-0.475000X0.250000X-0.475000X-0.250000X0.475000X-0.250000X0.475000X0.250000X0*%
%ADD23RoundRect,0.225000X-0.250000X0.225000X-0.250000X-0.225000X0.250000X-0.225000X0.250000X0.225000X0*%
%ADD24RoundRect,0.195000X-0.195000X-0.290000X0.195000X-0.290000X0.195000X0.290000X-0.195000X0.290000X0*%
%ADD25RoundRect,0.062500X-0.450000X-0.062500X0.450000X-0.062500X0.450000X0.062500X-0.450000X0.062500X0*%
%ADD26RoundRect,0.062500X-0.062500X-0.325000X0.062500X-0.325000X0.062500X0.325000X-0.062500X0.325000X0*%
%ADD27RoundRect,0.140000X0.140000X0.170000X-0.140000X0.170000X-0.140000X-0.170000X0.140000X-0.170000X0*%
%ADD28RoundRect,0.250000X-0.250000X-0.475000X0.250000X-0.475000X0.250000X0.475000X-0.250000X0.475000X0*%
%ADD29RoundRect,0.250000X0.312500X1.075000X-0.312500X1.075000X-0.312500X-1.075000X0.312500X-1.075000X0*%
%ADD30RoundRect,0.140000X-0.170000X0.140000X-0.170000X-0.140000X0.170000X-0.140000X0.170000X0.140000X0*%
G04 APERTURE END LIST*
D10*
%TO.C,U5*%
X74457150Y-59860117D03*
X74957150Y-59860117D03*
X75457150Y-59860117D03*
X75457150Y-61860117D03*
X74957150Y-61860117D03*
X74457150Y-61860117D03*
D11*
X74957150Y-60860117D03*
%TD*%
D12*
%TO.C,Q24*%
X45837150Y-51331402D03*
X45837150Y-52601402D03*
D13*
X47937150Y-53231402D03*
D12*
X45837150Y-53871402D03*
X45837150Y-55141402D03*
X51337150Y-55131402D03*
X51337150Y-51321402D03*
X51337150Y-52591402D03*
X51337150Y-53861402D03*
%TD*%
D14*
%TO.C,Q10*%
X58226310Y-77842617D03*
X59496310Y-77842617D03*
D15*
X60126310Y-75742617D03*
D14*
X60766310Y-77842617D03*
X62036310Y-77842617D03*
X62026310Y-72342617D03*
X58216310Y-72342617D03*
X59486310Y-72342617D03*
X60756310Y-72342617D03*
%TD*%
D16*
%TO.C,R32*%
X82897150Y-56199581D03*
X82897150Y-57219581D03*
%TD*%
D14*
%TO.C,Q22*%
X61986311Y-44157617D03*
X60716311Y-44157617D03*
D15*
X60086311Y-46257617D03*
D14*
X59446311Y-44157617D03*
X58176311Y-44157617D03*
X58186311Y-49657617D03*
X61996311Y-49657617D03*
X60726311Y-49657617D03*
X59456311Y-49657617D03*
%TD*%
D17*
%TO.C,R60*%
X69307150Y-50790117D03*
X68287150Y-50790117D03*
%TD*%
D18*
%TO.C,R81*%
X51397150Y-56280117D03*
X52417150Y-56280117D03*
%TD*%
%TO.C,R61*%
X74007150Y-50070117D03*
X75027150Y-50070117D03*
%TD*%
D16*
%TO.C,R22*%
X75187150Y-56580117D03*
X75187150Y-57600117D03*
%TD*%
D14*
%TO.C,Q17*%
X72636311Y-44157617D03*
X71366311Y-44157617D03*
D15*
X70736311Y-46257617D03*
D14*
X70096311Y-44157617D03*
X68826311Y-44157617D03*
X68836311Y-49657617D03*
X72646311Y-49657617D03*
X71376311Y-49657617D03*
X70106311Y-49657617D03*
%TD*%
%TO.C,Q23*%
X56651310Y-44157617D03*
X55381310Y-44157617D03*
D15*
X54751310Y-46257617D03*
D14*
X54111310Y-44157617D03*
X52841310Y-44157617D03*
X52851310Y-49657617D03*
X56661310Y-49657617D03*
X55391310Y-49657617D03*
X54121310Y-49657617D03*
%TD*%
D17*
%TO.C,R59*%
X63917150Y-50840117D03*
X62897150Y-50840117D03*
%TD*%
D19*
%TO.C,C20*%
X76287150Y-63470117D03*
X74387150Y-63470117D03*
%TD*%
D20*
%TO.C,R82*%
X59696156Y-52882619D03*
X62621156Y-52882619D03*
%TD*%
D21*
%TO.C,R21*%
X76207150Y-57210117D03*
X76207150Y-56190117D03*
%TD*%
D17*
%TO.C,R31*%
X85577150Y-64770117D03*
X84557150Y-64770117D03*
%TD*%
D22*
%TO.C,C15*%
X86067150Y-61163000D03*
X86067150Y-63063000D03*
%TD*%
D23*
%TO.C,C76*%
X84317150Y-61123000D03*
X84317150Y-62673000D03*
%TD*%
D17*
%TO.C,R38*%
X44677150Y-70960117D03*
X43657150Y-70960117D03*
%TD*%
D24*
%TO.C,U4*%
X80477150Y-59219581D03*
X80477150Y-60339581D03*
X80477150Y-61459581D03*
X80477150Y-62579581D03*
X81377150Y-59219581D03*
X81377150Y-60339581D03*
X81377150Y-61459581D03*
X81377150Y-62579581D03*
D25*
X79064650Y-63399581D03*
X79064650Y-62899581D03*
X79064650Y-62399581D03*
X79064650Y-61899581D03*
X79064650Y-61399581D03*
X79064650Y-60899581D03*
X79064650Y-60399581D03*
X79064650Y-59899581D03*
X79064650Y-59399581D03*
X79064650Y-58899581D03*
X79064650Y-58399581D03*
D26*
X80177150Y-57912081D03*
X80677150Y-57912081D03*
X81177150Y-57912081D03*
X81677150Y-57912081D03*
D25*
X82789650Y-58399581D03*
X82789650Y-58899581D03*
X82789650Y-59399581D03*
X82789650Y-59899581D03*
X82789650Y-60399581D03*
X82789650Y-60899581D03*
X82789650Y-61399581D03*
X82789650Y-61899581D03*
X82789650Y-62399581D03*
X82789650Y-62899581D03*
X82789650Y-63399581D03*
D26*
X81677150Y-63887081D03*
X81177150Y-63887081D03*
X80677150Y-63887081D03*
X80177150Y-63887081D03*
%TD*%
D27*
%TO.C,C73*%
X77777150Y-59079198D03*
X76817150Y-59079198D03*
%TD*%
D14*
%TO.C,Q11*%
X52893810Y-77837617D03*
X54163810Y-77837617D03*
D15*
X54793810Y-75737617D03*
D14*
X55433810Y-77837617D03*
X56703810Y-77837617D03*
X56693810Y-72337617D03*
X52883810Y-72337617D03*
X54153810Y-72337617D03*
X55423810Y-72337617D03*
%TD*%
D27*
%TO.C,C77*%
X79317150Y-57139198D03*
X78357150Y-57139198D03*
%TD*%
D28*
%TO.C,C69*%
X47397150Y-58720117D03*
X49297150Y-58720117D03*
%TD*%
D20*
%TO.C,R42*%
X58292150Y-69050535D03*
X61217150Y-69050535D03*
%TD*%
D17*
%TO.C,R79*%
X58667150Y-50790117D03*
X57647150Y-50790117D03*
%TD*%
%TO.C,R9*%
X74917150Y-66210117D03*
X73897150Y-66210117D03*
%TD*%
D18*
%TO.C,R39*%
X61777150Y-71140117D03*
X62797150Y-71140117D03*
%TD*%
D17*
%TO.C,R41*%
X51267150Y-72030117D03*
X50247150Y-72030117D03*
%TD*%
D29*
%TO.C,R2*%
X65772150Y-69050117D03*
X62847150Y-69050117D03*
%TD*%
D28*
%TO.C,C70*%
X47397150Y-56760117D03*
X49297150Y-56760117D03*
%TD*%
D18*
%TO.C,R7*%
X73607150Y-72610117D03*
X74627150Y-72610117D03*
%TD*%
D16*
%TO.C,R23*%
X74177150Y-57990117D03*
X74177150Y-59010117D03*
%TD*%
D14*
%TO.C,Q16*%
X67311315Y-44157617D03*
X66041315Y-44157617D03*
D15*
X65411315Y-46257617D03*
D14*
X64771315Y-44157617D03*
X63501315Y-44157617D03*
X63511315Y-49657617D03*
X67321315Y-49657617D03*
X66051315Y-49657617D03*
X64781315Y-49657617D03*
%TD*%
D17*
%TO.C,R80*%
X51747150Y-49860117D03*
X50727150Y-49860117D03*
%TD*%
D12*
%TO.C,Q6*%
X79917150Y-70937617D03*
X79917150Y-69667617D03*
D13*
X77817150Y-69037617D03*
D12*
X79917150Y-68397617D03*
X79917150Y-67127617D03*
X74417150Y-67137617D03*
X74417150Y-70947617D03*
X74417150Y-69677617D03*
X74417150Y-68407617D03*
%TD*%
D17*
%TO.C,R11*%
X81247150Y-56759198D03*
X80227150Y-56759198D03*
%TD*%
D12*
%TO.C,Q18*%
X79926395Y-54870117D03*
X79926395Y-53600117D03*
D13*
X77826395Y-52970117D03*
D12*
X79926395Y-52330117D03*
X79926395Y-51060117D03*
X74426395Y-51070117D03*
X74426395Y-54880117D03*
X74426395Y-53610117D03*
X74426395Y-52340117D03*
%TD*%
D18*
%TO.C,R40*%
X56387150Y-71270117D03*
X57407150Y-71270117D03*
%TD*%
D12*
%TO.C,Q12*%
X45862150Y-67137351D03*
X45862150Y-68407351D03*
D13*
X47962150Y-69037351D03*
D12*
X45862150Y-69677351D03*
X45862150Y-70947351D03*
X51362150Y-70937351D03*
X51362150Y-67127351D03*
X51362150Y-68397351D03*
X51362150Y-69667351D03*
%TD*%
D14*
%TO.C,Q2*%
X63533810Y-77837617D03*
X64803810Y-77837617D03*
D15*
X65433810Y-75737617D03*
D14*
X66073810Y-77837617D03*
X67343810Y-77837617D03*
X67333810Y-72337617D03*
X63523810Y-72337617D03*
X64793810Y-72337617D03*
X66063810Y-72337617D03*
%TD*%
D27*
%TO.C,C74*%
X77782687Y-60013166D03*
X76822687Y-60013166D03*
%TD*%
D17*
%TO.C,R51*%
X77867150Y-58139198D03*
X76847150Y-58139198D03*
%TD*%
D29*
%TO.C,R62*%
X67176310Y-52882617D03*
X64251310Y-52882617D03*
%TD*%
D14*
%TO.C,Q4*%
X68843810Y-77837617D03*
X70113810Y-77837617D03*
D15*
X70743810Y-75737617D03*
D14*
X71383810Y-77837617D03*
X72653810Y-77837617D03*
X72643810Y-72337617D03*
X68833810Y-72337617D03*
X70103810Y-72337617D03*
X71373810Y-72337617D03*
%TD*%
D18*
%TO.C,R5*%
X66697150Y-71150117D03*
X67717150Y-71150117D03*
%TD*%
D28*
%TO.C,C78*%
X77537150Y-65540117D03*
X79437150Y-65540117D03*
%TD*%
D30*
%TO.C,C16*%
X77827150Y-60899198D03*
X77827150Y-61859198D03*
%TD*%
%TO.C,C75*%
X76297150Y-65010117D03*
X76297150Y-65970117D03*
%TD*%
D17*
%TO.C,R10*%
X79383312Y-56210337D03*
X78363312Y-56210337D03*
%TD*%
M02*
