%TF.GenerationSoftware,KiCad,Pcbnew,10.0.1*%
%TF.CreationDate,2026-06-24T13:07:53+02:00*%
%TF.ProjectId,esc,6573632e-6b69-4636-9164-5f7063625858,rev?*%
%TF.SameCoordinates,Original*%
%TF.FileFunction,Copper,L5,Inr*%
%TF.FilePolarity,Positive*%
%FSLAX46Y46*%
G04 Gerber Fmt 4.6, Leading zero omitted, Abs format (unit mm)*
G04 Created by KiCad (PCBNEW 10.0.1) date 2026-06-24 13:07:53*
%MOMM*%
%LPD*%
G01*
G04 APERTURE LIST*
%TA.AperFunction,ComponentPad*%
%ADD10R,0.850000X0.850000*%
%TD*%
%TA.AperFunction,ComponentPad*%
%ADD11C,0.850000*%
%TD*%
%TA.AperFunction,ViaPad*%
%ADD12C,0.600000*%
%TD*%
%TA.AperFunction,ViaPad*%
%ADD13C,0.450000*%
%TD*%
%TA.AperFunction,Conductor*%
%ADD14C,0.254000*%
%TD*%
%TA.AperFunction,Conductor*%
%ADD15C,0.127000*%
%TD*%
G04 APERTURE END LIST*
D10*
%TO.N,/bottom/SIG_IN3*%
%TO.C,J29*%
X148249920Y-56563001D03*
D11*
%TO.N,/bottom/SIG_IN4*%
X147249920Y-56563001D03*
%TO.N,/bottom/TELEMETRY*%
X148249920Y-57563001D03*
%TO.N,/bottom/TELEMRX*%
X147249920Y-57563001D03*
%TO.N,VCC*%
X148249920Y-58563001D03*
%TO.N,+9V*%
X147249920Y-58563001D03*
%TO.N,GND*%
X148249920Y-59563001D03*
%TO.N,/bottom/V_SENS*%
X147249920Y-59563001D03*
%TD*%
D10*
%TO.N,/bottom/curr4-*%
%TO.C,J25*%
X135119920Y-55051702D03*
D11*
%TO.N,/bottom/curr4+*%
X135119920Y-54051702D03*
%TD*%
D10*
%TO.N,/bottom/GLA3*%
%TO.C,J14*%
X144269919Y-55064737D03*
D11*
%TO.N,/bottom/GHA3*%
X144269919Y-54064737D03*
%TO.N,GND*%
X145269919Y-55064737D03*
%TO.N,/bottom/MOT_A3*%
X145269919Y-54064737D03*
%TO.N,/bottom/MOT_C3*%
X146269919Y-55064737D03*
%TO.N,/bottom/GLB3*%
X146269919Y-54064737D03*
%TO.N,/bottom/GHC3*%
X147269919Y-55064737D03*
%TO.N,/bottom/MOT_B3*%
X147269919Y-54064737D03*
%TO.N,/bottom/GLC3*%
X148269919Y-55064737D03*
%TO.N,/bottom/GHB3*%
X148269919Y-54064737D03*
%TD*%
D10*
%TO.N,/bottom/curr3+*%
%TO.C,J26*%
X142789920Y-54054911D03*
D11*
%TO.N,/bottom/curr3-*%
X142789920Y-55054911D03*
%TD*%
%TO.N,GND*%
%TO.C,*%
X132759920Y-64063001D03*
%TD*%
%TO.N,GND*%
%TO.C,*%
X145269920Y-64083001D03*
%TD*%
D10*
%TO.N,/bottom/GLC4*%
%TO.C,J13*%
X129759920Y-55053001D03*
D11*
%TO.N,/bottom/GLB4*%
X129759920Y-54053001D03*
%TO.N,/bottom/MOT_C4*%
X130759920Y-55053001D03*
%TO.N,/bottom/GHB4*%
X130759920Y-54053001D03*
%TO.N,/bottom/GHC4*%
X131759920Y-55053001D03*
%TO.N,/bottom/MOT_B4*%
X131759920Y-54053001D03*
%TO.N,GND*%
X132759920Y-55053001D03*
%TO.N,/bottom/GHA4*%
X132759920Y-54053001D03*
%TO.N,/bottom/MOT_A4*%
X133759920Y-55053001D03*
%TO.N,/bottom/GLA4*%
X133759920Y-54053001D03*
%TD*%
D12*
%TO.N,GND*%
X131930000Y-59730000D03*
D13*
X134320000Y-56683000D03*
D12*
X131310000Y-59760000D03*
X141250000Y-59790000D03*
X142680000Y-59770000D03*
X138100000Y-64890000D03*
D13*
X128940000Y-59613000D03*
D12*
X141960000Y-60413000D03*
D13*
%TO.N,+9V*%
X128707014Y-60545247D03*
X144790000Y-55833000D03*
X138850000Y-59883000D03*
X129930000Y-63478000D03*
X135320000Y-65498000D03*
%TO.N,/bottom/BEMF_B3*%
X138410000Y-58973000D03*
%TO.N,+9V*%
X148280000Y-64083000D03*
%TO.N,/bottom/BEMF_B3*%
X140740000Y-52748000D03*
%TO.N,VCC*%
X148460000Y-62563000D03*
X137250000Y-56713000D03*
%TO.N,/bottom/BEMF_COMMON3*%
X141370000Y-52803000D03*
%TO.N,VCC*%
X147710000Y-55753000D03*
%TO.N,/bottom/BEMF_COMMON3*%
X137320000Y-62183000D03*
%TO.N,VCC*%
X137950000Y-55413000D03*
X139190000Y-64103000D03*
X140290000Y-55063000D03*
%TO.N,/bottom/BEMF_COMMON3*%
X139880000Y-58463000D03*
%TO.N,/bottom/BEMF_C3*%
X138100000Y-61083000D03*
%TO.N,VCC*%
X131200000Y-65303000D03*
%TO.N,/bottom/GLC3*%
X141875000Y-57338000D03*
%TO.N,/bottom/MOT_B3*%
X147120000Y-60683000D03*
X149060000Y-53073000D03*
%TO.N,/bottom/MOT_C4*%
X135180000Y-57178000D03*
%TO.N,/bottom/MOT_C3*%
X145135000Y-57908000D03*
X137910000Y-58563000D03*
%TO.N,/bottom/MOT_A3*%
X141960000Y-56063000D03*
%TO.N,/bottom/GHA3*%
X144490000Y-64743000D03*
%TO.N,/bottom/GHC3*%
X144480000Y-58603000D03*
%TO.N,/bottom/MOT_A3*%
X144440000Y-63913000D03*
%TO.N,/bottom/B_HIGH3*%
X141510000Y-63763000D03*
%TO.N,/bottom/A_HIGH3*%
X141710000Y-64373000D03*
%TO.N,/bottom/C_HIGH3*%
X140935092Y-63752547D03*
%TO.N,/bottom/B_LOW3*%
X139170000Y-61673000D03*
%TO.N,/bottom/C_LOW3*%
X139159914Y-61098086D03*
%TO.N,/bottom/A_LOW3*%
X139790000Y-62090717D03*
%TO.N,/bottom/MOT_A4*%
X135260000Y-63430000D03*
%TO.N,/bottom/GHA4*%
X135140000Y-64373000D03*
%TO.N,/bottom/MOT_B4*%
X135950000Y-59883000D03*
%TO.N,/bottom/GHC4*%
X135720000Y-57993000D03*
%TO.N,/bottom/GHB4*%
X136310000Y-60963000D03*
%TO.N,/bottom/GLB4*%
X132370000Y-57123000D03*
%TO.N,/bottom/TELEMETRY*%
X146240000Y-60223000D03*
%TO.N,/bottom/A_HIGH4*%
X132164377Y-63566502D03*
%TO.N,/bottom/C_HIGH4*%
X130925000Y-63748000D03*
%TO.N,/bottom/C_LOW4*%
X128732532Y-61627560D03*
%TO.N,/bottom/A_LOW4*%
X129420000Y-62703000D03*
%TO.N,/bottom/V_SENS*%
X138810000Y-62243000D03*
%TO.N,/bottom/B_LOW4*%
X128850000Y-62353000D03*
%TO.N,/bottom/V_SENS*%
X137380000Y-63980000D03*
X128913665Y-61081832D03*
%TO.N,/bottom/CURR4*%
X135340000Y-56133000D03*
%TO.N,/bottom/V_SENS*%
X131780000Y-64803000D03*
%TO.N,/bottom/CURR4*%
X129982500Y-58523000D03*
%TO.N,/bottom/BEMF_A4*%
X129640000Y-56713000D03*
%TO.N,/bottom/TELEMRX*%
X137360000Y-59913000D03*
%TO.N,/bottom/TELEMETRY*%
X137934248Y-59883552D03*
%TO.N,/bottom/B_HIGH4*%
X131591734Y-63618544D03*
%TO.N,/bottom/BEMF_B4*%
X129370000Y-57653000D03*
%TO.N,/bottom/SIG_IN4*%
X136210000Y-62633000D03*
%TO.N,/bottom/BEMF_B4*%
X128510000Y-55433000D03*
%TO.N,/bottom/BEMF_A3*%
X139920000Y-56683000D03*
%TO.N,/bottom/BEMF_B4*%
X128720000Y-53283000D03*
%TO.N,/bottom/BEMF_COMMON4*%
X128590000Y-64123000D03*
X128870000Y-54083000D03*
X130190000Y-57803000D03*
D12*
%TO.N,GND*%
X129000000Y-65200000D03*
X131730351Y-56326303D03*
X137840000Y-57630000D03*
X131360000Y-61000000D03*
X141370000Y-61660000D03*
X132560000Y-60770000D03*
X149050000Y-65040000D03*
X138780000Y-53803000D03*
X131340000Y-60390000D03*
X132000000Y-61060000D03*
D13*
X128890000Y-56053000D03*
D12*
X142710000Y-60400000D03*
X136270000Y-52823000D03*
X141280000Y-60420000D03*
X132520000Y-59990000D03*
X137867566Y-56915768D03*
X132000000Y-60370000D03*
X141320000Y-61030000D03*
X148374920Y-61640000D03*
X141930000Y-59783000D03*
X142070000Y-61040000D03*
%TD*%
%TO.N,/bottom/MOT_A3*%
D14*
X145921920Y-64353069D02*
X145054989Y-65220000D01*
X145539988Y-63431001D02*
X145921920Y-63812933D01*
X142420000Y-53123000D02*
X144328182Y-53123000D01*
X143263919Y-56606919D02*
X143263919Y-64191499D01*
%TO.N,/bottom/GHA3*%
X143617919Y-63870919D02*
X143617919Y-54412737D01*
%TO.N,/bottom/MOT_A3*%
X144292420Y-65220000D02*
X143263919Y-64191499D01*
D15*
X142140000Y-56063000D02*
X142430000Y-55773000D01*
X141960000Y-56063000D02*
X142140000Y-56063000D01*
D14*
X145054989Y-65220000D02*
X144292420Y-65220000D01*
X142430000Y-55773000D02*
X143263919Y-56606919D01*
X144328182Y-53123000D02*
X145269919Y-54064737D01*
%TO.N,/bottom/GHA3*%
X144490000Y-64743000D02*
X143617919Y-63870919D01*
%TO.N,/bottom/MOT_A3*%
X144921999Y-63431001D02*
X145539988Y-63431001D01*
%TO.N,/bottom/GHA3*%
X143965919Y-54064737D02*
X144269919Y-54064737D01*
%TO.N,/bottom/MOT_A3*%
X141980000Y-53563000D02*
X142420000Y-53123000D01*
X144440000Y-63913000D02*
X144921999Y-63431001D01*
X141980000Y-55323000D02*
X142430000Y-55773000D01*
X145921920Y-63812933D02*
X145921920Y-64353069D01*
%TO.N,/bottom/GHA3*%
X143617919Y-54412737D02*
X143965919Y-54064737D01*
%TO.N,/bottom/MOT_A3*%
X141980000Y-53563000D02*
X141980000Y-55323000D01*
%TO.N,+9V*%
X144790000Y-55833000D02*
X144003000Y-56620000D01*
X131882000Y-64225000D02*
X130677000Y-64225000D01*
X144145788Y-65574000D02*
X133231000Y-65574000D01*
X144003000Y-59806000D02*
X148280000Y-64083000D01*
X133231000Y-65574000D02*
X131882000Y-64225000D01*
X146437580Y-59746000D02*
X146717000Y-60025420D01*
X148280000Y-64083000D02*
X146789000Y-65574000D01*
X128707014Y-60545247D02*
X129051660Y-60545247D01*
X129930000Y-61423587D02*
X129930000Y-63478000D01*
X146717000Y-60025420D02*
X146717000Y-60411420D01*
X138850000Y-59923000D02*
X138850000Y-59883000D01*
X142909919Y-63982919D02*
X138850000Y-59923000D01*
X146643000Y-60485420D02*
X146643000Y-62446000D01*
X146717000Y-60411420D02*
X146643000Y-60485420D01*
X144003000Y-56620000D02*
X144003000Y-59806000D01*
X142909919Y-64338131D02*
X142909919Y-63982919D01*
X144145788Y-65574000D02*
X142909919Y-64338131D01*
X146643000Y-62446000D02*
X148280000Y-64083000D01*
X146437580Y-59375341D02*
X146437580Y-59746000D01*
X130677000Y-64225000D02*
X129930000Y-63478000D01*
X129051660Y-60545247D02*
X129930000Y-61423587D01*
X147249920Y-58563001D02*
X146437580Y-59375341D01*
X146789000Y-65574000D02*
X144145788Y-65574000D01*
%TO.N,/bottom/BEMF_COMMON3*%
D15*
X141370000Y-52803000D02*
X139506500Y-54666500D01*
X139506500Y-58089500D02*
X139880000Y-58463000D01*
X139506500Y-54666500D02*
X139506500Y-58089500D01*
%TO.N,/bottom/MOT_B4*%
D14*
X136197000Y-54206714D02*
X135037287Y-53047001D01*
X132765920Y-53047001D02*
X131759920Y-54053001D01*
X136197000Y-59636000D02*
X136197000Y-54206714D01*
X135950000Y-59883000D02*
X136197000Y-59636000D01*
X135037287Y-53047001D02*
X132765920Y-53047001D01*
%TO.N,/bottom/GLC3*%
X142097000Y-52769000D02*
X147896250Y-52769000D01*
X141220000Y-53646000D02*
X142097000Y-52769000D01*
%TO.N,/bottom/GHC3*%
X147269919Y-55064737D02*
X144480000Y-57854656D01*
%TO.N,/bottom/MOT_B3*%
X147120000Y-60683000D02*
X149080000Y-60683000D01*
X149275919Y-60487081D02*
X149275919Y-53288919D01*
%TO.N,/bottom/GLC3*%
X141220000Y-56683000D02*
X141220000Y-53646000D01*
X148921919Y-54412737D02*
X148269919Y-55064737D01*
X147896250Y-52769000D02*
X148921919Y-53794669D01*
X141875000Y-57338000D02*
X141220000Y-56683000D01*
%TO.N,/bottom/MOT_B3*%
X149275919Y-53288919D02*
X149060000Y-53073000D01*
%TO.N,/bottom/GHC3*%
X144480000Y-57854656D02*
X144480000Y-58603000D01*
%TO.N,/bottom/GLC3*%
X148921919Y-53794669D02*
X148921919Y-54412737D01*
%TO.N,/bottom/MOT_B3*%
X149080000Y-60683000D02*
X149275919Y-60487081D01*
%TO.N,/bottom/GHA4*%
X133411920Y-53401001D02*
X134087287Y-53401001D01*
%TO.N,/bottom/GLB4*%
X132370000Y-57123000D02*
X132243000Y-57250000D01*
%TO.N,/bottom/GHB4*%
X136551000Y-54060082D02*
X136551000Y-60722000D01*
X136551000Y-60722000D02*
X136310000Y-60963000D01*
%TO.N,/bottom/GLB4*%
X130990000Y-57250000D02*
X129976000Y-56236000D01*
%TO.N,/bottom/GHB4*%
X130759920Y-54053001D02*
X132119920Y-52693001D01*
%TO.N,/bottom/GLB4*%
X129090000Y-54537580D02*
X129574579Y-54053001D01*
%TO.N,/bottom/MOT_A4*%
X135260000Y-63430000D02*
X135260000Y-63398000D01*
%TO.N,/bottom/GLB4*%
X129574579Y-54053001D02*
X129759920Y-54053001D01*
%TO.N,/bottom/GHB4*%
X135183919Y-52693001D02*
X136551000Y-54060082D01*
%TO.N,/bottom/MOT_A4*%
X133759920Y-61897920D02*
X133759920Y-55053001D01*
%TO.N,/bottom/GHA4*%
X134650000Y-62113420D02*
X135832000Y-63295420D01*
X135149580Y-64373000D02*
X135140000Y-64373000D01*
X134467920Y-53781634D02*
X134467920Y-54321770D01*
X134467920Y-54399702D02*
X134467920Y-56156340D01*
X134797000Y-56880580D02*
X134650000Y-57027580D01*
X134650000Y-57027580D02*
X134650000Y-62113420D01*
%TO.N,/bottom/MOT_A4*%
X135260000Y-63398000D02*
X133759920Y-61897920D01*
%TO.N,/bottom/GHA4*%
X134467920Y-54321770D02*
X134545852Y-54399702D01*
X134467920Y-56156340D02*
X134797000Y-56485420D01*
%TO.N,/bottom/GLB4*%
X129753000Y-56236000D02*
X129090000Y-55573000D01*
%TO.N,/bottom/GHA4*%
X132759920Y-54053001D02*
X133411920Y-53401001D01*
X135832000Y-63295420D02*
X135832000Y-63690580D01*
X134087287Y-53401001D02*
X134467920Y-53781634D01*
X134545852Y-54399702D02*
X134467920Y-54399702D01*
X134797000Y-56485420D02*
X134797000Y-56880580D01*
%TO.N,/bottom/GLB4*%
X129090000Y-55573000D02*
X129090000Y-54537580D01*
X132243000Y-57250000D02*
X130990000Y-57250000D01*
%TO.N,/bottom/GHA4*%
X135832000Y-63690580D02*
X135149580Y-64373000D01*
%TO.N,/bottom/GHB4*%
X132119920Y-52693001D02*
X135183919Y-52693001D01*
%TO.N,/bottom/GLB4*%
X129976000Y-56236000D02*
X129753000Y-56236000D01*
%TD*%
%TA.AperFunction,Conductor*%
%TO.N,GND*%
G36*
X128356826Y-61714530D02*
G01*
X128375977Y-61747702D01*
X128380431Y-61764324D01*
X128382622Y-61772499D01*
X128417605Y-61833090D01*
X128432057Y-61858122D01*
X128501970Y-61928035D01*
X128532700Y-61945777D01*
X128571846Y-61968378D01*
X128606325Y-62013312D01*
X128598932Y-62069464D01*
X128587173Y-62084789D01*
X128549525Y-62122437D01*
X128500090Y-62208060D01*
X128500088Y-62208065D01*
X128474500Y-62303562D01*
X128474500Y-62402437D01*
X128500088Y-62497934D01*
X128500090Y-62497939D01*
X128549525Y-62583562D01*
X128619438Y-62653475D01*
X128705062Y-62702910D01*
X128705063Y-62702910D01*
X128705065Y-62702911D01*
X128723830Y-62707939D01*
X128800562Y-62728499D01*
X128800563Y-62728500D01*
X128800565Y-62728500D01*
X128899437Y-62728500D01*
X128899437Y-62728499D01*
X128957319Y-62712990D01*
X129013471Y-62720382D01*
X129047950Y-62765315D01*
X129070088Y-62847934D01*
X129070090Y-62847939D01*
X129107602Y-62912911D01*
X129119525Y-62933562D01*
X129189438Y-63003475D01*
X129275062Y-63052910D01*
X129275063Y-63052910D01*
X129275065Y-63052911D01*
X129308240Y-63061800D01*
X129370562Y-63078499D01*
X129370563Y-63078500D01*
X129370565Y-63078500D01*
X129469437Y-63078500D01*
X129469437Y-63078499D01*
X129559347Y-63054408D01*
X129569260Y-63055713D01*
X129578500Y-63051886D01*
X129596348Y-63059278D01*
X129615499Y-63061800D01*
X129621586Y-63069732D01*
X129630826Y-63073560D01*
X129638219Y-63091409D01*
X129649978Y-63106733D01*
X129652500Y-63125886D01*
X129652500Y-63193811D01*
X129632025Y-63243241D01*
X129632478Y-63243589D01*
X129631181Y-63245278D01*
X129630826Y-63246137D01*
X129629525Y-63247437D01*
X129580090Y-63333060D01*
X129580088Y-63333065D01*
X129554500Y-63428562D01*
X129554500Y-63527437D01*
X129580088Y-63622934D01*
X129580090Y-63622939D01*
X129595425Y-63649499D01*
X129629525Y-63708562D01*
X129699438Y-63778475D01*
X129758262Y-63812437D01*
X129773836Y-63821429D01*
X129785062Y-63827910D01*
X129785063Y-63827910D01*
X129785065Y-63827911D01*
X129814172Y-63835710D01*
X129880562Y-63853499D01*
X129880563Y-63853500D01*
X129880565Y-63853500D01*
X129882403Y-63853500D01*
X129883260Y-63853855D01*
X129885372Y-63854133D01*
X129885297Y-63854698D01*
X129934729Y-63875174D01*
X130452355Y-64392799D01*
X130452360Y-64392805D01*
X130454944Y-64395389D01*
X130506611Y-64447056D01*
X130563865Y-64480111D01*
X130563866Y-64480112D01*
X130569884Y-64483587D01*
X130569887Y-64483587D01*
X130569889Y-64483589D01*
X130616940Y-64496197D01*
X130640465Y-64502501D01*
X130640466Y-64502501D01*
X130718064Y-64502501D01*
X130718080Y-64502500D01*
X131391732Y-64502500D01*
X131444058Y-64524174D01*
X131465732Y-64576500D01*
X131455818Y-64613500D01*
X131430090Y-64658060D01*
X131430088Y-64658065D01*
X131404500Y-64753562D01*
X131404500Y-64852436D01*
X131404991Y-64854269D01*
X131404866Y-64855217D01*
X131405133Y-64857246D01*
X131404589Y-64857317D01*
X131397595Y-64910421D01*
X131352659Y-64944897D01*
X131314359Y-64944896D01*
X131249435Y-64927500D01*
X131150565Y-64927500D01*
X131150563Y-64927500D01*
X131055065Y-64953088D01*
X131055060Y-64953090D01*
X130969437Y-65002525D01*
X130899525Y-65072437D01*
X130850090Y-65158060D01*
X130850088Y-65158065D01*
X130824500Y-65253562D01*
X130824500Y-65352437D01*
X130850088Y-65447934D01*
X130850090Y-65447939D01*
X130899525Y-65533562D01*
X130962137Y-65596174D01*
X130983811Y-65648500D01*
X130962137Y-65700826D01*
X130909811Y-65722500D01*
X128304500Y-65722500D01*
X128252174Y-65700826D01*
X128230500Y-65648500D01*
X128230500Y-64473189D01*
X128252174Y-64420863D01*
X128304500Y-64399189D01*
X128356826Y-64420863D01*
X128359438Y-64423475D01*
X128445062Y-64472910D01*
X128445063Y-64472910D01*
X128445065Y-64472911D01*
X128484909Y-64483587D01*
X128540562Y-64498499D01*
X128540563Y-64498500D01*
X128540565Y-64498500D01*
X128639437Y-64498500D01*
X128639437Y-64498499D01*
X128734938Y-64472910D01*
X128820562Y-64423475D01*
X128890475Y-64353562D01*
X128939910Y-64267938D01*
X128965499Y-64172437D01*
X128965500Y-64172437D01*
X128965500Y-64073563D01*
X128965499Y-64073562D01*
X128959995Y-64053022D01*
X128946152Y-64001356D01*
X128939911Y-63978065D01*
X128939909Y-63978060D01*
X128916815Y-63938060D01*
X128890475Y-63892438D01*
X128820562Y-63822525D01*
X128803086Y-63812435D01*
X128734939Y-63773090D01*
X128734934Y-63773088D01*
X128639437Y-63747500D01*
X128639435Y-63747500D01*
X128540565Y-63747500D01*
X128540563Y-63747500D01*
X128445065Y-63773088D01*
X128445060Y-63773090D01*
X128359437Y-63822525D01*
X128356826Y-63825137D01*
X128304500Y-63846811D01*
X128252174Y-63825137D01*
X128230500Y-63772811D01*
X128230500Y-61766856D01*
X128252174Y-61714530D01*
X128304500Y-61692856D01*
X128356826Y-61714530D01*
G37*
%TD.AperFunction*%
%TA.AperFunction,Conductor*%
G36*
X149497826Y-60762270D02*
G01*
X149519500Y-60814596D01*
X149519500Y-65648500D01*
X149497826Y-65700826D01*
X149445500Y-65722500D01*
X147211597Y-65722500D01*
X147159271Y-65700826D01*
X147137597Y-65648500D01*
X147159271Y-65596174D01*
X148275270Y-64480174D01*
X148324702Y-64459698D01*
X148324628Y-64459133D01*
X148326738Y-64458855D01*
X148327596Y-64458500D01*
X148329437Y-64458500D01*
X148329437Y-64458499D01*
X148424938Y-64432910D01*
X148510562Y-64383475D01*
X148580475Y-64313562D01*
X148629910Y-64227938D01*
X148655499Y-64132437D01*
X148655500Y-64132437D01*
X148655500Y-64033563D01*
X148655499Y-64033562D01*
X148629911Y-63938065D01*
X148629909Y-63938060D01*
X148606483Y-63897485D01*
X148580475Y-63852438D01*
X148510562Y-63782525D01*
X148503547Y-63778475D01*
X148424939Y-63733090D01*
X148424934Y-63733088D01*
X148329437Y-63707500D01*
X148329435Y-63707500D01*
X148327596Y-63707500D01*
X148326738Y-63707144D01*
X148324628Y-63706867D01*
X148324702Y-63706301D01*
X148275270Y-63685826D01*
X147150486Y-62561041D01*
X147103007Y-62513562D01*
X148084500Y-62513562D01*
X148084500Y-62612437D01*
X148110088Y-62707934D01*
X148110090Y-62707939D01*
X148149677Y-62776505D01*
X148159525Y-62793562D01*
X148229438Y-62863475D01*
X148315062Y-62912910D01*
X148315063Y-62912910D01*
X148315065Y-62912911D01*
X148362813Y-62925705D01*
X148410562Y-62938499D01*
X148410563Y-62938500D01*
X148410565Y-62938500D01*
X148509437Y-62938500D01*
X148509437Y-62938499D01*
X148604938Y-62912910D01*
X148690562Y-62863475D01*
X148760475Y-62793562D01*
X148809910Y-62707938D01*
X148835499Y-62612437D01*
X148835500Y-62612437D01*
X148835500Y-62513563D01*
X148835499Y-62513562D01*
X148809911Y-62418065D01*
X148809909Y-62418060D01*
X148772190Y-62352729D01*
X148760475Y-62332438D01*
X148690562Y-62262525D01*
X148604939Y-62213090D01*
X148604934Y-62213088D01*
X148509437Y-62187500D01*
X148509435Y-62187500D01*
X148410565Y-62187500D01*
X148410563Y-62187500D01*
X148315065Y-62213088D01*
X148315060Y-62213090D01*
X148229437Y-62262525D01*
X148159525Y-62332437D01*
X148110090Y-62418060D01*
X148110088Y-62418065D01*
X148084500Y-62513562D01*
X147103007Y-62513562D01*
X146942174Y-62352729D01*
X146920500Y-62300403D01*
X146920500Y-61114728D01*
X146942174Y-61062402D01*
X146994500Y-61040728D01*
X147013648Y-61043249D01*
X147055046Y-61054341D01*
X147070564Y-61058500D01*
X147070565Y-61058500D01*
X147169437Y-61058500D01*
X147169437Y-61058499D01*
X147264938Y-61032910D01*
X147350562Y-60983475D01*
X147351863Y-60982174D01*
X147352721Y-60981818D01*
X147354411Y-60980522D01*
X147354758Y-60980974D01*
X147404189Y-60960500D01*
X149038920Y-60960500D01*
X149038936Y-60960501D01*
X149043466Y-60960501D01*
X149116535Y-60960501D01*
X149187111Y-60941589D01*
X149193220Y-60938062D01*
X149250389Y-60905056D01*
X149393174Y-60762269D01*
X149445500Y-60740596D01*
X149497826Y-60762270D01*
G37*
%TD.AperFunction*%
%TA.AperFunction,Conductor*%
G36*
X140379232Y-52512174D02*
G01*
X140400906Y-52564500D01*
X140391790Y-52598514D01*
X140391947Y-52598579D01*
X140391455Y-52599765D01*
X140390990Y-52601503D01*
X140390091Y-52603059D01*
X140390088Y-52603065D01*
X140364500Y-52698562D01*
X140364500Y-52797437D01*
X140390088Y-52892934D01*
X140390090Y-52892939D01*
X140434871Y-52970501D01*
X140439525Y-52978562D01*
X140509438Y-53048475D01*
X140595062Y-53097910D01*
X140611158Y-53102222D01*
X140656090Y-53136700D01*
X140663484Y-53192853D01*
X140644331Y-53226027D01*
X139387867Y-54482490D01*
X139325078Y-54545279D01*
X139305994Y-54591353D01*
X139292499Y-54623931D01*
X139292499Y-54717678D01*
X139292500Y-54717687D01*
X139292500Y-58040961D01*
X139292499Y-58040975D01*
X139292499Y-58046933D01*
X139292499Y-58132067D01*
X139299670Y-58149378D01*
X139305115Y-58162522D01*
X139305115Y-58162524D01*
X139315611Y-58187863D01*
X139325079Y-58210722D01*
X139385278Y-58270921D01*
X139385279Y-58270921D01*
X139391369Y-58277011D01*
X139391373Y-58277014D01*
X139482826Y-58368467D01*
X139504500Y-58420793D01*
X139504500Y-58512437D01*
X139530088Y-58607934D01*
X139530090Y-58607939D01*
X139567379Y-58672525D01*
X139579525Y-58693562D01*
X139649438Y-58763475D01*
X139735062Y-58812910D01*
X139735063Y-58812910D01*
X139735065Y-58812911D01*
X139774487Y-58823474D01*
X139830562Y-58838499D01*
X139830563Y-58838500D01*
X139830565Y-58838500D01*
X139929437Y-58838500D01*
X139929437Y-58838499D01*
X140024938Y-58812910D01*
X140110562Y-58763475D01*
X140180475Y-58693562D01*
X140229910Y-58607938D01*
X140255499Y-58512437D01*
X140255500Y-58512437D01*
X140255500Y-58413563D01*
X140255499Y-58413562D01*
X140229911Y-58318065D01*
X140229909Y-58318060D01*
X140195181Y-58257910D01*
X140180475Y-58232438D01*
X140110562Y-58162525D01*
X140106540Y-58160203D01*
X140024939Y-58113090D01*
X140024934Y-58113088D01*
X139929437Y-58087500D01*
X139929435Y-58087500D01*
X139837793Y-58087500D01*
X139785467Y-58065826D01*
X139742174Y-58022533D01*
X139720500Y-57970207D01*
X139720500Y-57114728D01*
X139742174Y-57062402D01*
X139794500Y-57040728D01*
X139813648Y-57043249D01*
X139855046Y-57054341D01*
X139870564Y-57058500D01*
X139870565Y-57058500D01*
X139969437Y-57058500D01*
X139969437Y-57058499D01*
X140064938Y-57032910D01*
X140150562Y-56983475D01*
X140220475Y-56913562D01*
X140269910Y-56827938D01*
X140295499Y-56732437D01*
X140295500Y-56732437D01*
X140295500Y-56633563D01*
X140295499Y-56633562D01*
X140269911Y-56538065D01*
X140269909Y-56538060D01*
X140240563Y-56487232D01*
X140220475Y-56452438D01*
X140150562Y-56382525D01*
X140146376Y-56380108D01*
X140064939Y-56333090D01*
X140064934Y-56333088D01*
X139969437Y-56307500D01*
X139969435Y-56307500D01*
X139870565Y-56307500D01*
X139870563Y-56307500D01*
X139813653Y-56322749D01*
X139757500Y-56315357D01*
X139723022Y-56270424D01*
X139720500Y-56251271D01*
X139720500Y-55013562D01*
X139914500Y-55013562D01*
X139914500Y-55112437D01*
X139940088Y-55207934D01*
X139940090Y-55207939D01*
X139985665Y-55286876D01*
X139989525Y-55293562D01*
X140059438Y-55363475D01*
X140083730Y-55377500D01*
X140137035Y-55408276D01*
X140145062Y-55412910D01*
X140145063Y-55412910D01*
X140145065Y-55412911D01*
X140192813Y-55425705D01*
X140240562Y-55438499D01*
X140240563Y-55438500D01*
X140240565Y-55438500D01*
X140339437Y-55438500D01*
X140339437Y-55438499D01*
X140434938Y-55412910D01*
X140520562Y-55363475D01*
X140590475Y-55293562D01*
X140639910Y-55207938D01*
X140665499Y-55112437D01*
X140665500Y-55112437D01*
X140665500Y-55013563D01*
X140665499Y-55013562D01*
X140658909Y-54988969D01*
X140639910Y-54918062D01*
X140590475Y-54832438D01*
X140520562Y-54762525D01*
X140507773Y-54755141D01*
X140434939Y-54713090D01*
X140434934Y-54713088D01*
X140339437Y-54687500D01*
X140339435Y-54687500D01*
X140240565Y-54687500D01*
X140240563Y-54687500D01*
X140145065Y-54713088D01*
X140145060Y-54713090D01*
X140059437Y-54762525D01*
X139989525Y-54832437D01*
X139940090Y-54918060D01*
X139940088Y-54918065D01*
X139914500Y-55013562D01*
X139720500Y-55013562D01*
X139720500Y-54785792D01*
X139742173Y-54733467D01*
X140816174Y-53659465D01*
X140868500Y-53637792D01*
X140920826Y-53659466D01*
X140942500Y-53711792D01*
X140942500Y-56641919D01*
X140942499Y-56641937D01*
X140942499Y-56719535D01*
X140961410Y-56790111D01*
X140997943Y-56853388D01*
X141477826Y-57333271D01*
X141498301Y-57382702D01*
X141498867Y-57382628D01*
X141499144Y-57384739D01*
X141499500Y-57385597D01*
X141499500Y-57387437D01*
X141525088Y-57482934D01*
X141525090Y-57482939D01*
X141574525Y-57568562D01*
X141644438Y-57638475D01*
X141730062Y-57687910D01*
X141730063Y-57687910D01*
X141730065Y-57687911D01*
X141747285Y-57692525D01*
X141825562Y-57713499D01*
X141825563Y-57713500D01*
X141825565Y-57713500D01*
X141924437Y-57713500D01*
X141924437Y-57713499D01*
X142019938Y-57687910D01*
X142105562Y-57638475D01*
X142175475Y-57568562D01*
X142224910Y-57482938D01*
X142250499Y-57387437D01*
X142250500Y-57387437D01*
X142250500Y-57288563D01*
X142250499Y-57288562D01*
X142224911Y-57193065D01*
X142224909Y-57193060D01*
X142188367Y-57129768D01*
X142175475Y-57107438D01*
X142105562Y-57037525D01*
X142081298Y-57023516D01*
X142019939Y-56988090D01*
X142019934Y-56988088D01*
X141924437Y-56962500D01*
X141924435Y-56962500D01*
X141922597Y-56962500D01*
X141921739Y-56962144D01*
X141919628Y-56961867D01*
X141919702Y-56961301D01*
X141870271Y-56940826D01*
X141519174Y-56589729D01*
X141497500Y-56537403D01*
X141497500Y-56289098D01*
X141519174Y-56236772D01*
X141571500Y-56215098D01*
X141623826Y-56236772D01*
X141635585Y-56252096D01*
X141659525Y-56293562D01*
X141729438Y-56363475D01*
X141762434Y-56382525D01*
X141808736Y-56409258D01*
X141815062Y-56412910D01*
X141815063Y-56412910D01*
X141815065Y-56412911D01*
X141859477Y-56424811D01*
X141910562Y-56438499D01*
X141910563Y-56438500D01*
X141910565Y-56438500D01*
X142009437Y-56438500D01*
X142009437Y-56438499D01*
X142104938Y-56412910D01*
X142190562Y-56363475D01*
X142260475Y-56293562D01*
X142309910Y-56207938D01*
X142309911Y-56207935D01*
X142311768Y-56203453D01*
X142312942Y-56203939D01*
X142314594Y-56201040D01*
X142312840Y-56200288D01*
X142312843Y-56200281D01*
X142326643Y-56179899D01*
X142327830Y-56177818D01*
X142327966Y-56177679D01*
X142328221Y-56177570D01*
X142328537Y-56177102D01*
X142332778Y-56172862D01*
X142385107Y-56151194D01*
X142437424Y-56172868D01*
X142964745Y-56700189D01*
X142986419Y-56752515D01*
X142986419Y-63488322D01*
X142964745Y-63540648D01*
X142912419Y-63562322D01*
X142860093Y-63540648D01*
X139247174Y-59927729D01*
X139225500Y-59875403D01*
X139225500Y-59833563D01*
X139225499Y-59833562D01*
X139220708Y-59815683D01*
X139207949Y-59768065D01*
X139199911Y-59738065D01*
X139199909Y-59738060D01*
X139180413Y-59704292D01*
X139150475Y-59652438D01*
X139080562Y-59582525D01*
X139046896Y-59563088D01*
X138994939Y-59533090D01*
X138994934Y-59533088D01*
X138899437Y-59507500D01*
X138899435Y-59507500D01*
X138800565Y-59507500D01*
X138800563Y-59507500D01*
X138705065Y-59533088D01*
X138705060Y-59533090D01*
X138619437Y-59582525D01*
X138549525Y-59652437D01*
X138500090Y-59738060D01*
X138500088Y-59738065D01*
X138474500Y-59833562D01*
X138474500Y-59932437D01*
X138500088Y-60027934D01*
X138500090Y-60027939D01*
X138529028Y-60078060D01*
X138549525Y-60113562D01*
X138619438Y-60183475D01*
X138705062Y-60232910D01*
X138705063Y-60232910D01*
X138705065Y-60232911D01*
X138771154Y-60250620D01*
X138804327Y-60269772D01*
X139135516Y-60600961D01*
X139157190Y-60653287D01*
X139135516Y-60705613D01*
X139102343Y-60724765D01*
X139014979Y-60748174D01*
X139014974Y-60748176D01*
X138929351Y-60797611D01*
X138859439Y-60867523D01*
X138810004Y-60953146D01*
X138810002Y-60953151D01*
X138784414Y-61048648D01*
X138784414Y-61147523D01*
X138810002Y-61243020D01*
X138810004Y-61243025D01*
X138859439Y-61328648D01*
X138869051Y-61338260D01*
X138890725Y-61390586D01*
X138871236Y-61437636D01*
X138872478Y-61438589D01*
X138869526Y-61442435D01*
X138820090Y-61528060D01*
X138820088Y-61528065D01*
X138794500Y-61623562D01*
X138794500Y-61722434D01*
X138809340Y-61777820D01*
X138801947Y-61833972D01*
X138757014Y-61868450D01*
X138665065Y-61893088D01*
X138665060Y-61893090D01*
X138579437Y-61942525D01*
X138509525Y-62012437D01*
X138460090Y-62098060D01*
X138460088Y-62098065D01*
X138434500Y-62193562D01*
X138434500Y-62292437D01*
X138460088Y-62387934D01*
X138460090Y-62387939D01*
X138505284Y-62466216D01*
X138509525Y-62473562D01*
X138579438Y-62543475D01*
X138642117Y-62579663D01*
X138648872Y-62583563D01*
X138665062Y-62592910D01*
X138665063Y-62592910D01*
X138665065Y-62592911D01*
X138712813Y-62605705D01*
X138760562Y-62618499D01*
X138760563Y-62618500D01*
X138760565Y-62618500D01*
X138859437Y-62618500D01*
X138859437Y-62618499D01*
X138954938Y-62592910D01*
X139040562Y-62543475D01*
X139110475Y-62473562D01*
X139159910Y-62387938D01*
X139185499Y-62292437D01*
X139185500Y-62292437D01*
X139185500Y-62193563D01*
X139185499Y-62193562D01*
X139170660Y-62138180D01*
X139174355Y-62110104D01*
X139177964Y-62082181D01*
X139178039Y-62082123D01*
X139178052Y-62082027D01*
X139222814Y-62047595D01*
X139222908Y-62047569D01*
X139314938Y-62022910D01*
X139315708Y-62022464D01*
X139321176Y-62020986D01*
X139344877Y-62024048D01*
X139368788Y-62024038D01*
X139372351Y-62027598D01*
X139377346Y-62028244D01*
X139391940Y-62047169D01*
X139408855Y-62064069D01*
X139410206Y-62070856D01*
X139411932Y-62073094D01*
X139411428Y-62076992D01*
X139414500Y-62092418D01*
X139414500Y-62140154D01*
X139440088Y-62235651D01*
X139440090Y-62235656D01*
X139471861Y-62290684D01*
X139489525Y-62321279D01*
X139559438Y-62391192D01*
X139645062Y-62440627D01*
X139645063Y-62440627D01*
X139645065Y-62440628D01*
X139692813Y-62453422D01*
X139740562Y-62466216D01*
X139740563Y-62466217D01*
X139740565Y-62466217D01*
X139839437Y-62466217D01*
X139839437Y-62466216D01*
X139934938Y-62440627D01*
X140020562Y-62391192D01*
X140090475Y-62321279D01*
X140139910Y-62235655D01*
X140165499Y-62140154D01*
X140165500Y-62140154D01*
X140165500Y-62041280D01*
X140165499Y-62041279D01*
X140164636Y-62038060D01*
X140139910Y-61945779D01*
X140090475Y-61860155D01*
X140020562Y-61790242D01*
X140007975Y-61782975D01*
X139934939Y-61740807D01*
X139934934Y-61740805D01*
X139839437Y-61715217D01*
X139839435Y-61715217D01*
X139740565Y-61715217D01*
X139740563Y-61715217D01*
X139640377Y-61742062D01*
X139639735Y-61739666D01*
X139591178Y-61739664D01*
X139551131Y-61699613D01*
X139545500Y-61671298D01*
X139545500Y-61623563D01*
X139545499Y-61623562D01*
X139519911Y-61528065D01*
X139519909Y-61528060D01*
X139470474Y-61442437D01*
X139460863Y-61432826D01*
X139439189Y-61380500D01*
X139458677Y-61333449D01*
X139457436Y-61332497D01*
X139460387Y-61328650D01*
X139460389Y-61328648D01*
X139509824Y-61243024D01*
X139533234Y-61155655D01*
X139567712Y-61110723D01*
X139623864Y-61103330D01*
X139657038Y-61122483D01*
X142610745Y-64076189D01*
X142632419Y-64128515D01*
X142632419Y-64297050D01*
X142632418Y-64297068D01*
X142632418Y-64374666D01*
X142651329Y-64445242D01*
X142687862Y-64508519D01*
X142687863Y-64508520D01*
X143067281Y-64887938D01*
X143349518Y-65170174D01*
X143371192Y-65222500D01*
X143349518Y-65274826D01*
X143297192Y-65296500D01*
X135679268Y-65296500D01*
X135626942Y-65274826D01*
X135620559Y-65267548D01*
X135620473Y-65267436D01*
X135550562Y-65197525D01*
X135464939Y-65148090D01*
X135464934Y-65148088D01*
X135369437Y-65122500D01*
X135369435Y-65122500D01*
X135270565Y-65122500D01*
X135270563Y-65122500D01*
X135175065Y-65148088D01*
X135175060Y-65148090D01*
X135089437Y-65197525D01*
X135019526Y-65267436D01*
X135019441Y-65267548D01*
X135019379Y-65267583D01*
X135016095Y-65270868D01*
X135015214Y-65269987D01*
X134970392Y-65295867D01*
X134960732Y-65296500D01*
X133376597Y-65296500D01*
X133324271Y-65274826D01*
X132117773Y-64068328D01*
X132096099Y-64016002D01*
X132117773Y-63963676D01*
X132170099Y-63942002D01*
X132213814Y-63942002D01*
X132213814Y-63942001D01*
X132309315Y-63916412D01*
X132394939Y-63866977D01*
X132464852Y-63797064D01*
X132514287Y-63711440D01*
X132539876Y-63615939D01*
X132539877Y-63615939D01*
X132539877Y-63517065D01*
X132539876Y-63517064D01*
X132529793Y-63479435D01*
X132525263Y-63462526D01*
X132514288Y-63421567D01*
X132514286Y-63421562D01*
X132464851Y-63335939D01*
X132394939Y-63266027D01*
X132309316Y-63216592D01*
X132309311Y-63216590D01*
X132213814Y-63191002D01*
X132213812Y-63191002D01*
X132114942Y-63191002D01*
X132114940Y-63191002D01*
X132019442Y-63216590D01*
X132019437Y-63216592D01*
X131933814Y-63266027D01*
X131900152Y-63299689D01*
X131847826Y-63321362D01*
X131810829Y-63311448D01*
X131772281Y-63289193D01*
X131736673Y-63268634D01*
X131736668Y-63268632D01*
X131641171Y-63243044D01*
X131641169Y-63243044D01*
X131542299Y-63243044D01*
X131542297Y-63243044D01*
X131446799Y-63268632D01*
X131446794Y-63268634D01*
X131361171Y-63318069D01*
X131291258Y-63387982D01*
X131267965Y-63428326D01*
X131223031Y-63462804D01*
X131166879Y-63455410D01*
X131158836Y-63450036D01*
X131155567Y-63447528D01*
X131069939Y-63398090D01*
X131069934Y-63398088D01*
X130974437Y-63372500D01*
X130974435Y-63372500D01*
X130875565Y-63372500D01*
X130875563Y-63372500D01*
X130780065Y-63398088D01*
X130780060Y-63398090D01*
X130694437Y-63447525D01*
X130624524Y-63517438D01*
X130576609Y-63600428D01*
X130531676Y-63634906D01*
X130475523Y-63627512D01*
X130460198Y-63615753D01*
X130327174Y-63482729D01*
X130306698Y-63433297D01*
X130306133Y-63433372D01*
X130305855Y-63431260D01*
X130305500Y-63430403D01*
X130305500Y-63428563D01*
X130305499Y-63428562D01*
X130303623Y-63421562D01*
X130279910Y-63333062D01*
X130230475Y-63247438D01*
X130229174Y-63246137D01*
X130228818Y-63245278D01*
X130227522Y-63243589D01*
X130227974Y-63243241D01*
X130207500Y-63193811D01*
X130207500Y-61387051D01*
X130207499Y-61387050D01*
X130188590Y-61316480D01*
X130188589Y-61316476D01*
X130152056Y-61253198D01*
X130100389Y-61201531D01*
X130097810Y-61198952D01*
X130097799Y-61198942D01*
X129661127Y-60762270D01*
X129222049Y-60323191D01*
X129222048Y-60323190D01*
X129158771Y-60286657D01*
X129088195Y-60267746D01*
X129088194Y-60267746D01*
X129015126Y-60267746D01*
X129010596Y-60267746D01*
X129010580Y-60267747D01*
X128991203Y-60267747D01*
X128941772Y-60247272D01*
X128941425Y-60247725D01*
X128939735Y-60246428D01*
X128938877Y-60246073D01*
X128937576Y-60244772D01*
X128851953Y-60195337D01*
X128851948Y-60195335D01*
X128756451Y-60169747D01*
X128756449Y-60169747D01*
X128657579Y-60169747D01*
X128657577Y-60169747D01*
X128562079Y-60195335D01*
X128562074Y-60195337D01*
X128476451Y-60244772D01*
X128406539Y-60314684D01*
X128368586Y-60380421D01*
X128323652Y-60414900D01*
X128267500Y-60407507D01*
X128233021Y-60362573D01*
X128230500Y-60343421D01*
X128230500Y-57603562D01*
X128994500Y-57603562D01*
X128994500Y-57702437D01*
X129020088Y-57797934D01*
X129020090Y-57797939D01*
X129034877Y-57823550D01*
X129069525Y-57883562D01*
X129139438Y-57953475D01*
X129168419Y-57970207D01*
X129221509Y-58000859D01*
X129225062Y-58002910D01*
X129225063Y-58002910D01*
X129225065Y-58002911D01*
X129254041Y-58010675D01*
X129320562Y-58028499D01*
X129320563Y-58028500D01*
X129320565Y-58028500D01*
X129419437Y-58028500D01*
X129419437Y-58028499D01*
X129514938Y-58002910D01*
X129600562Y-57953475D01*
X129670475Y-57883562D01*
X129685216Y-57858028D01*
X129730148Y-57823550D01*
X129786300Y-57830941D01*
X129820780Y-57875874D01*
X129820780Y-57875875D01*
X129840088Y-57947934D01*
X129840090Y-57947939D01*
X129886602Y-58028500D01*
X129889525Y-58033562D01*
X129897953Y-58041990D01*
X129919629Y-58094314D01*
X129897957Y-58146641D01*
X129864784Y-58165795D01*
X129837562Y-58173089D01*
X129837560Y-58173090D01*
X129751937Y-58222525D01*
X129682025Y-58292437D01*
X129632590Y-58378060D01*
X129632588Y-58378065D01*
X129607000Y-58473562D01*
X129607000Y-58572437D01*
X129632588Y-58667934D01*
X129632590Y-58667939D01*
X129678776Y-58747934D01*
X129682025Y-58753562D01*
X129751938Y-58823475D01*
X129837562Y-58872910D01*
X129837563Y-58872910D01*
X129837565Y-58872911D01*
X129885313Y-58885705D01*
X129933062Y-58898499D01*
X129933063Y-58898500D01*
X129933065Y-58898500D01*
X130031937Y-58898500D01*
X130031937Y-58898499D01*
X130127438Y-58872910D01*
X130213062Y-58823475D01*
X130282975Y-58753562D01*
X130332410Y-58667938D01*
X130357999Y-58572437D01*
X130358000Y-58572437D01*
X130358000Y-58473563D01*
X130357999Y-58473562D01*
X130332411Y-58378065D01*
X130332409Y-58378060D01*
X130282975Y-58292438D01*
X130282974Y-58292437D01*
X130274545Y-58284008D01*
X130252870Y-58231685D01*
X130274542Y-58179358D01*
X130307716Y-58160204D01*
X130334938Y-58152910D01*
X130420562Y-58103475D01*
X130490475Y-58033562D01*
X130539910Y-57947938D01*
X130565499Y-57852437D01*
X130565500Y-57852437D01*
X130565500Y-57753563D01*
X130565499Y-57753562D01*
X130539911Y-57658065D01*
X130539909Y-57658060D01*
X130520854Y-57625056D01*
X130490475Y-57572438D01*
X130420562Y-57502525D01*
X130334939Y-57453090D01*
X130334934Y-57453088D01*
X130239437Y-57427500D01*
X130239435Y-57427500D01*
X130140565Y-57427500D01*
X130140563Y-57427500D01*
X130045065Y-57453088D01*
X130045060Y-57453090D01*
X129959437Y-57502525D01*
X129889524Y-57572438D01*
X129874782Y-57597972D01*
X129829848Y-57632450D01*
X129773696Y-57625056D01*
X129739219Y-57580124D01*
X129719910Y-57508062D01*
X129670475Y-57422438D01*
X129600562Y-57352525D01*
X129580368Y-57340866D01*
X129514939Y-57303090D01*
X129514934Y-57303088D01*
X129419437Y-57277500D01*
X129419435Y-57277500D01*
X129320565Y-57277500D01*
X129320563Y-57277500D01*
X129225065Y-57303088D01*
X129225060Y-57303090D01*
X129139437Y-57352525D01*
X129069525Y-57422437D01*
X129020090Y-57508060D01*
X129020088Y-57508065D01*
X128994500Y-57603562D01*
X128230500Y-57603562D01*
X128230500Y-55833392D01*
X128252174Y-55781066D01*
X128304500Y-55759392D01*
X128341501Y-55769307D01*
X128365058Y-55782908D01*
X128365060Y-55782908D01*
X128365062Y-55782910D01*
X128365063Y-55782910D01*
X128365065Y-55782911D01*
X128367506Y-55783565D01*
X128460562Y-55808499D01*
X128460563Y-55808500D01*
X128460565Y-55808500D01*
X128559437Y-55808500D01*
X128559437Y-55808499D01*
X128654938Y-55782910D01*
X128740562Y-55733475D01*
X128749496Y-55724540D01*
X128801820Y-55702865D01*
X128854147Y-55724537D01*
X128865907Y-55739862D01*
X128867942Y-55743387D01*
X128867943Y-55743388D01*
X128867944Y-55743389D01*
X129165950Y-56041395D01*
X129422167Y-56297611D01*
X129443841Y-56349937D01*
X129422167Y-56402263D01*
X129413054Y-56409258D01*
X129413292Y-56409567D01*
X129409442Y-56412521D01*
X129339525Y-56482437D01*
X129290090Y-56568060D01*
X129290088Y-56568065D01*
X129264500Y-56663562D01*
X129264500Y-56762437D01*
X129290088Y-56857934D01*
X129290090Y-56857939D01*
X129323823Y-56916366D01*
X129339525Y-56943562D01*
X129409438Y-57013475D01*
X129443364Y-57033062D01*
X129487423Y-57058500D01*
X129495062Y-57062910D01*
X129495063Y-57062910D01*
X129495065Y-57062911D01*
X129521791Y-57070072D01*
X129590562Y-57088499D01*
X129590563Y-57088500D01*
X129590565Y-57088500D01*
X129689437Y-57088500D01*
X129689437Y-57088499D01*
X129784938Y-57062910D01*
X129870562Y-57013475D01*
X129940475Y-56943562D01*
X129989910Y-56857938D01*
X130002295Y-56811715D01*
X130036772Y-56766783D01*
X130092925Y-56759390D01*
X130126099Y-56778543D01*
X130765355Y-57417799D01*
X130765360Y-57417805D01*
X130767944Y-57420389D01*
X130819611Y-57472056D01*
X130865414Y-57498500D01*
X130882889Y-57508589D01*
X130928354Y-57520772D01*
X130953465Y-57527501D01*
X130953466Y-57527501D01*
X131031064Y-57527501D01*
X131031080Y-57527500D01*
X132201920Y-57527500D01*
X132201936Y-57527501D01*
X132206466Y-57527501D01*
X132279535Y-57527501D01*
X132293649Y-57523718D01*
X132350111Y-57508589D01*
X132350413Y-57508414D01*
X132350753Y-57508323D01*
X132354590Y-57506734D01*
X132354799Y-57507239D01*
X132387413Y-57498500D01*
X132419437Y-57498500D01*
X132419437Y-57498499D01*
X132514938Y-57472910D01*
X132600562Y-57423475D01*
X132670475Y-57353562D01*
X132719910Y-57267938D01*
X132745499Y-57172437D01*
X132745500Y-57172437D01*
X132745500Y-57073563D01*
X132745499Y-57073562D01*
X132744567Y-57070085D01*
X132722597Y-56988090D01*
X132719911Y-56978065D01*
X132719909Y-56978060D01*
X132690538Y-56927189D01*
X132670475Y-56892438D01*
X132600562Y-56822525D01*
X132565878Y-56802500D01*
X132514939Y-56773090D01*
X132514934Y-56773088D01*
X132419437Y-56747500D01*
X132419435Y-56747500D01*
X132320565Y-56747500D01*
X132320563Y-56747500D01*
X132225065Y-56773088D01*
X132225060Y-56773090D01*
X132139437Y-56822525D01*
X132069525Y-56892437D01*
X132044663Y-56935500D01*
X131999729Y-56969979D01*
X131980577Y-56972500D01*
X131135596Y-56972500D01*
X131083270Y-56950826D01*
X130621593Y-56489149D01*
X130146389Y-56013944D01*
X130146388Y-56013943D01*
X130083111Y-55977410D01*
X130012535Y-55958499D01*
X130012534Y-55958499D01*
X129939466Y-55958499D01*
X129934936Y-55958499D01*
X129934920Y-55958500D01*
X129898596Y-55958500D01*
X129846270Y-55936826D01*
X129664272Y-55754827D01*
X129642598Y-55702501D01*
X129664272Y-55650175D01*
X129716598Y-55628501D01*
X130199739Y-55628501D01*
X130199740Y-55628501D01*
X130243642Y-55619768D01*
X130293424Y-55586505D01*
X130321604Y-55544329D01*
X130368695Y-55512863D01*
X130420132Y-55521354D01*
X130537785Y-55589282D01*
X130684151Y-55628500D01*
X130684152Y-55628501D01*
X130684154Y-55628501D01*
X130835688Y-55628501D01*
X130835688Y-55628500D01*
X130982055Y-55589282D01*
X131113285Y-55513516D01*
X131207595Y-55419205D01*
X131259920Y-55397532D01*
X131312244Y-55419205D01*
X131406555Y-55513516D01*
X131537785Y-55589282D01*
X131684151Y-55628500D01*
X131684152Y-55628501D01*
X131684154Y-55628501D01*
X131835688Y-55628501D01*
X131835688Y-55628500D01*
X131982055Y-55589282D01*
X132113285Y-55513516D01*
X132220435Y-55406366D01*
X132296201Y-55275136D01*
X132335419Y-55128769D01*
X132335420Y-55128769D01*
X132335420Y-54977233D01*
X132335419Y-54977232D01*
X132319565Y-54918065D01*
X132296201Y-54830866D01*
X132220435Y-54699636D01*
X132126124Y-54605325D01*
X132104451Y-54553001D01*
X132126124Y-54500676D01*
X132207595Y-54419205D01*
X132259920Y-54397532D01*
X132312244Y-54419205D01*
X132406555Y-54513516D01*
X132537785Y-54589282D01*
X132684151Y-54628500D01*
X132684152Y-54628501D01*
X132684154Y-54628501D01*
X132835688Y-54628501D01*
X132835688Y-54628500D01*
X132982055Y-54589282D01*
X133113285Y-54513516D01*
X133207595Y-54419205D01*
X133259920Y-54397532D01*
X133312244Y-54419205D01*
X133353832Y-54460793D01*
X133393714Y-54500675D01*
X133415388Y-54553001D01*
X133393714Y-54605327D01*
X133299403Y-54699638D01*
X133223641Y-54830861D01*
X133223637Y-54830870D01*
X133184420Y-54977232D01*
X133184420Y-55128769D01*
X133223637Y-55275131D01*
X133223641Y-55275140D01*
X133299403Y-55406363D01*
X133299405Y-55406366D01*
X133355474Y-55462435D01*
X133406555Y-55513516D01*
X133445419Y-55535954D01*
X133479898Y-55580887D01*
X133482420Y-55600040D01*
X133482420Y-61856839D01*
X133482419Y-61856857D01*
X133482419Y-61934455D01*
X133501330Y-62005031D01*
X133537863Y-62068308D01*
X134862826Y-63393270D01*
X134884500Y-63445596D01*
X134884500Y-63479437D01*
X134910088Y-63574934D01*
X134910090Y-63574939D01*
X134949122Y-63642544D01*
X134959525Y-63660562D01*
X135029438Y-63730475D01*
X135068610Y-63753091D01*
X135112576Y-63778475D01*
X135115062Y-63779910D01*
X135115063Y-63779910D01*
X135115065Y-63779911D01*
X135176724Y-63796433D01*
X135192050Y-63808193D01*
X135209896Y-63815585D01*
X135213722Y-63824822D01*
X135221657Y-63830911D01*
X135224178Y-63850063D01*
X135231571Y-63867910D01*
X135227743Y-63877149D01*
X135229049Y-63887064D01*
X135209897Y-63920236D01*
X135154309Y-63975825D01*
X135101984Y-63997500D01*
X135090563Y-63997500D01*
X134995065Y-64023088D01*
X134995060Y-64023090D01*
X134909437Y-64072525D01*
X134839525Y-64142437D01*
X134790090Y-64228060D01*
X134790088Y-64228065D01*
X134764500Y-64323562D01*
X134764500Y-64422437D01*
X134790088Y-64517934D01*
X134790090Y-64517939D01*
X134823107Y-64575125D01*
X134839525Y-64603562D01*
X134909438Y-64673475D01*
X134995062Y-64722910D01*
X134995063Y-64722910D01*
X134995065Y-64722911D01*
X135042813Y-64735705D01*
X135090562Y-64748499D01*
X135090563Y-64748500D01*
X135090565Y-64748500D01*
X135189437Y-64748500D01*
X135189437Y-64748499D01*
X135284938Y-64722910D01*
X135370562Y-64673475D01*
X135440475Y-64603562D01*
X135489910Y-64517938D01*
X135500029Y-64480174D01*
X135515499Y-64422440D01*
X135515693Y-64420966D01*
X135516133Y-64420071D01*
X135516756Y-64417750D01*
X135517217Y-64417873D01*
X135536734Y-64378289D01*
X135984461Y-63930562D01*
X137004500Y-63930562D01*
X137004500Y-64029437D01*
X137030088Y-64124934D01*
X137030090Y-64124939D01*
X137060386Y-64177413D01*
X137079525Y-64210562D01*
X137149438Y-64280475D01*
X137235062Y-64329910D01*
X137235063Y-64329910D01*
X137235065Y-64329911D01*
X137248691Y-64333562D01*
X137330562Y-64355499D01*
X137330563Y-64355500D01*
X137330565Y-64355500D01*
X137429437Y-64355500D01*
X137429437Y-64355499D01*
X137524938Y-64329910D01*
X137610562Y-64280475D01*
X137680475Y-64210562D01*
X137729910Y-64124938D01*
X137741148Y-64082999D01*
X137749036Y-64053562D01*
X138814500Y-64053562D01*
X138814500Y-64152437D01*
X138840088Y-64247934D01*
X138840090Y-64247939D01*
X138887417Y-64329911D01*
X138889525Y-64333562D01*
X138959438Y-64403475D01*
X138994079Y-64423475D01*
X139034922Y-64447056D01*
X139045062Y-64452910D01*
X139045063Y-64452910D01*
X139045065Y-64452911D01*
X139070395Y-64459698D01*
X139140562Y-64478499D01*
X139140563Y-64478500D01*
X139140565Y-64478500D01*
X139239437Y-64478500D01*
X139239437Y-64478499D01*
X139334938Y-64452910D01*
X139420562Y-64403475D01*
X139490475Y-64333562D01*
X139539910Y-64247938D01*
X139565499Y-64152437D01*
X139565500Y-64152437D01*
X139565500Y-64053563D01*
X139565499Y-64053562D01*
X139565354Y-64053022D01*
X139545269Y-63978062D01*
X139539911Y-63958065D01*
X139539909Y-63958060D01*
X139518071Y-63920236D01*
X139490475Y-63872438D01*
X139420562Y-63802525D01*
X139350972Y-63762347D01*
X139334942Y-63753091D01*
X139334934Y-63753088D01*
X139239437Y-63727500D01*
X139239435Y-63727500D01*
X139140565Y-63727500D01*
X139140563Y-63727500D01*
X139045065Y-63753088D01*
X139045060Y-63753090D01*
X138959437Y-63802525D01*
X138889525Y-63872437D01*
X138840090Y-63958060D01*
X138840088Y-63958065D01*
X138814500Y-64053562D01*
X137749036Y-64053562D01*
X137755467Y-64029562D01*
X137755499Y-64029437D01*
X137755500Y-64029437D01*
X137755500Y-63930563D01*
X137755499Y-63930562D01*
X137755333Y-63929944D01*
X137736852Y-63860968D01*
X137729911Y-63835065D01*
X137729909Y-63835060D01*
X137707972Y-63797064D01*
X137680475Y-63749438D01*
X137634146Y-63703109D01*
X140559592Y-63703109D01*
X140559592Y-63801984D01*
X140585180Y-63897481D01*
X140585182Y-63897486D01*
X140619948Y-63957702D01*
X140634617Y-63983109D01*
X140704530Y-64053022D01*
X140790154Y-64102457D01*
X140790155Y-64102457D01*
X140790157Y-64102458D01*
X140829165Y-64112910D01*
X140885654Y-64128046D01*
X140885655Y-64128047D01*
X140885657Y-64128047D01*
X140984529Y-64128047D01*
X140984529Y-64128046D01*
X141080030Y-64102457D01*
X141165654Y-64053022D01*
X141165655Y-64053021D01*
X141169500Y-64050071D01*
X141170518Y-64051398D01*
X141217306Y-64032008D01*
X141257793Y-64044058D01*
X141264219Y-64048256D01*
X141279438Y-64063475D01*
X141348866Y-64103559D01*
X141350583Y-64104681D01*
X141365493Y-64126503D01*
X141381588Y-64147479D01*
X141381303Y-64149643D01*
X141382534Y-64151445D01*
X141377646Y-64177413D01*
X141374195Y-64203631D01*
X141360090Y-64228060D01*
X141360088Y-64228065D01*
X141334500Y-64323562D01*
X141334500Y-64422437D01*
X141360088Y-64517934D01*
X141360090Y-64517939D01*
X141393107Y-64575125D01*
X141409525Y-64603562D01*
X141479438Y-64673475D01*
X141565062Y-64722910D01*
X141565063Y-64722910D01*
X141565065Y-64722911D01*
X141612813Y-64735705D01*
X141660562Y-64748499D01*
X141660563Y-64748500D01*
X141660565Y-64748500D01*
X141759437Y-64748500D01*
X141759437Y-64748499D01*
X141854938Y-64722910D01*
X141940562Y-64673475D01*
X142010475Y-64603562D01*
X142059910Y-64517938D01*
X142085499Y-64422437D01*
X142085500Y-64422437D01*
X142085500Y-64323563D01*
X142085499Y-64323562D01*
X142059911Y-64228065D01*
X142059909Y-64228060D01*
X142016248Y-64152437D01*
X142010475Y-64142438D01*
X141940562Y-64072525D01*
X141924887Y-64063475D01*
X141872890Y-64033454D01*
X141838411Y-63988520D01*
X141845803Y-63932371D01*
X141859910Y-63907938D01*
X141885499Y-63812437D01*
X141885500Y-63812437D01*
X141885500Y-63713563D01*
X141885499Y-63713562D01*
X141884930Y-63711440D01*
X141863133Y-63630090D01*
X141859911Y-63618065D01*
X141859909Y-63618060D01*
X141828171Y-63563088D01*
X141810475Y-63532438D01*
X141740562Y-63462525D01*
X141738016Y-63461055D01*
X141654939Y-63413090D01*
X141654934Y-63413088D01*
X141559437Y-63387500D01*
X141559435Y-63387500D01*
X141460565Y-63387500D01*
X141460563Y-63387500D01*
X141365065Y-63413088D01*
X141365060Y-63413090D01*
X141279435Y-63462526D01*
X141275589Y-63465478D01*
X141274574Y-63464155D01*
X141227759Y-63483538D01*
X141175446Y-63461864D01*
X141165654Y-63452072D01*
X141080031Y-63402637D01*
X141080026Y-63402635D01*
X140984529Y-63377047D01*
X140984527Y-63377047D01*
X140885657Y-63377047D01*
X140885655Y-63377047D01*
X140790157Y-63402635D01*
X140790152Y-63402637D01*
X140704529Y-63452072D01*
X140634617Y-63521984D01*
X140585182Y-63607607D01*
X140585180Y-63607612D01*
X140559592Y-63703109D01*
X137634146Y-63703109D01*
X137610562Y-63679525D01*
X137577717Y-63660562D01*
X137524939Y-63630090D01*
X137524934Y-63630088D01*
X137429437Y-63604500D01*
X137429435Y-63604500D01*
X137330565Y-63604500D01*
X137330563Y-63604500D01*
X137235065Y-63630088D01*
X137235060Y-63630090D01*
X137149437Y-63679525D01*
X137079525Y-63749437D01*
X137030090Y-63835060D01*
X137030088Y-63835065D01*
X137004500Y-63930562D01*
X135984461Y-63930562D01*
X136002386Y-63912637D01*
X136002389Y-63912636D01*
X136054056Y-63860969D01*
X136090589Y-63797691D01*
X136094870Y-63781714D01*
X136109501Y-63727114D01*
X136109501Y-63654046D01*
X136109501Y-63649517D01*
X136109500Y-63649499D01*
X136109500Y-63258884D01*
X136109499Y-63258883D01*
X136106432Y-63247438D01*
X136090589Y-63188309D01*
X136054056Y-63125031D01*
X136051169Y-63122144D01*
X136029495Y-63069818D01*
X136051169Y-63017492D01*
X136103495Y-62995818D01*
X136122645Y-62998339D01*
X136145780Y-63004538D01*
X136160564Y-63008500D01*
X136160565Y-63008500D01*
X136259437Y-63008500D01*
X136259437Y-63008499D01*
X136354938Y-62982910D01*
X136440562Y-62933475D01*
X136510475Y-62863562D01*
X136559910Y-62777938D01*
X136585499Y-62682437D01*
X136585500Y-62682437D01*
X136585500Y-62583563D01*
X136585499Y-62583562D01*
X136578783Y-62558499D01*
X136559910Y-62488062D01*
X136510475Y-62402438D01*
X136440562Y-62332525D01*
X136432610Y-62327934D01*
X136354939Y-62283090D01*
X136354934Y-62283088D01*
X136259437Y-62257500D01*
X136259435Y-62257500D01*
X136160565Y-62257500D01*
X136160563Y-62257500D01*
X136065065Y-62283088D01*
X136065060Y-62283090D01*
X135979437Y-62332525D01*
X135909525Y-62402437D01*
X135860090Y-62488060D01*
X135860088Y-62488065D01*
X135834500Y-62583562D01*
X135834500Y-62682434D01*
X135844660Y-62720353D01*
X135837267Y-62776505D01*
X135792333Y-62810984D01*
X135736181Y-62803591D01*
X135720855Y-62791831D01*
X135461935Y-62532911D01*
X135062587Y-62133562D01*
X136944500Y-62133562D01*
X136944500Y-62232437D01*
X136970088Y-62327934D01*
X136970090Y-62327939D01*
X137013153Y-62402525D01*
X137019525Y-62413562D01*
X137089438Y-62483475D01*
X137175062Y-62532910D01*
X137175063Y-62532910D01*
X137175065Y-62532911D01*
X137214487Y-62543474D01*
X137270562Y-62558499D01*
X137270563Y-62558500D01*
X137270565Y-62558500D01*
X137369437Y-62558500D01*
X137369437Y-62558499D01*
X137464938Y-62532910D01*
X137550562Y-62483475D01*
X137620475Y-62413562D01*
X137669910Y-62327938D01*
X137695499Y-62232437D01*
X137695500Y-62232437D01*
X137695500Y-62133563D01*
X137695499Y-62133562D01*
X137692518Y-62122438D01*
X137672707Y-62048500D01*
X137669911Y-62038065D01*
X137669909Y-62038060D01*
X137654968Y-62012181D01*
X137620475Y-61952438D01*
X137550562Y-61882525D01*
X137464939Y-61833090D01*
X137464934Y-61833088D01*
X137369437Y-61807500D01*
X137369435Y-61807500D01*
X137270565Y-61807500D01*
X137270563Y-61807500D01*
X137175065Y-61833088D01*
X137175060Y-61833090D01*
X137089437Y-61882525D01*
X137019525Y-61952437D01*
X136970090Y-62038060D01*
X136970088Y-62038065D01*
X136944500Y-62133562D01*
X135062587Y-62133562D01*
X134949174Y-62020149D01*
X134927500Y-61967823D01*
X134927500Y-57593981D01*
X134949174Y-57541655D01*
X135001500Y-57519981D01*
X135029937Y-57527601D01*
X135030579Y-57526053D01*
X135035060Y-57527909D01*
X135035062Y-57527910D01*
X135035063Y-57527910D01*
X135035065Y-57527911D01*
X135062959Y-57535385D01*
X135130562Y-57553499D01*
X135130563Y-57553500D01*
X135130565Y-57553500D01*
X135229437Y-57553500D01*
X135229437Y-57553499D01*
X135324938Y-57527910D01*
X135410562Y-57478475D01*
X135480475Y-57408562D01*
X135529910Y-57322938D01*
X135555499Y-57227437D01*
X135555500Y-57227437D01*
X135555500Y-57128563D01*
X135555499Y-57128562D01*
X135546909Y-57096505D01*
X135537908Y-57062910D01*
X135529911Y-57033065D01*
X135529909Y-57033060D01*
X135498156Y-56978062D01*
X135480475Y-56947438D01*
X135410562Y-56877525D01*
X135376638Y-56857939D01*
X135324939Y-56828090D01*
X135324934Y-56828088D01*
X135229437Y-56802500D01*
X135229435Y-56802500D01*
X135148500Y-56802500D01*
X135096174Y-56780826D01*
X135074500Y-56728500D01*
X135074500Y-56541475D01*
X135096174Y-56489149D01*
X135148500Y-56467475D01*
X135185500Y-56477389D01*
X135195062Y-56482910D01*
X135195064Y-56482910D01*
X135195065Y-56482911D01*
X135211203Y-56487235D01*
X135290562Y-56508499D01*
X135290563Y-56508500D01*
X135290565Y-56508500D01*
X135389437Y-56508500D01*
X135389437Y-56508499D01*
X135484938Y-56482910D01*
X135570562Y-56433475D01*
X135640475Y-56363562D01*
X135689910Y-56277938D01*
X135715499Y-56182437D01*
X135715500Y-56182437D01*
X135715500Y-56083563D01*
X135715499Y-56083562D01*
X135714351Y-56079279D01*
X135702705Y-56035813D01*
X135689911Y-55988065D01*
X135689909Y-55988060D01*
X135660329Y-55936826D01*
X135640475Y-55902438D01*
X135570562Y-55832525D01*
X135542035Y-55816055D01*
X135484939Y-55783090D01*
X135484934Y-55783088D01*
X135446089Y-55772680D01*
X135401156Y-55738202D01*
X135393764Y-55682049D01*
X135428242Y-55637116D01*
X135465242Y-55627202D01*
X135559739Y-55627202D01*
X135559740Y-55627202D01*
X135603642Y-55618469D01*
X135653424Y-55585206D01*
X135686687Y-55535424D01*
X135695420Y-55491522D01*
X135695420Y-54611882D01*
X135686687Y-54567980D01*
X135653424Y-54518198D01*
X135646418Y-54513517D01*
X135611248Y-54490017D01*
X135579782Y-54442925D01*
X135588273Y-54391490D01*
X135656201Y-54273837D01*
X135668563Y-54227697D01*
X135703040Y-54182767D01*
X135759193Y-54175373D01*
X135792367Y-54194526D01*
X135897826Y-54299985D01*
X135919500Y-54352311D01*
X135919500Y-57561271D01*
X135897826Y-57613597D01*
X135845500Y-57635271D01*
X135826347Y-57632749D01*
X135769437Y-57617500D01*
X135769435Y-57617500D01*
X135670565Y-57617500D01*
X135670563Y-57617500D01*
X135575065Y-57643088D01*
X135575060Y-57643090D01*
X135489437Y-57692525D01*
X135419525Y-57762437D01*
X135370090Y-57848060D01*
X135370088Y-57848065D01*
X135344500Y-57943562D01*
X135344500Y-58042437D01*
X135370088Y-58137934D01*
X135370090Y-58137939D01*
X135411485Y-58209636D01*
X135419525Y-58223562D01*
X135489438Y-58293475D01*
X135520499Y-58311408D01*
X135571528Y-58340870D01*
X135575062Y-58342910D01*
X135575063Y-58342910D01*
X135575065Y-58342911D01*
X135599518Y-58349463D01*
X135670562Y-58368499D01*
X135670563Y-58368500D01*
X135670565Y-58368500D01*
X135769436Y-58368500D01*
X135784953Y-58364341D01*
X135826347Y-58353250D01*
X135882499Y-58360641D01*
X135916978Y-58405574D01*
X135919500Y-58424728D01*
X135919500Y-59445644D01*
X135897826Y-59497970D01*
X135864653Y-59517122D01*
X135805065Y-59533088D01*
X135805060Y-59533090D01*
X135719437Y-59582525D01*
X135649525Y-59652437D01*
X135600090Y-59738060D01*
X135600088Y-59738065D01*
X135574500Y-59833562D01*
X135574500Y-59932437D01*
X135600088Y-60027934D01*
X135600090Y-60027939D01*
X135629028Y-60078060D01*
X135649525Y-60113562D01*
X135719438Y-60183475D01*
X135805062Y-60232910D01*
X135805063Y-60232910D01*
X135805065Y-60232911D01*
X135852813Y-60245705D01*
X135900562Y-60258499D01*
X135900563Y-60258500D01*
X135900565Y-60258500D01*
X135999437Y-60258500D01*
X135999437Y-60258499D01*
X136094938Y-60232910D01*
X136162500Y-60193902D01*
X136218652Y-60186510D01*
X136263586Y-60220989D01*
X136273500Y-60257989D01*
X136273500Y-60527251D01*
X136251826Y-60579577D01*
X136218654Y-60598729D01*
X136165064Y-60613089D01*
X136165060Y-60613090D01*
X136079437Y-60662525D01*
X136009525Y-60732437D01*
X135960090Y-60818060D01*
X135960088Y-60818065D01*
X135934500Y-60913562D01*
X135934500Y-61012437D01*
X135960088Y-61107934D01*
X135960090Y-61107939D01*
X135993562Y-61165913D01*
X136009525Y-61193562D01*
X136079438Y-61263475D01*
X136142117Y-61299663D01*
X136164166Y-61312393D01*
X136165062Y-61312910D01*
X136165063Y-61312910D01*
X136165065Y-61312911D01*
X136178370Y-61316476D01*
X136260562Y-61338499D01*
X136260563Y-61338500D01*
X136260565Y-61338500D01*
X136359437Y-61338500D01*
X136359437Y-61338499D01*
X136454938Y-61312910D01*
X136540562Y-61263475D01*
X136610475Y-61193562D01*
X136659910Y-61107938D01*
X136679839Y-61033562D01*
X137724500Y-61033562D01*
X137724500Y-61132437D01*
X137750088Y-61227934D01*
X137750090Y-61227939D01*
X137770607Y-61263475D01*
X137799525Y-61313562D01*
X137869438Y-61383475D01*
X137932117Y-61419663D01*
X137954916Y-61432826D01*
X137955062Y-61432910D01*
X137955063Y-61432910D01*
X137955065Y-61432911D01*
X137976256Y-61438589D01*
X138050562Y-61458499D01*
X138050563Y-61458500D01*
X138050565Y-61458500D01*
X138149437Y-61458500D01*
X138149437Y-61458499D01*
X138244938Y-61432910D01*
X138330562Y-61383475D01*
X138400475Y-61313562D01*
X138449910Y-61227938D01*
X138475499Y-61132437D01*
X138475500Y-61132437D01*
X138475500Y-61033563D01*
X138475499Y-61033562D01*
X138466883Y-61001408D01*
X138452646Y-60948273D01*
X138449911Y-60938065D01*
X138449909Y-60938060D01*
X138423540Y-60892388D01*
X138400475Y-60852438D01*
X138330562Y-60782525D01*
X138318930Y-60775809D01*
X138244939Y-60733090D01*
X138244934Y-60733088D01*
X138149437Y-60707500D01*
X138149435Y-60707500D01*
X138050565Y-60707500D01*
X138050563Y-60707500D01*
X137955065Y-60733088D01*
X137955060Y-60733090D01*
X137869437Y-60782525D01*
X137799525Y-60852437D01*
X137750090Y-60938060D01*
X137750088Y-60938065D01*
X137724500Y-61033562D01*
X136679839Y-61033562D01*
X136685500Y-61012435D01*
X136685500Y-61007028D01*
X136685844Y-61003474D01*
X136697593Y-60981397D01*
X136707171Y-60958273D01*
X136709010Y-60956434D01*
X136721387Y-60944057D01*
X136721389Y-60944056D01*
X136773056Y-60892389D01*
X136809589Y-60829111D01*
X136828499Y-60758536D01*
X136828500Y-60758536D01*
X136828500Y-59863562D01*
X136984500Y-59863562D01*
X136984500Y-59962437D01*
X137010088Y-60057934D01*
X137010090Y-60057939D01*
X137042523Y-60114114D01*
X137059525Y-60143562D01*
X137129438Y-60213475D01*
X137186514Y-60246428D01*
X137207423Y-60258500D01*
X137215062Y-60262910D01*
X137215063Y-60262910D01*
X137215065Y-60262911D01*
X137239712Y-60269515D01*
X137310562Y-60288499D01*
X137310563Y-60288500D01*
X137310565Y-60288500D01*
X137409437Y-60288500D01*
X137409437Y-60288499D01*
X137504938Y-60262910D01*
X137590562Y-60213475D01*
X137610486Y-60193550D01*
X137662810Y-60171876D01*
X137699812Y-60181790D01*
X137703685Y-60184026D01*
X137703686Y-60184027D01*
X137761124Y-60217189D01*
X137788355Y-60232911D01*
X137789310Y-60233462D01*
X137789311Y-60233462D01*
X137789313Y-60233463D01*
X137831519Y-60244772D01*
X137884810Y-60259051D01*
X137884811Y-60259052D01*
X137884813Y-60259052D01*
X137983685Y-60259052D01*
X137983685Y-60259051D01*
X138079186Y-60233462D01*
X138164810Y-60184027D01*
X138234723Y-60114114D01*
X138284158Y-60028490D01*
X138309747Y-59932989D01*
X138309748Y-59932989D01*
X138309748Y-59834115D01*
X138309747Y-59834114D01*
X138309599Y-59833563D01*
X138284158Y-59738614D01*
X138234723Y-59652990D01*
X138164810Y-59583077D01*
X138163854Y-59582525D01*
X138079187Y-59533642D01*
X138079182Y-59533640D01*
X137983685Y-59508052D01*
X137983683Y-59508052D01*
X137884813Y-59508052D01*
X137884811Y-59508052D01*
X137789313Y-59533640D01*
X137789308Y-59533642D01*
X137703685Y-59583077D01*
X137683760Y-59603002D01*
X137631433Y-59624675D01*
X137594435Y-59614761D01*
X137504939Y-59563090D01*
X137504934Y-59563088D01*
X137409437Y-59537500D01*
X137409435Y-59537500D01*
X137310565Y-59537500D01*
X137310563Y-59537500D01*
X137215065Y-59563088D01*
X137215060Y-59563090D01*
X137129437Y-59612525D01*
X137059525Y-59682437D01*
X137010090Y-59768060D01*
X137010088Y-59768065D01*
X136984500Y-59863562D01*
X136828500Y-59863562D01*
X136828500Y-58513562D01*
X137534500Y-58513562D01*
X137534500Y-58612437D01*
X137560088Y-58707934D01*
X137560090Y-58707939D01*
X137592154Y-58763475D01*
X137609525Y-58793562D01*
X137679438Y-58863475D01*
X137765062Y-58912910D01*
X137765063Y-58912910D01*
X137765065Y-58912911D01*
X137784002Y-58917985D01*
X137860562Y-58938499D01*
X137860563Y-58938500D01*
X137960500Y-58938500D01*
X138012826Y-58960174D01*
X138034500Y-59012500D01*
X138034500Y-59022437D01*
X138060088Y-59117934D01*
X138060090Y-59117939D01*
X138071961Y-59138500D01*
X138109525Y-59203562D01*
X138179438Y-59273475D01*
X138265062Y-59322910D01*
X138265063Y-59322910D01*
X138265065Y-59322911D01*
X138312813Y-59335705D01*
X138360562Y-59348499D01*
X138360563Y-59348500D01*
X138360565Y-59348500D01*
X138459437Y-59348500D01*
X138459437Y-59348499D01*
X138554938Y-59322910D01*
X138640562Y-59273475D01*
X138710475Y-59203562D01*
X138759910Y-59117938D01*
X138785499Y-59022437D01*
X138785500Y-59022437D01*
X138785500Y-58923563D01*
X138785499Y-58923562D01*
X138778783Y-58898499D01*
X138759910Y-58828062D01*
X138710475Y-58742438D01*
X138640562Y-58672525D01*
X138605765Y-58652435D01*
X138554939Y-58623090D01*
X138554934Y-58623088D01*
X138459437Y-58597500D01*
X138459435Y-58597500D01*
X138360565Y-58597500D01*
X138359500Y-58597500D01*
X138307174Y-58575826D01*
X138285500Y-58523500D01*
X138285500Y-58513563D01*
X138285499Y-58513562D01*
X138259911Y-58418065D01*
X138259909Y-58418060D01*
X138220304Y-58349463D01*
X138210475Y-58332438D01*
X138140562Y-58262525D01*
X138088450Y-58232438D01*
X138054939Y-58213090D01*
X138054934Y-58213088D01*
X137959437Y-58187500D01*
X137959435Y-58187500D01*
X137860565Y-58187500D01*
X137860563Y-58187500D01*
X137765065Y-58213088D01*
X137765060Y-58213090D01*
X137679437Y-58262525D01*
X137609525Y-58332437D01*
X137560090Y-58418060D01*
X137560088Y-58418065D01*
X137534500Y-58513562D01*
X136828500Y-58513562D01*
X136828500Y-57001189D01*
X136850174Y-56948863D01*
X136902500Y-56927189D01*
X136954826Y-56948863D01*
X137019438Y-57013475D01*
X137053364Y-57033062D01*
X137097423Y-57058500D01*
X137105062Y-57062910D01*
X137105063Y-57062910D01*
X137105065Y-57062911D01*
X137131791Y-57070072D01*
X137200562Y-57088499D01*
X137200563Y-57088500D01*
X137200565Y-57088500D01*
X137299437Y-57088500D01*
X137299437Y-57088499D01*
X137394938Y-57062910D01*
X137480562Y-57013475D01*
X137550475Y-56943562D01*
X137599910Y-56857938D01*
X137625499Y-56762437D01*
X137625500Y-56762437D01*
X137625500Y-56663563D01*
X137625499Y-56663562D01*
X137617461Y-56633565D01*
X137599910Y-56568062D01*
X137550475Y-56482438D01*
X137480562Y-56412525D01*
X137462788Y-56402263D01*
X137394939Y-56363090D01*
X137394934Y-56363088D01*
X137299437Y-56337500D01*
X137299435Y-56337500D01*
X137200565Y-56337500D01*
X137200563Y-56337500D01*
X137105065Y-56363088D01*
X137105060Y-56363090D01*
X137019437Y-56412525D01*
X136954826Y-56477137D01*
X136902500Y-56498811D01*
X136850174Y-56477137D01*
X136828500Y-56424811D01*
X136828500Y-55363562D01*
X137574500Y-55363562D01*
X137574500Y-55462437D01*
X137600088Y-55557934D01*
X137600090Y-55557939D01*
X137644873Y-55635504D01*
X137649525Y-55643562D01*
X137719438Y-55713475D01*
X137765142Y-55739862D01*
X137798968Y-55759392D01*
X137805062Y-55762910D01*
X137805063Y-55762910D01*
X137805065Y-55762911D01*
X137828936Y-55769307D01*
X137900562Y-55788499D01*
X137900563Y-55788500D01*
X137900565Y-55788500D01*
X137999437Y-55788500D01*
X137999437Y-55788499D01*
X138094938Y-55762910D01*
X138180562Y-55713475D01*
X138250475Y-55643562D01*
X138299910Y-55557938D01*
X138325499Y-55462437D01*
X138325500Y-55462437D01*
X138325500Y-55363563D01*
X138325499Y-55363562D01*
X138325475Y-55363474D01*
X138301807Y-55275140D01*
X138299911Y-55268065D01*
X138299909Y-55268060D01*
X138265195Y-55207934D01*
X138250475Y-55182438D01*
X138180562Y-55112525D01*
X138176140Y-55109972D01*
X138094939Y-55063090D01*
X138094934Y-55063088D01*
X137999437Y-55037500D01*
X137999435Y-55037500D01*
X137900565Y-55037500D01*
X137900563Y-55037500D01*
X137805065Y-55063088D01*
X137805060Y-55063090D01*
X137719437Y-55112525D01*
X137649525Y-55182437D01*
X137600090Y-55268060D01*
X137600088Y-55268065D01*
X137574500Y-55363562D01*
X136828500Y-55363562D01*
X136828500Y-54023546D01*
X136828499Y-54023545D01*
X136809590Y-53952975D01*
X136809589Y-53952971D01*
X136773056Y-53889693D01*
X136721389Y-53838026D01*
X136718810Y-53835447D01*
X136718799Y-53835437D01*
X135500189Y-52616826D01*
X135478515Y-52564500D01*
X135500189Y-52512174D01*
X135552515Y-52490500D01*
X140326906Y-52490500D01*
X140379232Y-52512174D01*
G37*
%TD.AperFunction*%
%TA.AperFunction,Conductor*%
G36*
X145446717Y-63730175D02*
G01*
X145622746Y-63906203D01*
X145644420Y-63958529D01*
X145644420Y-64207472D01*
X145622746Y-64259798D01*
X144978570Y-64903973D01*
X144926244Y-64925647D01*
X144873918Y-64903973D01*
X144852244Y-64851647D01*
X144854766Y-64832493D01*
X144865500Y-64792436D01*
X144865500Y-64693563D01*
X144865499Y-64693562D01*
X144839911Y-64598065D01*
X144839909Y-64598060D01*
X144825116Y-64572438D01*
X144790475Y-64512438D01*
X144720562Y-64442525D01*
X144703910Y-64432911D01*
X144634939Y-64393090D01*
X144619344Y-64388911D01*
X144574412Y-64354430D01*
X144567022Y-64298277D01*
X144601500Y-64253347D01*
X144670562Y-64213475D01*
X144740475Y-64143562D01*
X144789910Y-64057938D01*
X144815499Y-63962437D01*
X144815500Y-63962437D01*
X144815500Y-63960596D01*
X144815855Y-63959738D01*
X144816133Y-63957628D01*
X144816698Y-63957702D01*
X144837174Y-63908270D01*
X145015269Y-63730175D01*
X145067595Y-63708501D01*
X145394391Y-63708501D01*
X145446717Y-63730175D01*
G37*
%TD.AperFunction*%
%TA.AperFunction,Conductor*%
G36*
X134180504Y-55560151D02*
G01*
X134190420Y-55597153D01*
X134190420Y-56115259D01*
X134190419Y-56115277D01*
X134190419Y-56192875D01*
X134209330Y-56263451D01*
X134245863Y-56326728D01*
X134497826Y-56578690D01*
X134519500Y-56631016D01*
X134519500Y-56734983D01*
X134497826Y-56787309D01*
X134427943Y-56857191D01*
X134391410Y-56920468D01*
X134372499Y-56991044D01*
X134372499Y-57070072D01*
X134372500Y-57070085D01*
X134372500Y-61939403D01*
X134350826Y-61991729D01*
X134298500Y-62013403D01*
X134246174Y-61991729D01*
X134059094Y-61804649D01*
X134037420Y-61752323D01*
X134037420Y-55600040D01*
X134041246Y-55590802D01*
X134039941Y-55580890D01*
X134051700Y-55565564D01*
X134059094Y-55547714D01*
X134074418Y-55535956D01*
X134079418Y-55533069D01*
X134135570Y-55525674D01*
X134180504Y-55560151D01*
G37*
%TD.AperFunction*%
%TA.AperFunction,Conductor*%
G36*
X148976746Y-54855008D02*
G01*
X148998419Y-54907335D01*
X148979377Y-54953301D01*
X148998419Y-60331238D01*
X148976930Y-60383640D01*
X148924681Y-60405500D01*
X147404189Y-60405500D01*
X147354758Y-60385025D01*
X147354411Y-60385478D01*
X147352721Y-60384181D01*
X147351863Y-60383826D01*
X147350562Y-60382525D01*
X147264939Y-60333090D01*
X147264934Y-60333088D01*
X147169437Y-60307500D01*
X147169435Y-60307500D01*
X147070565Y-60307500D01*
X147068500Y-60307500D01*
X147016174Y-60285826D01*
X146994500Y-60233500D01*
X146994500Y-60186801D01*
X147016174Y-60134475D01*
X147068500Y-60112801D01*
X147087650Y-60115322D01*
X147174151Y-60138500D01*
X147174152Y-60138501D01*
X147174154Y-60138501D01*
X147325688Y-60138501D01*
X147325688Y-60138500D01*
X147472055Y-60099282D01*
X147603285Y-60023516D01*
X147710435Y-59916366D01*
X147786201Y-59785136D01*
X147825419Y-59638769D01*
X147825420Y-59638769D01*
X147825420Y-59487233D01*
X147825419Y-59487232D01*
X147805227Y-59411875D01*
X147786201Y-59340866D01*
X147710435Y-59209636D01*
X147616124Y-59115325D01*
X147594451Y-59063001D01*
X147616124Y-59010676D01*
X147697595Y-58929205D01*
X147749920Y-58907532D01*
X147802244Y-58929205D01*
X147896555Y-59023516D01*
X148027785Y-59099282D01*
X148174151Y-59138500D01*
X148174152Y-59138501D01*
X148174154Y-59138501D01*
X148325688Y-59138501D01*
X148325688Y-59138500D01*
X148472055Y-59099282D01*
X148603285Y-59023516D01*
X148710435Y-58916366D01*
X148786201Y-58785136D01*
X148825419Y-58638769D01*
X148825420Y-58638769D01*
X148825420Y-58487233D01*
X148825419Y-58487232D01*
X148821756Y-58473563D01*
X148786201Y-58340866D01*
X148710435Y-58209636D01*
X148616124Y-58115325D01*
X148594451Y-58063001D01*
X148616124Y-58010676D01*
X148710435Y-57916366D01*
X148786201Y-57785136D01*
X148825419Y-57638769D01*
X148825420Y-57638769D01*
X148825420Y-57487233D01*
X148825419Y-57487232D01*
X148824268Y-57482938D01*
X148786201Y-57340866D01*
X148718273Y-57223213D01*
X148710881Y-57167062D01*
X148741249Y-57124685D01*
X148755255Y-57115327D01*
X148783424Y-57096505D01*
X148816687Y-57046723D01*
X148825420Y-57002821D01*
X148825420Y-56123181D01*
X148816687Y-56079279D01*
X148783424Y-56029497D01*
X148768655Y-56019629D01*
X148733642Y-55996234D01*
X148689740Y-55987501D01*
X148689739Y-55987501D01*
X148132350Y-55987501D01*
X148080024Y-55965827D01*
X148058350Y-55913501D01*
X148060872Y-55894348D01*
X148077437Y-55832525D01*
X148085499Y-55802437D01*
X148085500Y-55802437D01*
X148085500Y-55707562D01*
X148107174Y-55655236D01*
X148159500Y-55633562D01*
X148178654Y-55636084D01*
X148194152Y-55640237D01*
X148194153Y-55640237D01*
X148345687Y-55640237D01*
X148345687Y-55640236D01*
X148492054Y-55601018D01*
X148623284Y-55525252D01*
X148730434Y-55418102D01*
X148806200Y-55286872D01*
X148845418Y-55140505D01*
X148845419Y-55140505D01*
X148845419Y-54988969D01*
X148845418Y-54988968D01*
X148842273Y-54977232D01*
X148833804Y-54945622D01*
X148841196Y-54889469D01*
X148852953Y-54874146D01*
X148872094Y-54855006D01*
X148924421Y-54833333D01*
X148976746Y-54855008D01*
G37*
%TD.AperFunction*%
%TA.AperFunction,Conductor*%
G36*
X145822243Y-54430941D02*
G01*
X145867421Y-54476119D01*
X145903713Y-54512411D01*
X145925387Y-54564737D01*
X145903713Y-54617063D01*
X145809402Y-54711374D01*
X145733640Y-54842597D01*
X145733636Y-54842606D01*
X145694419Y-54988968D01*
X145694419Y-55140505D01*
X145733636Y-55286867D01*
X145733640Y-55286876D01*
X145797528Y-55397532D01*
X145809404Y-55418102D01*
X145916554Y-55525252D01*
X146047784Y-55601018D01*
X146155385Y-55629849D01*
X146200318Y-55664327D01*
X146207711Y-55720479D01*
X146188558Y-55753653D01*
X144406826Y-57535385D01*
X144354500Y-57557059D01*
X144302174Y-57535385D01*
X144280500Y-57483059D01*
X144280500Y-56765597D01*
X144302174Y-56713271D01*
X144785271Y-56230174D01*
X144834702Y-56209698D01*
X144834628Y-56209133D01*
X144836739Y-56208855D01*
X144837597Y-56208500D01*
X144839437Y-56208500D01*
X144839437Y-56208499D01*
X144934938Y-56182910D01*
X145020562Y-56133475D01*
X145090475Y-56063562D01*
X145139910Y-55977938D01*
X145165499Y-55882437D01*
X145165500Y-55882437D01*
X145165500Y-55783563D01*
X145165499Y-55783562D01*
X145161679Y-55769307D01*
X145151264Y-55730436D01*
X145139911Y-55688065D01*
X145139909Y-55688060D01*
X145113535Y-55642379D01*
X145090475Y-55602438D01*
X145020562Y-55532525D01*
X145001215Y-55521355D01*
X144934939Y-55483090D01*
X144934934Y-55483088D01*
X144900266Y-55473799D01*
X144855333Y-55439321D01*
X144845419Y-55402321D01*
X144845419Y-54624913D01*
X144845063Y-54621301D01*
X144846645Y-54621145D01*
X144856698Y-54570566D01*
X144903785Y-54539093D01*
X144955231Y-54547582D01*
X145047784Y-54601018D01*
X145194150Y-54640236D01*
X145194151Y-54640237D01*
X145194153Y-54640237D01*
X145345687Y-54640237D01*
X145345687Y-54640236D01*
X145492054Y-54601018D01*
X145623284Y-54525252D01*
X145717594Y-54430941D01*
X145769919Y-54409268D01*
X145822243Y-54430941D01*
G37*
%TD.AperFunction*%
%TD*%
M02*
