%TF.GenerationSoftware,KiCad,Pcbnew,10.0.1*%
%TF.CreationDate,2026-06-24T13:07:53+02:00*%
%TF.ProjectId,esc,6573632e-6b69-4636-9164-5f7063625858,rev?*%
%TF.SameCoordinates,Original*%
%TF.FileFunction,Paste,Bot*%
%TF.FilePolarity,Positive*%
%FSLAX46Y46*%
G04 Gerber Fmt 4.6, Leading zero omitted, Abs format (unit mm)*
G04 Created by KiCad (PCBNEW 10.0.1) date 2026-06-24 13:07:53*
%MOMM*%
%LPD*%
G01*
G04 APERTURE LIST*
G04 Aperture macros list*
%AMRoundRect*
0 Rectangle with rounded corners*
0 $1 Rounding radius*
0 $2 $3 $4 $5 $6 $7 $8 $9 X,Y pos of 4 corners*
0 Add a 4 corners polygon primitive as box body*
4,1,4,$2,$3,$4,$5,$6,$7,$8,$9,$2,$3,0*
0 Add four circle primitives for the rounded corners*
1,1,$1+$1,$2,$3*
1,1,$1+$1,$4,$5*
1,1,$1+$1,$6,$7*
1,1,$1+$1,$8,$9*
0 Add four rect primitives between the rounded corners*
20,1,$1+$1,$2,$3,$4,$5,0*
20,1,$1+$1,$4,$5,$6,$7,0*
20,1,$1+$1,$6,$7,$8,$9,0*
20,1,$1+$1,$8,$9,$2,$3,0*%
G04 Aperture macros list end*
%ADD10RoundRect,0.225000X-0.250000X0.225000X-0.250000X-0.225000X0.250000X-0.225000X0.250000X0.225000X0*%
%ADD11R,0.660000X0.280000*%
%ADD12R,0.280000X0.660000*%
%ADD13R,2.550000X2.550000*%
%ADD14RoundRect,0.150000X0.150000X0.200000X-0.150000X0.200000X-0.150000X-0.200000X0.150000X-0.200000X0*%
%ADD15RoundRect,0.225000X0.250000X-0.225000X0.250000X0.225000X-0.250000X0.225000X-0.250000X-0.225000X0*%
%ADD16RoundRect,0.135000X0.185000X-0.135000X0.185000X0.135000X-0.185000X0.135000X-0.185000X-0.135000X0*%
%ADD17RoundRect,0.135000X0.135000X0.185000X-0.135000X0.185000X-0.135000X-0.185000X0.135000X-0.185000X0*%
%ADD18RoundRect,0.150000X0.200000X-0.150000X0.200000X0.150000X-0.200000X0.150000X-0.200000X-0.150000X0*%
%ADD19RoundRect,0.225000X0.225000X0.250000X-0.225000X0.250000X-0.225000X-0.250000X0.225000X-0.250000X0*%
%ADD20RoundRect,0.140000X-0.140000X-0.170000X0.140000X-0.170000X0.140000X0.170000X-0.140000X0.170000X0*%
%ADD21RoundRect,0.250000X0.250000X0.475000X-0.250000X0.475000X-0.250000X-0.475000X0.250000X-0.475000X0*%
%ADD22RoundRect,0.150000X-0.200000X0.150000X-0.200000X-0.150000X0.200000X-0.150000X0.200000X0.150000X0*%
%ADD23RoundRect,0.140000X0.140000X0.170000X-0.140000X0.170000X-0.140000X-0.170000X0.140000X-0.170000X0*%
%ADD24RoundRect,0.150000X-0.150000X-0.200000X0.150000X-0.200000X0.150000X0.200000X-0.150000X0.200000X0*%
%ADD25RoundRect,0.140000X0.170000X-0.140000X0.170000X0.140000X-0.170000X0.140000X-0.170000X-0.140000X0*%
%ADD26RoundRect,0.140000X-0.170000X0.140000X-0.170000X-0.140000X0.170000X-0.140000X0.170000X0.140000X0*%
%ADD27RoundRect,0.135000X-0.135000X-0.185000X0.135000X-0.185000X0.135000X0.185000X-0.135000X0.185000X0*%
G04 APERTURE END LIST*
D10*
%TO.C,C55*%
X135170000Y-60188000D03*
X135170000Y-61738000D03*
%TD*%
D11*
%TO.C,U11*%
X140410000Y-62043000D03*
X140410000Y-61543000D03*
X140410000Y-61043000D03*
X140410000Y-60543000D03*
X140410000Y-60043000D03*
X140410000Y-59543000D03*
D12*
X141070000Y-58883000D03*
X141570000Y-58883000D03*
X142070000Y-58883000D03*
X142570000Y-58883000D03*
X143070000Y-58883000D03*
X143570000Y-58883000D03*
D11*
X144230000Y-59543000D03*
X144230000Y-60043000D03*
X144230000Y-60543000D03*
X144230000Y-61043000D03*
X144230000Y-61543000D03*
X144230000Y-62043000D03*
D12*
X143570000Y-62703000D03*
X143070000Y-62703000D03*
X142570000Y-62703000D03*
X142070000Y-62703000D03*
X141570000Y-62703000D03*
X141070000Y-62703000D03*
D13*
X142320000Y-60793000D03*
%TD*%
D14*
%TO.C,D9*%
X146322500Y-65023000D03*
X147722500Y-65023000D03*
%TD*%
D15*
%TO.C,C72*%
X148920000Y-63333000D03*
X148920000Y-61783000D03*
%TD*%
D16*
%TO.C,R55*%
X138090000Y-61993000D03*
X138090000Y-60973000D03*
%TD*%
D10*
%TO.C,C56*%
X135180000Y-57178000D03*
X135180000Y-58728000D03*
%TD*%
D17*
%TO.C,R53*%
X139910000Y-56773000D03*
X140930000Y-56773000D03*
%TD*%
D18*
%TO.C,D10*%
X147380000Y-62332500D03*
X147380000Y-63732500D03*
%TD*%
D19*
%TO.C,C40*%
X144125000Y-63873000D03*
X142575000Y-63873000D03*
%TD*%
D10*
%TO.C,C41*%
X145930000Y-61275000D03*
X145930000Y-62825000D03*
%TD*%
D20*
%TO.C,C17*%
X138780000Y-55763000D03*
X139740000Y-55763000D03*
%TD*%
D18*
%TO.C,D14*%
X136610000Y-57695500D03*
X136610000Y-59095500D03*
%TD*%
D19*
%TO.C,C54*%
X135355000Y-63493000D03*
X133805000Y-63493000D03*
%TD*%
D15*
%TO.C,C38*%
X138900000Y-59738000D03*
X138900000Y-58188000D03*
%TD*%
D21*
%TO.C,C31*%
X139960000Y-53913000D03*
X138060000Y-53913000D03*
%TD*%
D22*
%TO.C,D13*%
X136630000Y-61603000D03*
X136630000Y-60203000D03*
%TD*%
D11*
%TO.C,U14*%
X130132500Y-61743000D03*
X130132500Y-61243000D03*
X130132500Y-60743000D03*
X130132500Y-60243000D03*
X130132500Y-59743000D03*
X130132500Y-59243000D03*
D12*
X130792500Y-58583000D03*
X131292500Y-58583000D03*
X131792500Y-58583000D03*
X132292500Y-58583000D03*
X132792500Y-58583000D03*
X133292500Y-58583000D03*
D11*
X133952500Y-59243000D03*
X133952500Y-59743000D03*
X133952500Y-60243000D03*
X133952500Y-60743000D03*
X133952500Y-61243000D03*
X133952500Y-61743000D03*
D12*
X133292500Y-62403000D03*
X132792500Y-62403000D03*
X132292500Y-62403000D03*
X131792500Y-62403000D03*
X131292500Y-62403000D03*
X130792500Y-62403000D03*
D13*
X132042500Y-60493000D03*
%TD*%
D23*
%TO.C,C39*%
X141390000Y-57923000D03*
X140430000Y-57923000D03*
%TD*%
D24*
%TO.C,D11*%
X145460000Y-56733000D03*
X144060000Y-56733000D03*
%TD*%
D25*
%TO.C,C58*%
X136810000Y-55383000D03*
X136810000Y-54423000D03*
%TD*%
D10*
%TO.C,C42*%
X145340000Y-58145000D03*
X145340000Y-59695000D03*
%TD*%
D26*
%TO.C,C53*%
X128740000Y-59283000D03*
X128740000Y-60243000D03*
%TD*%
D16*
%TO.C,R73*%
X128720000Y-58113000D03*
X128720000Y-57093000D03*
%TD*%
D19*
%TO.C,C35*%
X137015000Y-63150000D03*
X138565000Y-63150000D03*
%TD*%
D27*
%TO.C,R65*%
X129650000Y-57003000D03*
X130670000Y-57003000D03*
%TD*%
D14*
%TO.C,D12*%
X134500000Y-64943000D03*
X135900000Y-64943000D03*
%TD*%
D10*
%TO.C,C52*%
X129930000Y-63478000D03*
X129930000Y-65028000D03*
%TD*%
M02*
