M48
; DRILL file KiCad 10.0.1 date 2026-06-24T13:07:45
; FORMAT={-:-/ absolute / metric / decimal}
; #@! TF.CreationDate,2026-06-24T13:07:45+02:00
; #@! TF.GenerationSoftware,Kicad,Pcbnew,10.0.1
; #@! TF.FileFunction,Plated,1,6,PTH
FMAT,2
METRIC
; #@! TA.AperFunction,Plated,PTH,ViaDrill
T1C0.300
; #@! TA.AperFunction,Plated,PTH,ComponentDrill
T2C0.500
%
G90
G05
T1
X128.51Y-55.433
X128.59Y-64.123
X128.707Y-60.545
X128.72Y-53.283
X128.733Y-61.628
X128.85Y-62.353
X128.87Y-54.083
X128.89Y-56.053
X128.914Y-61.082
X128.94Y-59.613
X129.0Y-65.2
X129.37Y-57.653
X129.42Y-62.703
X129.64Y-56.713
X129.93Y-63.478
X129.982Y-58.523
X130.19Y-57.803
X130.925Y-63.748
X131.2Y-65.303
X131.31Y-59.76
X131.34Y-60.39
X131.36Y-61.0
X131.592Y-63.619
X131.73Y-56.326
X131.78Y-64.803
X131.93Y-59.73
X132.0Y-60.37
X132.0Y-61.06
X132.164Y-63.567
X132.37Y-57.123
X132.52Y-59.99
X132.56Y-60.77
X134.32Y-56.683
X135.14Y-64.373
X135.18Y-57.178
X135.26Y-63.43
X135.32Y-65.498
X135.34Y-56.133
X135.72Y-57.993
X135.95Y-59.883
X136.21Y-62.633
X136.27Y-52.823
X136.31Y-60.963
X137.25Y-56.713
X137.32Y-62.183
X137.36Y-59.913
X137.38Y-63.98
X137.84Y-57.63
X137.868Y-56.916
X137.91Y-58.563
X137.934Y-59.884
X137.95Y-55.413
X138.1Y-61.083
X138.1Y-64.89
X138.41Y-58.973
X138.78Y-53.803
X138.81Y-62.243
X138.85Y-59.883
X139.16Y-61.098
X139.17Y-61.673
X139.19Y-64.103
X139.79Y-62.091
X139.88Y-58.463
X139.92Y-56.683
X140.29Y-55.063
X140.74Y-52.748
X140.935Y-63.753
X141.25Y-59.79
X141.28Y-60.42
X141.32Y-61.03
X141.37Y-52.803
X141.37Y-61.66
X141.51Y-63.763
X141.71Y-64.373
X141.875Y-57.338
X141.93Y-59.783
X141.96Y-56.063
X141.96Y-60.413
X142.07Y-61.04
X142.68Y-59.77
X142.71Y-60.4
X144.44Y-63.913
X144.48Y-58.603
X144.49Y-64.743
X144.79Y-55.833
X145.135Y-57.908
X146.24Y-60.223
X147.12Y-60.683
X147.71Y-55.753
X148.28Y-64.083
X148.375Y-61.64
X148.46Y-62.563
X149.05Y-65.04
X149.06Y-53.073
T2
X129.76Y-54.053
X129.76Y-55.053
X130.76Y-54.053
X130.76Y-55.053
X131.76Y-54.053
X131.76Y-55.053
X132.76Y-54.053
X132.76Y-55.053
X132.76Y-64.063
X133.76Y-54.053
X133.76Y-55.053
X135.12Y-54.052
X135.12Y-55.052
X142.79Y-54.055
X142.79Y-55.055
X144.27Y-54.065
X144.27Y-55.065
X145.27Y-54.065
X145.27Y-55.065
X145.27Y-64.083
X146.27Y-54.065
X146.27Y-55.065
X147.25Y-56.563
X147.25Y-57.563
X147.25Y-58.563
X147.25Y-59.563
X147.27Y-54.065
X147.27Y-55.065
X148.25Y-56.563
X148.25Y-57.563
X148.25Y-58.563
X148.25Y-59.563
X148.27Y-54.065
X148.27Y-55.065
M30
