%TF.GenerationSoftware,KiCad,Pcbnew,10.0.1*%
%TF.CreationDate,2026-06-24T13:07:53+02:00*%
%TF.ProjectId,esc,6573632e-6b69-4636-9164-5f7063625858,rev?*%
%TF.SameCoordinates,Original*%
%TF.FileFunction,Legend,Bot*%
%TF.FilePolarity,Positive*%
%FSLAX46Y46*%
G04 Gerber Fmt 4.6, Leading zero omitted, Abs format (unit mm)*
G04 Created by KiCad (PCBNEW 10.0.1) date 2026-06-24 13:07:53*
%MOMM*%
%LPD*%
G01*
G04 APERTURE LIST*
%ADD10C,0.120000*%
%ADD11C,0.150000*%
G04 APERTURE END LIST*
%TO.C,C55*%
D10*
X134660000Y-60822420D02*
X134660000Y-61103580D01*
X135680000Y-60822420D02*
X135680000Y-61103580D01*
%TO.C,U11*%
D11*
X140240000Y-58713000D02*
X140240000Y-59213000D01*
X140240000Y-62873000D02*
X140240000Y-62373000D01*
X140740000Y-58713000D02*
X140240000Y-58713000D01*
X140740000Y-62873000D02*
X140240000Y-62873000D01*
X143900000Y-58713000D02*
X144400000Y-58713000D01*
X143900000Y-62873000D02*
X144400000Y-62873000D01*
X144400000Y-58713000D02*
X144400000Y-59213000D01*
X144400000Y-62873000D02*
X144400000Y-62373000D01*
X139930000Y-62043000D02*
G75*
G02*
X139790000Y-62043000I-70000J0D01*
G01*
X139790000Y-62043000D02*
G75*
G02*
X139930000Y-62043000I70000J0D01*
G01*
%TO.C,D9*%
D10*
X145762500Y-65623000D02*
X145762500Y-64423000D01*
X147722500Y-64423000D02*
X145762500Y-64423000D01*
X147722500Y-65623000D02*
X145762500Y-65623000D01*
%TO.C,C72*%
X148410000Y-62698580D02*
X148410000Y-62417420D01*
X149430000Y-62698580D02*
X149430000Y-62417420D01*
%TO.C,R55*%
X137710000Y-61636641D02*
X137710000Y-61329359D01*
X138470000Y-61636641D02*
X138470000Y-61329359D01*
%TO.C,C56*%
X134670000Y-57812420D02*
X134670000Y-58093580D01*
X135690000Y-57812420D02*
X135690000Y-58093580D01*
%TO.C,R53*%
X140573641Y-57153000D02*
X140266359Y-57153000D01*
X140573641Y-56393000D02*
X140266359Y-56393000D01*
%TO.C,D10*%
X146780000Y-61772500D02*
X147980000Y-61772500D01*
X146780000Y-63732500D02*
X146780000Y-61772500D01*
X147980000Y-63732500D02*
X147980000Y-61772500D01*
%TO.C,J29*%
X146489920Y-55953001D02*
X146489920Y-60173001D01*
X146839890Y-55953001D02*
X146489920Y-55953001D01*
X146839890Y-60173001D02*
X146489920Y-60173001D01*
X147839890Y-60173001D02*
X147659950Y-60173001D01*
X149009920Y-55828001D02*
X148249920Y-55828001D01*
X149009920Y-56563001D02*
X149009920Y-55828001D01*
X149009920Y-57298001D02*
X148935485Y-57298001D01*
X149009920Y-57298001D02*
X149009920Y-60173001D01*
X149009920Y-60173001D02*
X148659950Y-60173001D01*
%TO.C,C40*%
X143490580Y-63363000D02*
X143209420Y-63363000D01*
X143490580Y-64383000D02*
X143209420Y-64383000D01*
%TO.C,C41*%
X145420000Y-61909420D02*
X145420000Y-62190580D01*
X146440000Y-61909420D02*
X146440000Y-62190580D01*
%TO.C,C17*%
X139152164Y-55403000D02*
X139367836Y-55403000D01*
X139152164Y-56123000D02*
X139367836Y-56123000D01*
%TO.C,D14*%
X136010000Y-57135500D02*
X137210000Y-57135500D01*
X136010000Y-59095500D02*
X136010000Y-57135500D01*
X137210000Y-59095500D02*
X137210000Y-57135500D01*
%TO.C,C54*%
X134720580Y-62983000D02*
X134439420Y-62983000D01*
X134720580Y-64003000D02*
X134439420Y-64003000D01*
%TO.C,C38*%
X138390000Y-59103580D02*
X138390000Y-58822420D01*
X139410000Y-59103580D02*
X139410000Y-58822420D01*
%TO.C,C31*%
X139271252Y-53178000D02*
X138748748Y-53178000D01*
X139271252Y-54648000D02*
X138748748Y-54648000D01*
%TO.C,D13*%
X136030000Y-60203000D02*
X136030000Y-62163000D01*
X137230000Y-60203000D02*
X137230000Y-62163000D01*
X137230000Y-62163000D02*
X136030000Y-62163000D01*
%TO.C,U14*%
D11*
X129962500Y-58413000D02*
X129962500Y-58913000D01*
X129962500Y-62573000D02*
X129962500Y-62073000D01*
X130462500Y-58413000D02*
X129962500Y-58413000D01*
X130462500Y-62573000D02*
X129962500Y-62573000D01*
X133622500Y-58413000D02*
X134122500Y-58413000D01*
X133622500Y-62573000D02*
X134122500Y-62573000D01*
X134122500Y-58413000D02*
X134122500Y-58913000D01*
X134122500Y-62573000D02*
X134122500Y-62073000D01*
X129652500Y-61743000D02*
G75*
G02*
X129512500Y-61743000I-70000J0D01*
G01*
X129512500Y-61743000D02*
G75*
G02*
X129652500Y-61743000I70000J0D01*
G01*
%TO.C,C39*%
D10*
X141017836Y-57563000D02*
X140802164Y-57563000D01*
X141017836Y-58283000D02*
X140802164Y-58283000D01*
%TO.C,D11*%
X144060000Y-56133000D02*
X146020000Y-56133000D01*
X144060000Y-57333000D02*
X146020000Y-57333000D01*
X146020000Y-56133000D02*
X146020000Y-57333000D01*
%TO.C,C58*%
X136450000Y-55010836D02*
X136450000Y-54795164D01*
X137170000Y-55010836D02*
X137170000Y-54795164D01*
%TO.C,C42*%
X144830000Y-58779420D02*
X144830000Y-59060580D01*
X145850000Y-58779420D02*
X145850000Y-59060580D01*
%TO.C,C53*%
X128380000Y-59655164D02*
X128380000Y-59870836D01*
X129100000Y-59655164D02*
X129100000Y-59870836D01*
%TO.C,R73*%
X128340000Y-57756641D02*
X128340000Y-57449359D01*
X129100000Y-57756641D02*
X129100000Y-57449359D01*
%TO.C,C35*%
X137930580Y-62640000D02*
X137649420Y-62640000D01*
X137930580Y-63660000D02*
X137649420Y-63660000D01*
%TO.C,R65*%
X130006359Y-56623000D02*
X130313641Y-56623000D01*
X130006359Y-57383000D02*
X130313641Y-57383000D01*
%TO.C,D12*%
X133940000Y-65543000D02*
X133940000Y-64343000D01*
X135900000Y-64343000D02*
X133940000Y-64343000D01*
X135900000Y-65543000D02*
X133940000Y-65543000D01*
%TO.C,C52*%
X129420000Y-64112420D02*
X129420000Y-64393580D01*
X130440000Y-64112420D02*
X130440000Y-64393580D01*
%TD*%
M02*
