%TF.GenerationSoftware,KiCad,Pcbnew,10.0.1*%
%TF.CreationDate,2026-06-24T13:11:31+02:00*%
%TF.ProjectId,esc,6573632e-6b69-4636-9164-5f7063625858,rev?*%
%TF.SameCoordinates,Original*%
%TF.FileFunction,Legend,Bot*%
%TF.FilePolarity,Positive*%
%FSLAX46Y46*%
G04 Gerber Fmt 4.6, Leading zero omitted, Abs format (unit mm)*
G04 Created by KiCad (PCBNEW 10.0.1) date 2026-06-24 13:11:31*
%MOMM*%
%LPD*%
G01*
G04 APERTURE LIST*
%ADD10C,0.120000*%
%ADD11C,0.250000*%
%ADD12C,0.500000*%
%ADD13C,0.150000*%
%ADD14C,0.060000*%
G04 APERTURE END LIST*
%TO.C,R81*%
D10*
X51753509Y-55900117D02*
X52060791Y-55900117D01*
X51753509Y-56660117D02*
X52060791Y-56660117D01*
%TO.C,R22*%
X74807150Y-56936476D02*
X74807150Y-57243758D01*
X75567150Y-56936476D02*
X75567150Y-57243758D01*
%TO.C,Q17*%
D11*
X68206311Y-43857617D02*
X68206311Y-49827617D01*
X68206311Y-49827617D02*
X68316311Y-49827617D01*
X68316311Y-43857617D02*
X68206311Y-43857617D01*
X69356311Y-49827617D02*
X69586311Y-49827617D01*
X69576311Y-43857617D02*
X69366311Y-43857617D01*
X70626311Y-49827617D02*
X70856311Y-49827617D01*
X70846311Y-43857617D02*
X70626311Y-43857617D01*
X71896311Y-49827617D02*
X72126311Y-49827617D01*
X72116311Y-43857617D02*
X71896311Y-43857617D01*
X73166311Y-49827617D02*
X73286311Y-49827617D01*
X73286311Y-43857617D02*
X73166311Y-43857617D01*
X73286311Y-49827617D02*
X73286311Y-43857617D01*
D12*
X73406312Y-50717617D02*
X73406312Y-50717617D01*
X73406312Y-50717617D01*
X73406312Y-50717617D01*
X73406312Y-50717617D01*
X73406312Y-50717617D01*
X73406312Y-50717618D01*
X73406312Y-50717618D01*
X73406312Y-50717618D01*
X73406312Y-50717618D01*
X73406312Y-50717618D01*
X73406312Y-50717618D01*
X73406312Y-50717618D01*
X73406311Y-50717618D01*
X73406311Y-50717618D01*
X73406311Y-50717618D01*
X73406311Y-50717618D01*
X73406311Y-50717618D01*
X73406311Y-50717618D01*
X73406311Y-50717618D01*
X73406311Y-50717618D01*
X73406311Y-50717618D01*
X73406311Y-50717618D01*
X73406311Y-50717618D01*
X73406311Y-50717618D01*
X73406310Y-50717618D01*
X73406310Y-50717618D01*
X73406310Y-50717618D01*
X73406310Y-50717618D01*
X73406310Y-50717618D01*
X73406310Y-50717618D01*
X73406310Y-50717617D01*
X73406310Y-50717617D01*
X73406310Y-50717617D01*
X73406310Y-50717617D01*
X73406310Y-50717617D01*
X73406310Y-50717617D01*
X73406310Y-50717617D02*
X73406310Y-50717617D01*
X73406310Y-50717617D01*
X73406310Y-50717617D01*
X73406310Y-50717617D01*
X73406310Y-50717617D01*
X73406310Y-50717617D01*
X73406310Y-50717616D01*
X73406310Y-50717616D01*
X73406310Y-50717616D01*
X73406310Y-50717616D01*
X73406310Y-50717616D01*
X73406311Y-50717616D01*
X73406311Y-50717616D01*
X73406311Y-50717616D01*
X73406311Y-50717616D01*
X73406311Y-50717616D01*
X73406311Y-50717616D01*
X73406311Y-50717616D01*
X73406311Y-50717616D01*
X73406311Y-50717616D01*
X73406311Y-50717616D01*
X73406311Y-50717616D01*
X73406311Y-50717616D01*
X73406312Y-50717616D01*
X73406312Y-50717616D01*
X73406312Y-50717616D01*
X73406312Y-50717616D01*
X73406312Y-50717616D01*
X73406312Y-50717616D01*
X73406312Y-50717617D01*
X73406312Y-50717617D01*
X73406312Y-50717617D01*
X73406312Y-50717617D01*
X73406312Y-50717617D01*
X73406312Y-50717617D01*
X73406312Y-50717617D01*
%TO.C,R60*%
D10*
X68950791Y-50410117D02*
X68643509Y-50410117D01*
X68950791Y-51170117D02*
X68643509Y-51170117D01*
%TO.C,R61*%
X74363509Y-49690117D02*
X74670791Y-49690117D01*
X74363509Y-50450117D02*
X74670791Y-50450117D01*
%TO.C,Q23*%
D11*
X52221310Y-43857617D02*
X52221310Y-49827617D01*
X52221310Y-49827617D02*
X52331310Y-49827617D01*
X52331310Y-43857617D02*
X52221310Y-43857617D01*
X53371310Y-49827617D02*
X53601310Y-49827617D01*
X53591310Y-43857617D02*
X53381310Y-43857617D01*
X54641310Y-49827617D02*
X54871310Y-49827617D01*
X54861310Y-43857617D02*
X54641310Y-43857617D01*
X55911310Y-49827617D02*
X56141310Y-49827617D01*
X56131310Y-43857617D02*
X55911310Y-43857617D01*
X57181310Y-49827617D02*
X57301310Y-49827617D01*
X57301310Y-43857617D02*
X57181310Y-43857617D01*
X57301310Y-49827617D02*
X57301310Y-43857617D01*
D12*
X57421311Y-50717617D02*
X57421311Y-50717617D01*
X57421311Y-50717617D01*
X57421311Y-50717617D01*
X57421311Y-50717617D01*
X57421311Y-50717617D01*
X57421311Y-50717618D01*
X57421311Y-50717618D01*
X57421311Y-50717618D01*
X57421311Y-50717618D01*
X57421311Y-50717618D01*
X57421311Y-50717618D01*
X57421311Y-50717618D01*
X57421310Y-50717618D01*
X57421310Y-50717618D01*
X57421310Y-50717618D01*
X57421310Y-50717618D01*
X57421310Y-50717618D01*
X57421310Y-50717618D01*
X57421310Y-50717618D01*
X57421310Y-50717618D01*
X57421310Y-50717618D01*
X57421310Y-50717618D01*
X57421310Y-50717618D01*
X57421310Y-50717618D01*
X57421309Y-50717618D01*
X57421309Y-50717618D01*
X57421309Y-50717618D01*
X57421309Y-50717618D01*
X57421309Y-50717618D01*
X57421309Y-50717618D01*
X57421309Y-50717617D01*
X57421309Y-50717617D01*
X57421309Y-50717617D01*
X57421309Y-50717617D01*
X57421309Y-50717617D01*
X57421309Y-50717617D01*
X57421309Y-50717617D02*
X57421309Y-50717617D01*
X57421309Y-50717617D01*
X57421309Y-50717617D01*
X57421309Y-50717617D01*
X57421309Y-50717617D01*
X57421309Y-50717617D01*
X57421309Y-50717616D01*
X57421309Y-50717616D01*
X57421309Y-50717616D01*
X57421309Y-50717616D01*
X57421309Y-50717616D01*
X57421310Y-50717616D01*
X57421310Y-50717616D01*
X57421310Y-50717616D01*
X57421310Y-50717616D01*
X57421310Y-50717616D01*
X57421310Y-50717616D01*
X57421310Y-50717616D01*
X57421310Y-50717616D01*
X57421310Y-50717616D01*
X57421310Y-50717616D01*
X57421310Y-50717616D01*
X57421310Y-50717616D01*
X57421311Y-50717616D01*
X57421311Y-50717616D01*
X57421311Y-50717616D01*
X57421311Y-50717616D01*
X57421311Y-50717616D01*
X57421311Y-50717616D01*
X57421311Y-50717617D01*
X57421311Y-50717617D01*
X57421311Y-50717617D01*
X57421311Y-50717617D01*
X57421311Y-50717617D01*
X57421311Y-50717617D01*
X57421311Y-50717617D01*
%TO.C,C20*%
D10*
X75598402Y-62735117D02*
X75075898Y-62735117D01*
X75598402Y-64205117D02*
X75075898Y-64205117D01*
%TO.C,R59*%
X63560791Y-50460117D02*
X63253509Y-50460117D01*
X63560791Y-51220117D02*
X63253509Y-51220117D01*
%TO.C,R38*%
X44320791Y-70580117D02*
X44013509Y-70580117D01*
X44320791Y-71340117D02*
X44013509Y-71340117D01*
%TO.C,C15*%
X85332150Y-61851748D02*
X85332150Y-62374252D01*
X86802150Y-61851748D02*
X86802150Y-62374252D01*
%TO.C,R31*%
X85220791Y-64390117D02*
X84913509Y-64390117D01*
X85220791Y-65150117D02*
X84913509Y-65150117D01*
%TO.C,R82*%
X60434919Y-51527619D02*
X61882393Y-51527619D01*
X60434919Y-54237619D02*
X61882393Y-54237619D01*
%TO.C,C76*%
X83807150Y-61757420D02*
X83807150Y-62038580D01*
X84827150Y-61757420D02*
X84827150Y-62038580D01*
%TO.C,R10*%
X79026953Y-55830337D02*
X78719671Y-55830337D01*
X79026953Y-56590337D02*
X78719671Y-56590337D01*
%TO.C,Q4*%
D11*
X68193810Y-72167617D02*
X68193810Y-78137617D01*
X68193810Y-78137617D02*
X68313810Y-78137617D01*
X68313810Y-72167617D02*
X68193810Y-72167617D01*
X69363810Y-78137617D02*
X69583810Y-78137617D01*
X69583810Y-72167617D02*
X69353810Y-72167617D01*
X70633810Y-78137617D02*
X70853810Y-78137617D01*
X70853810Y-72167617D02*
X70623810Y-72167617D01*
X71903810Y-78137617D02*
X72113810Y-78137617D01*
X72123810Y-72167617D02*
X71893810Y-72167617D01*
X73163810Y-78137617D02*
X73273810Y-78137617D01*
X73273810Y-72167617D02*
X73163810Y-72167617D01*
X73273810Y-78137617D02*
X73273810Y-72167617D01*
D12*
X68073811Y-71277617D02*
X68073811Y-71277617D01*
X68073811Y-71277617D01*
X68073811Y-71277617D01*
X68073811Y-71277617D01*
X68073811Y-71277617D01*
X68073811Y-71277618D01*
X68073811Y-71277618D01*
X68073811Y-71277618D01*
X68073811Y-71277618D01*
X68073811Y-71277618D01*
X68073811Y-71277618D01*
X68073811Y-71277618D01*
X68073810Y-71277618D01*
X68073810Y-71277618D01*
X68073810Y-71277618D01*
X68073810Y-71277618D01*
X68073810Y-71277618D01*
X68073810Y-71277618D01*
X68073810Y-71277618D01*
X68073810Y-71277618D01*
X68073810Y-71277618D01*
X68073810Y-71277618D01*
X68073810Y-71277618D01*
X68073810Y-71277618D01*
X68073809Y-71277618D01*
X68073809Y-71277618D01*
X68073809Y-71277618D01*
X68073809Y-71277618D01*
X68073809Y-71277618D01*
X68073809Y-71277618D01*
X68073809Y-71277617D01*
X68073809Y-71277617D01*
X68073809Y-71277617D01*
X68073809Y-71277617D01*
X68073809Y-71277617D01*
X68073809Y-71277617D01*
X68073809Y-71277617D02*
X68073809Y-71277617D01*
X68073809Y-71277617D01*
X68073809Y-71277617D01*
X68073809Y-71277617D01*
X68073809Y-71277617D01*
X68073809Y-71277617D01*
X68073809Y-71277616D01*
X68073809Y-71277616D01*
X68073809Y-71277616D01*
X68073809Y-71277616D01*
X68073809Y-71277616D01*
X68073810Y-71277616D01*
X68073810Y-71277616D01*
X68073810Y-71277616D01*
X68073810Y-71277616D01*
X68073810Y-71277616D01*
X68073810Y-71277616D01*
X68073810Y-71277616D01*
X68073810Y-71277616D01*
X68073810Y-71277616D01*
X68073810Y-71277616D01*
X68073810Y-71277616D01*
X68073810Y-71277616D01*
X68073811Y-71277616D01*
X68073811Y-71277616D01*
X68073811Y-71277616D01*
X68073811Y-71277616D01*
X68073811Y-71277616D01*
X68073811Y-71277616D01*
X68073811Y-71277617D01*
X68073811Y-71277617D01*
X68073811Y-71277617D01*
X68073811Y-71277617D01*
X68073811Y-71277617D01*
X68073811Y-71277617D01*
X68073811Y-71277617D01*
%TO.C,R5*%
D10*
X67053509Y-70770117D02*
X67360791Y-70770117D01*
X67053509Y-71530117D02*
X67360791Y-71530117D01*
%TO.C,C16*%
X77467150Y-61271362D02*
X77467150Y-61487034D01*
X78187150Y-61271362D02*
X78187150Y-61487034D01*
%TO.C,C78*%
X78225898Y-64805117D02*
X78748402Y-64805117D01*
X78225898Y-66275117D02*
X78748402Y-66275117D01*
%TO.C,R2*%
X65033387Y-67695117D02*
X63585913Y-67695117D01*
X65033387Y-70405117D02*
X63585913Y-70405117D01*
%TO.C,R80*%
X51390791Y-49480117D02*
X51083509Y-49480117D01*
X51390791Y-50240117D02*
X51083509Y-50240117D01*
%TO.C,Q18*%
D11*
X74256395Y-50440117D02*
X74256395Y-50550117D01*
X74256395Y-51590117D02*
X74256395Y-51820117D01*
X74256395Y-52860117D02*
X74256395Y-53090117D01*
X74256395Y-54130117D02*
X74256395Y-54360117D01*
X74256395Y-55400117D02*
X74256395Y-55520117D01*
X74256395Y-55520117D02*
X80226395Y-55520117D01*
X80226395Y-50440117D02*
X74256395Y-50440117D01*
X80226395Y-50550117D02*
X80226395Y-50440117D01*
X80226395Y-51810117D02*
X80226395Y-51600117D01*
X80226395Y-53080117D02*
X80226395Y-52860117D01*
X80226395Y-54350117D02*
X80226395Y-54130117D01*
X80226395Y-55520117D02*
X80226395Y-55400117D01*
D12*
X73366396Y-55640117D02*
X73366396Y-55640117D01*
X73366396Y-55640117D01*
X73366396Y-55640117D01*
X73366396Y-55640117D01*
X73366396Y-55640117D01*
X73366396Y-55640118D01*
X73366396Y-55640118D01*
X73366396Y-55640118D01*
X73366396Y-55640118D01*
X73366396Y-55640118D01*
X73366396Y-55640118D01*
X73366396Y-55640118D01*
X73366395Y-55640118D01*
X73366395Y-55640118D01*
X73366395Y-55640118D01*
X73366395Y-55640118D01*
X73366395Y-55640118D01*
X73366395Y-55640118D01*
X73366395Y-55640118D01*
X73366395Y-55640118D01*
X73366395Y-55640118D01*
X73366395Y-55640118D01*
X73366395Y-55640118D01*
X73366395Y-55640118D01*
X73366394Y-55640118D01*
X73366394Y-55640118D01*
X73366394Y-55640118D01*
X73366394Y-55640118D01*
X73366394Y-55640118D01*
X73366394Y-55640118D01*
X73366394Y-55640117D01*
X73366394Y-55640117D01*
X73366394Y-55640117D01*
X73366394Y-55640117D01*
X73366394Y-55640117D01*
X73366394Y-55640117D01*
X73366394Y-55640117D02*
X73366394Y-55640117D01*
X73366394Y-55640117D01*
X73366394Y-55640117D01*
X73366394Y-55640117D01*
X73366394Y-55640117D01*
X73366394Y-55640117D01*
X73366394Y-55640116D01*
X73366394Y-55640116D01*
X73366394Y-55640116D01*
X73366394Y-55640116D01*
X73366394Y-55640116D01*
X73366395Y-55640116D01*
X73366395Y-55640116D01*
X73366395Y-55640116D01*
X73366395Y-55640116D01*
X73366395Y-55640116D01*
X73366395Y-55640116D01*
X73366395Y-55640116D01*
X73366395Y-55640116D01*
X73366395Y-55640116D01*
X73366395Y-55640116D01*
X73366395Y-55640116D01*
X73366395Y-55640116D01*
X73366396Y-55640116D01*
X73366396Y-55640116D01*
X73366396Y-55640116D01*
X73366396Y-55640116D01*
X73366396Y-55640116D01*
X73366396Y-55640116D01*
X73366396Y-55640117D01*
X73366396Y-55640117D01*
X73366396Y-55640117D01*
X73366396Y-55640117D01*
X73366396Y-55640117D01*
X73366396Y-55640117D01*
X73366396Y-55640117D01*
%TO.C,C74*%
D10*
X77410523Y-59653166D02*
X77194851Y-59653166D01*
X77410523Y-60373166D02*
X77194851Y-60373166D01*
%TO.C,Q6*%
D11*
X74247150Y-66507617D02*
X74247150Y-66617617D01*
X74247150Y-67657617D02*
X74247150Y-67887617D01*
X74247150Y-68927617D02*
X74247150Y-69157617D01*
X74247150Y-70197617D02*
X74247150Y-70427617D01*
X74247150Y-71467617D02*
X74247150Y-71587617D01*
X74247150Y-71587617D02*
X80217150Y-71587617D01*
X80217150Y-66507617D02*
X74247150Y-66507617D01*
X80217150Y-66617617D02*
X80217150Y-66507617D01*
X80217150Y-67877617D02*
X80217150Y-67667617D01*
X80217150Y-69147617D02*
X80217150Y-68927617D01*
X80217150Y-70417617D02*
X80217150Y-70197617D01*
X80217150Y-71587617D02*
X80217150Y-71467617D01*
D12*
X73357151Y-71707617D02*
X73357151Y-71707617D01*
X73357151Y-71707617D01*
X73357151Y-71707617D01*
X73357151Y-71707617D01*
X73357151Y-71707617D01*
X73357151Y-71707618D01*
X73357151Y-71707618D01*
X73357151Y-71707618D01*
X73357151Y-71707618D01*
X73357151Y-71707618D01*
X73357151Y-71707618D01*
X73357151Y-71707618D01*
X73357150Y-71707618D01*
X73357150Y-71707618D01*
X73357150Y-71707618D01*
X73357150Y-71707618D01*
X73357150Y-71707618D01*
X73357150Y-71707618D01*
X73357150Y-71707618D01*
X73357150Y-71707618D01*
X73357150Y-71707618D01*
X73357150Y-71707618D01*
X73357150Y-71707618D01*
X73357150Y-71707618D01*
X73357149Y-71707618D01*
X73357149Y-71707618D01*
X73357149Y-71707618D01*
X73357149Y-71707618D01*
X73357149Y-71707618D01*
X73357149Y-71707618D01*
X73357149Y-71707617D01*
X73357149Y-71707617D01*
X73357149Y-71707617D01*
X73357149Y-71707617D01*
X73357149Y-71707617D01*
X73357149Y-71707617D01*
X73357149Y-71707617D02*
X73357149Y-71707617D01*
X73357149Y-71707617D01*
X73357149Y-71707617D01*
X73357149Y-71707617D01*
X73357149Y-71707617D01*
X73357149Y-71707617D01*
X73357149Y-71707616D01*
X73357149Y-71707616D01*
X73357149Y-71707616D01*
X73357149Y-71707616D01*
X73357149Y-71707616D01*
X73357150Y-71707616D01*
X73357150Y-71707616D01*
X73357150Y-71707616D01*
X73357150Y-71707616D01*
X73357150Y-71707616D01*
X73357150Y-71707616D01*
X73357150Y-71707616D01*
X73357150Y-71707616D01*
X73357150Y-71707616D01*
X73357150Y-71707616D01*
X73357150Y-71707616D01*
X73357150Y-71707616D01*
X73357151Y-71707616D01*
X73357151Y-71707616D01*
X73357151Y-71707616D01*
X73357151Y-71707616D01*
X73357151Y-71707616D01*
X73357151Y-71707616D01*
X73357151Y-71707617D01*
X73357151Y-71707617D01*
X73357151Y-71707617D01*
X73357151Y-71707617D01*
X73357151Y-71707617D01*
X73357151Y-71707617D01*
X73357151Y-71707617D01*
%TO.C,Q2*%
D11*
X62883810Y-72167617D02*
X62883810Y-78137617D01*
X62883810Y-78137617D02*
X63003810Y-78137617D01*
X63003810Y-72167617D02*
X62883810Y-72167617D01*
X64053810Y-78137617D02*
X64273810Y-78137617D01*
X64273810Y-72167617D02*
X64043810Y-72167617D01*
X65323810Y-78137617D02*
X65543810Y-78137617D01*
X65543810Y-72167617D02*
X65313810Y-72167617D01*
X66593810Y-78137617D02*
X66803810Y-78137617D01*
X66813810Y-72167617D02*
X66583810Y-72167617D01*
X67853810Y-78137617D02*
X67963810Y-78137617D01*
X67963810Y-72167617D02*
X67853810Y-72167617D01*
X67963810Y-78137617D02*
X67963810Y-72167617D01*
D12*
X62763811Y-71277617D02*
X62763811Y-71277617D01*
X62763811Y-71277617D01*
X62763811Y-71277617D01*
X62763811Y-71277617D01*
X62763811Y-71277617D01*
X62763811Y-71277618D01*
X62763811Y-71277618D01*
X62763811Y-71277618D01*
X62763811Y-71277618D01*
X62763811Y-71277618D01*
X62763811Y-71277618D01*
X62763811Y-71277618D01*
X62763810Y-71277618D01*
X62763810Y-71277618D01*
X62763810Y-71277618D01*
X62763810Y-71277618D01*
X62763810Y-71277618D01*
X62763810Y-71277618D01*
X62763810Y-71277618D01*
X62763810Y-71277618D01*
X62763810Y-71277618D01*
X62763810Y-71277618D01*
X62763810Y-71277618D01*
X62763810Y-71277618D01*
X62763809Y-71277618D01*
X62763809Y-71277618D01*
X62763809Y-71277618D01*
X62763809Y-71277618D01*
X62763809Y-71277618D01*
X62763809Y-71277618D01*
X62763809Y-71277617D01*
X62763809Y-71277617D01*
X62763809Y-71277617D01*
X62763809Y-71277617D01*
X62763809Y-71277617D01*
X62763809Y-71277617D01*
X62763809Y-71277617D02*
X62763809Y-71277617D01*
X62763809Y-71277617D01*
X62763809Y-71277617D01*
X62763809Y-71277617D01*
X62763809Y-71277617D01*
X62763809Y-71277617D01*
X62763809Y-71277616D01*
X62763809Y-71277616D01*
X62763809Y-71277616D01*
X62763809Y-71277616D01*
X62763809Y-71277616D01*
X62763810Y-71277616D01*
X62763810Y-71277616D01*
X62763810Y-71277616D01*
X62763810Y-71277616D01*
X62763810Y-71277616D01*
X62763810Y-71277616D01*
X62763810Y-71277616D01*
X62763810Y-71277616D01*
X62763810Y-71277616D01*
X62763810Y-71277616D01*
X62763810Y-71277616D01*
X62763810Y-71277616D01*
X62763811Y-71277616D01*
X62763811Y-71277616D01*
X62763811Y-71277616D01*
X62763811Y-71277616D01*
X62763811Y-71277616D01*
X62763811Y-71277616D01*
X62763811Y-71277617D01*
X62763811Y-71277617D01*
X62763811Y-71277617D01*
X62763811Y-71277617D01*
X62763811Y-71277617D01*
X62763811Y-71277617D01*
X62763811Y-71277617D01*
%TO.C,Q12*%
D11*
X45562150Y-66487351D02*
X45562150Y-66607351D01*
X45562150Y-67657351D02*
X45562150Y-67877351D01*
X45562150Y-68927351D02*
X45562150Y-69147351D01*
X45562150Y-70197351D02*
X45562150Y-70407351D01*
X45562150Y-71457351D02*
X45562150Y-71567351D01*
X45562150Y-71567351D02*
X51532150Y-71567351D01*
X51532150Y-66487351D02*
X45562150Y-66487351D01*
X51532150Y-66607351D02*
X51532150Y-66487351D01*
X51532150Y-67877351D02*
X51532150Y-67647351D01*
X51532150Y-69147351D02*
X51532150Y-68917351D01*
X51532150Y-70417351D02*
X51532150Y-70187351D01*
X51532150Y-71567351D02*
X51532150Y-71457351D01*
D12*
X52422151Y-66367351D02*
X52422151Y-66367351D01*
X52422151Y-66367351D01*
X52422151Y-66367351D01*
X52422151Y-66367351D01*
X52422151Y-66367351D01*
X52422151Y-66367352D01*
X52422151Y-66367352D01*
X52422151Y-66367352D01*
X52422151Y-66367352D01*
X52422151Y-66367352D01*
X52422151Y-66367352D01*
X52422151Y-66367352D01*
X52422150Y-66367352D01*
X52422150Y-66367352D01*
X52422150Y-66367352D01*
X52422150Y-66367352D01*
X52422150Y-66367352D01*
X52422150Y-66367352D01*
X52422150Y-66367352D01*
X52422150Y-66367352D01*
X52422150Y-66367352D01*
X52422150Y-66367352D01*
X52422150Y-66367352D01*
X52422150Y-66367352D01*
X52422149Y-66367352D01*
X52422149Y-66367352D01*
X52422149Y-66367352D01*
X52422149Y-66367352D01*
X52422149Y-66367352D01*
X52422149Y-66367352D01*
X52422149Y-66367351D01*
X52422149Y-66367351D01*
X52422149Y-66367351D01*
X52422149Y-66367351D01*
X52422149Y-66367351D01*
X52422149Y-66367351D01*
X52422149Y-66367351D02*
X52422149Y-66367351D01*
X52422149Y-66367351D01*
X52422149Y-66367351D01*
X52422149Y-66367351D01*
X52422149Y-66367351D01*
X52422149Y-66367351D01*
X52422149Y-66367350D01*
X52422149Y-66367350D01*
X52422149Y-66367350D01*
X52422149Y-66367350D01*
X52422149Y-66367350D01*
X52422150Y-66367350D01*
X52422150Y-66367350D01*
X52422150Y-66367350D01*
X52422150Y-66367350D01*
X52422150Y-66367350D01*
X52422150Y-66367350D01*
X52422150Y-66367350D01*
X52422150Y-66367350D01*
X52422150Y-66367350D01*
X52422150Y-66367350D01*
X52422150Y-66367350D01*
X52422150Y-66367350D01*
X52422151Y-66367350D01*
X52422151Y-66367350D01*
X52422151Y-66367350D01*
X52422151Y-66367350D01*
X52422151Y-66367350D01*
X52422151Y-66367350D01*
X52422151Y-66367351D01*
X52422151Y-66367351D01*
X52422151Y-66367351D01*
X52422151Y-66367351D01*
X52422151Y-66367351D01*
X52422151Y-66367351D01*
X52422151Y-66367351D01*
%TO.C,R40*%
D10*
X56743509Y-70890117D02*
X57050791Y-70890117D01*
X56743509Y-71650117D02*
X57050791Y-71650117D01*
%TO.C,R51*%
X77510791Y-57759198D02*
X77203509Y-57759198D01*
X77510791Y-58519198D02*
X77203509Y-58519198D01*
%TO.C,R11*%
X80890791Y-56379198D02*
X80583509Y-56379198D01*
X80890791Y-57139198D02*
X80583509Y-57139198D01*
%TO.C,C75*%
X75937150Y-65382281D02*
X75937150Y-65597953D01*
X76657150Y-65382281D02*
X76657150Y-65597953D01*
%TO.C,R62*%
X66437547Y-51527617D02*
X64990073Y-51527617D01*
X66437547Y-54237617D02*
X64990073Y-54237617D01*
%TO.C,Q16*%
D11*
X62881315Y-43857617D02*
X62881315Y-49827617D01*
X62881315Y-49827617D02*
X62991315Y-49827617D01*
X62991315Y-43857617D02*
X62881315Y-43857617D01*
X64031315Y-49827617D02*
X64261315Y-49827617D01*
X64251315Y-43857617D02*
X64041315Y-43857617D01*
X65301315Y-49827617D02*
X65531315Y-49827617D01*
X65521315Y-43857617D02*
X65301315Y-43857617D01*
X66571315Y-49827617D02*
X66801315Y-49827617D01*
X66791315Y-43857617D02*
X66571315Y-43857617D01*
X67841315Y-49827617D02*
X67961315Y-49827617D01*
X67961315Y-43857617D02*
X67841315Y-43857617D01*
X67961315Y-49827617D02*
X67961315Y-43857617D01*
D12*
X68081316Y-50717617D02*
X68081316Y-50717617D01*
X68081316Y-50717617D01*
X68081316Y-50717617D01*
X68081316Y-50717617D01*
X68081316Y-50717617D01*
X68081316Y-50717618D01*
X68081316Y-50717618D01*
X68081316Y-50717618D01*
X68081316Y-50717618D01*
X68081316Y-50717618D01*
X68081316Y-50717618D01*
X68081316Y-50717618D01*
X68081315Y-50717618D01*
X68081315Y-50717618D01*
X68081315Y-50717618D01*
X68081315Y-50717618D01*
X68081315Y-50717618D01*
X68081315Y-50717618D01*
X68081315Y-50717618D01*
X68081315Y-50717618D01*
X68081315Y-50717618D01*
X68081315Y-50717618D01*
X68081315Y-50717618D01*
X68081315Y-50717618D01*
X68081314Y-50717618D01*
X68081314Y-50717618D01*
X68081314Y-50717618D01*
X68081314Y-50717618D01*
X68081314Y-50717618D01*
X68081314Y-50717618D01*
X68081314Y-50717617D01*
X68081314Y-50717617D01*
X68081314Y-50717617D01*
X68081314Y-50717617D01*
X68081314Y-50717617D01*
X68081314Y-50717617D01*
X68081314Y-50717617D02*
X68081314Y-50717617D01*
X68081314Y-50717617D01*
X68081314Y-50717617D01*
X68081314Y-50717617D01*
X68081314Y-50717617D01*
X68081314Y-50717617D01*
X68081314Y-50717616D01*
X68081314Y-50717616D01*
X68081314Y-50717616D01*
X68081314Y-50717616D01*
X68081314Y-50717616D01*
X68081315Y-50717616D01*
X68081315Y-50717616D01*
X68081315Y-50717616D01*
X68081315Y-50717616D01*
X68081315Y-50717616D01*
X68081315Y-50717616D01*
X68081315Y-50717616D01*
X68081315Y-50717616D01*
X68081315Y-50717616D01*
X68081315Y-50717616D01*
X68081315Y-50717616D01*
X68081315Y-50717616D01*
X68081316Y-50717616D01*
X68081316Y-50717616D01*
X68081316Y-50717616D01*
X68081316Y-50717616D01*
X68081316Y-50717616D01*
X68081316Y-50717616D01*
X68081316Y-50717617D01*
X68081316Y-50717617D01*
X68081316Y-50717617D01*
X68081316Y-50717617D01*
X68081316Y-50717617D01*
X68081316Y-50717617D01*
X68081316Y-50717617D01*
%TO.C,R79*%
D10*
X58310791Y-50410117D02*
X58003509Y-50410117D01*
X58310791Y-51170117D02*
X58003509Y-51170117D01*
%TO.C,R42*%
X59030913Y-67695535D02*
X60478387Y-67695535D01*
X59030913Y-70405535D02*
X60478387Y-70405535D01*
%TO.C,C70*%
X48085898Y-56025117D02*
X48608402Y-56025117D01*
X48085898Y-57495117D02*
X48608402Y-57495117D01*
%TO.C,R9*%
X74560791Y-65830117D02*
X74253509Y-65830117D01*
X74560791Y-66590117D02*
X74253509Y-66590117D01*
%TO.C,R23*%
X73797150Y-58346476D02*
X73797150Y-58653758D01*
X74557150Y-58346476D02*
X74557150Y-58653758D01*
%TO.C,R7*%
X73963509Y-72230117D02*
X74270791Y-72230117D01*
X73963509Y-72990117D02*
X74270791Y-72990117D01*
%TO.C,R41*%
X50910791Y-71650117D02*
X50603509Y-71650117D01*
X50910791Y-72410117D02*
X50603509Y-72410117D01*
%TO.C,R32*%
X82517150Y-56555940D02*
X82517150Y-56863222D01*
X83277150Y-56555940D02*
X83277150Y-56863222D01*
%TO.C,U4*%
X78817150Y-57789581D02*
X78817150Y-58014581D01*
X79792150Y-57789581D02*
X78817150Y-57789581D01*
X79792150Y-64009581D02*
X79117150Y-64009581D01*
X82062150Y-57789581D02*
X83037150Y-57789581D01*
X82062150Y-64009581D02*
X83037150Y-64009581D01*
X83037150Y-57789581D02*
X83037150Y-58014581D01*
X83037150Y-64009581D02*
X83037150Y-63784581D01*
X79057150Y-64339581D02*
X78577150Y-64339581D01*
X78817150Y-64009581D01*
X79057150Y-64339581D01*
G36*
X79057150Y-64339581D02*
G01*
X78577150Y-64339581D01*
X78817150Y-64009581D01*
X79057150Y-64339581D01*
G37*
%TO.C,R39*%
X62133509Y-70760117D02*
X62440791Y-70760117D01*
X62133509Y-71520117D02*
X62440791Y-71520117D01*
%TO.C,R21*%
X75827150Y-56853758D02*
X75827150Y-56546476D01*
X76587150Y-56853758D02*
X76587150Y-56546476D01*
%TO.C,Q24*%
D11*
X45537150Y-50681402D02*
X45537150Y-50801402D01*
X45537150Y-51851402D02*
X45537150Y-52071402D01*
X45537150Y-53121402D02*
X45537150Y-53341402D01*
X45537150Y-54391402D02*
X45537150Y-54601402D01*
X45537150Y-55651402D02*
X45537150Y-55761402D01*
X45537150Y-55761402D02*
X51507150Y-55761402D01*
X51507150Y-50681402D02*
X45537150Y-50681402D01*
X51507150Y-50801402D02*
X51507150Y-50681402D01*
X51507150Y-52071402D02*
X51507150Y-51841402D01*
X51507150Y-53341402D02*
X51507150Y-53111402D01*
X51507150Y-54611402D02*
X51507150Y-54381402D01*
X51507150Y-55761402D02*
X51507150Y-55651402D01*
D12*
X52397151Y-50561402D02*
X52397151Y-50561402D01*
X52397151Y-50561402D01*
X52397151Y-50561402D01*
X52397151Y-50561402D01*
X52397151Y-50561402D01*
X52397151Y-50561403D01*
X52397151Y-50561403D01*
X52397151Y-50561403D01*
X52397151Y-50561403D01*
X52397151Y-50561403D01*
X52397151Y-50561403D01*
X52397151Y-50561403D01*
X52397150Y-50561403D01*
X52397150Y-50561403D01*
X52397150Y-50561403D01*
X52397150Y-50561403D01*
X52397150Y-50561403D01*
X52397150Y-50561403D01*
X52397150Y-50561403D01*
X52397150Y-50561403D01*
X52397150Y-50561403D01*
X52397150Y-50561403D01*
X52397150Y-50561403D01*
X52397150Y-50561403D01*
X52397149Y-50561403D01*
X52397149Y-50561403D01*
X52397149Y-50561403D01*
X52397149Y-50561403D01*
X52397149Y-50561403D01*
X52397149Y-50561403D01*
X52397149Y-50561402D01*
X52397149Y-50561402D01*
X52397149Y-50561402D01*
X52397149Y-50561402D01*
X52397149Y-50561402D01*
X52397149Y-50561402D01*
X52397149Y-50561402D02*
X52397149Y-50561402D01*
X52397149Y-50561402D01*
X52397149Y-50561402D01*
X52397149Y-50561402D01*
X52397149Y-50561402D01*
X52397149Y-50561402D01*
X52397149Y-50561401D01*
X52397149Y-50561401D01*
X52397149Y-50561401D01*
X52397149Y-50561401D01*
X52397149Y-50561401D01*
X52397150Y-50561401D01*
X52397150Y-50561401D01*
X52397150Y-50561401D01*
X52397150Y-50561401D01*
X52397150Y-50561401D01*
X52397150Y-50561401D01*
X52397150Y-50561401D01*
X52397150Y-50561401D01*
X52397150Y-50561401D01*
X52397150Y-50561401D01*
X52397150Y-50561401D01*
X52397150Y-50561401D01*
X52397151Y-50561401D01*
X52397151Y-50561401D01*
X52397151Y-50561401D01*
X52397151Y-50561401D01*
X52397151Y-50561401D01*
X52397151Y-50561401D01*
X52397151Y-50561402D01*
X52397151Y-50561402D01*
X52397151Y-50561402D01*
X52397151Y-50561402D01*
X52397151Y-50561402D01*
X52397151Y-50561402D01*
X52397151Y-50561402D01*
%TO.C,C73*%
D10*
X77404986Y-58719198D02*
X77189314Y-58719198D01*
X77404986Y-59439198D02*
X77189314Y-59439198D01*
%TO.C,C69*%
X48085898Y-57985117D02*
X48608402Y-57985117D01*
X48085898Y-59455117D02*
X48608402Y-59455117D01*
%TO.C,C77*%
X78944986Y-56779198D02*
X78729314Y-56779198D01*
X78944986Y-57499198D02*
X78729314Y-57499198D01*
%TO.C,Q11*%
D11*
X52243810Y-72167617D02*
X52243810Y-78137617D01*
X52243810Y-78137617D02*
X52363810Y-78137617D01*
X52363810Y-72167617D02*
X52243810Y-72167617D01*
X53413810Y-78137617D02*
X53633810Y-78137617D01*
X53633810Y-72167617D02*
X53403810Y-72167617D01*
X54683810Y-78137617D02*
X54903810Y-78137617D01*
X54903810Y-72167617D02*
X54673810Y-72167617D01*
X55953810Y-78137617D02*
X56163810Y-78137617D01*
X56173810Y-72167617D02*
X55943810Y-72167617D01*
X57213810Y-78137617D02*
X57323810Y-78137617D01*
X57323810Y-72167617D02*
X57213810Y-72167617D01*
X57323810Y-78137617D02*
X57323810Y-72167617D01*
D12*
X52123811Y-71277617D02*
X52123811Y-71277617D01*
X52123811Y-71277617D01*
X52123811Y-71277617D01*
X52123811Y-71277617D01*
X52123811Y-71277617D01*
X52123811Y-71277618D01*
X52123811Y-71277618D01*
X52123811Y-71277618D01*
X52123811Y-71277618D01*
X52123811Y-71277618D01*
X52123811Y-71277618D01*
X52123811Y-71277618D01*
X52123810Y-71277618D01*
X52123810Y-71277618D01*
X52123810Y-71277618D01*
X52123810Y-71277618D01*
X52123810Y-71277618D01*
X52123810Y-71277618D01*
X52123810Y-71277618D01*
X52123810Y-71277618D01*
X52123810Y-71277618D01*
X52123810Y-71277618D01*
X52123810Y-71277618D01*
X52123810Y-71277618D01*
X52123809Y-71277618D01*
X52123809Y-71277618D01*
X52123809Y-71277618D01*
X52123809Y-71277618D01*
X52123809Y-71277618D01*
X52123809Y-71277618D01*
X52123809Y-71277617D01*
X52123809Y-71277617D01*
X52123809Y-71277617D01*
X52123809Y-71277617D01*
X52123809Y-71277617D01*
X52123809Y-71277617D01*
X52123809Y-71277617D02*
X52123809Y-71277617D01*
X52123809Y-71277617D01*
X52123809Y-71277617D01*
X52123809Y-71277617D01*
X52123809Y-71277617D01*
X52123809Y-71277617D01*
X52123809Y-71277616D01*
X52123809Y-71277616D01*
X52123809Y-71277616D01*
X52123809Y-71277616D01*
X52123809Y-71277616D01*
X52123810Y-71277616D01*
X52123810Y-71277616D01*
X52123810Y-71277616D01*
X52123810Y-71277616D01*
X52123810Y-71277616D01*
X52123810Y-71277616D01*
X52123810Y-71277616D01*
X52123810Y-71277616D01*
X52123810Y-71277616D01*
X52123810Y-71277616D01*
X52123810Y-71277616D01*
X52123810Y-71277616D01*
X52123811Y-71277616D01*
X52123811Y-71277616D01*
X52123811Y-71277616D01*
X52123811Y-71277616D01*
X52123811Y-71277616D01*
X52123811Y-71277616D01*
X52123811Y-71277617D01*
X52123811Y-71277617D01*
X52123811Y-71277617D01*
X52123811Y-71277617D01*
X52123811Y-71277617D01*
X52123811Y-71277617D01*
X52123811Y-71277617D01*
%TO.C,Q10*%
D11*
X57576310Y-72172617D02*
X57576310Y-78142617D01*
X57576310Y-78142617D02*
X57696310Y-78142617D01*
X57696310Y-72172617D02*
X57576310Y-72172617D01*
X58746310Y-78142617D02*
X58966310Y-78142617D01*
X58966310Y-72172617D02*
X58736310Y-72172617D01*
X60016310Y-78142617D02*
X60236310Y-78142617D01*
X60236310Y-72172617D02*
X60006310Y-72172617D01*
X61286310Y-78142617D02*
X61496310Y-78142617D01*
X61506310Y-72172617D02*
X61276310Y-72172617D01*
X62546310Y-78142617D02*
X62656310Y-78142617D01*
X62656310Y-72172617D02*
X62546310Y-72172617D01*
X62656310Y-78142617D02*
X62656310Y-72172617D01*
D12*
X57456311Y-71282617D02*
X57456311Y-71282617D01*
X57456311Y-71282617D01*
X57456311Y-71282617D01*
X57456311Y-71282617D01*
X57456311Y-71282617D01*
X57456311Y-71282618D01*
X57456311Y-71282618D01*
X57456311Y-71282618D01*
X57456311Y-71282618D01*
X57456311Y-71282618D01*
X57456311Y-71282618D01*
X57456311Y-71282618D01*
X57456310Y-71282618D01*
X57456310Y-71282618D01*
X57456310Y-71282618D01*
X57456310Y-71282618D01*
X57456310Y-71282618D01*
X57456310Y-71282618D01*
X57456310Y-71282618D01*
X57456310Y-71282618D01*
X57456310Y-71282618D01*
X57456310Y-71282618D01*
X57456310Y-71282618D01*
X57456310Y-71282618D01*
X57456309Y-71282618D01*
X57456309Y-71282618D01*
X57456309Y-71282618D01*
X57456309Y-71282618D01*
X57456309Y-71282618D01*
X57456309Y-71282618D01*
X57456309Y-71282617D01*
X57456309Y-71282617D01*
X57456309Y-71282617D01*
X57456309Y-71282617D01*
X57456309Y-71282617D01*
X57456309Y-71282617D01*
X57456309Y-71282617D02*
X57456309Y-71282617D01*
X57456309Y-71282617D01*
X57456309Y-71282617D01*
X57456309Y-71282617D01*
X57456309Y-71282617D01*
X57456309Y-71282617D01*
X57456309Y-71282616D01*
X57456309Y-71282616D01*
X57456309Y-71282616D01*
X57456309Y-71282616D01*
X57456309Y-71282616D01*
X57456310Y-71282616D01*
X57456310Y-71282616D01*
X57456310Y-71282616D01*
X57456310Y-71282616D01*
X57456310Y-71282616D01*
X57456310Y-71282616D01*
X57456310Y-71282616D01*
X57456310Y-71282616D01*
X57456310Y-71282616D01*
X57456310Y-71282616D01*
X57456310Y-71282616D01*
X57456310Y-71282616D01*
X57456311Y-71282616D01*
X57456311Y-71282616D01*
X57456311Y-71282616D01*
X57456311Y-71282616D01*
X57456311Y-71282616D01*
X57456311Y-71282616D01*
X57456311Y-71282617D01*
X57456311Y-71282617D01*
X57456311Y-71282617D01*
X57456311Y-71282617D01*
X57456311Y-71282617D01*
X57456311Y-71282617D01*
X57456311Y-71282617D01*
%TO.C,Q22*%
D11*
X57556311Y-43857617D02*
X57556311Y-49827617D01*
X57556311Y-49827617D02*
X57666311Y-49827617D01*
X57666311Y-43857617D02*
X57556311Y-43857617D01*
X58706311Y-49827617D02*
X58936311Y-49827617D01*
X58926311Y-43857617D02*
X58716311Y-43857617D01*
X59976311Y-49827617D02*
X60206311Y-49827617D01*
X60196311Y-43857617D02*
X59976311Y-43857617D01*
X61246311Y-49827617D02*
X61476311Y-49827617D01*
X61466311Y-43857617D02*
X61246311Y-43857617D01*
X62516311Y-49827617D02*
X62636311Y-49827617D01*
X62636311Y-43857617D02*
X62516311Y-43857617D01*
X62636311Y-49827617D02*
X62636311Y-43857617D01*
D12*
X62756312Y-50717617D02*
X62756312Y-50717617D01*
X62756312Y-50717617D01*
X62756312Y-50717617D01*
X62756312Y-50717617D01*
X62756312Y-50717617D01*
X62756312Y-50717618D01*
X62756312Y-50717618D01*
X62756312Y-50717618D01*
X62756312Y-50717618D01*
X62756312Y-50717618D01*
X62756312Y-50717618D01*
X62756312Y-50717618D01*
X62756311Y-50717618D01*
X62756311Y-50717618D01*
X62756311Y-50717618D01*
X62756311Y-50717618D01*
X62756311Y-50717618D01*
X62756311Y-50717618D01*
X62756311Y-50717618D01*
X62756311Y-50717618D01*
X62756311Y-50717618D01*
X62756311Y-50717618D01*
X62756311Y-50717618D01*
X62756311Y-50717618D01*
X62756310Y-50717618D01*
X62756310Y-50717618D01*
X62756310Y-50717618D01*
X62756310Y-50717618D01*
X62756310Y-50717618D01*
X62756310Y-50717618D01*
X62756310Y-50717617D01*
X62756310Y-50717617D01*
X62756310Y-50717617D01*
X62756310Y-50717617D01*
X62756310Y-50717617D01*
X62756310Y-50717617D01*
X62756310Y-50717617D02*
X62756310Y-50717617D01*
X62756310Y-50717617D01*
X62756310Y-50717617D01*
X62756310Y-50717617D01*
X62756310Y-50717617D01*
X62756310Y-50717617D01*
X62756310Y-50717616D01*
X62756310Y-50717616D01*
X62756310Y-50717616D01*
X62756310Y-50717616D01*
X62756310Y-50717616D01*
X62756311Y-50717616D01*
X62756311Y-50717616D01*
X62756311Y-50717616D01*
X62756311Y-50717616D01*
X62756311Y-50717616D01*
X62756311Y-50717616D01*
X62756311Y-50717616D01*
X62756311Y-50717616D01*
X62756311Y-50717616D01*
X62756311Y-50717616D01*
X62756311Y-50717616D01*
X62756311Y-50717616D01*
X62756312Y-50717616D01*
X62756312Y-50717616D01*
X62756312Y-50717616D01*
X62756312Y-50717616D01*
X62756312Y-50717616D01*
X62756312Y-50717616D01*
X62756312Y-50717617D01*
X62756312Y-50717617D01*
X62756312Y-50717617D01*
X62756312Y-50717617D01*
X62756312Y-50717617D01*
X62756312Y-50717617D01*
X62756312Y-50717617D01*
%TO.C,U5*%
D13*
X73877150Y-59780117D02*
X73877150Y-61940117D01*
X73877150Y-61940117D02*
X74127150Y-61940117D01*
X74127150Y-59780117D02*
X73877150Y-59780117D01*
X75787150Y-59780117D02*
X76037150Y-59780117D01*
X76037150Y-59780117D02*
X76037150Y-61940117D01*
X76037150Y-61940117D02*
X75787150Y-61940117D01*
D14*
X73987150Y-59860117D02*
G75*
G02*
X73927150Y-59860117I-30000J0D01*
G01*
X73927150Y-59860117D02*
G75*
G02*
X73987150Y-59860117I30000J0D01*
G01*
D13*
X74527150Y-59340117D02*
G75*
G02*
X74367150Y-59340117I-80000J0D01*
G01*
X74367150Y-59340117D02*
G75*
G02*
X74527150Y-59340117I80000J0D01*
G01*
%TD*%
M02*
