M48
; DRILL file KiCad 10.0.1 date 2026-06-24T13:11:28
; FORMAT={-:-/ absolute / metric / decimal}
; #@! TF.CreationDate,2026-06-24T13:11:28+02:00
; #@! TF.GenerationSoftware,Kicad,Pcbnew,10.0.1
; #@! TF.FileFunction,Plated,1,6,PTH
FMAT,2
METRIC
; #@! TA.AperFunction,Plated,PTH,ViaDrill
T1C0.300
; #@! TA.AperFunction,Plated,PTH,ComponentDrill
T2C0.300
; #@! TA.AperFunction,Plated,PTH,ComponentDrill
T3C0.500
; #@! TA.AperFunction,Plated,PTH,ComponentDrill
T4C0.800
%
G90
G05
T1
X38.627Y-62.23
X38.637Y-63.28
X38.637Y-64.33
X38.637Y-65.39
X38.927Y-61.7
X38.937Y-62.75
X38.937Y-63.8
X38.937Y-64.86
X39.247Y-62.231
X39.257Y-63.281
X39.257Y-64.331
X39.257Y-65.391
X39.547Y-61.701
X39.557Y-62.751
X39.557Y-63.801
X39.557Y-64.861
X39.867Y-62.229
X39.877Y-63.279
X39.877Y-64.329
X39.877Y-65.389
X40.167Y-61.699
X40.177Y-62.749
X40.177Y-63.799
X40.177Y-64.859
X40.487Y-62.23
X40.497Y-63.28
X40.497Y-64.33
X40.497Y-65.39
X40.787Y-61.7
X40.797Y-62.75
X40.797Y-63.8
X40.797Y-64.86
X41.107Y-62.23
X41.117Y-63.28
X41.117Y-64.33
X41.117Y-65.39
X41.407Y-61.7
X41.417Y-62.75
X41.417Y-63.8
X41.417Y-64.86
X41.727Y-62.231
X41.737Y-64.331
X41.737Y-65.391
X42.027Y-61.701
X42.037Y-64.861
X42.347Y-62.229
X42.357Y-65.389
X42.647Y-61.699
X42.657Y-64.859
X42.967Y-62.23
X42.977Y-65.39
X43.267Y-61.7
X43.277Y-64.86
X43.587Y-62.23
X43.587Y-65.389
X43.627Y-55.16
X43.657Y-70.96
X43.887Y-61.7
X43.887Y-64.859
X44.017Y-53.59
X44.207Y-62.231
X44.207Y-64.34
X44.207Y-65.39
X44.507Y-61.701
X44.507Y-62.751
X44.507Y-63.81
X44.507Y-64.86
X44.677Y-70.96
X44.827Y-62.229
X44.827Y-63.279
X44.827Y-64.338
X44.917Y-69.56
X44.917Y-70.21
X44.927Y-68.32
X44.927Y-67.08
X44.927Y-67.7
X44.932Y-68.94
X45.127Y-61.699
X45.127Y-62.749
X45.127Y-63.808
X45.447Y-62.23
X45.447Y-63.28
X45.467Y-69.87
X45.468Y-69.25
X45.477Y-67.39
X45.477Y-68.01
X45.478Y-66.77
X45.482Y-68.63
X45.487Y-73.5
X45.617Y-50.59
X45.617Y-49.98
X45.627Y-51.83
X45.627Y-51.22
X45.637Y-53.06
X45.637Y-52.45
X45.647Y-54.3
X45.647Y-53.69
X45.747Y-62.75
X45.747Y-63.809
X45.897Y-72.83
X45.982Y-69.58
X45.987Y-70.19
X45.992Y-67.1
X45.997Y-68.96
X45.997Y-67.72
X45.997Y-68.34
X46.16Y-49.67
X46.17Y-50.29
X46.17Y-50.91
X46.18Y-51.53
X46.18Y-52.14
X46.19Y-52.76
X46.19Y-53.38
X46.2Y-54.0
X46.317Y-73.5
X46.517Y-69.27
X46.522Y-69.89
X46.527Y-66.79
X46.531Y-68.65
X46.532Y-67.41
X46.532Y-68.03
X46.707Y-50.59
X46.707Y-49.98
X46.717Y-51.83
X46.717Y-51.22
X46.727Y-53.06
X46.727Y-52.45
X46.737Y-54.3
X46.737Y-53.69
X46.757Y-71.85
X46.757Y-72.68
X47.397Y-56.4
X47.407Y-57.01
X47.407Y-58.41
X47.417Y-59.03
X47.427Y-72.26
X47.577Y-73.01
X48.057Y-49.1
X48.247Y-72.59
X48.247Y-73.42
X48.427Y-49.69
X48.837Y-49.11
X48.907Y-73.05
X49.197Y-48.43
X49.567Y-49.02
X49.577Y-72.63
X49.577Y-73.46
X49.957Y-74.12
X49.977Y-48.44
X49.977Y-79.33
X49.997Y-78.06
X50.257Y-72.013
X50.367Y-73.45
X50.387Y-78.66
X50.397Y-47.87
X50.407Y-77.39
X50.427Y-74.83
X50.427Y-75.66
X50.437Y-46.66
X50.467Y-45.43
X50.497Y-44.2
X50.527Y-76.5
X50.747Y-49.87
X50.787Y-74.12
X50.807Y-47.25
X50.807Y-79.33
X50.827Y-78.06
X50.837Y-46.02
X50.867Y-44.79
X50.897Y-48.88
X51.097Y-75.24
X51.177Y-47.88
X51.197Y-76.08
X51.197Y-76.91
X51.217Y-46.67
X51.247Y-45.44
X51.277Y-44.21
X51.497Y-42.866
X51.797Y-42.33
X51.987Y-72.22
X52.097Y-41.79
X52.107Y-42.867
X52.357Y-79.66
X52.417Y-42.32
X52.667Y-80.195
X52.687Y-79.146
X52.717Y-42.85
X52.727Y-41.78
X52.86Y-74.65
X52.977Y-79.661
X53.027Y-42.321
X53.086Y-60.58
X53.087Y-59.96
X53.096Y-58.68
X53.097Y-58.06
X53.166Y-62.81
X53.167Y-62.19
X53.19Y-75.16
X53.287Y-80.195
X53.307Y-79.141
X53.327Y-42.851
X53.337Y-41.781
X53.48Y-74.645
X53.597Y-79.661
X53.616Y-60.88
X53.617Y-60.26
X53.626Y-58.98
X53.627Y-58.36
X53.637Y-42.316
X53.696Y-63.11
X53.697Y-62.49
X53.81Y-75.155
X53.817Y-47.47
X53.907Y-80.195
X53.927Y-79.141
X53.937Y-42.846
X53.947Y-41.776
X54.1Y-74.645
X54.121Y-46.938
X54.14Y-75.705
X54.217Y-79.656
X54.247Y-42.317
X54.411Y-46.408
X54.423Y-47.473
X54.43Y-75.155
X54.527Y-80.19
X54.547Y-42.847
X54.547Y-79.141
X54.557Y-41.777
X54.72Y-74.646
X54.727Y-46.94
X54.76Y-75.705
X55.017Y-46.41
X55.033Y-47.463
X55.05Y-75.156
X55.317Y-45.87
X55.337Y-46.93
X55.37Y-74.644
X55.38Y-75.706
X55.559Y-58.93
X55.56Y-58.31
X55.622Y-45.322
X55.627Y-44.35
X55.627Y-46.4
X55.639Y-47.465
X55.67Y-75.151
X55.687Y-77.25
X55.69Y-76.225
X55.923Y-45.873
X55.937Y-44.84
X55.943Y-46.933
X55.977Y-43.83
X55.987Y-77.77
X55.996Y-75.72
X56.0Y-76.77
X56.089Y-59.23
X56.09Y-58.61
X56.233Y-46.403
X56.243Y-47.473
X56.262Y-45.342
X56.267Y-44.37
X56.307Y-77.245
X56.31Y-76.225
X56.533Y-45.863
X56.547Y-46.94
X56.577Y-44.86
X56.617Y-43.85
X56.62Y-76.765
X56.637Y-77.82
X56.849Y-47.475
X56.857Y-46.39
X56.927Y-77.246
X56.93Y-76.226
X57.36Y-60.76
X57.427Y-50.72
X57.437Y-71.45
X57.66Y-60.23
X57.98Y-60.761
X58.217Y-75.103
X58.28Y-60.231
X58.507Y-75.633
X58.537Y-74.579
X58.827Y-76.159
X58.837Y-75.099
X58.877Y-44.554
X58.927Y-45.591
X58.937Y-46.66
X59.127Y-75.629
X59.137Y-76.695
X59.157Y-74.574
X59.237Y-45.067
X59.237Y-46.121
X59.447Y-76.159
X59.457Y-75.099
X59.497Y-44.553
X59.547Y-45.59
X59.557Y-46.659
X59.747Y-75.629
X59.757Y-76.695
X59.777Y-74.574
X59.857Y-45.066
X59.857Y-46.12
X60.067Y-76.159
X60.077Y-75.099
X60.137Y-44.55
X60.187Y-45.587
X60.197Y-46.656
X60.367Y-75.629
X60.377Y-76.695
X60.397Y-74.575
X60.497Y-45.063
X60.497Y-46.117
X60.687Y-76.154
X60.697Y-75.094
X60.777Y-44.55
X60.823Y-64.919
X60.827Y-45.587
X60.987Y-75.624
X60.997Y-76.69
X61.017Y-74.57
X61.123Y-64.389
X61.137Y-45.064
X61.137Y-46.117
X61.307Y-76.155
X61.317Y-75.095
X61.443Y-64.92
X61.467Y-45.584
X61.477Y-46.653
X61.743Y-64.39
X61.777Y-46.114
X62.03Y-64.958
X62.118Y-78.895
X62.33Y-64.428
X62.65Y-64.959
X62.757Y-43.85
X62.757Y-51.05
X62.767Y-71.12
X62.829Y-43.104
X62.847Y-78.72
X62.95Y-64.429
X63.28Y-64.959
X63.58Y-64.429
X63.717Y-75.97
X63.9Y-64.96
X64.017Y-75.431
X64.027Y-76.5
X64.2Y-64.43
X64.217Y-47.825
X64.237Y-45.704
X64.247Y-46.77
X64.357Y-75.967
X64.357Y-77.02
X64.537Y-47.3
X64.547Y-46.24
X64.58Y-64.989
X64.657Y-75.427
X64.667Y-76.497
X64.717Y-77.534
X64.82Y-57.051
X64.837Y-47.825
X64.857Y-45.705
X64.867Y-46.771
X64.88Y-64.459
X64.997Y-75.967
X64.997Y-77.021
X65.157Y-47.301
X65.167Y-46.241
X65.2Y-64.99
X65.297Y-75.428
X65.307Y-76.497
X65.346Y-57.401
X65.357Y-77.534
X65.457Y-47.82
X65.477Y-45.7
X65.487Y-46.766
X65.5Y-64.46
X65.637Y-75.964
X65.637Y-77.017
X65.777Y-47.296
X65.787Y-46.236
X65.947Y-76.494
X65.997Y-77.531
X66.077Y-47.821
X66.097Y-45.7
X66.107Y-46.766
X66.257Y-75.963
X66.257Y-77.017
X66.397Y-47.296
X66.407Y-46.236
X66.557Y-75.424
X66.567Y-76.493
X66.617Y-77.53
X66.697Y-47.821
X66.717Y-45.7
X66.727Y-46.766
X67.017Y-47.296
X67.027Y-46.236
X67.317Y-47.816
X67.347Y-46.761
X67.637Y-47.291
X68.077Y-50.65
X68.097Y-70.98
X68.23Y-59.04
X68.231Y-58.42
X68.256Y-61.04
X68.256Y-62.91
X68.257Y-60.42
X68.257Y-62.29
X68.267Y-61.67
X68.277Y-63.53
X68.617Y-44.955
X68.617Y-45.995
X68.76Y-59.34
X68.761Y-58.72
X68.767Y-75.79
X68.775Y-74.705
X68.787Y-60.72
X68.787Y-62.59
X68.797Y-61.97
X68.798Y-61.35
X68.808Y-63.21
X68.907Y-44.38
X68.927Y-45.455
X68.997Y-78.29
X69.037Y-77.28
X69.077Y-75.24
X69.081Y-76.278
X69.237Y-44.955
X69.237Y-45.995
X69.347Y-77.77
X69.352Y-76.798
X69.381Y-74.708
X69.391Y-75.778
X69.547Y-45.45
X69.547Y-46.52
X69.557Y-44.43
X69.637Y-78.31
X69.677Y-77.3
X69.681Y-75.248
X69.691Y-76.268
X69.857Y-44.95
X69.857Y-45.995
X69.867Y-47.06
X69.985Y-74.715
X69.987Y-77.79
X69.992Y-76.818
X69.997Y-75.78
X70.167Y-46.515
X70.197Y-47.57
X70.287Y-75.25
X70.297Y-76.27
X70.477Y-45.99
X70.487Y-47.055
X70.591Y-74.718
X70.607Y-75.77
X70.787Y-46.515
X70.817Y-47.565
X70.897Y-75.24
X70.917Y-42.799
X70.937Y-41.75
X71.107Y-47.055
X71.137Y-80.403
X71.147Y-79.333
X71.201Y-74.708
X71.213Y-75.773
X71.247Y-42.285
X71.407Y-46.515
X71.437Y-47.565
X71.447Y-79.863
X71.503Y-75.243
X71.537Y-42.8
X71.557Y-41.745
X71.727Y-47.055
X71.747Y-80.404
X71.757Y-79.334
X71.807Y-74.71
X71.867Y-42.28
X72.027Y-46.51
X72.057Y-47.565
X72.057Y-79.864
X72.157Y-42.8
X72.177Y-41.745
X72.347Y-47.05
X72.357Y-80.4
X72.367Y-79.33
X72.487Y-42.28
X72.667Y-79.86
X72.677Y-47.56
X72.777Y-42.795
X72.797Y-41.746
X72.967Y-80.4
X72.977Y-79.33
X73.107Y-42.28
X73.277Y-79.86
X73.587Y-79.313
X73.597Y-80.39
X73.897Y-79.85
X74.057Y-71.92
X74.177Y-57.99
X74.197Y-79.314
X74.267Y-45.03
X74.267Y-45.86
X74.367Y-46.7
X74.417Y-77.97
X74.447Y-76.74
X74.477Y-75.51
X74.517Y-74.3
X74.537Y-49.36
X74.607Y-72.56
X74.637Y-43.88
X74.657Y-42.61
X74.677Y-47.82
X74.827Y-77.39
X74.857Y-76.16
X74.887Y-74.93
X74.937Y-45.44
X75.027Y-50.07
X75.037Y-46.28
X75.037Y-47.11
X75.057Y-44.55
X75.077Y-43.28
X75.097Y-48.49
X75.197Y-59.84
X75.197Y-77.98
X75.227Y-76.75
X75.257Y-75.52
X75.297Y-74.31
X75.467Y-43.88
X75.487Y-42.61
X75.507Y-47.82
X75.717Y-73.74
X75.887Y-48.48
X75.887Y-49.31
X76.127Y-73.16
X76.287Y-63.47
X76.297Y-65.01
X76.497Y-73.75
X76.557Y-48.89
X76.627Y-61.44
X76.857Y-73.07
X76.867Y-65.01
X77.217Y-48.52
X77.217Y-49.35
X77.237Y-61.44
X77.267Y-72.49
X77.477Y-55.96
X77.537Y-65.54
X77.637Y-73.08
X77.887Y-48.93
X77.897Y-61.62
X78.027Y-59.1
X78.037Y-49.68
X78.363Y-56.21
X78.517Y-61.44
X78.707Y-49.26
X78.707Y-50.09
X78.933Y-53.91
X78.933Y-54.53
X78.933Y-53.29
X78.938Y-55.15
X78.943Y-52.05
X78.948Y-52.67
X79.147Y-48.44
X79.217Y-68.37
X79.227Y-69.61
X79.228Y-69.0
X79.237Y-70.84
X79.238Y-70.23
X79.247Y-72.08
X79.248Y-71.47
X79.467Y-53.6
X79.467Y-54.22
X79.468Y-52.98
X79.472Y-54.84
X79.477Y-51.75
X79.482Y-52.36
X79.567Y-49.11
X79.754Y-68.06
X79.764Y-68.68
X79.764Y-69.3
X79.774Y-69.92
X79.774Y-70.53
X79.784Y-71.15
X79.784Y-71.77
X79.794Y-72.39
X79.977Y-48.44
X79.982Y-53.31
X79.987Y-55.17
X79.987Y-53.93
X79.987Y-54.55
X79.997Y-52.69
X79.997Y-52.07
X80.307Y-68.37
X80.317Y-69.61
X80.318Y-69.0
X80.327Y-70.84
X80.328Y-70.23
X80.337Y-72.08
X80.338Y-71.47
X80.533Y-53.0
X80.537Y-54.24
X80.537Y-54.86
X80.538Y-53.62
X80.547Y-52.38
X80.57Y-51.76
X81.45Y-50.29
X82.097Y-67.09
X82.907Y-56.26
X84.557Y-58.41
X84.557Y-64.77
X84.607Y-57.38
X84.797Y-59.121
X84.887Y-61.09
X84.967Y-63.68
X85.197Y-66.42
X85.487Y-59.52
X86.747Y-60.5
X86.747Y-61.163
T2
X80.277Y-58.9
X80.277Y-59.9
X80.277Y-60.9
X80.277Y-61.9
X80.277Y-62.9
X80.927Y-58.9
X80.927Y-59.9
X80.927Y-60.9
X80.927Y-61.9
X80.927Y-62.9
X81.577Y-58.9
X81.577Y-59.9
X81.577Y-60.9
X81.577Y-61.9
X81.577Y-62.9
T3
X53.917Y-55.6
X53.917Y-56.6
X53.917Y-65.61
X53.917Y-66.61
X54.917Y-55.6
X54.917Y-56.6
X54.917Y-65.61
X54.917Y-66.61
X55.917Y-55.6
X55.917Y-56.6
X55.917Y-65.61
X55.917Y-66.61
X56.917Y-55.6
X56.917Y-56.6
X56.917Y-65.61
X56.917Y-66.61
X57.917Y-55.6
X57.917Y-56.6
X57.917Y-65.61
X57.917Y-66.61
X59.277Y-55.599
X59.277Y-56.599
X59.297Y-65.618
X59.297Y-66.618
X66.947Y-55.602
X66.947Y-56.602
X66.947Y-65.64
X66.947Y-66.64
X68.427Y-55.612
X68.427Y-56.612
X68.427Y-65.63
X68.427Y-66.63
X69.427Y-55.612
X69.427Y-56.612
X69.427Y-65.63
X69.427Y-66.63
X70.427Y-55.612
X70.427Y-56.612
X70.427Y-65.63
X70.427Y-66.63
X71.407Y-58.112
X71.407Y-59.112
X71.407Y-60.112
X71.407Y-61.112
X71.407Y-62.112
X71.407Y-63.112
X71.407Y-64.112
X71.427Y-55.612
X71.427Y-56.612
X71.427Y-65.63
X71.427Y-66.63
X72.407Y-58.112
X72.407Y-59.112
X72.407Y-60.112
X72.407Y-61.112
X72.407Y-62.112
X72.407Y-63.112
X72.407Y-64.112
X72.427Y-55.612
X72.427Y-56.612
X72.427Y-65.63
X72.427Y-66.63
T4
X42.847Y-58.477
X42.847Y-63.477
M30
