%TF.GenerationSoftware,KiCad,Pcbnew,10.0.1*%
%TF.CreationDate,2026-06-24T13:11:31+02:00*%
%TF.ProjectId,esc,6573632e-6b69-4636-9164-5f7063625858,rev?*%
%TF.SameCoordinates,Original*%
%TF.FileFunction,Soldermask,Top*%
%TF.FilePolarity,Negative*%
%FSLAX46Y46*%
G04 Gerber Fmt 4.6, Leading zero omitted, Abs format (unit mm)*
G04 Created by KiCad (PCBNEW 10.0.1) date 2026-06-24 13:11:31*
%MOMM*%
%LPD*%
G01*
G04 APERTURE LIST*
G04 Aperture macros list*
%AMRoundRect*
0 Rectangle with rounded corners*
0 $1 Rounding radius*
0 $2 $3 $4 $5 $6 $7 $8 $9 X,Y pos of 4 corners*
0 Add a 4 corners polygon primitive as box body*
4,1,4,$2,$3,$4,$5,$6,$7,$8,$9,$2,$3,0*
0 Add four circle primitives for the rounded corners*
1,1,$1+$1,$2,$3*
1,1,$1+$1,$4,$5*
1,1,$1+$1,$6,$7*
1,1,$1+$1,$8,$9*
0 Add four rect primitives between the rounded corners*
20,1,$1+$1,$2,$3,$4,$5,0*
20,1,$1+$1,$4,$5,$6,$7,0*
20,1,$1+$1,$6,$7,$8,$9,0*
20,1,$1+$1,$8,$9,$2,$3,0*%
G04 Aperture macros list end*
%ADD10R,0.580000X1.200000*%
%ADD11R,4.400000X3.800000*%
%ADD12RoundRect,0.135000X-0.185000X0.135000X-0.185000X-0.135000X0.185000X-0.135000X0.185000X0.135000X0*%
%ADD13RoundRect,0.218750X-0.218750X-0.256250X0.218750X-0.256250X0.218750X0.256250X-0.218750X0.256250X0*%
%ADD14R,1.200000X0.580000*%
%ADD15R,3.800000X4.400000*%
%ADD16R,2.600000X4.000000*%
%ADD17RoundRect,0.135000X0.185000X-0.135000X0.185000X0.135000X-0.185000X0.135000X-0.185000X-0.135000X0*%
%ADD18RoundRect,0.135000X0.135000X0.185000X-0.135000X0.185000X-0.135000X-0.185000X0.135000X-0.185000X0*%
%ADD19RoundRect,0.250000X0.250000X0.475000X-0.250000X0.475000X-0.250000X-0.475000X0.250000X-0.475000X0*%
%ADD20R,0.850000X0.850000*%
%ADD21C,0.850000*%
%ADD22RoundRect,0.250000X-0.900000X1.000000X-0.900000X-1.000000X0.900000X-1.000000X0.900000X1.000000X0*%
%ADD23C,4.300000*%
%ADD24RoundRect,0.250000X-0.250000X-0.475000X0.250000X-0.475000X0.250000X0.475000X-0.250000X0.475000X0*%
%ADD25RoundRect,0.250000X-0.475000X0.250000X-0.475000X-0.250000X0.475000X-0.250000X0.475000X0.250000X0*%
%ADD26RoundRect,0.135000X-0.135000X-0.185000X0.135000X-0.185000X0.135000X0.185000X-0.135000X0.185000X0*%
%ADD27RoundRect,0.250000X0.475000X-0.250000X0.475000X0.250000X-0.475000X0.250000X-0.475000X-0.250000X0*%
%ADD28RoundRect,0.195000X-2.205000X-0.455000X2.205000X-0.455000X2.205000X0.455000X-2.205000X0.455000X0*%
%ADD29RoundRect,0.150000X0.625000X-0.150000X0.625000X0.150000X-0.625000X0.150000X-0.625000X-0.150000X0*%
%ADD30RoundRect,0.250000X0.650000X-0.350000X0.650000X0.350000X-0.650000X0.350000X-0.650000X-0.350000X0*%
%ADD31C,1.600000*%
G04 APERTURE END LIST*
D10*
%TO.C,Q1*%
X63526310Y-69622617D03*
X64796310Y-69622617D03*
D11*
X65426310Y-71722617D03*
D10*
X66066310Y-69622617D03*
X67336310Y-69622617D03*
X67326310Y-75122617D03*
X63516310Y-75122617D03*
X64786310Y-75122617D03*
X66056310Y-75122617D03*
%TD*%
%TO.C,Q13*%
X67311310Y-52582617D03*
X66041310Y-52582617D03*
D11*
X65411310Y-50482617D03*
D10*
X64771310Y-52582617D03*
X63501310Y-52582617D03*
X63511310Y-47082617D03*
X67321310Y-47082617D03*
X66051310Y-47082617D03*
X64781310Y-47082617D03*
%TD*%
D12*
%TO.C,R57*%
X73757150Y-48660117D03*
X73757150Y-49680117D03*
%TD*%
D13*
%TO.C,D5*%
X75137150Y-56680117D03*
X76712150Y-56680117D03*
%TD*%
D14*
%TO.C,Q9*%
X51342151Y-67134851D03*
X51342151Y-68404851D03*
D15*
X49242151Y-69034851D03*
D14*
X51342151Y-69674851D03*
X51342151Y-70944851D03*
X45842151Y-70934851D03*
X45842151Y-67124851D03*
X45842151Y-68394851D03*
X45842151Y-69664851D03*
%TD*%
D16*
%TO.C,J1*%
X59986310Y-78520117D03*
X56786310Y-78520117D03*
X53586310Y-78520117D03*
%TD*%
D17*
%TO.C,R37*%
X51717150Y-73130117D03*
X51717150Y-72110117D03*
%TD*%
D18*
%TO.C,R78*%
X44647150Y-55160117D03*
X43627150Y-55160117D03*
%TD*%
D19*
%TO.C,C68*%
X47897150Y-65630117D03*
X45997150Y-65630117D03*
%TD*%
D20*
%TO.C,J16*%
X66947150Y-56602027D03*
D21*
X66947150Y-55602027D03*
%TD*%
D22*
%TO.C,D15*%
X46207150Y-58827101D03*
X46207150Y-63127101D03*
%TD*%
D10*
%TO.C,Q20*%
X56661310Y-52582617D03*
X55391310Y-52582617D03*
D11*
X54761310Y-50482617D03*
D10*
X54121310Y-52582617D03*
X52851310Y-52582617D03*
X52861310Y-47082617D03*
X56671310Y-47082617D03*
X55401310Y-47082617D03*
X54131310Y-47082617D03*
%TD*%
D23*
%TO.C,REF\u002A\u002A*%
X78011310Y-45732617D03*
%TD*%
D12*
%TO.C,R36*%
X62127150Y-76527617D03*
X62127150Y-77547617D03*
%TD*%
D10*
%TO.C,Q14*%
X72636310Y-52582617D03*
X71366310Y-52582617D03*
D11*
X70736310Y-50482617D03*
D10*
X70096310Y-52582617D03*
X68826310Y-52582617D03*
X68836310Y-47082617D03*
X72646310Y-47082617D03*
X71376310Y-47082617D03*
X70106310Y-47082617D03*
%TD*%
D24*
%TO.C,C63*%
X66480000Y-58830000D03*
X68380000Y-58830000D03*
%TD*%
D20*
%TO.C,J15*%
X71407150Y-58111666D03*
D21*
X72407150Y-58111666D03*
X71407150Y-59111666D03*
X72407150Y-59111666D03*
X71407150Y-60111666D03*
X72407150Y-60111666D03*
X71407150Y-61111666D03*
X72407150Y-61111666D03*
X71407150Y-62111666D03*
X72407150Y-62111666D03*
X71407150Y-63111666D03*
X72407150Y-63111666D03*
X71407150Y-64111666D03*
X72407150Y-64111666D03*
%TD*%
D17*
%TO.C,R76*%
X62537150Y-45430117D03*
X62537150Y-44410117D03*
%TD*%
D25*
%TO.C,C64*%
X65130000Y-55120000D03*
X65130000Y-57020000D03*
%TD*%
D24*
%TO.C,C66*%
X50107150Y-60280117D03*
X52007150Y-60280117D03*
%TD*%
D12*
%TO.C,R77*%
X51737150Y-48790117D03*
X51737150Y-49810117D03*
%TD*%
D26*
%TO.C,R8*%
X81077150Y-67090117D03*
X82097150Y-67090117D03*
%TD*%
D20*
%TO.C,J22*%
X66947150Y-65640117D03*
D21*
X66947150Y-66640117D03*
%TD*%
D10*
%TO.C,Q3*%
X68851311Y-69622618D03*
X70121311Y-69622618D03*
D11*
X70751311Y-71722618D03*
D10*
X71391311Y-69622618D03*
X72661311Y-69622618D03*
X72651311Y-75122618D03*
X68841311Y-75122618D03*
X70111311Y-75122618D03*
X71381311Y-75122618D03*
%TD*%
D17*
%TO.C,R6*%
X73927150Y-73007617D03*
X73927150Y-71987617D03*
%TD*%
D14*
%TO.C,Q5*%
X74417150Y-70937617D03*
X74417150Y-69667617D03*
D15*
X76517150Y-69037617D03*
D14*
X74417150Y-68397617D03*
X74417150Y-67127617D03*
X79917150Y-67137617D03*
X79917150Y-70947617D03*
X79917150Y-69677617D03*
X79917150Y-68407617D03*
%TD*%
D16*
%TO.C,J2*%
X65523878Y-43440117D03*
X68723878Y-43440117D03*
X71923878Y-43440117D03*
%TD*%
D27*
%TO.C,C60*%
X61417150Y-67970117D03*
X61417150Y-66070117D03*
%TD*%
D10*
%TO.C,Q19*%
X61986310Y-52582617D03*
X60716310Y-52582617D03*
D11*
X60086310Y-50482617D03*
D10*
X59446310Y-52582617D03*
X58176310Y-52582617D03*
X58186310Y-47082617D03*
X61996310Y-47082617D03*
X60726310Y-47082617D03*
X59456310Y-47082617D03*
%TD*%
D23*
%TO.C,REF\u002A\u002A*%
X47511310Y-76232617D03*
%TD*%
D20*
%TO.C,J18*%
X59297150Y-65617611D03*
D21*
X59297150Y-66617611D03*
%TD*%
D27*
%TO.C,C67*%
X63117150Y-67968399D03*
X63117150Y-66068399D03*
%TD*%
D19*
%TO.C,C62*%
X55730000Y-58750000D03*
X57630000Y-58750000D03*
%TD*%
D16*
%TO.C,J3*%
X59991901Y-43431866D03*
X56791901Y-43431866D03*
X53591901Y-43431866D03*
%TD*%
D24*
%TO.C,C34*%
X75157150Y-58650117D03*
X77057150Y-58650117D03*
%TD*%
D20*
%TO.C,J27*%
X72427150Y-65630117D03*
D21*
X72427150Y-66630117D03*
X71427150Y-65630117D03*
X71427150Y-66630117D03*
X70427150Y-65630117D03*
X70427150Y-66630117D03*
X69427150Y-65630117D03*
X69427150Y-66630117D03*
X68427150Y-65630117D03*
X68427150Y-66630117D03*
%TD*%
D28*
%TO.C,L1*%
X77060000Y-61325000D03*
X77060000Y-64675000D03*
%TD*%
D24*
%TO.C,C59*%
X50107149Y-62240117D03*
X52007149Y-62240117D03*
%TD*%
D12*
%TO.C,R4*%
X63097150Y-77360117D03*
X63097150Y-78380117D03*
%TD*%
D27*
%TO.C,C79*%
X80907150Y-65000117D03*
X80907150Y-63100117D03*
%TD*%
D24*
%TO.C,C61*%
X50107150Y-58320117D03*
X52007150Y-58320117D03*
%TD*%
D10*
%TO.C,Q8*%
X52886310Y-69622617D03*
X54156310Y-69622617D03*
D11*
X54786310Y-71722617D03*
D10*
X55426310Y-69622617D03*
X56696310Y-69622617D03*
X56686310Y-75122617D03*
X52876310Y-75122617D03*
X54146310Y-75122617D03*
X55416310Y-75122617D03*
%TD*%
D20*
%TO.C,J17*%
X59277150Y-56598818D03*
D21*
X59277150Y-55598818D03*
%TD*%
D27*
%TO.C,C65*%
X64827150Y-67967588D03*
X64827150Y-66067588D03*
%TD*%
D14*
%TO.C,Q15*%
X74426395Y-54850117D03*
X74426395Y-53580117D03*
D15*
X76526395Y-52950117D03*
D14*
X74426395Y-52310117D03*
X74426395Y-51040117D03*
X79926395Y-51050117D03*
X79926395Y-54860117D03*
X79926395Y-53590117D03*
X79926395Y-52320117D03*
%TD*%
D20*
%TO.C,J19*%
X68427149Y-56611853D03*
D21*
X68427149Y-55611853D03*
X69427149Y-56611853D03*
X69427149Y-55611853D03*
X70427149Y-56611853D03*
X70427149Y-55611853D03*
X71427149Y-56611853D03*
X71427149Y-55611853D03*
X72427149Y-56611853D03*
X72427149Y-55611853D03*
%TD*%
D17*
%TO.C,R56*%
X63497150Y-45880117D03*
X63497150Y-44860117D03*
%TD*%
D14*
%TO.C,Q21*%
X51337150Y-51321402D03*
X51337150Y-52591402D03*
D15*
X49237150Y-53221402D03*
D14*
X51337150Y-53861402D03*
X51337150Y-55131402D03*
X45837150Y-55121402D03*
X45837150Y-51311402D03*
X45837150Y-52581402D03*
X45837150Y-53851402D03*
%TD*%
D29*
%TO.C,J4*%
X83207150Y-64605550D03*
X83207150Y-63605550D03*
X83207150Y-62605550D03*
X83207150Y-61605550D03*
X83207150Y-60605550D03*
X83207150Y-59605550D03*
X83207150Y-58605550D03*
X83207150Y-57605550D03*
D30*
X87082150Y-65905550D03*
X87082150Y-56305550D03*
%TD*%
D23*
%TO.C,REF\u002A\u002A*%
X47511310Y-45732617D03*
%TD*%
D20*
%TO.C,J20*%
X53917150Y-56600117D03*
D21*
X53917150Y-55600117D03*
X54917150Y-56600117D03*
X54917150Y-55600117D03*
X55917150Y-56600117D03*
X55917150Y-55600117D03*
X56917150Y-56600117D03*
X56917150Y-55600117D03*
X57917150Y-56600117D03*
X57917150Y-55600117D03*
%TD*%
D26*
%TO.C,R58*%
X80410000Y-50300000D03*
X81430000Y-50300000D03*
%TD*%
D20*
%TO.C,J28*%
X57917150Y-65610117D03*
D21*
X57917150Y-66610117D03*
X56917150Y-65610117D03*
X56917150Y-66610117D03*
X55917150Y-65610117D03*
X55917150Y-66610117D03*
X54917150Y-65610117D03*
X54917150Y-66610117D03*
X53917150Y-65610117D03*
X53917150Y-66610117D03*
%TD*%
D23*
%TO.C,REF\u002A\u002A*%
X78011310Y-76232617D03*
%TD*%
D10*
%TO.C,Q7*%
X58211310Y-69622617D03*
X59481310Y-69622617D03*
D11*
X60111310Y-71722617D03*
D10*
X60751310Y-69622617D03*
X62021310Y-69622617D03*
X62011310Y-75122617D03*
X58201310Y-75122617D03*
X59471310Y-75122617D03*
X60741310Y-75122617D03*
%TD*%
D31*
%TO.C,C71*%
X42847150Y-58476906D03*
X42847150Y-63476906D03*
%TD*%
D16*
%TO.C,J21*%
X65511310Y-78520117D03*
X68711310Y-78520117D03*
X71911310Y-78520117D03*
%TD*%
M02*
