%TF.GenerationSoftware,KiCad,Pcbnew,10.0.1*%
%TF.CreationDate,2026-06-24T13:11:31+02:00*%
%TF.ProjectId,esc,6573632e-6b69-4636-9164-5f7063625858,rev?*%
%TF.SameCoordinates,Original*%
%TF.FileFunction,Legend,Top*%
%TF.FilePolarity,Positive*%
%FSLAX46Y46*%
G04 Gerber Fmt 4.6, Leading zero omitted, Abs format (unit mm)*
G04 Created by KiCad (PCBNEW 10.0.1) date 2026-06-24 13:11:31*
%MOMM*%
%LPD*%
G01*
G04 APERTURE LIST*
%ADD10C,0.250000*%
%ADD11C,0.500000*%
%ADD12C,0.120000*%
%ADD13C,0.100000*%
G04 APERTURE END LIST*
%TO.C,Q1*%
D10*
X62876310Y-69322617D02*
X62996310Y-69322617D01*
X62876310Y-75292617D02*
X62876310Y-69322617D01*
X62996310Y-75292617D02*
X62876310Y-75292617D01*
X64046310Y-69322617D02*
X64266310Y-69322617D01*
X64266310Y-75292617D02*
X64036310Y-75292617D01*
X65316310Y-69322617D02*
X65536310Y-69322617D01*
X65536310Y-75292617D02*
X65306310Y-75292617D01*
X66586310Y-69322617D02*
X66796310Y-69322617D01*
X66806310Y-75292617D02*
X66576310Y-75292617D01*
X67846310Y-69322617D02*
X67956310Y-69322617D01*
X67956310Y-69322617D02*
X67956310Y-75292617D01*
X67956310Y-75292617D02*
X67846310Y-75292617D01*
D11*
X62756311Y-76182617D02*
X62756311Y-76182617D01*
X62756311Y-76182617D01*
X62756311Y-76182617D01*
X62756311Y-76182617D01*
X62756311Y-76182617D01*
X62756311Y-76182618D01*
X62756311Y-76182618D01*
X62756311Y-76182618D01*
X62756311Y-76182618D01*
X62756311Y-76182618D01*
X62756311Y-76182618D01*
X62756311Y-76182618D01*
X62756310Y-76182618D01*
X62756310Y-76182618D01*
X62756310Y-76182618D01*
X62756310Y-76182618D01*
X62756310Y-76182618D01*
X62756310Y-76182618D01*
X62756310Y-76182618D01*
X62756310Y-76182618D01*
X62756310Y-76182618D01*
X62756310Y-76182618D01*
X62756310Y-76182618D01*
X62756310Y-76182618D01*
X62756309Y-76182618D01*
X62756309Y-76182618D01*
X62756309Y-76182618D01*
X62756309Y-76182618D01*
X62756309Y-76182618D01*
X62756309Y-76182618D01*
X62756309Y-76182617D01*
X62756309Y-76182617D01*
X62756309Y-76182617D01*
X62756309Y-76182617D01*
X62756309Y-76182617D01*
X62756309Y-76182617D01*
X62756309Y-76182617D02*
X62756309Y-76182617D01*
X62756309Y-76182617D01*
X62756309Y-76182617D01*
X62756309Y-76182617D01*
X62756309Y-76182617D01*
X62756309Y-76182617D01*
X62756309Y-76182616D01*
X62756309Y-76182616D01*
X62756309Y-76182616D01*
X62756309Y-76182616D01*
X62756309Y-76182616D01*
X62756310Y-76182616D01*
X62756310Y-76182616D01*
X62756310Y-76182616D01*
X62756310Y-76182616D01*
X62756310Y-76182616D01*
X62756310Y-76182616D01*
X62756310Y-76182616D01*
X62756310Y-76182616D01*
X62756310Y-76182616D01*
X62756310Y-76182616D01*
X62756310Y-76182616D01*
X62756310Y-76182616D01*
X62756311Y-76182616D01*
X62756311Y-76182616D01*
X62756311Y-76182616D01*
X62756311Y-76182616D01*
X62756311Y-76182616D01*
X62756311Y-76182616D01*
X62756311Y-76182617D01*
X62756311Y-76182617D01*
X62756311Y-76182617D01*
X62756311Y-76182617D01*
X62756311Y-76182617D01*
X62756311Y-76182617D01*
X62756311Y-76182617D01*
%TO.C,Q13*%
D10*
X62881310Y-46912617D02*
X62991310Y-46912617D01*
X62881310Y-52882617D02*
X62881310Y-46912617D01*
X62991310Y-52882617D02*
X62881310Y-52882617D01*
X64031310Y-46912617D02*
X64261310Y-46912617D01*
X64251310Y-52882617D02*
X64041310Y-52882617D01*
X65301310Y-46912617D02*
X65531310Y-46912617D01*
X65521310Y-52882617D02*
X65301310Y-52882617D01*
X66571310Y-46912617D02*
X66801310Y-46912617D01*
X66791310Y-52882617D02*
X66571310Y-52882617D01*
X67841310Y-46912617D02*
X67961310Y-46912617D01*
X67961310Y-46912617D02*
X67961310Y-52882617D01*
X67961310Y-52882617D02*
X67841310Y-52882617D01*
D11*
X68081311Y-46022617D02*
X68081311Y-46022617D01*
X68081311Y-46022617D01*
X68081311Y-46022617D01*
X68081311Y-46022617D01*
X68081311Y-46022617D01*
X68081311Y-46022618D01*
X68081311Y-46022618D01*
X68081311Y-46022618D01*
X68081311Y-46022618D01*
X68081311Y-46022618D01*
X68081311Y-46022618D01*
X68081311Y-46022618D01*
X68081310Y-46022618D01*
X68081310Y-46022618D01*
X68081310Y-46022618D01*
X68081310Y-46022618D01*
X68081310Y-46022618D01*
X68081310Y-46022618D01*
X68081310Y-46022618D01*
X68081310Y-46022618D01*
X68081310Y-46022618D01*
X68081310Y-46022618D01*
X68081310Y-46022618D01*
X68081310Y-46022618D01*
X68081309Y-46022618D01*
X68081309Y-46022618D01*
X68081309Y-46022618D01*
X68081309Y-46022618D01*
X68081309Y-46022618D01*
X68081309Y-46022618D01*
X68081309Y-46022617D01*
X68081309Y-46022617D01*
X68081309Y-46022617D01*
X68081309Y-46022617D01*
X68081309Y-46022617D01*
X68081309Y-46022617D01*
X68081309Y-46022617D02*
X68081309Y-46022617D01*
X68081309Y-46022617D01*
X68081309Y-46022617D01*
X68081309Y-46022617D01*
X68081309Y-46022617D01*
X68081309Y-46022617D01*
X68081309Y-46022616D01*
X68081309Y-46022616D01*
X68081309Y-46022616D01*
X68081309Y-46022616D01*
X68081309Y-46022616D01*
X68081310Y-46022616D01*
X68081310Y-46022616D01*
X68081310Y-46022616D01*
X68081310Y-46022616D01*
X68081310Y-46022616D01*
X68081310Y-46022616D01*
X68081310Y-46022616D01*
X68081310Y-46022616D01*
X68081310Y-46022616D01*
X68081310Y-46022616D01*
X68081310Y-46022616D01*
X68081310Y-46022616D01*
X68081311Y-46022616D01*
X68081311Y-46022616D01*
X68081311Y-46022616D01*
X68081311Y-46022616D01*
X68081311Y-46022616D01*
X68081311Y-46022616D01*
X68081311Y-46022617D01*
X68081311Y-46022617D01*
X68081311Y-46022617D01*
X68081311Y-46022617D01*
X68081311Y-46022617D01*
X68081311Y-46022617D01*
X68081311Y-46022617D01*
%TO.C,R57*%
D12*
X73377150Y-49016476D02*
X73377150Y-49323758D01*
X74137150Y-49016476D02*
X74137150Y-49323758D01*
%TO.C,D5*%
X74439650Y-55945117D02*
X74439650Y-57415117D01*
X74439650Y-57415117D02*
X76724650Y-57415117D01*
X76724650Y-55945117D02*
X74439650Y-55945117D01*
%TO.C,Q9*%
D10*
X45672151Y-66484851D02*
X51642151Y-66484851D01*
X45672151Y-66604851D02*
X45672151Y-66484851D01*
X45672151Y-67874851D02*
X45672151Y-67644851D01*
X45672151Y-69144851D02*
X45672151Y-68914851D01*
X45672151Y-70414851D02*
X45672151Y-70184851D01*
X45672151Y-71564851D02*
X45672151Y-71454851D01*
X51642151Y-66484851D02*
X51642151Y-66604851D01*
X51642151Y-67654851D02*
X51642151Y-67874851D01*
X51642151Y-68924851D02*
X51642151Y-69144851D01*
X51642151Y-70194851D02*
X51642151Y-70404851D01*
X51642151Y-71454851D02*
X51642151Y-71564851D01*
X51642151Y-71564851D02*
X45672151Y-71564851D01*
D11*
X44782152Y-66364851D02*
X44782152Y-66364851D01*
X44782152Y-66364851D01*
X44782152Y-66364851D01*
X44782152Y-66364851D01*
X44782152Y-66364851D01*
X44782152Y-66364852D01*
X44782152Y-66364852D01*
X44782152Y-66364852D01*
X44782152Y-66364852D01*
X44782152Y-66364852D01*
X44782152Y-66364852D01*
X44782152Y-66364852D01*
X44782151Y-66364852D01*
X44782151Y-66364852D01*
X44782151Y-66364852D01*
X44782151Y-66364852D01*
X44782151Y-66364852D01*
X44782151Y-66364852D01*
X44782151Y-66364852D01*
X44782151Y-66364852D01*
X44782151Y-66364852D01*
X44782151Y-66364852D01*
X44782151Y-66364852D01*
X44782151Y-66364852D01*
X44782150Y-66364852D01*
X44782150Y-66364852D01*
X44782150Y-66364852D01*
X44782150Y-66364852D01*
X44782150Y-66364852D01*
X44782150Y-66364852D01*
X44782150Y-66364851D01*
X44782150Y-66364851D01*
X44782150Y-66364851D01*
X44782150Y-66364851D01*
X44782150Y-66364851D01*
X44782150Y-66364851D01*
X44782150Y-66364851D02*
X44782150Y-66364851D01*
X44782150Y-66364851D01*
X44782150Y-66364851D01*
X44782150Y-66364851D01*
X44782150Y-66364851D01*
X44782150Y-66364851D01*
X44782150Y-66364850D01*
X44782150Y-66364850D01*
X44782150Y-66364850D01*
X44782150Y-66364850D01*
X44782150Y-66364850D01*
X44782151Y-66364850D01*
X44782151Y-66364850D01*
X44782151Y-66364850D01*
X44782151Y-66364850D01*
X44782151Y-66364850D01*
X44782151Y-66364850D01*
X44782151Y-66364850D01*
X44782151Y-66364850D01*
X44782151Y-66364850D01*
X44782151Y-66364850D01*
X44782151Y-66364850D01*
X44782151Y-66364850D01*
X44782152Y-66364850D01*
X44782152Y-66364850D01*
X44782152Y-66364850D01*
X44782152Y-66364850D01*
X44782152Y-66364850D01*
X44782152Y-66364850D01*
X44782152Y-66364851D01*
X44782152Y-66364851D01*
X44782152Y-66364851D01*
X44782152Y-66364851D01*
X44782152Y-66364851D01*
X44782152Y-66364851D01*
X44782152Y-66364851D01*
%TO.C,R37*%
D12*
X51337150Y-72773758D02*
X51337150Y-72466476D01*
X52097150Y-72773758D02*
X52097150Y-72466476D01*
%TO.C,R78*%
X44290791Y-54780117D02*
X43983509Y-54780117D01*
X44290791Y-55540117D02*
X43983509Y-55540117D01*
%TO.C,C68*%
X47208402Y-64895117D02*
X46685898Y-64895117D01*
X47208402Y-66365117D02*
X46685898Y-66365117D01*
%TO.C,J16*%
X66202150Y-55867027D02*
X66202150Y-54992027D01*
X66261585Y-55867027D02*
X66202150Y-55867027D01*
X66537120Y-54992027D02*
X66202150Y-54992027D01*
X67692150Y-54992027D02*
X67357180Y-54992027D01*
X67692150Y-55867027D02*
X67632715Y-55867027D01*
X67692150Y-55867027D02*
X67692150Y-54992027D01*
X67692150Y-56602027D02*
X67692150Y-57337027D01*
X67692150Y-57337027D02*
X66947150Y-57337027D01*
%TO.C,D15*%
X44057150Y-57317101D02*
X44057150Y-63127101D01*
X48357150Y-57317101D02*
X44057150Y-57317101D01*
X48357150Y-57317101D02*
X48357150Y-63127101D01*
%TO.C,Q20*%
D10*
X52231310Y-46912617D02*
X52341310Y-46912617D01*
X52231310Y-52882617D02*
X52231310Y-46912617D01*
X52341310Y-52882617D02*
X52231310Y-52882617D01*
X53381310Y-46912617D02*
X53611310Y-46912617D01*
X53601310Y-52882617D02*
X53391310Y-52882617D01*
X54651310Y-46912617D02*
X54881310Y-46912617D01*
X54871310Y-52882617D02*
X54651310Y-52882617D01*
X55921310Y-46912617D02*
X56151310Y-46912617D01*
X56141310Y-52882617D02*
X55921310Y-52882617D01*
X57191310Y-46912617D02*
X57311310Y-46912617D01*
X57311310Y-46912617D02*
X57311310Y-52882617D01*
X57311310Y-52882617D02*
X57191310Y-52882617D01*
D11*
X57431311Y-46022617D02*
X57431311Y-46022617D01*
X57431311Y-46022617D01*
X57431311Y-46022617D01*
X57431311Y-46022617D01*
X57431311Y-46022617D01*
X57431311Y-46022618D01*
X57431311Y-46022618D01*
X57431311Y-46022618D01*
X57431311Y-46022618D01*
X57431311Y-46022618D01*
X57431311Y-46022618D01*
X57431311Y-46022618D01*
X57431310Y-46022618D01*
X57431310Y-46022618D01*
X57431310Y-46022618D01*
X57431310Y-46022618D01*
X57431310Y-46022618D01*
X57431310Y-46022618D01*
X57431310Y-46022618D01*
X57431310Y-46022618D01*
X57431310Y-46022618D01*
X57431310Y-46022618D01*
X57431310Y-46022618D01*
X57431310Y-46022618D01*
X57431309Y-46022618D01*
X57431309Y-46022618D01*
X57431309Y-46022618D01*
X57431309Y-46022618D01*
X57431309Y-46022618D01*
X57431309Y-46022618D01*
X57431309Y-46022617D01*
X57431309Y-46022617D01*
X57431309Y-46022617D01*
X57431309Y-46022617D01*
X57431309Y-46022617D01*
X57431309Y-46022617D01*
X57431309Y-46022617D02*
X57431309Y-46022617D01*
X57431309Y-46022617D01*
X57431309Y-46022617D01*
X57431309Y-46022617D01*
X57431309Y-46022617D01*
X57431309Y-46022617D01*
X57431309Y-46022616D01*
X57431309Y-46022616D01*
X57431309Y-46022616D01*
X57431309Y-46022616D01*
X57431309Y-46022616D01*
X57431310Y-46022616D01*
X57431310Y-46022616D01*
X57431310Y-46022616D01*
X57431310Y-46022616D01*
X57431310Y-46022616D01*
X57431310Y-46022616D01*
X57431310Y-46022616D01*
X57431310Y-46022616D01*
X57431310Y-46022616D01*
X57431310Y-46022616D01*
X57431310Y-46022616D01*
X57431310Y-46022616D01*
X57431311Y-46022616D01*
X57431311Y-46022616D01*
X57431311Y-46022616D01*
X57431311Y-46022616D01*
X57431311Y-46022616D01*
X57431311Y-46022616D01*
X57431311Y-46022617D01*
X57431311Y-46022617D01*
X57431311Y-46022617D01*
X57431311Y-46022617D01*
X57431311Y-46022617D01*
X57431311Y-46022617D01*
X57431311Y-46022617D01*
%TO.C,R36*%
D12*
X61747150Y-76883976D02*
X61747150Y-77191258D01*
X62507150Y-76883976D02*
X62507150Y-77191258D01*
%TO.C,Q14*%
D10*
X68206310Y-46912617D02*
X68316310Y-46912617D01*
X68206310Y-52882617D02*
X68206310Y-46912617D01*
X68316310Y-52882617D02*
X68206310Y-52882617D01*
X69356310Y-46912617D02*
X69586310Y-46912617D01*
X69576310Y-52882617D02*
X69366310Y-52882617D01*
X70626310Y-46912617D02*
X70856310Y-46912617D01*
X70846310Y-52882617D02*
X70626310Y-52882617D01*
X71896310Y-46912617D02*
X72126310Y-46912617D01*
X72116310Y-52882617D02*
X71896310Y-52882617D01*
X73166310Y-46912617D02*
X73286310Y-46912617D01*
X73286310Y-46912617D02*
X73286310Y-52882617D01*
X73286310Y-52882617D02*
X73166310Y-52882617D01*
D11*
X73406311Y-46022617D02*
X73406311Y-46022617D01*
X73406311Y-46022617D01*
X73406311Y-46022617D01*
X73406311Y-46022617D01*
X73406311Y-46022617D01*
X73406311Y-46022618D01*
X73406311Y-46022618D01*
X73406311Y-46022618D01*
X73406311Y-46022618D01*
X73406311Y-46022618D01*
X73406311Y-46022618D01*
X73406311Y-46022618D01*
X73406310Y-46022618D01*
X73406310Y-46022618D01*
X73406310Y-46022618D01*
X73406310Y-46022618D01*
X73406310Y-46022618D01*
X73406310Y-46022618D01*
X73406310Y-46022618D01*
X73406310Y-46022618D01*
X73406310Y-46022618D01*
X73406310Y-46022618D01*
X73406310Y-46022618D01*
X73406310Y-46022618D01*
X73406309Y-46022618D01*
X73406309Y-46022618D01*
X73406309Y-46022618D01*
X73406309Y-46022618D01*
X73406309Y-46022618D01*
X73406309Y-46022618D01*
X73406309Y-46022617D01*
X73406309Y-46022617D01*
X73406309Y-46022617D01*
X73406309Y-46022617D01*
X73406309Y-46022617D01*
X73406309Y-46022617D01*
X73406309Y-46022617D02*
X73406309Y-46022617D01*
X73406309Y-46022617D01*
X73406309Y-46022617D01*
X73406309Y-46022617D01*
X73406309Y-46022617D01*
X73406309Y-46022617D01*
X73406309Y-46022616D01*
X73406309Y-46022616D01*
X73406309Y-46022616D01*
X73406309Y-46022616D01*
X73406309Y-46022616D01*
X73406310Y-46022616D01*
X73406310Y-46022616D01*
X73406310Y-46022616D01*
X73406310Y-46022616D01*
X73406310Y-46022616D01*
X73406310Y-46022616D01*
X73406310Y-46022616D01*
X73406310Y-46022616D01*
X73406310Y-46022616D01*
X73406310Y-46022616D01*
X73406310Y-46022616D01*
X73406310Y-46022616D01*
X73406311Y-46022616D01*
X73406311Y-46022616D01*
X73406311Y-46022616D01*
X73406311Y-46022616D01*
X73406311Y-46022616D01*
X73406311Y-46022616D01*
X73406311Y-46022617D01*
X73406311Y-46022617D01*
X73406311Y-46022617D01*
X73406311Y-46022617D01*
X73406311Y-46022617D01*
X73406311Y-46022617D01*
X73406311Y-46022617D01*
%TO.C,C63*%
D12*
X67168748Y-59565000D02*
X67691252Y-59565000D01*
X67168748Y-58095000D02*
X67691252Y-58095000D01*
%TO.C,J15*%
X70647150Y-57376666D02*
X71407150Y-57376666D01*
X70647150Y-58111666D02*
X70647150Y-57376666D01*
X70647150Y-58846666D02*
X70647150Y-64721666D01*
X70647150Y-58846666D02*
X70721585Y-58846666D01*
X70647150Y-64721666D02*
X70997120Y-64721666D01*
X71817180Y-64721666D02*
X71997120Y-64721666D01*
X72817180Y-57501666D02*
X73167150Y-57501666D01*
X72817180Y-64721666D02*
X73167150Y-64721666D01*
X73167150Y-57501666D02*
X73167150Y-64721666D01*
%TO.C,R76*%
X62157150Y-45073758D02*
X62157150Y-44766476D01*
X62917150Y-45073758D02*
X62917150Y-44766476D01*
%TO.C,C64*%
X64395000Y-55808748D02*
X64395000Y-56331252D01*
X65865000Y-55808748D02*
X65865000Y-56331252D01*
%TO.C,C66*%
X50795898Y-59545117D02*
X51318402Y-59545117D01*
X50795898Y-61015117D02*
X51318402Y-61015117D01*
%TO.C,R77*%
X51357150Y-49146476D02*
X51357150Y-49453758D01*
X52117150Y-49146476D02*
X52117150Y-49453758D01*
%TO.C,R8*%
X81433509Y-66710117D02*
X81740791Y-66710117D01*
X81433509Y-67470117D02*
X81740791Y-67470117D01*
%TO.C,J22*%
X66202150Y-64905117D02*
X66947150Y-64905117D01*
X66202150Y-65640117D02*
X66202150Y-64905117D01*
X66202150Y-66375117D02*
X66202150Y-67250117D01*
X66202150Y-66375117D02*
X66261585Y-66375117D01*
X66202150Y-67250117D02*
X66537120Y-67250117D01*
X67357180Y-67250117D02*
X67692150Y-67250117D01*
X67632715Y-66375117D02*
X67692150Y-66375117D01*
X67692150Y-66375117D02*
X67692150Y-67250117D01*
%TO.C,Q3*%
D10*
X68201311Y-69322618D02*
X68321311Y-69322618D01*
X68201311Y-75292618D02*
X68201311Y-69322618D01*
X68321311Y-75292618D02*
X68201311Y-75292618D01*
X69371311Y-69322618D02*
X69591311Y-69322618D01*
X69591311Y-75292618D02*
X69361311Y-75292618D01*
X70641311Y-69322618D02*
X70861311Y-69322618D01*
X70861311Y-75292618D02*
X70631311Y-75292618D01*
X71911311Y-69322618D02*
X72121311Y-69322618D01*
X72131311Y-75292618D02*
X71901311Y-75292618D01*
X73171311Y-69322618D02*
X73281311Y-69322618D01*
X73281311Y-69322618D02*
X73281311Y-75292618D01*
X73281311Y-75292618D02*
X73171311Y-75292618D01*
D11*
X68081312Y-76182618D02*
X68081312Y-76182618D01*
X68081312Y-76182618D01*
X68081312Y-76182618D01*
X68081312Y-76182618D01*
X68081312Y-76182618D01*
X68081312Y-76182619D01*
X68081312Y-76182619D01*
X68081312Y-76182619D01*
X68081312Y-76182619D01*
X68081312Y-76182619D01*
X68081312Y-76182619D01*
X68081312Y-76182619D01*
X68081311Y-76182619D01*
X68081311Y-76182619D01*
X68081311Y-76182619D01*
X68081311Y-76182619D01*
X68081311Y-76182619D01*
X68081311Y-76182619D01*
X68081311Y-76182619D01*
X68081311Y-76182619D01*
X68081311Y-76182619D01*
X68081311Y-76182619D01*
X68081311Y-76182619D01*
X68081311Y-76182619D01*
X68081310Y-76182619D01*
X68081310Y-76182619D01*
X68081310Y-76182619D01*
X68081310Y-76182619D01*
X68081310Y-76182619D01*
X68081310Y-76182619D01*
X68081310Y-76182618D01*
X68081310Y-76182618D01*
X68081310Y-76182618D01*
X68081310Y-76182618D01*
X68081310Y-76182618D01*
X68081310Y-76182618D01*
X68081310Y-76182618D02*
X68081310Y-76182618D01*
X68081310Y-76182618D01*
X68081310Y-76182618D01*
X68081310Y-76182618D01*
X68081310Y-76182618D01*
X68081310Y-76182618D01*
X68081310Y-76182617D01*
X68081310Y-76182617D01*
X68081310Y-76182617D01*
X68081310Y-76182617D01*
X68081310Y-76182617D01*
X68081311Y-76182617D01*
X68081311Y-76182617D01*
X68081311Y-76182617D01*
X68081311Y-76182617D01*
X68081311Y-76182617D01*
X68081311Y-76182617D01*
X68081311Y-76182617D01*
X68081311Y-76182617D01*
X68081311Y-76182617D01*
X68081311Y-76182617D01*
X68081311Y-76182617D01*
X68081311Y-76182617D01*
X68081312Y-76182617D01*
X68081312Y-76182617D01*
X68081312Y-76182617D01*
X68081312Y-76182617D01*
X68081312Y-76182617D01*
X68081312Y-76182617D01*
X68081312Y-76182618D01*
X68081312Y-76182618D01*
X68081312Y-76182618D01*
X68081312Y-76182618D01*
X68081312Y-76182618D01*
X68081312Y-76182618D01*
X68081312Y-76182618D01*
%TO.C,R6*%
D12*
X73547150Y-72651258D02*
X73547150Y-72343976D01*
X74307150Y-72651258D02*
X74307150Y-72343976D01*
%TO.C,Q5*%
D10*
X74117150Y-66507617D02*
X80087150Y-66507617D01*
X74117150Y-66617617D02*
X74117150Y-66507617D01*
X74117150Y-67877617D02*
X74117150Y-67667617D01*
X74117150Y-69147617D02*
X74117150Y-68927617D01*
X74117150Y-70417617D02*
X74117150Y-70197617D01*
X74117150Y-71587617D02*
X74117150Y-71467617D01*
X80087150Y-66507617D02*
X80087150Y-66617617D01*
X80087150Y-67657617D02*
X80087150Y-67887617D01*
X80087150Y-68927617D02*
X80087150Y-69157617D01*
X80087150Y-70197617D02*
X80087150Y-70427617D01*
X80087150Y-71467617D02*
X80087150Y-71587617D01*
X80087150Y-71587617D02*
X74117150Y-71587617D01*
D11*
X80977151Y-71707617D02*
X80977151Y-71707617D01*
X80977151Y-71707617D01*
X80977151Y-71707617D01*
X80977151Y-71707617D01*
X80977151Y-71707617D01*
X80977151Y-71707618D01*
X80977151Y-71707618D01*
X80977151Y-71707618D01*
X80977151Y-71707618D01*
X80977151Y-71707618D01*
X80977151Y-71707618D01*
X80977151Y-71707618D01*
X80977150Y-71707618D01*
X80977150Y-71707618D01*
X80977150Y-71707618D01*
X80977150Y-71707618D01*
X80977150Y-71707618D01*
X80977150Y-71707618D01*
X80977150Y-71707618D01*
X80977150Y-71707618D01*
X80977150Y-71707618D01*
X80977150Y-71707618D01*
X80977150Y-71707618D01*
X80977150Y-71707618D01*
X80977149Y-71707618D01*
X80977149Y-71707618D01*
X80977149Y-71707618D01*
X80977149Y-71707618D01*
X80977149Y-71707618D01*
X80977149Y-71707618D01*
X80977149Y-71707617D01*
X80977149Y-71707617D01*
X80977149Y-71707617D01*
X80977149Y-71707617D01*
X80977149Y-71707617D01*
X80977149Y-71707617D01*
X80977149Y-71707617D02*
X80977149Y-71707617D01*
X80977149Y-71707617D01*
X80977149Y-71707617D01*
X80977149Y-71707617D01*
X80977149Y-71707617D01*
X80977149Y-71707617D01*
X80977149Y-71707616D01*
X80977149Y-71707616D01*
X80977149Y-71707616D01*
X80977149Y-71707616D01*
X80977149Y-71707616D01*
X80977150Y-71707616D01*
X80977150Y-71707616D01*
X80977150Y-71707616D01*
X80977150Y-71707616D01*
X80977150Y-71707616D01*
X80977150Y-71707616D01*
X80977150Y-71707616D01*
X80977150Y-71707616D01*
X80977150Y-71707616D01*
X80977150Y-71707616D01*
X80977150Y-71707616D01*
X80977150Y-71707616D01*
X80977151Y-71707616D01*
X80977151Y-71707616D01*
X80977151Y-71707616D01*
X80977151Y-71707616D01*
X80977151Y-71707616D01*
X80977151Y-71707616D01*
X80977151Y-71707617D01*
X80977151Y-71707617D01*
X80977151Y-71707617D01*
X80977151Y-71707617D01*
X80977151Y-71707617D01*
X80977151Y-71707617D01*
X80977151Y-71707617D01*
%TO.C,C60*%
D12*
X60682150Y-67281369D02*
X60682150Y-66758865D01*
X62152150Y-67281369D02*
X62152150Y-66758865D01*
%TO.C,Q19*%
D10*
X57556310Y-46912617D02*
X57666310Y-46912617D01*
X57556310Y-52882617D02*
X57556310Y-46912617D01*
X57666310Y-52882617D02*
X57556310Y-52882617D01*
X58706310Y-46912617D02*
X58936310Y-46912617D01*
X58926310Y-52882617D02*
X58716310Y-52882617D01*
X59976310Y-46912617D02*
X60206310Y-46912617D01*
X60196310Y-52882617D02*
X59976310Y-52882617D01*
X61246310Y-46912617D02*
X61476310Y-46912617D01*
X61466310Y-52882617D02*
X61246310Y-52882617D01*
X62516310Y-46912617D02*
X62636310Y-46912617D01*
X62636310Y-46912617D02*
X62636310Y-52882617D01*
X62636310Y-52882617D02*
X62516310Y-52882617D01*
D11*
X62756311Y-46022617D02*
X62756311Y-46022617D01*
X62756311Y-46022617D01*
X62756311Y-46022617D01*
X62756311Y-46022617D01*
X62756311Y-46022617D01*
X62756311Y-46022618D01*
X62756311Y-46022618D01*
X62756311Y-46022618D01*
X62756311Y-46022618D01*
X62756311Y-46022618D01*
X62756311Y-46022618D01*
X62756311Y-46022618D01*
X62756310Y-46022618D01*
X62756310Y-46022618D01*
X62756310Y-46022618D01*
X62756310Y-46022618D01*
X62756310Y-46022618D01*
X62756310Y-46022618D01*
X62756310Y-46022618D01*
X62756310Y-46022618D01*
X62756310Y-46022618D01*
X62756310Y-46022618D01*
X62756310Y-46022618D01*
X62756310Y-46022618D01*
X62756309Y-46022618D01*
X62756309Y-46022618D01*
X62756309Y-46022618D01*
X62756309Y-46022618D01*
X62756309Y-46022618D01*
X62756309Y-46022618D01*
X62756309Y-46022617D01*
X62756309Y-46022617D01*
X62756309Y-46022617D01*
X62756309Y-46022617D01*
X62756309Y-46022617D01*
X62756309Y-46022617D01*
X62756309Y-46022617D02*
X62756309Y-46022617D01*
X62756309Y-46022617D01*
X62756309Y-46022617D01*
X62756309Y-46022617D01*
X62756309Y-46022617D01*
X62756309Y-46022617D01*
X62756309Y-46022616D01*
X62756309Y-46022616D01*
X62756309Y-46022616D01*
X62756309Y-46022616D01*
X62756309Y-46022616D01*
X62756310Y-46022616D01*
X62756310Y-46022616D01*
X62756310Y-46022616D01*
X62756310Y-46022616D01*
X62756310Y-46022616D01*
X62756310Y-46022616D01*
X62756310Y-46022616D01*
X62756310Y-46022616D01*
X62756310Y-46022616D01*
X62756310Y-46022616D01*
X62756310Y-46022616D01*
X62756310Y-46022616D01*
X62756311Y-46022616D01*
X62756311Y-46022616D01*
X62756311Y-46022616D01*
X62756311Y-46022616D01*
X62756311Y-46022616D01*
X62756311Y-46022616D01*
X62756311Y-46022617D01*
X62756311Y-46022617D01*
X62756311Y-46022617D01*
X62756311Y-46022617D01*
X62756311Y-46022617D01*
X62756311Y-46022617D01*
X62756311Y-46022617D01*
%TO.C,J18*%
D12*
X58552150Y-64882611D02*
X59297150Y-64882611D01*
X58552150Y-65617611D02*
X58552150Y-64882611D01*
X58552150Y-66352611D02*
X58552150Y-67227611D01*
X58552150Y-66352611D02*
X58611585Y-66352611D01*
X58552150Y-67227611D02*
X58887120Y-67227611D01*
X59707180Y-67227611D02*
X60042150Y-67227611D01*
X59982715Y-66352611D02*
X60042150Y-66352611D01*
X60042150Y-66352611D02*
X60042150Y-67227611D01*
%TO.C,C67*%
X62382150Y-67279651D02*
X62382150Y-66757147D01*
X63852150Y-67279651D02*
X63852150Y-66757147D01*
%TO.C,C62*%
X56941252Y-59485000D02*
X56418748Y-59485000D01*
X56941252Y-58015000D02*
X56418748Y-58015000D01*
%TO.C,C34*%
X75845898Y-57915117D02*
X76368402Y-57915117D01*
X75845898Y-59385117D02*
X76368402Y-59385117D01*
%TO.C,J27*%
X67817150Y-64870117D02*
X67817150Y-65220087D01*
X67817150Y-66040147D02*
X67817150Y-66220087D01*
X67817150Y-67040147D02*
X67817150Y-67390117D01*
X71692150Y-64870117D02*
X67817150Y-64870117D01*
X71692150Y-64870117D02*
X71692150Y-64944552D01*
X72427150Y-64870117D02*
X73162150Y-64870117D01*
X73037150Y-67040147D02*
X73037150Y-67390117D01*
X73037150Y-67390117D02*
X67817150Y-67390117D01*
X73162150Y-64870117D02*
X73162150Y-65630117D01*
%TO.C,L1*%
D13*
X74285000Y-60325000D02*
X79835000Y-60325000D01*
X79835000Y-65675000D01*
X74285000Y-65675000D01*
X74285000Y-60325000D01*
%TO.C,C59*%
D12*
X50795897Y-61505117D02*
X51318401Y-61505117D01*
X50795897Y-62975117D02*
X51318401Y-62975117D01*
%TO.C,R4*%
X62717150Y-77716476D02*
X62717150Y-78023758D01*
X63477150Y-77716476D02*
X63477150Y-78023758D01*
%TO.C,C79*%
X80172150Y-64311369D02*
X80172150Y-63788865D01*
X81642150Y-64311369D02*
X81642150Y-63788865D01*
%TO.C,C61*%
X50795898Y-57585117D02*
X51318402Y-57585117D01*
X50795898Y-59055117D02*
X51318402Y-59055117D01*
%TO.C,Q8*%
D10*
X52236310Y-69322617D02*
X52356310Y-69322617D01*
X52236310Y-75292617D02*
X52236310Y-69322617D01*
X52356310Y-75292617D02*
X52236310Y-75292617D01*
X53406310Y-69322617D02*
X53626310Y-69322617D01*
X53626310Y-75292617D02*
X53396310Y-75292617D01*
X54676310Y-69322617D02*
X54896310Y-69322617D01*
X54896310Y-75292617D02*
X54666310Y-75292617D01*
X55946310Y-69322617D02*
X56156310Y-69322617D01*
X56166310Y-75292617D02*
X55936310Y-75292617D01*
X57206310Y-69322617D02*
X57316310Y-69322617D01*
X57316310Y-69322617D02*
X57316310Y-75292617D01*
X57316310Y-75292617D02*
X57206310Y-75292617D01*
D11*
X52116311Y-76182617D02*
X52116311Y-76182617D01*
X52116311Y-76182617D01*
X52116311Y-76182617D01*
X52116311Y-76182617D01*
X52116311Y-76182617D01*
X52116311Y-76182618D01*
X52116311Y-76182618D01*
X52116311Y-76182618D01*
X52116311Y-76182618D01*
X52116311Y-76182618D01*
X52116311Y-76182618D01*
X52116311Y-76182618D01*
X52116310Y-76182618D01*
X52116310Y-76182618D01*
X52116310Y-76182618D01*
X52116310Y-76182618D01*
X52116310Y-76182618D01*
X52116310Y-76182618D01*
X52116310Y-76182618D01*
X52116310Y-76182618D01*
X52116310Y-76182618D01*
X52116310Y-76182618D01*
X52116310Y-76182618D01*
X52116310Y-76182618D01*
X52116309Y-76182618D01*
X52116309Y-76182618D01*
X52116309Y-76182618D01*
X52116309Y-76182618D01*
X52116309Y-76182618D01*
X52116309Y-76182618D01*
X52116309Y-76182617D01*
X52116309Y-76182617D01*
X52116309Y-76182617D01*
X52116309Y-76182617D01*
X52116309Y-76182617D01*
X52116309Y-76182617D01*
X52116309Y-76182617D02*
X52116309Y-76182617D01*
X52116309Y-76182617D01*
X52116309Y-76182617D01*
X52116309Y-76182617D01*
X52116309Y-76182617D01*
X52116309Y-76182617D01*
X52116309Y-76182616D01*
X52116309Y-76182616D01*
X52116309Y-76182616D01*
X52116309Y-76182616D01*
X52116309Y-76182616D01*
X52116310Y-76182616D01*
X52116310Y-76182616D01*
X52116310Y-76182616D01*
X52116310Y-76182616D01*
X52116310Y-76182616D01*
X52116310Y-76182616D01*
X52116310Y-76182616D01*
X52116310Y-76182616D01*
X52116310Y-76182616D01*
X52116310Y-76182616D01*
X52116310Y-76182616D01*
X52116310Y-76182616D01*
X52116311Y-76182616D01*
X52116311Y-76182616D01*
X52116311Y-76182616D01*
X52116311Y-76182616D01*
X52116311Y-76182616D01*
X52116311Y-76182616D01*
X52116311Y-76182617D01*
X52116311Y-76182617D01*
X52116311Y-76182617D01*
X52116311Y-76182617D01*
X52116311Y-76182617D01*
X52116311Y-76182617D01*
X52116311Y-76182617D01*
%TO.C,J17*%
D12*
X58532150Y-55863818D02*
X58532150Y-54988818D01*
X58591585Y-55863818D02*
X58532150Y-55863818D01*
X58867120Y-54988818D02*
X58532150Y-54988818D01*
X60022150Y-54988818D02*
X59687180Y-54988818D01*
X60022150Y-55863818D02*
X59962715Y-55863818D01*
X60022150Y-55863818D02*
X60022150Y-54988818D01*
X60022150Y-56598818D02*
X60022150Y-57333818D01*
X60022150Y-57333818D02*
X59277150Y-57333818D01*
%TO.C,C65*%
X64092150Y-67278840D02*
X64092150Y-66756336D01*
X65562150Y-67278840D02*
X65562150Y-66756336D01*
%TO.C,Q15*%
D10*
X74126395Y-50420117D02*
X80096395Y-50420117D01*
X74126395Y-50530117D02*
X74126395Y-50420117D01*
X74126395Y-51790117D02*
X74126395Y-51580117D01*
X74126395Y-53060117D02*
X74126395Y-52840117D01*
X74126395Y-54330117D02*
X74126395Y-54110117D01*
X74126395Y-55500117D02*
X74126395Y-55380117D01*
X80096395Y-50420117D02*
X80096395Y-50530117D01*
X80096395Y-51570117D02*
X80096395Y-51800117D01*
X80096395Y-52840117D02*
X80096395Y-53070117D01*
X80096395Y-54110117D02*
X80096395Y-54340117D01*
X80096395Y-55380117D02*
X80096395Y-55500117D01*
X80096395Y-55500117D02*
X74126395Y-55500117D01*
D11*
X80986396Y-55620117D02*
X80986396Y-55620117D01*
X80986396Y-55620117D01*
X80986396Y-55620117D01*
X80986396Y-55620117D01*
X80986396Y-55620117D01*
X80986396Y-55620118D01*
X80986396Y-55620118D01*
X80986396Y-55620118D01*
X80986396Y-55620118D01*
X80986396Y-55620118D01*
X80986396Y-55620118D01*
X80986396Y-55620118D01*
X80986395Y-55620118D01*
X80986395Y-55620118D01*
X80986395Y-55620118D01*
X80986395Y-55620118D01*
X80986395Y-55620118D01*
X80986395Y-55620118D01*
X80986395Y-55620118D01*
X80986395Y-55620118D01*
X80986395Y-55620118D01*
X80986395Y-55620118D01*
X80986395Y-55620118D01*
X80986395Y-55620118D01*
X80986394Y-55620118D01*
X80986394Y-55620118D01*
X80986394Y-55620118D01*
X80986394Y-55620118D01*
X80986394Y-55620118D01*
X80986394Y-55620118D01*
X80986394Y-55620117D01*
X80986394Y-55620117D01*
X80986394Y-55620117D01*
X80986394Y-55620117D01*
X80986394Y-55620117D01*
X80986394Y-55620117D01*
X80986394Y-55620117D02*
X80986394Y-55620117D01*
X80986394Y-55620117D01*
X80986394Y-55620117D01*
X80986394Y-55620117D01*
X80986394Y-55620117D01*
X80986394Y-55620117D01*
X80986394Y-55620116D01*
X80986394Y-55620116D01*
X80986394Y-55620116D01*
X80986394Y-55620116D01*
X80986394Y-55620116D01*
X80986395Y-55620116D01*
X80986395Y-55620116D01*
X80986395Y-55620116D01*
X80986395Y-55620116D01*
X80986395Y-55620116D01*
X80986395Y-55620116D01*
X80986395Y-55620116D01*
X80986395Y-55620116D01*
X80986395Y-55620116D01*
X80986395Y-55620116D01*
X80986395Y-55620116D01*
X80986395Y-55620116D01*
X80986396Y-55620116D01*
X80986396Y-55620116D01*
X80986396Y-55620116D01*
X80986396Y-55620116D01*
X80986396Y-55620116D01*
X80986396Y-55620116D01*
X80986396Y-55620117D01*
X80986396Y-55620117D01*
X80986396Y-55620117D01*
X80986396Y-55620117D01*
X80986396Y-55620117D01*
X80986396Y-55620117D01*
X80986396Y-55620117D01*
%TO.C,J19*%
D12*
X67692149Y-57371853D02*
X67692149Y-56611853D01*
X67817149Y-54851853D02*
X73037149Y-54851853D01*
X67817149Y-55201823D02*
X67817149Y-54851853D01*
X68427149Y-57371853D02*
X67692149Y-57371853D01*
X69162149Y-57371853D02*
X69162149Y-57297418D01*
X69162149Y-57371853D02*
X73037149Y-57371853D01*
X73037149Y-55201823D02*
X73037149Y-54851853D01*
X73037149Y-56201823D02*
X73037149Y-56021883D01*
X73037149Y-57371853D02*
X73037149Y-57021883D01*
%TO.C,R56*%
X63117150Y-45523758D02*
X63117150Y-45216476D01*
X63877150Y-45523758D02*
X63877150Y-45216476D01*
%TO.C,Q21*%
D10*
X45667150Y-50671402D02*
X51637150Y-50671402D01*
X45667150Y-50791402D02*
X45667150Y-50671402D01*
X45667150Y-52061402D02*
X45667150Y-51831402D01*
X45667150Y-53331402D02*
X45667150Y-53101402D01*
X45667150Y-54601402D02*
X45667150Y-54371402D01*
X45667150Y-55751402D02*
X45667150Y-55641402D01*
X51637150Y-50671402D02*
X51637150Y-50791402D01*
X51637150Y-51841402D02*
X51637150Y-52061402D01*
X51637150Y-53111402D02*
X51637150Y-53331402D01*
X51637150Y-54381402D02*
X51637150Y-54591402D01*
X51637150Y-55641402D02*
X51637150Y-55751402D01*
X51637150Y-55751402D02*
X45667150Y-55751402D01*
D11*
X44777151Y-50551402D02*
X44777151Y-50551402D01*
X44777151Y-50551402D01*
X44777151Y-50551402D01*
X44777151Y-50551402D01*
X44777151Y-50551402D01*
X44777151Y-50551403D01*
X44777151Y-50551403D01*
X44777151Y-50551403D01*
X44777151Y-50551403D01*
X44777151Y-50551403D01*
X44777151Y-50551403D01*
X44777151Y-50551403D01*
X44777150Y-50551403D01*
X44777150Y-50551403D01*
X44777150Y-50551403D01*
X44777150Y-50551403D01*
X44777150Y-50551403D01*
X44777150Y-50551403D01*
X44777150Y-50551403D01*
X44777150Y-50551403D01*
X44777150Y-50551403D01*
X44777150Y-50551403D01*
X44777150Y-50551403D01*
X44777150Y-50551403D01*
X44777149Y-50551403D01*
X44777149Y-50551403D01*
X44777149Y-50551403D01*
X44777149Y-50551403D01*
X44777149Y-50551403D01*
X44777149Y-50551403D01*
X44777149Y-50551402D01*
X44777149Y-50551402D01*
X44777149Y-50551402D01*
X44777149Y-50551402D01*
X44777149Y-50551402D01*
X44777149Y-50551402D01*
X44777149Y-50551402D02*
X44777149Y-50551402D01*
X44777149Y-50551402D01*
X44777149Y-50551402D01*
X44777149Y-50551402D01*
X44777149Y-50551402D01*
X44777149Y-50551402D01*
X44777149Y-50551401D01*
X44777149Y-50551401D01*
X44777149Y-50551401D01*
X44777149Y-50551401D01*
X44777149Y-50551401D01*
X44777150Y-50551401D01*
X44777150Y-50551401D01*
X44777150Y-50551401D01*
X44777150Y-50551401D01*
X44777150Y-50551401D01*
X44777150Y-50551401D01*
X44777150Y-50551401D01*
X44777150Y-50551401D01*
X44777150Y-50551401D01*
X44777150Y-50551401D01*
X44777150Y-50551401D01*
X44777150Y-50551401D01*
X44777151Y-50551401D01*
X44777151Y-50551401D01*
X44777151Y-50551401D01*
X44777151Y-50551401D01*
X44777151Y-50551401D01*
X44777151Y-50551401D01*
X44777151Y-50551402D01*
X44777151Y-50551402D01*
X44777151Y-50551402D01*
X44777151Y-50551402D01*
X44777151Y-50551402D01*
X44777151Y-50551402D01*
X44777151Y-50551402D01*
%TO.C,J4*%
D12*
X83422150Y-55995550D02*
X83422150Y-57045550D01*
X83422150Y-65165550D02*
X82432150Y-65165550D01*
X83422150Y-66215550D02*
X83422150Y-65165550D01*
X85922150Y-55995550D02*
X83422150Y-55995550D01*
X85922150Y-66215550D02*
X83422150Y-66215550D01*
X87892150Y-65045550D02*
X87892150Y-57165550D01*
%TO.C,J20*%
X53182150Y-57360117D02*
X53182150Y-56600117D01*
X53307150Y-54840117D02*
X58527150Y-54840117D01*
X53307150Y-55190087D02*
X53307150Y-54840117D01*
X53917150Y-57360117D02*
X53182150Y-57360117D01*
X54652150Y-57360117D02*
X54652150Y-57285682D01*
X54652150Y-57360117D02*
X58527150Y-57360117D01*
X58527150Y-55190087D02*
X58527150Y-54840117D01*
X58527150Y-56190087D02*
X58527150Y-56010147D01*
X58527150Y-57360117D02*
X58527150Y-57010147D01*
%TO.C,R58*%
X80766359Y-49920000D02*
X81073641Y-49920000D01*
X80766359Y-50680000D02*
X81073641Y-50680000D01*
%TO.C,J28*%
X53307150Y-64850117D02*
X53307150Y-65200087D01*
X53307150Y-66020147D02*
X53307150Y-66200087D01*
X53307150Y-67020147D02*
X53307150Y-67370117D01*
X57182150Y-64850117D02*
X53307150Y-64850117D01*
X57182150Y-64850117D02*
X57182150Y-64924552D01*
X57917150Y-64850117D02*
X58652150Y-64850117D01*
X58527150Y-67020147D02*
X58527150Y-67370117D01*
X58527150Y-67370117D02*
X53307150Y-67370117D01*
X58652150Y-64850117D02*
X58652150Y-65610117D01*
%TO.C,Q7*%
D10*
X57561310Y-69322617D02*
X57681310Y-69322617D01*
X57561310Y-75292617D02*
X57561310Y-69322617D01*
X57681310Y-75292617D02*
X57561310Y-75292617D01*
X58731310Y-69322617D02*
X58951310Y-69322617D01*
X58951310Y-75292617D02*
X58721310Y-75292617D01*
X60001310Y-69322617D02*
X60221310Y-69322617D01*
X60221310Y-75292617D02*
X59991310Y-75292617D01*
X61271310Y-69322617D02*
X61481310Y-69322617D01*
X61491310Y-75292617D02*
X61261310Y-75292617D01*
X62531310Y-69322617D02*
X62641310Y-69322617D01*
X62641310Y-69322617D02*
X62641310Y-75292617D01*
X62641310Y-75292617D02*
X62531310Y-75292617D01*
D11*
X57441311Y-76182617D02*
X57441311Y-76182617D01*
X57441311Y-76182617D01*
X57441311Y-76182617D01*
X57441311Y-76182617D01*
X57441311Y-76182617D01*
X57441311Y-76182618D01*
X57441311Y-76182618D01*
X57441311Y-76182618D01*
X57441311Y-76182618D01*
X57441311Y-76182618D01*
X57441311Y-76182618D01*
X57441311Y-76182618D01*
X57441310Y-76182618D01*
X57441310Y-76182618D01*
X57441310Y-76182618D01*
X57441310Y-76182618D01*
X57441310Y-76182618D01*
X57441310Y-76182618D01*
X57441310Y-76182618D01*
X57441310Y-76182618D01*
X57441310Y-76182618D01*
X57441310Y-76182618D01*
X57441310Y-76182618D01*
X57441310Y-76182618D01*
X57441309Y-76182618D01*
X57441309Y-76182618D01*
X57441309Y-76182618D01*
X57441309Y-76182618D01*
X57441309Y-76182618D01*
X57441309Y-76182618D01*
X57441309Y-76182617D01*
X57441309Y-76182617D01*
X57441309Y-76182617D01*
X57441309Y-76182617D01*
X57441309Y-76182617D01*
X57441309Y-76182617D01*
X57441309Y-76182617D02*
X57441309Y-76182617D01*
X57441309Y-76182617D01*
X57441309Y-76182617D01*
X57441309Y-76182617D01*
X57441309Y-76182617D01*
X57441309Y-76182617D01*
X57441309Y-76182616D01*
X57441309Y-76182616D01*
X57441309Y-76182616D01*
X57441309Y-76182616D01*
X57441309Y-76182616D01*
X57441310Y-76182616D01*
X57441310Y-76182616D01*
X57441310Y-76182616D01*
X57441310Y-76182616D01*
X57441310Y-76182616D01*
X57441310Y-76182616D01*
X57441310Y-76182616D01*
X57441310Y-76182616D01*
X57441310Y-76182616D01*
X57441310Y-76182616D01*
X57441310Y-76182616D01*
X57441310Y-76182616D01*
X57441311Y-76182616D01*
X57441311Y-76182616D01*
X57441311Y-76182616D01*
X57441311Y-76182616D01*
X57441311Y-76182616D01*
X57441311Y-76182616D01*
X57441311Y-76182617D01*
X57441311Y-76182617D01*
X57441311Y-76182617D01*
X57441311Y-76182617D01*
X57441311Y-76182617D01*
X57441311Y-76182617D01*
X57441311Y-76182617D01*
%TO.C,C71*%
D12*
X41477150Y-58356906D02*
X41814150Y-58356906D01*
X41477150Y-63596906D02*
X41477150Y-58356906D01*
X41814150Y-63596906D02*
X41477150Y-63596906D01*
X43880150Y-58356906D02*
X44217150Y-58356906D01*
X44217150Y-58356906D02*
X44217150Y-63596906D01*
X44217150Y-63596906D02*
X43880150Y-63596906D01*
%TD*%
G36*
X43617627Y-56338032D02*
G01*
X43663382Y-56390836D01*
X43674588Y-56442347D01*
X43674588Y-60301861D01*
X43654903Y-60368900D01*
X43602099Y-60414655D01*
X43550588Y-60425861D01*
X38410250Y-60425861D01*
X38343211Y-60406176D01*
X38297456Y-60353372D01*
X38286250Y-60301861D01*
X38286250Y-56442347D01*
X38305935Y-56375308D01*
X38358739Y-56329553D01*
X38410250Y-56318347D01*
X43550588Y-56318347D01*
X43617627Y-56338032D01*
G37*
G36*
X43617627Y-61557688D02*
G01*
X43663382Y-61610492D01*
X43674588Y-61662003D01*
X43674588Y-65521517D01*
X43654903Y-65588556D01*
X43602099Y-65634311D01*
X43550588Y-65645517D01*
X38410250Y-65645517D01*
X38343211Y-65625832D01*
X38297456Y-65573028D01*
X38286250Y-65521517D01*
X38286250Y-61662003D01*
X38305935Y-61594964D01*
X38358739Y-61549209D01*
X38410250Y-61538003D01*
X43550588Y-61538003D01*
X43617627Y-61557688D01*
G37*
M02*
